<?xml version="1.0" encoding="utf-8" ?>
<svg xmlns="http://www.w3.org/2000/svg" xmlns:xlink="http://www.w3.org/1999/xlink" width="2504" height="2504">
	<path fill="#F2F2F2" transform="scale(3.26128 3.26128)" d="M0 0.1875C1.70241 -0.185587 3.61693 -0.00979729 5.35479 -0.0090068C8.44963 -0.00759905 11.5445 -0.00845752 14.6393 -0.00881649C26.6055 -0.0102045 38.5716 -0.00977825 50.5378 -0.00976663C98.2915 -0.00972023 146.045 -0.00952629 193.799 -0.0102393C385.199 -0.0130972 576.6 -0.00755292 768 0L768 767.812C766.298 768.186 764.383 768.01 762.645 768.009C759.55 768.008 756.456 768.008 753.361 768.009C741.395 768.01 729.428 768.01 717.462 768.01C669.708 768.01 621.955 768.01 574.201 768.01C382.801 768.013 191.4 768.008 -0 768L0 0.1875Z"/>
	<path fill="#82716B" transform="scale(3.26128 3.26128)" d="M471.593 219.188C472.028 219.052 472.194 218.982 472.689 218.928C473.962 218.79 474.485 218.933 475.393 219.766C475.993 222.896 475.779 226.277 475.808 229.456C475.856 234.782 475.939 240.112 475.86 245.438L474.787 246.188C474.021 246.373 473.457 246.268 472.688 246.14C470.965 244.526 470.892 241.628 470.73 239.382C470.391 234.652 470.493 229.796 470.457 225.053C470.448 223.892 470.187 221.108 470.747 220.15C470.963 219.782 471.311 219.508 471.593 219.188Z"/>
	<path fill="#82716B" transform="scale(3.26128 3.26128)" d="M456.002 218.438C457.269 218.324 457.697 218.184 458.868 218.747C459.922 221.396 459.194 225.877 459.146 228.756C459.031 235.552 459.471 242.897 458.449 249.601C458.169 251.437 457.688 252.355 456.188 253.437C455.4 253.675 454.755 253.729 453.938 253.81L453.152 253.057C452.643 248.004 453.211 242.544 453.261 237.446C453.297 233.719 453.333 229.992 453.381 226.264C453.404 224.526 453.176 222.152 453.767 220.5C454.189 219.323 454.961 218.971 456.002 218.438Z"/>
	<path fill="#82716B" transform="scale(3.26128 3.26128)" d="M440.735 221.438C441.876 221.187 442.874 221.088 443.904 221.714C445.305 223.837 444.768 227.537 444.77 230.001C444.776 236.247 444.293 242.869 444.943 249.046C445.066 250.218 445.176 251.459 445.61 252.562C446.471 254.748 448.3 256.418 448.189 258.938L446.72 260.062L445.421 260.431C444.601 260.605 443.831 260.422 443.161 259.913C440.598 257.967 439.999 251.802 439.73 248.715C439.296 243.728 439.524 238.58 439.521 233.573C439.519 230.405 439.186 226.798 439.644 223.675C439.807 222.572 440.018 222.284 440.735 221.438Z"/>
	<defs>
		<linearGradient id="gradient_0" gradientUnits="userSpaceOnUse" x1="384.56201" y1="252.188" x2="400.98401" y2="251.076">
			<stop offset="0" stop-color="#7A6963"/>
			<stop offset="1" stop-color="#90817F"/>
		</linearGradient>
	</defs>
	<path fill="url(#gradient_0)" transform="scale(3.26128 3.26128)" d="M386.059 218.438L386.243 218.437C387.174 218.518 388.145 218.651 388.724 219.524C389.475 220.653 389.144 223.993 389.132 225.354C389.084 230.869 388.923 236.385 389.006 241.9C389.175 253.021 388.705 262.825 396.285 271.809C398.781 274.767 401.695 277.372 404.233 280.312L404.085 281.063L402.562 281.574L401.906 281.49C397.012 280.639 390.599 274.043 388.119 269.967C386.556 267.398 385.556 264.546 384.984 261.601C383.07 251.741 383.664 240.781 383.652 230.754C383.649 227.806 383.147 223.466 384.004 220.688C384.402 219.396 384.935 219.093 386.059 218.438Z"/>
	<path fill="#82716B" transform="scale(3.26128 3.26128)" d="M403.489 219.938L404.812 220.048C405.762 220.672 406.323 221.187 406.482 222.373C406.824 224.927 406.108 228.257 405.902 230.868C405.324 238.209 404.539 245.921 405.133 253.27C405.94 263.26 411.213 267.956 418.59 273.938C419.732 274.864 421.101 275.715 421.647 277.125C421.582 278.284 421.614 279.339 421.02 280.374L419.812 280.021C412.259 277.19 406.858 272.972 403.053 265.743C401.793 263.35 400.87 260.767 400.453 258.091C399.181 249.946 400.026 241.465 400.317 233.263C400.431 230.058 400.098 225.158 401.255 222.188C401.785 220.827 402.209 220.559 403.489 219.938Z"/>
	<path fill="#3E302F" transform="scale(3.26128 3.26128)" d="M563.419 207.361L568.729 207.396L568.512 548.925L425.648 549.022L425.631 548.24L567.594 548.083L567.782 208.699L567.039 208.082C566.028 207.402 564.011 207.95 563.419 207.361Z"/>
	<path fill="#82716B" transform="scale(3.26128 3.26128)" d="M567.039 208.082L346.654 207.998L346.366 209.261C345.326 214.653 344.821 220.4 344.255 225.86C343.767 230.568 342.934 235.809 343.776 240.516C344.137 242.533 344.973 244.421 346.154 246.089C349.192 250.378 353.793 251.828 358.46 253.612C361.863 254.913 365.183 256.151 368.773 256.819C369.152 248.218 368.865 239.526 368.853 230.911C368.849 228.143 368.202 221.404 369.955 219.352C370.453 218.77 371.818 219.024 372.562 219.023C373.267 219.551 373.617 219.668 373.807 220.574C374.138 222.16 373.864 224.319 373.845 225.956C373.798 229.932 373.73 233.908 373.707 237.883C373.672 244.202 374.27 250.871 373.698 257.146C373.542 258.851 373.336 259.991 372.49 261.487C370.163 262.794 366.141 261.822 363.603 261.232C355.776 259.412 346.109 256.167 341.712 248.94C335.328 238.451 338.511 223.365 340.555 212.04C340.892 210.176 340.769 208.27 341.222 206.438C342.722 205.279 344.277 205.351 346.125 205.511L346.763 206.66C347.394 207.423 349.695 207.069 350.639 207.058C398.698 206.513 446.812 206.959 494.876 206.986C510.353 206.994 525.829 207.033 541.306 207.08C548.505 207.103 556.326 206.438 563.419 207.361C564.011 207.95 566.028 207.402 567.039 208.082Z"/>
	<path fill="#82716B" transform="scale(3.26128 3.26128)" d="M425.648 549.022C424.077 549.133 421.676 549.639 420.303 548.812C418.733 545.468 419.233 539.369 419.084 535.611C418.694 525.747 418.463 515.885 418.21 506.017C418.121 502.5 418.039 498.984 418.048 495.466C418.05 494.454 417.838 492.705 418.107 491.784C418.305 491.107 418.672 490.897 419.19 490.512L433.352 479.161C438.55 474.547 443.138 469.512 446.697 463.517C457.785 444.843 460.581 417.579 455.6 396.575C452.261 382.492 445.949 369.257 442.936 355.147C440.49 343.692 440.079 331.252 440.746 319.577C443.977 315.199 449.078 313.697 453.668 311.108C457.949 308.693 461.457 305.785 464.224 301.686C468.218 295.769 470.183 287.207 472.105 280.417C461.873 285.009 454.006 294.66 447.525 303.486C445.704 305.966 443.449 308.35 441.938 311.031C441.251 312.248 440.764 313.636 440.15 314.902L435.378 311.997C434.338 312.925 433.247 313.824 432.048 314.54C430.258 315.609 427.765 316.137 425.738 315.499C420.844 313.958 419.838 305.77 417.648 301.705L417.324 301.125C415.701 298.171 413.112 296.136 410.98 293.585C409.614 291.952 408.653 290.103 407.722 288.2C412.969 287.263 417.227 288.063 421.257 283.742C422.531 282.376 423.874 280.804 424.471 279.007C425.245 276.679 425.045 273.619 425.017 271.195C424.952 265.474 424.593 259.745 424.399 254.025C425.146 253.071 425.884 252.184 426.75 251.336L428.17 251.38C428.822 252.007 429.093 252.129 429.378 253.025C430.062 255.178 429.859 258.151 429.912 260.438C430.045 266.26 430.445 272.734 429.557 278.487C429.219 280.677 428.313 283.069 427.188 284.974C424.547 289.452 420.548 290.341 415.876 291.501C417.906 293.582 419.938 295.754 421.466 298.242C422.758 300.348 423.715 302.569 424.597 304.87C425.399 306.963 425.925 309.363 427.875 310.621C429.032 310.604 429.544 310.526 430.588 309.938C431.673 308.347 431.466 305.498 431.639 303.553C432.287 296.299 434.426 289.266 437.072 282.516C438.502 278.865 440.064 273.501 442.647 270.567C444.81 268.11 448.556 266.929 451.517 265.672C456.038 263.753 460.539 261.793 465.095 259.956C469.864 258.034 475.525 256.493 479.438 253.042C480.61 252.008 481.691 250.565 482.216 249.084C483.225 246.234 483.007 242.704 483.01 239.714C483.017 233.908 482.625 227.845 483.054 222.066C483.163 220.593 483.614 219.91 484.688 219.005C486.33 219.026 486.603 219.056 487.977 219.938C489.088 221.681 488.491 226.072 488.47 228.142C488.404 234.501 488.821 241.318 488.064 247.624C486.719 258.833 476.241 261.734 467.275 265.149C462.706 266.89 458.159 268.73 453.671 270.673C451.573 271.581 448.174 272.927 446.594 274.571C445.534 275.674 444.814 278.407 444.23 279.861C441.175 287.464 437.632 295.285 436.92 303.562C436.809 304.855 436.611 306.387 437.438 307.402C439.167 306.054 440.078 301.942 441.004 299.87C442.003 297.632 443.153 295.493 444.49 293.438C447.316 289.094 450.904 285.488 454.89 282.195C459.686 278.233 473.198 269.645 479.669 270.242C480.511 271.086 481.055 271.545 481.039 272.812C480.993 276.291 476.877 276.766 476.461 279.244C474.864 288.778 473.567 299.562 467.147 307.286C464.708 310.22 461.464 312.62 458.262 314.652C454.741 316.886 450.003 318.409 446.936 321.121C446.541 321.471 445.82 322.055 445.599 322.501C444.783 324.151 445.35 328.873 445.386 330.751C445.512 337.323 445.933 343.932 447.154 350.403C448.752 358.862 451.499 367.195 454.261 375.341C456.663 382.423 459.37 389.459 460.886 396.801C462.695 405.563 462.862 415.319 462.301 424.234C461.575 435.766 458.888 446.445 454.498 457.125C451.331 464.83 447.502 472.036 441.693 478.089C436.203 483.81 429.671 488.137 423.762 493.36C423.712 506.419 424.136 519.475 424.535 532.525C424.63 535.614 424.716 538.704 424.827 541.793C424.894 543.64 424.842 545.921 425.43 547.689L425.631 548.24L425.648 549.022Z"/>
	<path fill="#82716B" transform="scale(3.26128 3.26128)" d="M324.109 218.062C325.211 217.731 325.725 217.81 326.812 218.042C327.42 218.667 327.769 219.207 327.864 220.099C328.091 222.217 327.665 224.655 327.54 226.79C327.235 232.01 326.851 238.015 327.683 243.186C328.483 248.16 330.567 252.191 333.562 256.172C341.326 266.492 353.142 269.022 365.178 271.295C368.803 271.979 372.565 272.479 375.965 273.983C380.042 275.787 383.321 279.55 386.631 282.457C389.087 284.615 391.679 286.506 394.314 288.434C400.333 292.84 405.113 297.642 406.57 305.222C406.859 306.724 406.65 308.205 406.88 309.689C407.677 309.721 408.495 309.757 409.262 310.001C412.149 310.918 417.887 315.501 419.062 318.345C419.453 319.288 419.365 320.334 418.801 321.188C415.025 326.909 403.315 324.857 397.436 325.283C394.106 325.525 391.009 326.219 387.8 327.123C383.75 328.264 379.679 329.589 375.733 331.046C374.973 331.327 373.597 331.592 373.199 332.298C374.135 336.212 373.361 340.632 372.631 344.525C380.254 345.164 387.971 344.942 395.616 344.999C400.274 345.034 405.607 344.805 410.109 346.066C412.704 346.792 414.802 348.094 416.674 350.009C417.444 350.797 418.171 351.63 418.764 352.561C420.521 355.321 420.744 358.36 420.777 361.54C420.878 371.303 418.719 380.77 415.11 389.819C411.617 398.575 406.507 407.085 401.516 415.066C399.849 417.731 398.148 420.373 396.523 423.063C396.434 423.209 395.683 424.388 395.686 424.454C395.721 425.111 398.053 428.144 398.515 429.073C399.478 431.01 400.164 433.062 400.38 435.223C400.653 437.946 400.699 441.181 400.287 443.881C399.932 446.203 399.387 448.484 398.823 450.762C398.704 451.244 398.224 452.498 398.274 452.954C398.381 453.925 400.011 455.736 400.653 456.494C403.603 459.974 409.325 465.547 409.552 470.278C409.998 479.577 408.089 489.251 406.539 498.375C405.36 505.318 404.338 512.285 403.214 519.237C402.439 524.036 401.487 528.806 400.983 533.645C400.461 538.644 401.253 543.624 401.23 548.625L400.688 549.138C398.209 549.703 395.646 549.154 393.126 549.09C388.827 548.98 384.502 549.058 380.2 549.052C362.446 549.027 344.691 548.989 326.937 549.035C322.004 549.048 317.072 549.071 312.139 549.089C310.142 549.097 307.65 549.385 305.72 548.914L305.812 548.334C308.931 547.869 312.359 548.139 315.513 548.132C321.56 548.12 327.608 548.115 333.656 548.114C354.42 548.109 375.184 548.132 395.947 548.148L385.926 480.798L335.337 480.9C333.87 481.084 333.979 483.107 333.69 484.392C331.196 495.489 328.592 506.65 321.838 516.035C319.324 519.517 315.896 522.547 312.775 525.485C308.423 529.583 304.111 533.68 300.151 538.167C298.511 540.026 297.17 541.922 295.937 544.07C295.122 545.492 294.286 547.383 293.18 548.579C292.356 549.471 291.794 549.651 290.625 549.668C289.591 548.862 288.875 548.616 288.562 547.316C291.032 539.029 297.587 532.619 302.593 525.824C302.689 521.964 301.757 518.007 301.073 514.217C300.332 510.108 299.76 505.983 298.71 501.935C297.613 497.708 296.07 493.668 294.75 489.513C293.473 485.496 292.377 481.408 290.676 477.542L290.663 493.875C290.351 500.567 281.629 505.459 276.691 508.964C274.042 510.844 271.533 512.828 269.099 514.978L270.208 548.507C269.332 549.355 268.429 549.596 267.188 549.692C266.099 549.776 265.561 549.558 264.819 548.812C264.686 543.345 263.327 515.02 264.518 511.96C264.855 511.094 266.277 509.91 266.973 509.269C271.161 505.408 276.383 502.339 281.206 499.317C282.143 498.73 285.392 496.963 285.602 495.91C286.307 492.371 285.85 488.072 285.809 484.447C285.709 475.427 285.38 466.403 285.362 457.383C285.358 455.387 284.968 451.045 285.825 449.332C286.057 448.87 286.699 448.209 287.062 447.832C292.004 442.695 298.455 438.29 303.992 433.769C306.893 431.401 309.766 428.99 312.714 426.681C313.918 425.738 315.617 424.25 317.076 423.825C319.712 423.056 322.926 423.407 325.671 423.403C330.714 423.396 335.758 423.398 340.801 423.401C357.222 423.408 373.642 423.364 390.063 423.379L400.895 407.25C407.488 396.036 413.487 383.196 415.645 370.312C416.268 366.591 416.803 362.425 415.761 358.736L415.574 358.125L415.424 357.618C414.504 354.73 411.696 351.373 408.908 350.224C405.566 348.847 401.021 348.948 397.45 348.82C391.545 348.608 385.639 348.415 379.734 348.189C374.187 347.977 367.125 348.283 362.182 345.464C359.778 344.093 357.108 341.028 356.45 338.258C356.002 336.37 356.16 333.975 357.346 332.372C359.437 329.549 364.896 329.268 368.049 328.722C370.593 328.281 373.087 327.731 375.562 326.993C379.762 325.742 383.886 324.173 387.962 322.569C390.655 321.509 393.41 320.183 396.286 319.769C396.411 319.751 396.556 319.789 396.663 319.72C397.265 319.332 398.597 315.744 399.188 314.834C400.352 313.041 402.281 311.528 403.856 310.091C403.097 306.967 402.043 303.954 400.096 301.353C396.449 296.48 390.681 293.16 386.098 289.253C382.33 286.042 378.31 280.316 373.744 278.499C370.826 277.338 367.43 276.924 364.347 276.329C355.93 274.705 347.46 272.953 340.09 268.343C332.479 263.582 325.291 255.684 323.302 246.72L323.148 246C322.267 242.072 322.42 237.97 322.415 233.962C322.409 229.809 322.301 225.583 322.516 221.438C322.609 219.637 322.834 219.234 324.109 218.062Z"/>
	<path fill="#F2F2F2" transform="scale(3.26128 3.26128)" d="M365.086 334.312L366.199 334.291C366.798 334.818 367.593 335.436 367.84 336.224C368.104 337.072 368.06 338.891 367.613 339.67C367.43 339.989 367.389 339.974 367.017 340.021C365.514 340.209 364.062 339.841 362.812 339.023L362.438 338.618C361.894 337.911 361.592 336.695 361.883 335.812C362.208 334.827 362.496 334.771 363.375 334.411L363.971 334.965C363.756 335.781 363.672 336.082 363.814 336.938L364.312 336.762C364.39 335.739 364.627 335.203 365.086 334.312Z"/>
	<path fill="#F2F2F2" transform="scale(3.26128 3.26128)" d="M407.397 315.805L407.765 315.761C409.369 315.612 411.4 315.308 412.7 316.463C413.603 317.266 413.644 317.361 413.694 318.562C412.604 319.628 411.086 319.713 409.641 319.994C407.866 319.969 405.787 319.854 404.163 319.104C403.313 318.712 403.566 318.986 403.278 318.188C404.587 317.005 405.751 316.421 407.397 315.805Z"/>
	<path fill="#F2F2F2" transform="scale(3.26128 3.26128)" d="M331.653 455.005L394.15 454.888C397.609 459.583 402.575 464.902 404.232 470.523C405.594 475.142 404.238 481.675 403.46 486.361C402.316 493.244 400.87 500.098 399.848 507C399.253 511.026 399.009 515.131 398.684 519.187C397.094 515.905 396.929 511.004 396.245 507.355C395.048 500.967 393.41 494.655 392.118 488.284C391.585 485.656 391.2 483.001 390.671 480.375C390.523 479.636 390.357 478.167 390.02 477.562C389.851 477.261 389.542 477.062 389.304 476.812C385.89 475.839 381.554 476.284 377.993 476.259L331.709 476.289C330.187 478.351 329.38 482.273 328.512 484.784C326.425 490.82 324.372 496.937 322.031 502.875C319.418 509.498 316.149 514.747 311.044 519.723C310.196 520.551 309.2 521.809 308.139 522.267C307.705 518.119 307.373 513.102 308.114 508.982C309.747 499.905 315.23 491.832 317.193 482.796C318.547 476.562 317.91 469.894 317.677 463.573C321.352 459.676 326.384 456.16 331.653 455.005Z"/>
	<path fill="#F2F2F2" transform="scale(3.26128 3.26128)" d="M318.803 429.04L391.07 429.014C392.603 429.128 393.95 429.615 394.91 430.868C395.891 432.147 395.966 433.656 396.08 435.206C396.439 440.061 395.833 444.76 395.088 449.542C379.601 450.276 363.826 449.682 348.314 449.701C342.8 449.708 335.998 448.975 330.623 450.145C327.901 450.737 324.997 452.704 322.592 454.09C320.081 455.49 316.279 457.553 314.619 459.914C312.57 462.83 313.52 468.104 313.712 471.473C313.905 474.864 314.029 478.346 313.344 481.69C312.029 488.107 307.211 495.2 303.531 500.531C301.45 493.718 299.359 486.823 296.475 480.301C294.919 476.782 292.085 472.97 291.045 469.402C289.569 464.335 289.889 456.801 290.35 451.536C293.284 447.418 298.767 443.997 302.714 440.85C307.765 436.823 312.789 431.476 318.803 429.04Z"/>
</svg>
