<svg xmlns="http://www.w3.org/2000/svg" xmlns:xlink="http://www.w3.org/1999/xlink" version="1.1" width="1000" height="1000" viewBox="0 0 1000 1000" xml:space="preserve">
<desc>Created with Fabric.js 3.5.0</desc>
<defs>
</defs>
<rect x="0" y="0" width="100%" height="100%" fill="#ffb5c4"/>
<g transform="matrix(0.1619 0 0 0.1619 499.9501 499.9506)" id="495200">
<g style="" vector-effect="non-scaling-stroke">
		<g transform="matrix(4.9622 0 0 4.9049 0.4848 0.482)">
<path style="stroke: none; stroke-width: 1; stroke-dasharray: none; stroke-linecap: butt; stroke-dashoffset: 0; stroke-linejoin: miter; stroke-miterlimit: 4; is-custom-font: none; font-file-url: none; fill: rgb(254,180,201); fill-rule: nonzero; opacity: 1;" transform=" translate(-384, -384.0001)" d="M 0 0.1875 C 1.70241 -0.185587 3.61693 -0.00979729 5.35479 -0.0090068 C 8.44963 -0.00759905 11.5445 -0.00845752 14.6393 -0.00881649 C 26.6055 -0.0102045 38.5716 -0.00977825 50.5378 -0.00976663 C 98.2915 -0.00972023 146.045 -0.00952629 193.799 -0.0102393 C 385.199 -0.0130972 576.6 -0.00755292 768 0 L 768 767.812 C 766.298 768.186 764.383 768.01 762.645 768.009 C 759.55 768.008 756.456 768.008 753.361 768.009 C 741.395 768.01 729.428 768.01 717.462 768.01 C 669.708 768.01 621.955 768.01 574.201 768.01 C 382.801 768.013 191.4 768.008 0 768 L 0 0.1875 Z" stroke-linecap="round"/>
</g>
		<g transform="matrix(4.9622 0 0 4.9049 -2.403 1669.9412)">
<linearGradient id="SVGID_4" gradientUnits="userSpaceOnUse" gradientTransform="matrix(1 0 0 1 0 0)" x1="587.06201" y1="718.31201" x2="587.034" y2="731.72302">
<stop offset="0%" style="stop-color:rgb(167,85,114);stop-opacity: 1"/>
<stop offset="100%" style="stop-color:rgb(223,131,154);stop-opacity: 1"/>
</linearGradient>
<path style="stroke: none; stroke-width: 1; stroke-dasharray: none; stroke-linecap: butt; stroke-dashoffset: 0; stroke-linejoin: miter; stroke-miterlimit: 4; is-custom-font: none; font-file-url: none; fill: url(#SVGID_4); fill-rule: nonzero; opacity: 1;" transform=" translate(-383.4195, -724.3715)" d="M 193.524 717.425 L 242.119 717.439 C 270.038 717.073 297.998 717.375 325.922 717.38 C 382.951 717.39 439.979 717.49 497.007 717.459 C 518.341 717.448 539.675 717.409 561.008 717.407 C 566.388 717.406 571.767 717.406 577.146 717.407 C 579.274 717.408 582.037 717.725 584.085 717.335 L 586.442 718.062 L 587.027 718.508 L 586.629 719.252 C 586.42 719.708 586.391 719.933 586.021 720.302 L 585.75 720.559 C 585.364 721.088 584.854 721.925 584.248 722.248 L 583.688 722.434 C 583.113 722.798 582.886 723.322 582.198 723.665 C 581.584 723.972 581.054 724.272 580.5 724.684 C 580.001 725.055 579.821 725.232 579.209 725.436 C 578.015 725.834 577 726.551 575.811 726.947 L 575.248 727.123 L 574.123 727.498 L 573.375 727.684 C 572.527 728.124 572.467 728.059 571.5 728.059 C 570.791 728.532 570.797 728.434 570 728.434 C 569.232 728.946 569.018 728.809 568.125 728.809 C 567.247 729.394 566.35 729.184 565.312 729.184 C 564.688 729.809 563.741 729.559 562.875 729.559 C 561.971 730.161 560.946 729.934 559.875 729.934 C 558.727 730.699 556.061 730.309 554.625 730.309 C 553.477 731.074 550.811 730.684 549.375 730.684 L 548.812 731.059 L 548.531 730.686 L 547.781 730.873 C 547.251 730.608 547.207 730.735 546.656 730.873 L 546.281 730.686 L 545.625 731.059 L 545.156 730.686 C 544.342 731.334 542.763 731.059 541.693 731.059 C 538.129 731.059 534.564 731.059 531 731.059 L 530.438 731.434 C 529.188 730.939 526.865 731.248 525.469 731.248 C 521.156 731.248 516.844 731.248 512.531 731.248 C 512.101 730.964 511.817 731.061 511.312 731.059 C 510.773 731.598 510.724 731.434 510 731.434 L 509.531 731.061 L 508.875 731.434 L 508.406 731.061 L 507.75 731.434 L 507.281 731.061 L 506.625 731.434 L 506.156 731.061 L 505.5 731.434 L 505.031 731.061 L 504.375 731.434 L 503.906 731.061 L 503.25 731.434 L 502.781 731.061 L 502.312 731.434 C 501.57 730.691 498.418 731.06 497.25 731.059 L 496.688 731.434 C 495.794 730.54 484.358 731.059 482.25 731.059 L 481.688 731.434 L 481.406 731.061 L 480.75 731.434 L 480.281 731.061 L 479.625 731.434 L 479.156 731.061 L 478.5 731.434 L 478.031 731.061 L 477.375 731.434 L 476.906 731.061 L 476.25 731.434 L 475.781 731.061 L 475.125 731.434 L 474.656 731.061 L 474 731.434 L 473.531 731.061 L 472.875 731.434 L 472.406 731.061 L 471.75 731.434 L 471.281 731.061 L 470.625 731.434 L 470.066 731.062 C 468.697 731.039 466.601 730.743 465.343 731.246 L 465 731.434 L 464.531 731.061 L 463.875 731.434 L 463.406 731.061 L 462.75 731.434 L 462.281 731.061 L 461.625 731.434 L 461.156 731.061 L 460.5 731.434 L 460.031 731.061 L 459.375 731.434 L 458.906 731.061 L 458.25 731.434 L 457.781 731.061 L 457.125 731.434 L 456.656 731.061 L 456 731.434 L 455.531 731.061 L 454.875 731.434 L 454.406 731.061 L 453.75 731.434 L 453.281 731.061 L 452.625 731.434 L 452.156 731.061 L 451.5 731.434 L 451.031 731.061 L 450.375 731.434 L 449.906 731.061 L 449.25 731.434 L 448.781 731.061 L 448.125 731.434 L 447.656 731.061 L 447 731.434 L 446.531 731.061 L 445.875 731.434 L 445.406 731.061 L 444.75 731.434 L 444.281 731.061 L 443.625 731.434 L 443.156 731.061 L 442.5 731.434 L 442.031 731.061 L 441.375 731.434 L 440.906 731.061 L 440.25 731.434 L 439.781 731.061 L 439.125 731.434 L 438.656 731.061 L 438 731.434 L 437.531 731.061 L 436.875 731.434 L 436.406 731.061 L 435.75 731.434 L 435.281 731.061 L 434.625 731.434 L 434.156 731.061 L 433.5 731.434 L 433.031 731.061 L 432.375 731.434 L 431.906 731.061 L 431.25 731.434 L 430.781 731.061 L 430.125 731.434 L 429.656 731.061 L 429 731.434 L 428.531 731.061 L 427.875 731.434 L 427.406 731.061 L 426.75 731.434 L 426.281 731.061 L 425.625 731.434 L 425.156 731.061 L 424.5 731.434 L 424.031 731.061 L 423.375 731.434 L 422.906 731.061 L 422.25 731.434 L 421.781 731.061 L 421.125 731.434 L 420.656 731.061 L 420 731.434 L 419.531 731.061 L 418.875 731.434 L 418.316 731.062 C 410.235 731.056 332.402 730.423 330.343 731.246 L 330 731.434 L 329.531 731.061 L 328.875 731.434 L 328.406 731.061 L 327.75 731.434 L 327.281 731.061 L 326.625 731.434 L 326.156 731.061 L 325.5 731.434 L 325.031 731.061 L 324.375 731.434 L 323.906 731.061 L 323.25 731.434 L 322.781 731.061 L 322.125 731.434 L 321.656 731.061 L 321 731.434 L 320.531 731.061 L 319.875 731.434 L 319.406 731.061 L 318.75 731.434 L 318.281 731.061 L 317.625 731.434 L 317.156 731.061 L 316.5 731.434 L 316.031 731.061 L 315.375 731.434 L 314.906 731.061 L 314.25 731.434 L 313.781 731.061 L 313.125 731.434 L 312.656 731.061 L 312 731.434 L 311.531 731.061 L 310.875 731.434 L 310.406 731.061 L 309.75 731.434 L 309.281 731.061 L 308.625 731.434 L 308.156 731.061 L 307.5 731.434 L 307.031 731.061 L 306.375 731.434 L 305.906 731.061 L 305.25 731.434 L 304.781 731.061 C 303.993 731.688 302.871 731.434 301.875 731.434 L 301.406 731.061 L 300.75 731.434 L 300.281 731.061 L 299.625 731.434 L 299.156 731.061 L 298.5 731.434 L 298.031 731.061 L 297.375 731.434 L 296.906 731.061 L 296.25 731.434 L 295.781 731.061 L 295.125 731.434 L 294.656 731.061 L 294 731.434 L 293.625 731.062 C 292.858 731.569 292.64 731.434 291.75 731.434 L 291.281 731.061 L 290.625 731.434 L 290.156 731.061 L 289.5 731.434 L 289.031 731.061 L 288.375 731.434 L 287.906 731.061 L 287.25 731.434 L 286.781 731.061 L 286.125 731.434 L 285.656 731.061 L 285 731.434 L 284.531 731.061 L 283.875 731.434 L 283.406 731.061 L 282.75 731.434 L 282.281 731.061 L 281.625 731.434 L 281.156 731.061 L 280.5 731.434 L 280.031 731.061 L 279.375 731.434 L 278.906 731.061 L 278.25 731.434 L 277.781 731.061 L 277.125 731.434 L 276.656 731.061 L 276 731.434 L 275.531 731.061 L 274.875 731.434 L 274.406 731.061 L 273.75 731.434 L 273.281 731.061 L 272.625 731.434 C 271.387 730.208 256.556 731.677 253.5 731.059 L 252.094 730.686 L 251.719 730.873 L 251.062 730.684 L 250.688 731.059 C 249.555 729.926 243.43 731.059 241.5 730.684 C 239.673 730.328 237.659 730.498 235.781 730.498 C 235.183 730.103 233.766 730.312 233.039 730.312 C 230.109 730.311 227.18 730.31 224.25 730.309 L 223.781 729.936 L 223.031 730.123 C 221.82 729.324 217.319 730.187 215.625 729.934 L 214.969 729.748 L 214.406 729.748 C 213.588 729.208 210.374 729.56 209.25 729.559 L 208.781 729.186 L 208.125 729.559 C 207.415 728.856 205.061 729.185 204 729.184 C 203.151 728.62 202.373 728.811 201.375 728.809 C 200.579 728.28 200.053 728.436 199.125 728.434 C 198.329 727.905 197.803 728.061 196.875 728.059 C 196.079 727.53 195.553 727.686 194.625 727.684 C 193.921 727.216 193.917 727.312 193.125 727.309 L 192.566 726.938 C 191.899 726.993 191.67 726.974 191.052 726.665 L 190.502 726.373 C 189.988 726.164 189.854 726.271 189.364 725.903 L 189.002 725.623 L 187.5 725.059 C 186.962 724.69 186.665 724.367 186.002 724.123 C 185.106 723.793 184.597 723.585 183.823 722.933 L 183.002 722.248 C 182.025 721.691 182.782 722.41 182.129 721.793 C 180.937 720.667 179.818 719.647 179.812 717.958 L 193.524 717.425 Z" stroke-linecap="round"/>
</g>
		<g transform="matrix(4.9622 0 0 4.9049 94.7678 1645.9051)">
<path style="stroke: none; stroke-width: 1; stroke-dasharray: none; stroke-linecap: butt; stroke-dashoffset: 0; stroke-linejoin: miter; stroke-miterlimit: 4; is-custom-font: none; font-file-url: none; fill: rgb(167,84,114); fill-rule: nonzero; opacity: 1;" transform=" translate(-403.002, -719.4711)" d="M 242.119 717.439 C 270.038 717.073 297.998 717.375 325.922 717.38 C 382.951 717.39 439.979 717.49 497.007 717.459 C 518.341 717.448 539.675 717.409 561.008 717.407 C 566.388 717.406 571.767 717.406 577.146 717.407 C 579.274 717.408 582.037 717.725 584.085 717.335 L 586.442 718.062 L 570.75 718.033 C 567.391 717.732 564.002 718.124 560.625 717.941 C 559.861 718.449 559.638 718.314 558.75 718.316 L 558.191 718.688 L 557.812 718.316 C 557.278 718.851 557.219 718.688 556.5 718.691 C 555.89 719.295 555.087 719.065 554.25 719.066 L 553.691 719.438 C 552.917 719.42 552.198 719.384 551.437 719.562 C 550.781 719.716 551.156 719.689 550.465 719.69 L 550.031 719.683 C 548.528 719.888 550.53 719.769 549.136 719.84 C 546.756 719.96 544.191 720.879 541.781 720.655 L 541.031 720.561 C 539.969 721.357 535.534 720.929 534 720.934 C 533.006 721.596 530.996 721.304 529.769 721.302 C 526.806 721.298 523.843 721.293 520.88 721.291 C 519.53 721.29 517.885 721.105 516.562 721.309 L 515.906 721.498 L 515.625 721.312 C 514.499 721.289 512.874 721.084 511.843 721.496 L 511.5 721.684 C 510.58 721.072 505.709 721.055 504.469 721.311 C 503.837 721.441 503.098 721.636 502.406 721.498 C 501.806 721.378 501.935 721.335 501.281 721.498 C 500.666 721.092 497.736 721.222 496.895 721.392 L 496.498 721.498 L 496.065 721.603 L 495.75 721.684 C 495.291 721.229 495.551 721.312 495.02 721.313 C 479.935 721.321 464.849 721.317 449.764 721.329 C 446.803 721.332 442.686 721.845 439.875 721.309 C 438.004 720.952 435.947 721.481 434.156 721.123 C 433.556 721.003 433.685 720.96 433.031 721.123 C 431.988 720.434 402.59 720.934 398.625 720.934 L 398.156 720.561 L 397.5 720.934 L 397.031 720.561 L 396.375 720.934 L 395.906 720.561 L 395.25 720.934 L 394.781 720.561 L 394.125 720.934 L 393.656 720.561 C 392.508 721.475 386.743 720.93 384.959 720.929 C 374.314 720.923 363.67 720.925 353.025 720.915 C 350.966 720.913 348.907 720.911 346.849 720.912 C 346.165 720.913 344.985 720.752 344.344 720.936 C 343.745 721.107 343.852 721.094 343.219 720.936 C 342.688 721.201 342.645 721.073 342.094 720.936 L 341.719 721.123 L 341.062 720.934 L 340.688 721.309 L 293.625 721.309 L 292.969 721.123 L 292.406 721.123 C 291.806 721.003 291.935 720.96 291.281 721.123 C 290.707 720.744 289.544 720.937 288.847 720.937 C 285.69 720.936 282.532 720.935 279.375 720.934 L 279 720.562 L 261.375 720.184 C 260.722 719.537 259.563 719.782 258.656 719.742 C 256.285 719.636 253.936 719.587 251.563 719.568 C 250.487 719.559 249.116 719.697 248.093 719.401 L 247.781 719.281 C 247.248 719.556 247.212 719.425 246.656 719.283 L 246.375 719.438 L 245.625 719.102 L 245.25 719.438 L 244.5 719.104 L 244.125 719.438 L 243.375 719.107 L 243 719.438 L 242.25 719.109 L 241.875 719.438 L 241.125 719.112 L 240.75 719.438 L 240 719.114 L 239.625 719.438 C 238.13 718.529 235.212 719.37 233.438 719.066 L 232.781 718.877 C 232.251 719.142 232.207 719.015 231.656 718.877 L 231.281 719.064 C 230.296 718.28 227.11 718.691 225.75 718.691 C 224.194 717.654 221.426 718.759 219.562 718.125 C 224.416 718.137 229.361 718.342 234.184 717.938 C 236.439 717.748 239.337 718.439 241.473 717.686 L 242.119 717.439 Z" stroke-linecap="round"/>
</g>
		<g transform="matrix(4.9622 0 0 4.9049 -3.2041 -16.2361)">
<path style="stroke: none; stroke-width: 1; stroke-dasharray: none; stroke-linecap: butt; stroke-dashoffset: 0; stroke-linejoin: miter; stroke-miterlimit: 4; is-custom-font: none; font-file-url: none; fill: rgb(255,255,255); fill-rule: nonzero; opacity: 1;" transform=" translate(-383.2579, -380.592)" d="M 193.524 717.425 L 163.506 717.55 L 163.19 43.634 L 602.923 44.4966 C 603.716 46.1457 603.096 51.1172 603.082 53.241 C 603.017 62.6556 602.948 72.0702 602.923 81.485 C 602.796 130.576 602.632 179.666 602.573 228.756 C 602.489 298.556 602.752 368.356 602.653 438.155 C 602.521 531.184 602.086 624.229 602.654 717.257 C 596.625 717.235 590.048 716.666 584.085 717.335 C 582.037 717.725 579.274 717.408 577.146 717.407 C 571.767 717.406 566.388 717.406 561.008 717.407 C 539.675 717.409 518.341 717.448 497.007 717.459 C 439.979 717.49 382.951 717.39 325.922 717.38 C 297.998 717.375 270.038 717.073 242.119 717.439 L 193.524 717.425 Z" stroke-linecap="round"/>
</g>
		<g transform="matrix(4.9622 0 0 4.9049 -6.1184 1171.7139)">
<path style="stroke: none; stroke-width: 1; stroke-dasharray: none; stroke-linecap: butt; stroke-dashoffset: 0; stroke-linejoin: miter; stroke-miterlimit: 4; is-custom-font: none; font-file-url: none; fill: rgb(139,255,226); fill-rule: nonzero; opacity: 1;" transform=" translate(-382.6709, -622.7929)" d="M 196.451 585.53 C 211.022 585.085 225.614 585.362 240.19 585.384 C 257.281 585.41 274.405 585.245 291.491 585.627 C 299.413 585.805 307.32 586.314 315.238 586.477 C 339.217 586.968 363.208 586.825 387.189 587.097 C 391.203 587.143 393.056 585.314 396.375 583.486 C 400.839 581.026 406.366 579.774 411.245 581.599 C 413.113 582.297 415.104 583.125 416.632 584.438 C 417.691 585.346 418.422 586.618 419.289 587.699 L 420.231 592.047 C 416.128 592.135 413.508 592.258 410.517 595.405 C 407.858 598.203 405.225 603.044 404.252 606.778 L 404.062 607.692 L 442.395 608.136 L 443.059 608.121 C 443.978 608.073 443.574 608.163 444.175 607.886 C 445.173 607.425 447.35 607.695 448.491 607.694 C 452.306 607.689 456.122 607.699 459.938 607.713 L 460.5 608.066 L 462.59 608.132 L 569.351 608.066 L 569.256 633.92 C 568.889 641.564 562.895 648.971 557.411 653.908 C 553.86 657.106 549.827 659.981 545.423 661.885 C 532.962 667.27 518.145 664.539 505.875 659.987 C 499.998 657.807 494.332 655.068 488.438 652.928 C 482.123 650.637 475.89 649.034 469.21 648.312 C 453.028 646.565 436.831 649.253 420.634 649.33 C 414.113 649.362 407.484 648.732 401.062 647.606 C 390.953 645.832 381.18 642.322 371.43 639.201 C 356.803 634.518 341.41 630.725 325.971 630.613 C 310.654 630.503 296.85 634.126 283.213 640.955 C 267.512 648.818 251.631 664.095 233.008 662.927 C 222.088 662.242 210.634 655.202 203.52 647.128 C 201.171 644.462 197.728 640.675 196.505 637.312 C 195.628 634.898 196.138 631.158 196.14 628.574 C 196.147 621.421 195.962 614.172 196.418 607.037 L 196.451 585.53 Z" stroke-linecap="round"/>
</g>
		<g transform="matrix(4.9622 0 0 4.9049 -318.4014 1082.0853)">
<path style="stroke: none; stroke-width: 1; stroke-dasharray: none; stroke-linecap: butt; stroke-dashoffset: 0; stroke-linejoin: miter; stroke-miterlimit: 4; is-custom-font: none; font-file-url: none; fill: rgb(122,255,222); fill-rule: nonzero; opacity: 1;" transform=" translate(-319.7385, -604.5197)" d="M 196.451 585.53 C 211.022 585.085 225.614 585.362 240.19 585.384 C 257.281 585.41 274.405 585.245 291.491 585.627 C 299.413 585.805 307.32 586.314 315.238 586.477 C 339.217 586.968 363.208 586.825 387.189 587.097 C 391.203 587.143 393.056 585.314 396.375 583.486 C 400.839 581.026 406.366 579.774 411.245 581.599 C 413.113 582.297 415.104 583.125 416.632 584.438 C 417.691 585.346 418.422 586.618 419.289 587.699 L 420.231 592.047 C 416.128 592.135 413.508 592.258 410.517 595.405 C 407.858 598.203 405.225 603.044 404.252 606.778 L 404.062 607.692 L 442.395 608.136 C 442.165 608.333 441.419 609.11 441.186 609.167 C 439.323 609.628 436.071 609.179 434.062 609.184 L 433.873 609.377 L 434.625 609.566 C 435.911 610.215 437.648 609.94 439.125 609.941 C 440.383 610.777 441.8 609.851 443.059 610.688 C 442.935 610.811 442.851 610.997 442.688 611.059 C 442.362 611.181 441.102 611.059 440.696 611.059 C 438.697 611.059 436.698 611.059 434.699 611.059 C 424.174 611.059 413.65 611.059 403.125 611.059 L 402.566 610.688 C 399.063 610.708 395.807 610.219 392.332 610.01 C 388.142 609.757 383.93 609.794 379.733 609.788 C 337.583 609.735 295.429 609.918 253.277 609.894 C 240.754 609.887 228.225 609.732 215.704 609.965 C 210.571 610.061 204.384 609.705 199.429 610.951 L 199.125 611.035 L 198.75 610.688 C 198.013 611.174 197.907 611.059 197.062 611.059 L 197.059 611.438 C 196.711 614.422 197.212 617.409 196.925 620.344 C 196.67 622.94 197.257 625.766 196.688 628.309 L 196.471 607.662 L 196.418 607.037 L 196.451 585.53 Z" stroke-linecap="round"/>
</g>
		<g transform="matrix(4.9622 0 0 4.9049 -3.1515 510.2258)">
<path style="stroke: none; stroke-width: 1; stroke-dasharray: none; stroke-linecap: butt; stroke-dashoffset: 0; stroke-linejoin: miter; stroke-miterlimit: 4; is-custom-font: none; font-file-url: none; fill: rgb(69,244,212); fill-rule: nonzero; opacity: 1;" transform=" translate(-383.2688, -487.9285)" d="M 196.377 367.721 L 569.602 367.742 L 569.802 394.46 C 570.428 399.398 570.044 404.738 570.044 409.72 C 570.042 419.771 570.012 429.822 569.977 439.872 L 569.622 507.454 C 569.634 508.03 569.697 508.62 569.593 509.188 L 569.351 608.066 L 462.59 608.132 L 460.5 608.066 L 459.938 607.713 C 456.122 607.699 452.306 607.689 448.491 607.694 C 447.35 607.695 445.173 607.425 444.175 607.886 C 443.574 608.163 443.978 608.073 443.059 608.121 L 442.395 608.136 L 404.062 607.692 L 404.252 606.778 C 405.225 603.044 407.858 598.203 410.517 595.405 C 413.508 592.258 416.128 592.135 420.231 592.047 L 419.289 587.699 C 418.422 586.618 417.691 585.346 416.632 584.438 C 415.104 583.125 413.113 582.297 411.245 581.599 C 406.366 579.774 400.839 581.026 396.375 583.486 C 393.056 585.314 391.203 587.143 387.189 587.097 C 363.208 586.825 339.217 586.968 315.238 586.477 C 307.32 586.314 299.413 585.805 291.491 585.627 C 274.405 585.245 257.281 585.41 240.19 585.384 C 225.614 585.362 211.022 585.085 196.451 585.53 L 196.429 575.338 L 196.56 542.175 L 196.536 438.75 L 196.632 422.775 L 196.508 380.71 L 196.553 379.898 L 196.377 367.721 Z" stroke-linecap="round"/>
</g>
		<g transform="matrix(4.9622 0 0 4.9049 -254.7975 887.3521)">
<path style="stroke: none; stroke-width: 1; stroke-dasharray: none; stroke-linecap: butt; stroke-dashoffset: 0; stroke-linejoin: miter; stroke-miterlimit: 4; is-custom-font: none; font-file-url: none; fill: rgb(255,255,255); fill-rule: nonzero; opacity: 1;" transform=" translate(-332.5571, -564.8177)" d="M 332.115 557.324 L 335.062 557.308 C 340.823 558.039 341.989 563.567 345.165 567.188 C 346.541 568.756 348.52 569.229 349.813 571.03 C 350.154 571.505 350.02 571.234 349.895 572.062 C 348.118 572.451 346.175 572.297 344.359 572.299 C 340.979 572.304 337.599 572.3 334.219 572.294 L 315.188 571.839 L 315.085 571.204 C 316.539 570.244 318.111 570.077 319.793 569.773 L 321.731 565.875 C 324.229 561.259 327.1 558.803 332.115 557.324 Z" stroke-linecap="round"/>
</g>
		<g transform="matrix(4.9622 0 0 4.9049 -654.1464 829.831)">
<path style="stroke: none; stroke-width: 1; stroke-dasharray: none; stroke-linecap: butt; stroke-dashoffset: 0; stroke-linejoin: miter; stroke-miterlimit: 4; is-custom-font: none; font-file-url: none; fill: rgb(247,230,240); fill-rule: nonzero; opacity: 1;" transform=" translate(-252.078, -553.0902)" d="M 228.715 547.068 C 230.72 540.884 235.818 535.335 241.52 532.291 C 247.099 529.313 253.599 528.926 259.603 530.723 C 266.466 532.778 271.963 539.008 275.3 545.106 C 279.203 544.223 284.543 543.35 288.318 545.012 C 293.057 547.098 296.358 551.667 298.08 556.397 C 299.81 561.151 300.385 566.053 300.001 571.083 C 301.894 571.233 305.756 570.985 306.872 572.547 C 307.546 573.49 307.646 574.809 307.727 575.924 C 306.652 576.886 302.716 576.456 301.125 576.366 C 298.948 576.243 296.918 575.49 294.68 575.381 C 287.024 575.008 279.215 575.3 271.544 575.298 C 256.874 575.294 242.205 575.297 227.535 575.316 C 220.633 575.325 213.731 575.349 206.829 575.379 C 203.423 575.394 199.803 575.697 196.429 575.338 L 196.56 542.175 L 196.954 542.076 C 198.205 541.594 199.132 540.085 200.319 539.336 C 205.2 536.252 211.112 535.884 216.474 537.883 C 220.607 539.423 226.556 543.148 228.715 547.068 Z" stroke-linecap="round"/>
</g>
		<g transform="matrix(4.9622 0 0 4.9049 -648.9225 801.3715)">
<path style="stroke: none; stroke-width: 1; stroke-dasharray: none; stroke-linecap: butt; stroke-dashoffset: 0; stroke-linejoin: miter; stroke-miterlimit: 4; is-custom-font: none; font-file-url: none; fill: rgb(255,255,255); fill-rule: nonzero; opacity: 1;" transform=" translate(-253.131, -547.2879)" d="M 228.715 547.068 C 230.72 540.884 235.818 535.335 241.52 532.291 C 247.099 529.313 253.599 528.926 259.603 530.723 C 266.466 532.778 271.963 539.008 275.3 545.106 L 278.4 558.439 C 277.209 558.338 275.538 557.222 274.436 556.677 C 267.424 553.21 258.014 547.807 250.824 553.866 C 247.144 556.967 247.124 560.717 245.976 564.935 C 243.341 559.865 240.327 555.516 234.547 553.742 C 232.755 553.192 230.819 552.648 228.938 552.758 C 228.185 551.752 228.187 549.702 227.862 548.438 L 228.715 547.068 Z" stroke-linecap="round"/>
</g>
		<g transform="matrix(4.9622 0 0 4.9049 510.8653 759.0702)">
<linearGradient id="SVGID_5" gradientUnits="userSpaceOnUse" gradientTransform="matrix(1 0 0 1 0 0)" x1="568.68799" y1="606.93799" x2="452.733" y2="527.14398">
<stop offset="0%" style="stop-color:rgb(229,204,224);stop-opacity: 1"/>
<stop offset="100%" style="stop-color:rgb(255,255,255);stop-opacity: 1"/>
</linearGradient>
<path style="stroke: none; stroke-width: 1; stroke-dasharray: none; stroke-linecap: butt; stroke-dashoffset: 0; stroke-linejoin: miter; stroke-miterlimit: 4; is-custom-font: none; font-file-url: none; fill: url(#SVGID_5); fill-rule: nonzero; opacity: 1;" transform=" translate(-486.8569, -538.6631)" d="M 419.289 587.699 C 419.735 577.144 424.511 567.036 432.083 559.699 C 437.703 554.255 446.508 549.251 454.469 548.929 C 457.753 548.796 460.951 549.444 464.221 549.431 C 468.105 549.415 471.901 548.903 475.825 548.988 L 472.34 543.301 C 466.413 532.056 465.649 517.573 469.467 505.5 C 473.796 491.81 483.326 481.219 496.042 474.718 C 508.062 468.573 521.919 467.495 534.75 471.767 C 546.767 475.767 559.179 485.779 564.905 497.202 C 565.985 499.034 566.94 500.891 567.713 502.875 C 568.298 504.378 568.67 506.154 569.622 507.454 C 569.634 508.03 569.697 508.62 569.593 509.188 L 569.351 608.066 L 462.59 608.132 L 460.5 608.066 L 459.938 607.713 C 456.122 607.699 452.306 607.689 448.491 607.694 C 447.35 607.695 445.173 607.425 444.175 607.886 C 443.574 608.163 443.978 608.073 443.059 608.121 L 442.395 608.136 L 404.062 607.692 L 404.252 606.778 C 405.225 603.044 407.858 598.203 410.517 595.405 C 413.508 592.258 416.128 592.135 420.231 592.047 L 419.289 587.699 Z" stroke-linecap="round"/>
</g>
		<g transform="matrix(4.9622 0 0 4.9049 905.3638 716.7464)">
<path style="stroke: none; stroke-width: 1; stroke-dasharray: none; stroke-linecap: butt; stroke-dashoffset: 0; stroke-linejoin: miter; stroke-miterlimit: 4; is-custom-font: none; font-file-url: none; fill: rgb(254,180,201); fill-rule: nonzero; opacity: 1;" transform=" translate(-566.3589, -530.0345)" d="M 564.905 497.202 C 565.985 499.034 566.94 500.891 567.713 502.875 C 568.298 504.378 568.67 506.154 569.622 507.454 C 569.634 508.03 569.697 508.62 569.593 509.188 C 568.61 512.559 569.269 517.865 569.268 521.399 C 569.265 530.333 569.265 539.268 569.259 548.203 C 569.255 553.042 569.556 558.06 569.032 562.867 L 563.066 557.438 L 563.625 557.25 L 564.191 556.5 L 564.656 556.031 L 564.191 555.562 L 565.406 554.531 L 564.941 553.875 L 565.688 553.125 C 565.695 552.026 566.172 552.538 566.438 551.816 C 566.733 551.013 566.333 549.229 566.522 548.272 L 566.627 547.877 L 566.816 547.125 L 567.188 546.566 C 567.174 545.981 567.142 545.535 567.377 544.969 C 567.639 544.338 567.954 544.188 567.957 543.436 L 567.941 543 C 568.731 541.811 567.949 540.803 568.316 539.625 C 568.395 539.373 568.782 539.31 568.875 539.062 C 569.278 537.994 568.875 534.446 568.875 533.118 C 568.875 525.287 568.875 517.456 568.875 509.625 C 568.367 508.862 568.36 508.498 568.448 507.598 L 568.5 507.188 L 567.941 506.812 C 567.966 506.234 568.01 505.63 567.658 505.125 L 567.191 504.562 L 567.191 503.812 C 566.323 502.944 566.736 501.857 565.691 500.812 C 565.691 499.427 565.354 500.215 564.941 499.312 C 564.784 498.968 564.913 497.649 564.905 497.202 Z" stroke-linecap="round"/>
</g>
		<g transform="matrix(4.9622 0 0 4.9049 245.2341 1068.0074)">
<path style="stroke: none; stroke-width: 1; stroke-dasharray: none; stroke-linecap: butt; stroke-dashoffset: 0; stroke-linejoin: miter; stroke-miterlimit: 4; is-custom-font: none; font-file-url: none; fill: rgb(255,255,255); fill-rule: nonzero; opacity: 1;" transform=" translate(-433.326, -601.6496)" d="M 404.252 606.778 C 405.499 607.933 411.654 607.336 413.637 607.344 L 413.838 606.893 C 415.891 602.38 420.281 597.521 424.959 595.723 C 427.678 594.678 430.558 595.201 433.12 596.427 C 436.387 597.99 439.368 600.228 441.68 603.016 L 442.095 603.509 C 442.948 604.543 443.239 605.096 443.544 606.375 L 443.831 607.379 C 447.774 607.353 451.717 607.33 455.659 607.326 C 457.532 607.324 459.796 607.018 461.511 607.753 L 462.59 608.132 L 460.5 608.066 L 459.938 607.713 C 456.122 607.699 452.306 607.689 448.491 607.694 C 447.35 607.695 445.173 607.425 444.175 607.886 C 443.574 608.163 443.978 608.073 443.059 608.121 L 442.395 608.136 L 404.062 607.692 L 404.252 606.778 Z" stroke-linecap="round"/>
</g>
		<g transform="matrix(4.9622 0 0 4.9049 -3.1515 97.5668)">
<path style="stroke: none; stroke-width: 1; stroke-dasharray: none; stroke-linecap: butt; stroke-dashoffset: 0; stroke-linejoin: miter; stroke-miterlimit: 4; is-custom-font: none; font-file-url: none; fill: rgb(254,180,201); fill-rule: nonzero; opacity: 1;" transform=" translate(-383.2688, -403.7965)" d="M 196.377 367.721 L 569.602 367.742 L 569.802 394.46 C 570.428 399.398 570.044 404.738 570.044 409.72 C 570.042 419.771 570.012 429.822 569.977 439.872 C 568.625 438.996 563.062 439.51 561.216 439.48 C 553.458 439.355 545.695 439.143 537.938 438.97 C 522.559 438.627 507.193 437.656 491.812 437.379 C 438.891 436.424 385.907 436.802 332.979 437.156 C 287.478 437.46 242.028 437.589 196.536 438.75 L 196.632 422.775 L 196.508 380.71 L 196.553 379.898 L 196.377 367.721 Z" stroke-linecap="round"/>
</g>
		<g transform="matrix(4.9622 0 0 4.9049 -186.8188 -19.0465)">
<path style="stroke: none; stroke-width: 1; stroke-dasharray: none; stroke-linecap: butt; stroke-dashoffset: 0; stroke-linejoin: miter; stroke-miterlimit: 4; is-custom-font: none; font-file-url: none; fill: rgb(247,230,240); fill-rule: nonzero; opacity: 1;" transform=" translate(-346.2555, -380.0217)" d="M 196.553 379.898 C 222.499 380.139 248.496 379.356 274.448 379.251 C 327.969 379.033 381.498 379.168 435.02 379.177 C 450.48 379.179 465.925 379.354 481.383 379.504 C 484.849 379.538 488.315 379.559 491.781 379.585 C 493.042 379.594 494.845 379.38 496.003 379.781 L 462.562 379.875 L 462.562 380.25 L 495.938 380.25 L 495.75 380.49 C 468.476 381.342 441.105 380.307 413.813 380.352 C 368.462 380.426 323.098 380.411 277.749 380.642 C 254.562 380.76 231.381 381.031 208.193 380.862 C 205.324 380.841 202.454 380.818 199.584 380.785 C 198.777 380.775 197.219 380.965 196.508 380.71 L 196.553 379.898 Z" stroke-linecap="round"/>
</g>
		<g transform="matrix(4.9622 0 0 4.9049 -2.757 136.2163)">
<path style="stroke: none; stroke-width: 1; stroke-dasharray: none; stroke-linecap: butt; stroke-dashoffset: 0; stroke-linejoin: miter; stroke-miterlimit: 4; is-custom-font: none; font-file-url: none; fill: rgb(139,255,226); fill-rule: nonzero; opacity: 1;" transform=" translate(-383.3483, -411.6764)" d="M 196.632 422.775 C 205.988 422.134 215.365 421.309 224.733 420.911 C 245.3 420.039 265.991 420.212 286.577 420.218 C 314.17 420.225 341.764 420.276 369.357 420.367 C 380.13 420.403 390.906 420.442 401.677 420.722 C 410.539 420.953 419.389 421.486 428.258 421.525 C 434.297 421.551 440.567 421.613 446.438 419.978 C 453.421 418.034 460.219 413.845 466.414 410.137 C 478.763 402.746 490.655 394.217 503.403 387.562 C 506.922 385.725 510.638 384.224 514.6 383.712 C 519.091 383.131 523.899 383.762 528.366 384.321 C 542.65 386.108 556.13 390.143 569.802 394.46 C 570.428 399.398 570.044 404.738 570.044 409.72 C 570.042 419.771 570.012 429.822 569.977 439.872 C 568.625 438.996 563.062 439.51 561.216 439.48 C 553.458 439.355 545.695 439.143 537.938 438.97 C 522.559 438.627 507.193 437.656 491.812 437.379 C 438.891 436.424 385.907 436.802 332.979 437.156 C 287.478 437.46 242.028 437.589 196.536 438.75 L 196.632 422.775 Z" stroke-linecap="round"/>
</g>
		<g transform="matrix(4.9622 0 0 4.9049 -5.5347 -820.216)">
<path style="stroke: none; stroke-width: 1; stroke-dasharray: none; stroke-linecap: butt; stroke-dashoffset: 0; stroke-linejoin: miter; stroke-miterlimit: 4; is-custom-font: none; font-file-url: none; fill: rgb(139,255,226); fill-rule: nonzero; opacity: 1;" transform=" translate(-382.7885, -216.6786)" d="M 196.227 305.678 L 196.257 305.309 L 195.809 65.6151 L 569.768 65.8581 L 569.653 305.809 L 569.602 367.742 L 196.377 367.721 C 196.006 362.672 196.172 357.45 196.157 352.383 C 196.129 343.501 196.13 334.619 196.094 325.737 C 196.076 321.309 196.054 316.88 196.036 312.452 C 196.028 310.395 195.682 307.639 196.227 305.678 Z" stroke-linecap="round"/>
</g>
		<g transform="matrix(4.9622 0 0 4.9049 -5.5436 -475.052)">
<linearGradient id="SVGID_6" gradientUnits="userSpaceOnUse" gradientTransform="matrix(1 0 0 1 0 0)" x1="568.68799" y1="367.31201" x2="562.97101" y2="199.92999">
<stop offset="0%" style="stop-color:rgb(241,205,230);stop-opacity: 1"/>
<stop offset="100%" style="stop-color:rgb(255,255,255);stop-opacity: 1"/>
</linearGradient>
<path style="stroke: none; stroke-width: 1; stroke-dasharray: none; stroke-linecap: butt; stroke-dashoffset: 0; stroke-linejoin: miter; stroke-miterlimit: 4; is-custom-font: none; font-file-url: none; fill: url(#SVGID_6); fill-rule: nonzero; opacity: 1;" transform=" translate(-382.7867, -287.051)" d="M 196.227 305.678 C 196.803 306.074 197.155 306.2 197.86 306.213 C 205.713 306.358 213.607 306.112 221.466 306.109 C 239.564 306.102 257.662 306.133 275.759 306.154 C 336.527 306.226 397.295 306.186 458.062 306.184 L 458.434 305.625 C 458.248 305.469 458.094 305.262 457.875 305.156 C 456.737 304.605 322.349 305.082 305.585 305.09 C 297.735 305.094 289.885 305.098 282.034 305.097 C 278.838 305.097 274.296 305.661 271.312 304.778 L 242.342 304.682 C 245.643 295.003 251.239 285.274 260.697 280.545 C 264.588 278.6 268.003 278.232 272.321 278.146 L 272.404 277.767 C 273.932 271.049 277.911 264.582 283.842 260.905 C 287.691 258.518 292.056 257.489 296.567 257.825 C 296.545 254.988 296.387 252.018 296.742 249.204 C 297.937 239.753 302.856 231.482 309.484 224.797 C 321.479 212.7 337.989 206.388 354.938 206.36 C 370.762 206.334 385.756 212.889 396.866 224.12 C 406.803 234.164 412.257 246.619 412.107 260.806 L 411.966 266.84 L 412.473 266.901 C 422.835 268.218 432.765 274.865 438.976 283.108 C 440.94 285.714 442.577 288.507 444.101 291.385 C 445.454 293.94 447.017 297.71 449.396 299.428 C 455.638 298.827 459.775 297.851 465.801 300.283 L 467.513 300.965 C 469.247 296.766 470.973 292.923 473.858 289.359 L 474.246 288.87 C 477.8 284.438 482.515 281.669 488.19 281.058 C 489.636 280.903 490.933 280.977 492.375 281.181 L 492.983 281.264 C 497.185 281.898 501.102 284.507 503.595 287.913 L 505.33 290.709 C 508.323 286.09 511.026 283.355 516.587 282.145 C 521.587 281.057 526.845 282.314 531.062 285.16 C 533.598 286.871 536.035 289.22 537.91 291.63 C 540.524 294.989 542.573 298.781 544.761 302.425 C 545.087 302.968 546.363 305.57 546.788 305.809 C 547.26 306.074 567.585 305.809 569.653 305.809 L 569.602 367.742 L 196.377 367.721 C 196.006 362.672 196.172 357.45 196.157 352.383 C 196.129 343.501 196.13 334.619 196.094 325.737 C 196.076 321.309 196.054 316.88 196.036 312.452 C 196.028 310.395 195.682 307.639 196.227 305.678 Z" stroke-linecap="round"/>
</g>
</g>
</g>
</svg>