<?xml version="1.0" encoding="utf-8" ?>
<svg xmlns="http://www.w3.org/2000/svg" xmlns:xlink="http://www.w3.org/1999/xlink" width="1748" height="1748">
	<path fill="#F2F2F2" transform="scale(2.27668 2.27668)" d="M0 0.1875C1.70241 -0.185587 3.61693 -0.00979729 5.35479 -0.0090068C8.44963 -0.00759905 11.5445 -0.00845752 14.6393 -0.00881649C26.6055 -0.0102045 38.5716 -0.00977825 50.5378 -0.00976663C98.2915 -0.00972023 146.045 -0.00952629 193.799 -0.0102393C385.199 -0.0130972 576.6 -0.00755292 768 0L768 767.812C766.298 768.186 764.383 768.01 762.645 768.009C759.55 768.008 756.456 768.008 753.361 768.009C741.395 768.01 729.428 768.01 717.462 768.01C669.708 768.01 621.955 768.01 574.201 768.01C382.801 768.013 191.4 768.008 -0 768L0 0.1875Z"/>
	<defs>
		<linearGradient id="gradient_0" gradientUnits="userSpaceOnUse" x1="249.938" y1="564.93799" x2="401.995" y2="156.645">
			<stop offset="0" stop-color="#7B4F3E"/>
			<stop offset="1" stop-color="#A27864"/>
		</linearGradient>
	</defs>
	<path fill="url(#gradient_0)" transform="scale(2.27668 2.27668)" d="M249.376 198.562C251.344 197.717 256.407 198.372 258.738 198.401C267.23 198.505 275.72 198.607 284.213 198.593C362.089 198.467 439.962 198.842 517.838 198.347L517.527 565.312L517.018 566.018L249.278 565.942L249.376 198.562Z"/>
	<path fill="#724B3D" transform="scale(2.27668 2.27668)" d="M385.965 442.017L386.69 442.528C386.303 443.209 385.935 443.818 385.688 444.566L386.809 445.312C386.809 446.278 386.983 446.924 386.438 447.75L386.623 448.031L386.434 448.688C386.257 449.577 386.652 449.86 386.059 450.75C386.059 451.693 386.153 451.801 385.684 452.625C385.357 453.199 385.232 453.856 385.123 454.498L384.375 454.5L384.188 455.434L383.627 455.531L383.441 454.875L383.252 454.406C383.196 454.185 383.305 453.967 383.347 453.76C383.628 452.364 383.284 451.324 383.816 450L383.952 448.875C384.625 447.98 384.795 447.687 384.715 446.504L384.63 446.327L384.788 444.988C385.193 443.83 385.058 442.986 385.965 442.017Z"/>
	<path fill="#6A311C" transform="scale(2.27668 2.27668)" d="M396.096 416.995L396.655 417.385L396.433 417.708C396.095 418.244 396.244 417.957 396.11 418.487C395.965 419.059 395.624 419.375 395.25 419.812L395.248 420.373C395.025 420.765 394.751 421.125 394.5 421.5C394.073 422.137 393.993 422.612 393.748 423.281L393.467 423.75C393.07 424.523 393.072 425.697 392.623 426.373C392.554 426.477 391.91 426.857 391.875 426.938C391.603 427.57 392.656 427.287 391.5 428.062L391.498 428.531L391.217 429L391.123 429.656C391.01 430.105 390.652 430.527 390.375 430.875L390.559 431.438L390.184 431.812L389.863 432.709C389.333 434.299 390.156 431.918 389.438 433.5L389.248 434.156L388.967 434.625L388.873 435.281L388.217 436.5C388.259 437.24 388.255 437.354 388.684 438C388.684 439.003 388.366 440.465 387.934 441.188L387.748 441.748L386.712 442.547L386.69 442.528L385.965 442.017L386.367 440.25C386.712 439.244 386.78 438.824 386.78 437.741L396.096 416.995Z"/>
	<path fill="#6A311C" transform="scale(2.27668 2.27668)" d="M335.773 523.142C339.593 522.699 343.959 523.083 347.845 523.078C356.771 523.064 365.696 523.049 374.622 523.034C404.736 522.981 434.862 523.067 464.974 522.722L464.812 524.161C463.131 525.214 461.182 524.756 459.259 525.049L400.891 525.067C398.717 524.601 395.991 524.896 393.739 524.894C388.571 524.89 383.403 524.895 378.235 524.898C358.549 524.909 338.863 524.911 319.177 524.917C315.605 524.918 312.033 524.92 308.461 524.918C306.733 524.918 304.531 525.177 302.903 524.657L302.904 523.823C305.11 523.074 308.884 523.463 311.25 523.446C319.187 523.389 327.473 523.9 335.362 523.184L335.773 523.142Z"/>
	<path fill="#F2F2F2" transform="scale(2.27668 2.27668)" d="M301.063 341.812C303.187 341.47 305.909 342.171 308.053 342.561C317.899 344.35 325.37 349.12 333.226 355.054C341.368 361.203 348.359 367.74 354.155 376.2C361.435 386.826 367.101 398.421 371.902 410.34C375.104 418.289 378.054 426.365 379.747 434.787C381.853 445.268 382.421 456.736 382.542 467.438C382.603 472.736 383.316 479.149 382.362 484.312C381.074 484.446 379.67 484.322 378.369 484.312L377.258 450.938C375.16 431.426 367.317 411.204 356.316 395.021C353.029 390.186 349.261 385.03 344.062 382.109C340.324 380.009 336.305 379.086 332.274 377.761C326.799 375.963 321.881 373.544 317.394 369.884C309.676 363.589 302.133 351.864 301.063 341.812Z"/>
	<path fill="#F2F2F2" transform="scale(2.27668 2.27668)" d="M466.282 387.938L467.049 387.797L467.18 388.312C462.38 396.717 455.9 405.123 446.882 409.25C441.942 411.511 436.686 412.581 431.42 413.763C425.673 415.054 421.326 416.409 416.815 420.501C413.25 423.735 410.427 427.813 407.826 431.83C397.434 447.885 393.366 465.278 392.325 484.156L387.562 484.181C386.793 484.063 386.843 484.218 386.318 483.562C386.317 472.936 385.97 462.147 387.391 451.594C389.148 438.553 394.054 425.906 400.688 414.576C411.495 396.119 425.103 389.871 445.854 389.472C452.475 389.345 459.443 389.787 465.894 388.046L466.282 387.938Z"/>
	<path fill="#F2F2F2" transform="scale(2.27668 2.27668)" d="M335.773 523.142L302.205 523.02L301.99 489.423L464.999 489.48L464.974 522.722C434.862 523.067 404.736 522.981 374.622 523.034C365.696 523.049 356.771 523.064 347.845 523.078C343.959 523.083 339.593 522.699 335.773 523.142Z"/>
	<path fill="#F2F2F2" transform="scale(2.27668 2.27668)" d="M459.259 525.049L464.836 525.369L464.708 560.167L302.181 560.275C301.543 559.22 301.957 554.49 301.952 553.013C301.921 543.843 301.943 534.673 301.966 525.503L400.891 525.067L459.259 525.049Z"/>
	<path fill="#F2F2F2" transform="scale(2.27668 2.27668)" d="M384.63 446.327C383.744 445.086 383.653 442.031 383.373 440.499C382.553 436.023 381.732 431.547 380.649 427.125C378.446 418.133 375.017 409.019 371.265 400.56C365.589 387.763 358.135 374.331 348.654 363.938C344.544 359.432 339.824 355.547 334.992 351.849C329.934 347.979 324.558 344.382 318.624 341.992C311.516 339.13 303.96 338.771 296.8 336.011C296.923 340.467 298.209 345.15 299.759 349.315C304.553 362.202 313.218 372.701 325.818 378.562C330.618 380.795 335.959 381.549 340.707 383.785C343.409 385.057 345.671 386.917 347.743 389.046C351.711 393.123 354.745 398.29 357.673 403.148C364.642 414.711 369.954 428.326 372.507 441.583C375.199 455.564 375.346 469.94 375.197 484.129L296.819 483.42L297.141 560.283L255.43 560.193C254.67 558.48 255.24 553.911 255.247 551.926C255.275 543.456 255.298 534.986 255.323 526.517C255.443 485.899 255.63 445.281 255.676 404.663C255.718 368.04 255.396 331.41 255.336 294.786C255.287 265.012 255.532 235.233 255.322 205.46L511.84 205.868L511.828 559.923L469.924 560.066C469.907 541.691 470.074 523.324 470.174 504.95C470.193 501.363 470.986 486.985 469.851 484.505C469.227 484.041 468.749 483.769 467.98 483.676C465.253 483.345 462.234 483.562 459.481 483.551C454.188 483.529 448.896 483.527 443.603 483.539C427.547 483.578 411.408 483.385 395.365 484.052L396.383 471.118C398.445 455.145 405.377 438.755 415.734 426.387C418.256 423.375 421.261 420.039 424.963 418.509C428.086 417.219 431.528 416.674 434.818 415.95C442.324 414.296 449.256 412.16 455.397 407.358C460.197 403.604 464.126 398.651 467.456 393.581C469.385 390.643 471.27 387.604 471.658 384.035C471.763 383.07 471.793 383.124 471.188 382.388C468.974 382.582 467.055 384.152 464.852 384.659L464.25 384.789C460.677 385.613 456.989 385.543 453.337 385.661C443.946 385.965 434.275 385.867 425.298 388.964C411.929 393.576 402.153 404.489 396.096 416.995L386.78 437.741C386.78 438.824 386.712 439.244 386.367 440.25L385.965 442.017C385.058 442.986 385.193 443.83 384.788 444.988L384.63 446.327Z"/>
	<path fill="#7B4D3A" transform="scale(2.27668 2.27668)" d="M383.625 358.608C384.479 358.191 384.891 357.933 385.875 357.938L385.706 358.677L386.634 359.311C387.58 372.213 386.968 385.507 387.079 398.462C387.143 405.85 387.213 413.239 387.259 420.628C387.293 426.002 387.537 431.963 386.594 437.25L386.78 437.741C386.78 438.824 386.712 439.244 386.367 440.25L385.965 442.017C385.058 442.986 385.193 443.83 384.788 444.988C384.814 441.566 384.439 438.113 384.371 434.679C384.176 424.925 384.065 415.178 384.111 405.422C384.157 395.794 384.181 386.168 384.151 376.54C384.133 370.639 384.446 364.446 383.625 358.608Z"/>
	<path fill="#724B3D" transform="scale(2.27668 2.27668)" d="M383.625 358.608C383.326 358.285 383.042 357.95 382.835 357.557C382.108 356.181 382.196 352.781 381.884 351.118C380.995 346.379 379.801 341.768 378.161 337.23C373.964 325.609 367.125 314.987 357.539 307.12C353.157 303.524 348.453 300.171 344.526 296.069C338.947 290.242 335.315 283.449 333.428 275.625C332.982 273.772 332.405 271.962 332.715 270.049C334.642 268.554 339.409 269.405 341.794 269.702C356.392 271.52 368.78 277.276 377.877 289.141C381.5 293.866 384.152 300.042 385.51 305.812C387.287 313.365 387.351 321.151 387.347 328.874C387.342 336.556 387.207 344.222 387.012 351.901C392.993 336.882 404.295 319.984 419.668 313.445C424.526 311.378 437.739 308.191 442.701 309.938C443.532 310.829 443.901 311.303 443.812 312.583C443.667 314.68 442.845 317.066 442.264 319.085C439.434 328.917 434.802 336.238 426.559 342.417C416.315 350.097 403.537 354.772 390.976 356.786C389.673 356.995 387.073 356.98 386.733 358.35L386.634 359.311L385.706 358.677L385.875 357.938C384.891 357.933 384.479 358.191 383.625 358.608Z"/>
	<path fill="#F2F2F2" transform="scale(2.27668 2.27668)" d="M439.574 312.938C439.854 313.038 440.118 313.181 440.385 313.312C439.037 320.156 436.541 327.093 432.226 332.64C422.546 345.084 405.1 352.227 389.812 354.079L388.975 353.612C391.507 346.179 396.495 338.019 401.576 332.062C407.221 325.443 414.383 319.345 422.611 316.236C428.131 314.15 433.728 313.386 439.574 312.938Z"/>
	<path fill="#F2F2F2" transform="scale(2.27668 2.27668)" d="M336.106 272.812C336.556 272.669 336.884 272.64 337.359 272.621C340.092 272.51 342.954 273.089 345.631 273.597C354.764 275.332 362.571 278.851 369.45 285.21C375.795 291.074 380.289 298.223 382.483 306.61C384.153 312.999 384.251 320.078 384.299 326.654C384.355 334.212 384.28 341.757 384.575 349.312L384.276 349.243C381.938 334.707 375.128 320.265 364.864 309.632C359.315 303.883 352.617 299.522 346.995 293.918C341.131 288.07 337.215 281.079 336.106 272.812Z"/>
</svg>
