<?xml version="1.0" encoding="utf-8" ?>
<svg xmlns="http://www.w3.org/2000/svg" xmlns:xlink="http://www.w3.org/1999/xlink" width="2413" height="2463">
	<path fill="#F7D089" transform="scale(3.14267 3.20709)" d="M0 0.1875C1.70241 -0.185587 3.61693 -0.00979729 5.35479 -0.0090068C8.44963 -0.00759905 11.5445 -0.00845752 14.6393 -0.00881649C26.6055 -0.0102045 38.5716 -0.00977825 50.5378 -0.00976663C98.2915 -0.00972023 146.045 -0.00952629 193.799 -0.0102393C385.199 -0.0130972 576.6 -0.00755292 768 0L768 767.812C766.298 768.186 764.383 768.01 762.645 768.009C759.55 768.008 756.456 768.008 753.361 768.009C741.395 768.01 729.428 768.01 717.462 768.01C669.708 768.01 621.955 768.01 574.201 768.01C382.801 768.013 191.4 768.008 -0 768L0 0.1875Z"/>
	<path fill="#842A20" transform="scale(3.14267 3.20709)" d="M258.717 444.108C256.779 442.639 255.199 441.334 254.794 438.803C254.528 437.144 254.887 435.431 255.883 434.072C256.993 432.557 258.805 431.358 260.701 431.224C263.064 431.056 264.923 431.922 266.615 433.529C267.548 434.416 268.386 435.538 268.431 436.875C268.481 438.334 267.668 439.516 266.671 440.493C265.069 442.063 263.128 443.031 261.018 443.726C260.203 443.703 259.502 443.913 258.717 444.108Z"/>
	<path fill="#911D17" transform="scale(3.14267 3.20709)" d="M571.064 586.543C574.496 586.511 577.927 586.479 581.359 586.411C583.337 586.372 585.632 585.997 587.223 587.25L587.117 588.638C585.979 589.584 585.679 589.553 584.208 589.609C574.048 589.993 563.711 589.556 553.53 589.561C535.203 589.569 516.88 589.749 498.553 589.763C480.207 589.777 461.86 589.8 443.513 589.813C433.883 589.819 424.129 590.115 414.514 589.767L414.582 589.233C417.488 589.104 420.711 589.266 423.562 588.816C425.163 588.564 426.468 588.128 428.13 588.023C432.476 587.746 436.894 587.97 441.184 587.438C443.438 587.158 446.056 587.972 448.186 587.058L450.811 586.922L451.842 587.063L451.873 587.531C451.028 587.546 450.549 587.515 449.777 587.9C449.126 588.226 449.427 588.173 448.77 588.305L447.375 588.562L450.375 588.566C451.051 589.015 450.733 588.838 451.312 589.125C455.085 588.921 458.836 589.131 462.607 589.131C470.182 589.131 477.758 589.131 485.333 589.129C487.842 589.128 494.536 589.881 496.5 588.658C497.106 588.63 497.486 588.588 498.053 588.839C499.444 589.454 499.107 588.931 500.062 588.566C500.459 588.415 501.646 588.566 502.125 588.566L502.594 589.031C503.598 589.123 503.572 589.165 504.375 588.566C505.009 589.196 505.034 589.049 505.875 589.125L506.438 588.566C507.106 588.625 507.722 588.673 508.395 588.618C509.107 588.56 509.211 588.767 509.812 589.125C511.016 589.125 512.318 589.43 513.188 588.566L515.578 588.612L516.504 588.664C517.374 588.664 520.262 588.312 520.875 588.566C521.119 588.667 521.195 589.02 521.438 589.125C522.1 589.413 524.527 589.125 525.375 589.125L525.938 588.75C528.369 589.792 531.72 588.732 534.34 588.988L534.75 589.033L535.688 588.941C543.009 589.292 550.411 589.15 557.759 589.13C560.262 589.124 562.982 588.737 565.442 588.978L567.188 589.125L567.844 588.844C569.6 589.898 580.407 588.856 583.079 589.074L583.5 589.125L584.062 588.566C584.469 588.658 584.844 588.756 585.235 588.902L585.564 589.031C586.024 588.572 586.528 588.266 586.688 587.625L586.125 587.342C585.262 586.824 583.841 587.073 582.808 587.073C580.601 587.072 578.427 586.873 576.203 586.884C574.788 586.891 572.915 587.111 571.574 586.709L571.064 586.543Z"/>
	<path fill="#842A20" transform="scale(3.14267 3.20709)" d="M261.796 391.565C263.297 391.34 264.948 391.221 266.438 391.581C268.614 392.108 270.647 394.357 271.636 396.276C272.579 398.106 272.936 400.423 272.213 402.395C271.348 404.754 269.261 406.119 267.131 407.203L266.985 407.226C265.819 407.434 264.684 407.667 263.497 407.497C261.222 407.171 259.172 405.959 257.802 404.115C256.508 402.371 256.199 400.629 256.555 398.489C257.061 395.453 259.353 393.183 261.796 391.565Z"/>
	<path fill="#951A13" transform="scale(3.14267 3.20709)" d="M355.882 224.742C354.872 219.614 358.167 215.894 360.091 211.374C358.453 210.953 356.641 210.686 355.582 209.232C354.599 207.884 354.811 204.841 354.8 203.212C354.767 198.399 354.083 192.035 355.488 187.475L355.667 186.938C354.35 183.288 353.164 180.145 355.066 176.438C356.282 174.067 358.098 172.761 360.636 172.082C363.007 171.448 366.047 171.728 368.506 171.727C372.858 171.726 377.21 171.715 381.562 171.714C386.337 171.713 391.113 171.718 395.889 171.732C398.39 171.739 401.094 171.555 403.57 171.828C405.434 172.034 407.289 172.441 408.875 173.484C411.32 175.093 412.074 177.646 412.549 180.381C412.844 182.08 410.004 184.685 410.634 186.145C412.09 189.521 411.434 194.414 411.429 198.057C411.425 201.609 411.74 205.534 411.117 209.032L408.889 210.318C407.577 211.081 406.836 212.166 405.97 213.373C407.564 215.414 409.402 217.59 410.12 220.126C410.9 222.88 410.425 226.531 410.246 229.373C410.022 228.793 409.89 228.312 409.786 227.691L409.691 227.062L408.562 227.809L408.49 227.293L407.565 226.814C406.983 227.478 406.869 227.599 406.127 228.002L405.634 228.388C404.703 228.482 404.3 228.437 403.5 228.941C394.652 228.941 385.804 228.941 376.957 228.944C373.537 228.945 369.045 228.39 365.737 229.064L363.375 228.941L362.812 228.576C360.486 228.608 359.219 227.685 357.465 226.232L357.435 225.899L355.882 224.742Z"/>
	<path fill="#F7D089" transform="scale(3.14267 3.20709)" d="M362.029 210.188C369.944 209.838 377.95 210.046 385.875 210.035C391.641 210.027 398.159 209.475 403.823 210.477C404.157 211.564 403.785 212.122 403.445 213.188C403.163 213.392 403.065 213.497 402.682 213.587C400.333 214.14 396.574 213.639 394.113 213.63C386.127 213.604 378.141 213.566 370.155 213.546C368.304 213.541 364.393 214.094 362.812 213.39L362.029 210.188Z"/>
	<path fill="#F7D089" transform="scale(3.14267 3.20709)" d="M360.156 174.562C362.341 174.074 364.8 174.276 367.038 174.269C371.267 174.255 375.497 174.256 379.727 174.264C387.555 174.277 395.953 173.697 403.721 174.452C404.886 174.565 406.026 174.697 407.042 175.312C408.19 176.008 409.184 177.168 409.462 178.5C409.861 180.419 408.986 183.059 407.881 184.656C407.435 185.301 407.05 185.151 406.312 185.274C401.28 185.312 359.202 186.041 358.074 185.194C357.349 182.848 356.555 180.51 357.26 178.048C357.763 176.292 358.584 175.419 360.156 174.562Z"/>
	<path fill="#F7D089" transform="scale(3.14267 3.20709)" d="M358.888 224.958C358.007 222.854 358.272 221.404 359.122 219.325C359.517 218.361 359.958 217.753 360.678 217.014C363.284 216.319 403.481 216.667 404.161 217.013C405.918 217.906 406.976 219.759 407.392 221.617C407.668 222.849 407.66 223.896 407.454 225.132L407.565 226.814C406.983 227.478 406.869 227.599 406.127 228.002L405.634 228.388C404.703 228.482 404.3 228.437 403.5 228.941C394.652 228.941 385.804 228.941 376.957 228.944C373.537 228.945 369.045 228.39 365.737 229.064L363.375 228.941L362.812 228.576C360.486 228.608 359.219 227.685 357.465 226.232C357.946 225.375 357.988 225.362 358.888 224.958Z"/>
	<path fill="#9C3128" transform="scale(3.14267 3.20709)" d="M357.465 226.232C357.946 225.375 357.988 225.362 358.888 224.958C359.612 225.524 360.379 226.17 361.295 226.375C364.351 227.058 367.727 226.922 370.838 226.938C375.509 226.963 380.18 226.955 384.851 226.958C391.109 226.961 398.056 227.561 404.245 226.734C405.569 226.557 406.433 225.936 407.454 225.132L407.565 226.814C406.983 227.478 406.869 227.599 406.127 228.002L405.634 228.388C404.703 228.482 404.3 228.437 403.5 228.941C394.652 228.941 385.804 228.941 376.957 228.944C373.537 228.945 369.045 228.39 365.737 229.064L363.375 228.941L362.812 228.576C360.486 228.608 359.219 227.685 357.465 226.232Z"/>
	<path fill="#F7D089" transform="scale(3.14267 3.20709)" d="M357.818 188.438C359.32 188.111 361.287 188.308 362.832 188.308C365.978 188.307 369.124 188.308 372.271 188.309C384.434 188.312 396.596 188.308 408.759 188.234L408.562 207.338C406.464 208.397 400.006 207.357 397.362 207.341C384.133 207.26 370.904 207.28 357.675 207.343L357.818 188.438Z"/>
	<path fill="#911D17" transform="scale(3.14267 3.20709)" d="M296.985 393.691L297.958 394.264C297.794 436.415 297.476 478.573 297.463 520.724C297.458 533.047 297.47 545.37 297.475 557.693C297.478 564.748 297.11 572.093 297.761 579.115C297.932 580.954 298.217 582.516 299.61 583.854C303.681 587.766 311.374 586.783 316.553 586.489L343.398 585.286L417.513 584.242L417.806 584.773L430.688 584.625L431.062 585.184L431.625 585.092L439.875 585.092C442.58 585.277 445.431 585.299 448.125 585.092L449.439 585.094L449.25 585.375C442.182 585.366 435.114 585.365 428.046 585.357C426.462 585.355 422.937 584.933 421.691 585.562C422.807 586.304 425.886 585.907 427.362 585.897C432.594 585.861 437.825 585.829 443.057 585.843C445.14 585.848 447.797 585.564 449.812 585.957C450.528 586.097 450.566 586.282 450.811 586.922L448.186 587.058C446.056 587.972 443.438 587.158 441.184 587.438C436.894 587.97 432.476 587.746 428.13 588.023C426.468 588.128 425.163 588.564 423.562 588.816C420.711 589.266 417.488 589.104 414.582 589.233L414.514 589.767L385.618 589.5L299.345 589.32C295.44 589.725 291.286 589.433 287.34 589.442C279.566 589.459 271.793 589.474 264.02 589.487C238.515 589.529 213.004 589.61 187.5 589.448C186.555 588.643 186.666 588.625 186.53 587.373L187.312 586.519L239.332 586.502C239.451 567.247 239.39 547.994 239.437 528.739C239.45 523.279 239.465 517.82 239.505 512.36C239.529 509.016 239.354 505.425 239.883 502.116C240.493 498.296 241.665 494.78 244.37 491.907C248.258 487.778 252.992 487.264 258.294 487.079L258.717 444.108C259.502 443.913 260.203 443.703 261.018 443.726L261.136 487.075C267.077 487.305 272.202 487.19 276.562 491.944C277.821 493.315 278.692 495.174 278.935 497.023C279.314 499.919 279.065 503.165 279.073 506.108C279.087 511.645 279.101 517.182 279.111 522.72C279.146 543.889 278.863 565.059 278.961 586.227L297.742 586.15C296.898 585.278 295.779 583.751 294.777 583.148L293.074 581.438C291.504 579.667 290.307 577.546 289.995 575.18C289.507 571.482 289.925 567.188 289.932 563.441C289.947 554.994 289.984 546.548 290.026 538.101C290.108 521.722 290.316 505.35 290.473 488.974C290.579 477.935 290.504 466.868 290.981 455.838L291.931 456.375L291.897 468.495C291.894 473.446 291.892 478.396 291.897 483.346C291.899 485.321 291.513 488.521 292.312 490.309L292.594 488.436L292.875 488.625L292.969 490.014L293.157 488.459L293.644 488.613L293.935 488.438L294.832 397.127C294.885 395.925 294.864 395.386 295.561 394.315C295.957 393.8 296.374 393.849 296.985 393.691Z"/>
	<path fill="#9C3128" transform="scale(3.14267 3.20709)" d="M343.398 585.286L417.513 584.242L417.806 584.773L430.688 584.625L431.062 585.184L431.625 585.092L439.875 585.092C442.58 585.277 445.431 585.299 448.125 585.092L449.439 585.094L449.25 585.375C442.182 585.366 435.114 585.365 428.046 585.357C426.462 585.355 422.937 584.933 421.691 585.562C422.807 586.304 425.886 585.907 427.362 585.897C432.594 585.861 437.825 585.829 443.057 585.843C445.14 585.848 447.797 585.564 449.812 585.957C450.528 586.097 450.566 586.282 450.811 586.922L448.186 587.058C446.056 587.972 443.438 587.158 441.184 587.438C436.894 587.97 432.476 587.746 428.13 588.023C426.468 588.128 425.163 588.564 423.562 588.816C420.711 589.266 417.488 589.104 414.582 589.233L414.514 589.767L385.618 589.5C380.441 588.521 375.05 589.121 369.921 588.361L369.469 588.29L368.625 588.184C367.382 587.937 366.363 587.807 365.096 587.924C364.522 587.977 364.062 588.054 363.489 587.926C362.286 587.659 360.914 587.778 359.679 587.778L359.37 587.318C356.774 587.226 353.98 587.235 351.441 587.845C350.596 588.049 351.039 588.086 350.25 587.812C350.96 587.576 350.695 587.72 351.317 587.285C352.157 586.699 355.994 586.584 357.141 586.772L357.562 586.875L357.566 586.312L357.191 585.938C357.96 585.169 363.459 585.566 364.875 585.566C365.584 585.093 365.578 585.191 366.375 585.191C367.928 586.223 369.384 584.829 370.875 586.312C371.972 585.588 373.345 586.148 374.627 585.752L375.188 585.566L375.844 585.377C376.959 584.888 377.264 584.738 378.524 584.72L378.939 584.719C377.615 584.557 376.326 584.7 375 584.717C373.27 584.739 371.343 585.222 369.663 585.058C367.76 584.871 365.498 584.836 363.602 585.086C361.615 585.348 358.705 585.717 356.742 585.524C354.474 585.302 352.131 585.682 349.875 585.467C349.204 585.403 348.854 585.435 348.188 585.559L347.812 585.934L346.5 585.842C345.464 585.657 344.448 585.439 343.398 585.286Z"/>
	<path fill="#951A13" transform="scale(3.14267 3.20709)" d="M359.37 587.318L448.186 587.058C446.056 587.972 443.438 587.158 441.184 587.438C436.894 587.97 432.476 587.746 428.13 588.023C426.468 588.128 425.163 588.564 423.562 588.816C420.711 589.266 417.488 589.104 414.582 589.233L414.514 589.767L385.618 589.5C380.441 588.521 375.05 589.121 369.921 588.361L369.469 588.29L368.625 588.184C367.382 587.937 366.363 587.807 365.096 587.924C364.522 587.977 364.062 588.054 363.489 587.926C362.286 587.659 360.914 587.778 359.679 587.778L359.37 587.318Z"/>
	<path fill="#9C3128" transform="scale(3.14267 3.20709)" d="M295.561 394.315C296.815 396.406 296.032 406.815 296.008 409.796C295.993 411.528 296.238 413.622 295.971 415.312C295.496 418.318 295.657 421.428 295.656 424.516C295.654 429.47 295.7 434.429 295.63 439.383C295.547 445.264 295.368 451.245 295.224 457.165C295.209 457.788 294.929 458.206 294.917 458.806C294.715 468.848 294.913 478.941 294.918 488.988C294.92 493.487 294.924 497.986 294.926 502.485C294.927 504.615 295.163 507.025 294.844 509.123L294.819 580.096C295.159 581.136 294.931 582.094 294.777 583.148L293.074 581.438C291.504 579.667 290.307 577.546 289.995 575.18C289.507 571.482 289.925 567.188 289.932 563.441C289.947 554.994 289.984 546.548 290.026 538.101C290.108 521.722 290.316 505.35 290.473 488.974C290.579 477.935 290.504 466.868 290.981 455.838L291.931 456.375L291.897 468.495C291.894 473.446 291.892 478.396 291.897 483.346C291.899 485.321 291.513 488.521 292.312 490.309L292.594 488.436L292.875 488.625L292.969 490.014L293.157 488.459L293.644 488.613L293.935 488.438L294.832 397.127C294.885 395.925 294.864 395.386 295.561 394.315Z"/>
	<path fill="#7D7C7E" transform="scale(3.14267 3.20709)" d="M294.819 580.096L293.954 579.045C292.089 576.306 292.646 572.781 293.372 569.812C293.519 569.675 293.734 569.585 293.812 569.4C293.973 569.024 293.881 567.57 293.895 567.098C293.994 563.709 293.911 560.306 293.885 556.916C293.793 544.683 293.823 532.449 293.819 520.215C293.818 517.959 293.818 515.703 293.817 513.446C293.817 512.715 293.647 511.43 293.817 510.75C293.925 510.319 294.585 509.533 294.844 509.123L294.819 580.096Z"/>
	<path fill="#F7D089" transform="scale(3.14267 3.20709)" d="M259.489 585.873L259.153 586.083C258.039 586.589 255.918 586.346 254.667 586.351C250.556 586.366 246.444 586.358 242.333 586.345C242.332 567.981 242.334 549.617 242.346 531.253C242.351 525.195 242.352 519.136 242.392 513.078C242.418 509.12 242.173 504.635 243.236 500.812L243.396 500.212C244.319 496.896 246.274 493.763 249.377 492.1C254.21 489.509 263.977 489.49 269.135 491.2C271.954 492.134 273.943 493.464 275.733 495.851C276.473 498.68 276.347 501.506 276.354 504.407C276.364 508.475 276.351 512.542 276.351 516.61C276.352 528.951 276.336 541.292 276.337 553.632C276.338 560.937 276.339 568.241 276.334 575.545C276.331 578.834 276.722 582.724 276.137 585.939L274.936 586.234L274.268 586.57C272.162 587.191 268.495 586.493 266.25 586.517C264.943 586.531 264.08 586.798 262.814 586.248C262.429 586.111 262.078 585.93 261.711 585.75L261.636 579.522L261.427 580.164C260.951 581.755 261.168 583.794 261.188 585.452L259.489 585.873Z"/>
	<path fill="#B02519" transform="scale(3.14267 3.20709)" d="M262.814 586.248C263.882 586.231 265.399 586.478 266.164 585.75L265.826 509.438L266.438 508.803L267.364 508.947C267.494 509.173 267.704 509.369 267.753 509.625C268.04 511.115 267.753 513.303 267.753 514.852C267.754 519.5 267.755 524.148 267.756 528.796C267.761 547.885 267.326 567.098 268.083 586.166L274.936 586.234L274.268 586.57C272.162 587.191 268.495 586.493 266.25 586.517C264.943 586.531 264.08 586.798 262.814 586.248Z"/>
	<path fill="#951A13" transform="scale(3.14267 3.20709)" d="M259.489 585.873L259.236 503.073C259.293 500.503 260.062 497.778 262.038 496.018C263.975 494.294 266.245 494.18 268.688 494.27L269.098 494.86C267.135 495.683 265.383 495.6 263.78 497.272C262.667 498.433 261.985 499.739 261.716 501.321C261.248 504.079 261.481 507.133 261.481 509.927C261.481 515.056 261.497 520.185 261.516 525.314C261.582 543.383 261.716 561.454 261.636 579.522L261.427 580.164C260.951 581.755 261.168 583.794 261.188 585.452L259.489 585.873Z"/>
	<path fill="#842A20" transform="scale(3.14267 3.20709)" d="M355.882 224.742L357.435 225.899L357.465 226.232C359.219 227.685 360.486 228.608 362.812 228.576L363.375 228.941L365.737 229.064C369.045 228.39 373.537 228.945 376.957 228.944C385.804 228.941 394.652 228.941 403.5 228.941C404.3 228.437 404.703 228.482 405.634 228.388L406.127 228.002C406.869 227.599 406.983 227.478 407.565 226.814L408.49 227.293L408.562 227.809L409.691 227.062L409.786 227.691C409.89 228.312 410.022 228.793 410.246 229.373C409.865 232.838 410.152 236.422 410.142 239.91C410.124 246.719 410.09 253.527 410.077 260.335C410.064 266.99 410.055 273.645 410.057 280.3C410.058 283.901 409.751 287.819 410.291 291.366C410.69 293.981 412.061 296.521 413.699 298.585C423.05 310.365 477.988 335.524 479.656 346.144L480.295 346.812C482.083 344.432 482.887 341.346 483.227 338.417C483.65 334.779 483.442 330.877 483.447 327.207C483.458 318.611 483.135 310.024 483.053 301.429C483.014 297.372 482.768 293.169 482.99 289.125C483.13 286.575 483.324 284.025 482.918 281.466L482.845 281.072C482.696 280.023 482.997 279.279 483.071 278.25C483.253 275.762 482.726 273.988 483.938 271.637C484.312 271.347 484.653 271.007 485.062 270.767C486.398 269.984 499.458 270.209 501.557 270.489C503.201 270.709 504.191 271.325 505.381 272.438C506.195 274.373 505.69 276.746 505.744 278.812C505.783 280.293 506.157 281.755 505.688 283.201C505.218 284.648 505.705 286.982 505.726 288.562C505.775 292.334 505.731 296.112 505.701 299.884C505.598 313.102 505.197 326.294 505.22 339.516C505.229 344.765 504.991 350.145 505.38 355.372C505.587 358.139 506.27 361.246 507.562 363.712C508.373 365.259 509.297 366.817 510.773 367.808C513.741 369.801 517.705 370.453 521.048 371.584C530.014 374.619 539.168 381.234 542.546 390.375C544.368 395.307 544.052 401.248 544.066 406.424C544.082 412.319 544.083 418.214 544.08 424.109C544.08 425.127 543.609 427.034 544.73 427.27C549.787 428.336 557.279 425.589 561.259 430.118C561.711 430.632 562.197 431.314 562.357 431.991C563.36 436.235 561.447 469.016 562.895 469.857C564.102 470.559 565.457 471.616 565.756 473.068C565.95 474.011 565.759 475.029 565.672 475.973L565.055 586.46L571.064 586.543L571.574 586.709C572.915 587.111 574.788 586.891 576.203 586.884C578.427 586.873 580.601 587.072 582.808 587.073C583.841 587.073 585.262 586.824 586.125 587.342L586.688 587.625C586.528 588.266 586.024 588.572 585.564 589.031L585.235 588.902C584.844 588.756 584.469 588.658 584.062 588.566L583.5 589.125L583.079 589.074C580.407 588.856 569.6 589.898 567.844 588.844L567.188 589.125L565.442 588.978C562.982 588.737 560.262 589.124 557.759 589.13C550.411 589.15 543.009 589.292 535.688 588.941L534.75 589.033L534.34 588.988C531.72 588.732 528.369 589.792 525.938 588.75L525.375 589.125C524.527 589.125 522.1 589.413 521.438 589.125C521.195 589.02 521.119 588.667 520.875 588.566C520.262 588.312 517.374 588.664 516.504 588.664L515.578 588.612L513.188 588.566C512.318 589.43 511.016 589.125 509.812 589.125C509.211 588.767 509.107 588.56 508.395 588.618C507.722 588.673 507.106 588.625 506.438 588.566L505.875 589.125C505.034 589.049 505.009 589.196 504.375 588.566C503.572 589.165 503.598 589.123 502.594 589.031L502.125 588.566C501.646 588.566 500.459 588.415 500.062 588.566C499.107 588.931 499.444 589.454 498.053 588.839C497.486 588.588 497.106 588.63 496.5 588.658C494.536 589.881 487.842 589.128 485.333 589.129C477.758 589.131 470.182 589.131 462.607 589.131C458.836 589.131 455.085 588.921 451.312 589.125C450.733 588.838 451.051 589.015 450.375 588.566L447.375 588.562L448.77 588.305C449.427 588.173 449.126 588.226 449.777 587.9C450.549 587.515 451.028 587.546 451.873 587.531L451.842 587.063L450.811 586.922C450.566 586.282 450.528 586.097 449.812 585.957C447.797 585.564 445.14 585.848 443.057 585.843C437.825 585.829 432.594 585.861 427.362 585.897C425.886 585.907 422.807 586.304 421.691 585.562C422.937 584.933 426.462 585.355 428.046 585.357C435.114 585.365 442.182 585.366 449.25 585.375L449.439 585.094L448.125 585.092C445.431 585.299 442.58 585.277 439.875 585.092L431.625 585.092L431.062 585.184L430.688 584.625L417.806 584.773L417.513 584.242L343.398 585.286L316.553 586.489C311.374 586.783 303.681 587.766 299.61 583.854C298.217 582.516 297.932 580.954 297.761 579.115C297.11 572.093 297.478 564.748 297.475 557.693C297.47 545.37 297.458 533.047 297.463 520.724C297.476 478.573 297.794 436.415 297.958 394.264L296.985 393.691C296.374 393.849 295.957 393.8 295.561 394.315C294.864 395.386 294.885 395.925 294.832 397.127L293.935 488.438L293.644 488.613L293.157 488.459L292.969 490.014L292.875 488.625L292.594 488.436L292.312 490.309C291.513 488.521 291.899 485.321 291.897 483.346C291.892 478.396 291.894 473.446 291.897 468.495L291.931 456.375L290.981 455.838C290.674 454.348 290.953 452.365 290.965 450.814C290.991 447.263 291.01 443.712 291.011 440.161C291.015 430.505 291.005 420.85 291.011 411.194C291.016 404.119 290.738 396.952 291.717 389.927C291.351 387.497 291.724 384.494 291.736 381.997C291.766 375.766 291.702 369.511 291.912 363.284C292.061 358.891 292.41 354.604 293.881 350.422C296.656 342.533 301.716 336.201 307.366 330.175C314.751 322.298 323.326 315.132 332.27 309.073C338.428 304.901 345.782 301.119 351.168 296.003C352.924 294.334 356.216 290.895 356.606 288.424C356.822 287.059 356.465 285.114 356.4 283.695C356.267 280.799 356.262 277.901 356.247 275.002C356.183 262.377 356.239 249.753 356.211 237.128C356.202 232.976 355.783 228.893 355.882 224.742Z"/>
	<path fill="#AD473E" transform="scale(3.14267 3.20709)" d="M486.788 312.188C491.276 311.254 496.94 311.905 501.562 311.953L502.108 312.744L501.562 313.664L486.75 313.809L486.433 313.312L486.788 312.188Z"/>
	<path fill="#F7D089" transform="scale(3.14267 3.20709)" d="M486.704 305.981L502.05 305.884C501.889 306.924 502.03 307.639 501.188 308.328C497.641 308.327 494.095 308.315 490.549 308.297C489.394 308.291 487.712 308.558 486.771 307.875L486.704 305.981Z"/>
	<path fill="#A4A3A4" transform="scale(3.14267 3.20709)" d="M292.156 443.07L293.115 442.429L293.28 442.897L293.157 488.459L292.969 490.014L292.875 488.625L292.594 488.436L292.312 490.309C291.513 488.521 291.899 485.321 291.897 483.346C291.892 478.396 291.894 473.446 291.897 468.495L292.156 443.07Z"/>
	<path fill="#F7D089" transform="scale(3.14267 3.20709)" d="M486.76 273.938C491.491 273.224 497.167 273.821 502.002 273.813C501.929 274.838 501.824 275.861 501.991 276.881L502.099 277.489L501.562 278.134L486.086 278.082C486.164 276.685 486.113 275.206 486.76 273.938Z"/>
	<path fill="#AD473E" transform="scale(3.14267 3.20709)" d="M291.717 389.927L291.938 392.9L292.73 392.812C293.076 393.325 293.365 393.689 293.474 394.312C293.838 396.399 293.528 399.218 293.532 401.385C293.545 406.985 293.526 412.585 293.508 418.185C293.491 423.623 293.464 429.061 293.445 434.499C293.437 437.032 293.706 439.911 293.401 442.412L293.28 442.897L293.115 442.429L292.156 443.07L291.897 468.495L291.931 456.375L290.981 455.838C290.674 454.348 290.953 452.365 290.965 450.814C290.991 447.263 291.01 443.712 291.011 440.161C291.015 430.505 291.005 420.85 291.011 411.194C291.016 404.119 290.738 396.952 291.717 389.927Z"/>
	<path fill="#C46B64" transform="scale(3.14267 3.20709)" d="M292.156 443.07L292.303 427.125C292.363 426.239 292.391 425.305 293.062 424.7L293.115 442.429L292.156 443.07Z"/>
	<path fill="#F7D089" transform="scale(3.14267 3.20709)" d="M487.032 319.313L502.185 319.306C502.237 322.314 502.812 326.367 501.938 329.22L486.702 329.335C486.672 326.621 485.976 321.719 487.032 319.313Z"/>
	<path fill="#F7D089" transform="scale(3.14267 3.20709)" d="M360.053 232.312C361.38 231.956 363.543 232.436 364.974 232.554C364.965 245.48 364.856 258.404 364.705 271.33C364.599 280.374 365.093 289.924 363.215 298.821C362.891 299.523 362.732 299.88 362.062 300.29L361.811 300.058C361.118 299.288 360.553 298.128 360.425 297.102C360.137 294.782 360.241 292.282 360.175 289.934C360.035 284.992 359.924 280.057 359.888 275.113C359.781 260.864 359.744 246.558 360.053 232.312Z"/>
	<path fill="#B02519" transform="scale(3.14267 3.20709)" d="M486.704 305.981C486.088 307.056 486.713 307.744 486.188 308.809C485.45 308.071 486.086 306.968 485.835 305.972L485.441 304.5L485.812 304.125C485.488 303.472 485.426 302.779 485.625 302.062C485.92 300.998 485.964 301.829 485.879 300.85L485.816 300.375L486.188 299.816C485.759 299.169 485.772 299.415 485.812 298.691C485.907 297.004 486.07 294.916 485.816 293.25C485.616 291.936 485.379 290.492 485.772 289.19C486.224 287.695 485.23 286.021 485.801 284.593L486 284.25L485.441 283.688L485.906 283.406L485.719 283.031C485.377 281.82 485.691 281.159 486.377 280.219L487.5 280.408C490.541 280.4 493.638 280.248 496.687 280.316C497.694 280.339 498.633 280.584 499.641 280.42L500.062 280.316L500.438 280.875L501.75 280.691L502.304 281.245L501.775 281.574C501.985 282.985 502.123 284.313 502.095 285.741L502.335 285.367C502.708 284.66 502.666 284.099 502.688 283.319C502.932 284.446 503.022 285.718 502.498 286.781L502.065 286.635C501.329 286.414 501.789 286.513 501 286.592L486.938 286.5C486.793 287.22 486.634 287.244 487.031 287.906L486.844 288.281L487.231 288.276C490.423 288.282 493.507 288.316 496.687 288.191L498 288.283C498.646 288.286 499.219 288.253 499.875 288.283L500.402 288.277C501.123 288.277 501.786 288.371 502.498 288.469C503.207 289.703 502.875 291.805 502.875 293.25C499.439 293.25 496.003 293.25 492.567 293.25C491.08 293.25 489.161 292.974 487.875 293.625L487.125 293.812L487.312 294.375C491.727 294.381 496.231 294.564 500.625 294.283L502.654 294.568L502.081 295.596C502.042 296.66 502.142 297.864 501.769 298.863L502.591 298.452L502.466 296.062L502.875 296.062C502.89 297.42 502.753 298.67 502.684 300L502.781 301.219L502.781 302.615L502.526 301.531C502.379 302.358 502.207 303.175 502.157 304.015C502.293 304.777 502.392 305.171 502.05 305.884L486.704 305.981Z"/>
	<path fill="#F7D089" transform="scale(3.14267 3.20709)" d="M486.647 289.312C489.58 288.459 494.569 289.084 497.717 289.089C498.976 289.091 500.836 288.83 501.938 289.394C502.114 290.515 502.077 291.2 501.848 292.312C499.799 292.83 488.413 292.988 486.597 292.312C486.391 291.251 486.509 290.367 486.647 289.312Z"/>
	<path fill="#F7D089" transform="scale(3.14267 3.20709)" d="M501.769 298.863C497.988 298.72 494.163 298.822 490.378 298.809C489.139 298.805 487.682 299.102 486.72 298.312L486.739 295.5L487.312 295.051C490.85 295.039 494.387 295.041 497.925 295.051C499.329 295.055 500.856 294.812 502.081 295.596C502.042 296.66 502.142 297.864 501.769 298.863Z"/>
	<path fill="#F7D089" transform="scale(3.14267 3.20709)" d="M486.674 303.937C486.513 302.797 486.272 302.491 486.938 301.514L502.526 301.531C502.379 302.358 502.207 303.175 502.157 304.015C502.293 304.777 502.392 305.171 502.05 305.884L486.704 305.981C486.748 305.286 486.708 304.633 486.674 303.937Z"/>
	<path fill="#AD473E" transform="scale(3.14267 3.20709)" d="M502.157 304.015C502.293 304.777 502.392 305.171 502.05 305.884L486.704 305.981C486.748 305.286 486.708 304.633 486.674 303.937L502.157 304.015Z"/>
	<path fill="#F7D089" transform="scale(3.14267 3.20709)" d="M502.095 285.741C497.278 286.561 491.411 285.981 486.469 286.028L486.434 281.208C491.11 281.207 497.309 280.48 501.775 281.574C501.985 282.985 502.123 284.313 502.095 285.741Z"/>
	<path fill="#F7D089" transform="scale(3.14267 3.20709)" d="M544.53 430.312L545.117 430.215C548.731 429.891 556.472 429.579 559.312 431.729C560.087 433.275 559.8 434.943 559.744 436.624C559.661 439.102 559.631 441.575 559.626 444.054C559.611 452.847 559.589 461.645 559.721 470.438C558.263 470.85 556.405 470.641 554.881 470.642C551.459 470.644 548.037 470.642 544.615 470.638C544.038 461.661 544.507 452.391 544.455 443.378C544.433 439.455 543.572 433.987 544.53 430.312Z"/>
	<path fill="#F7D089" transform="scale(3.14267 3.20709)" d="M546.492 473.812L562.429 474.141C563.03 478.381 562.646 482.923 562.627 487.21C562.592 494.751 562.58 502.292 562.557 509.832C562.479 535.354 562.732 560.926 562.236 586.44L555.094 586.44L537.93 586.383C540.602 584.205 543.814 581.433 544.695 577.961C545.324 575.48 545.065 572.566 545.06 570.015C545.05 565.235 545.024 560.455 545.013 555.676C544.972 537.931 545.091 520.187 545.026 502.442C545.003 496.359 544.975 490.275 544.95 484.191C544.937 480.875 544.713 477.394 545.062 474.1L546.492 473.812Z"/>
	<path fill="#B02519" transform="scale(3.14267 3.20709)" d="M556.508 478.312C557.152 478.233 557.242 478.284 557.812 478.531L557.667 563.812C556.846 563.95 557.048 564.047 556.237 563.568C555.845 560.152 556.115 556.47 556.12 553.027C556.129 546.304 556.143 539.582 556.152 532.859C556.177 515.271 555.745 497.624 556.054 480.044C556.066 479.356 556.192 478.919 556.508 478.312Z"/>
	<path fill="#F7D089" transform="scale(3.14267 3.20709)" d="M527.639 487.195L527.496 473.701C531.198 473.698 536.926 472.994 540.314 474.444C541.228 475.16 541.408 475.449 541.503 476.625C542.034 483.207 541.676 490.163 541.691 496.773C541.723 510.719 541.676 524.665 541.65 538.61C541.635 546.791 541.641 554.969 541.717 563.149C541.754 567.148 542.185 571.484 541.767 575.45C541.5 577.982 539.526 580.467 537.845 582.291C535.951 584.346 533.954 586.265 531.027 586.36C514.642 586.895 498.043 586.376 481.634 586.396C476.391 586.403 471.148 586.41 465.905 586.409C463.804 586.409 460.797 586.791 458.859 586.162C455.368 582.717 452.461 577.933 452.512 572.858C452.545 569.517 454.396 566.192 455.626 563.133C455.894 562.464 456.747 560.566 456.644 559.875C456.522 559.057 456.014 558.099 455.541 557.438C456.365 557.001 461.932 558.255 463.437 558.316C469.595 558.569 475.815 558.05 481.99 558.038C488.822 558.025 495.654 558.021 502.486 558.009C508.005 558 513.711 558.21 519.129 557.015C522.251 556.326 525.165 555.022 527.363 552.64C527.834 546.968 527.598 541.141 527.618 535.443C527.651 525.664 527.677 515.885 527.701 506.105C527.711 501.934 527.727 497.762 527.728 493.591C527.729 491.962 528.025 489.745 527.484 488.235L527.639 487.195Z"/>
	<path fill="#951A13" transform="scale(3.14267 3.20709)" d="M527.639 487.195C528.424 485.715 528.773 484.007 529.526 482.482C531.095 479.3 533.957 476.354 537.372 475.26C537.972 475.067 538.162 475.36 538.697 475.639C536.423 477.607 534.176 479.644 532.381 482.073C531.284 483.559 530.08 486.425 528.794 487.551C528.424 487.875 527.92 488.007 527.484 488.235L527.639 487.195Z"/>
	<path fill="#951A13" transform="scale(3.14267 3.20709)" d="M483.24 565.105C490.745 565.114 498.284 565.242 505.784 565.008C510.479 564.862 516.237 563.722 520.811 564.47L521.12 565.064C519.425 566.71 514.872 566.928 512.549 567.213L511.199 565.688L500.228 565.824C496.594 566.236 492.472 565.902 488.808 565.726C487.048 565.641 484.895 565.709 483.24 565.105Z"/>
	<path fill="#C46B64" transform="scale(3.14267 3.20709)" d="M495.162 568.178C492.992 568.607 490.514 568.451 488.3 568.537C483.284 568.731 478.269 568.799 473.25 568.862L471.731 565.085C475.399 564.82 479.605 564.608 483.24 565.105C484.895 565.709 487.048 565.641 488.808 565.726C492.472 565.902 496.594 566.236 500.228 565.824L511.199 565.688L512.549 567.213C507.16 568.244 500.661 568.178 495.162 568.178Z"/>
	<path fill="#B02519" transform="scale(3.14267 3.20709)" d="M500.228 565.824L511.199 565.688L512.549 567.213C507.16 568.244 500.661 568.178 495.162 568.178L488.812 567.965L488.812 567.595C491.773 567.109 494.739 567.064 497.731 566.961C498.522 566.934 501.282 567.106 501.781 566.625L500.228 565.824Z"/>
	<path fill="#F7D089" transform="scale(3.14267 3.20709)" d="M296.985 393.691L295.273 393.188C294.458 391.629 294.973 387.257 294.975 385.309C294.981 377.528 294.581 369.431 295.195 361.687C295.324 360.053 295.694 358.558 296.18 356.995C302.324 337.22 317.616 323.405 334.093 311.871C338.705 308.643 343.402 305.265 348.409 302.683L354.732 299.781C353.039 304.285 349.965 307.893 346.986 311.619C343.041 316.554 338.921 321.352 334.638 325.996C326.936 334.347 318.118 342.698 314.265 353.677C313.473 355.932 312.922 358.409 312.765 360.794C312.171 369.819 312.519 379.007 312.344 388.055C311.887 411.553 311.645 435.02 311.466 458.53C311.292 481.332 311.217 504.125 311.238 526.928C311.248 538.149 310.804 549.571 311.364 560.756C311.446 562.408 311.745 564.012 312.445 565.522C313.686 568.201 315.718 570.368 318.546 571.368C321.128 572.28 324.225 572.339 326.942 572.623C331.765 573.126 336.608 573.7 341.458 573.811C348.913 573.982 356.32 573.495 363.766 573.407C376.216 573.26 388.739 573.072 401.181 573.616C411.007 574.046 420.815 575 430.616 575.814C435.872 576.251 440.95 577.012 446.248 576.704C447.571 579.664 449.157 582.178 451.255 584.653L450.68 584.587C444.086 583.872 437.11 584.257 430.469 584.218C426.305 584.194 421.622 583.75 417.513 584.242L343.398 585.286L316.553 586.489C311.374 586.783 303.681 587.766 299.61 583.854C298.217 582.516 297.932 580.954 297.761 579.115C297.11 572.093 297.478 564.748 297.475 557.693C297.47 545.37 297.458 533.047 297.463 520.724C297.476 478.573 297.794 436.415 297.958 394.264L296.985 393.691Z"/>
	<path fill="#F7D089" transform="scale(3.14267 3.20709)" d="M458.957 445.923L458.056 445.525C456.947 445.579 456.152 445.592 455.167 446.182C454.684 447.327 454.84 448.615 454.848 449.836C454.864 452.328 454.891 454.821 454.922 457.312C455.028 466.066 455.156 474.821 455.146 483.575C455.121 505.963 454.825 528.351 454.73 550.74L451.033 550.357C451.274 524.649 450.612 498.918 450.871 473.198C450.926 467.709 450.987 462.219 451.071 456.73C451.124 453.237 450.981 449.488 451.664 446.062C452.467 445.342 453.253 444.694 454.333 444.458C456.316 444.025 458.752 444.3 460.79 444.318C464.99 444.357 469.19 444.403 473.39 444.452C482.068 444.436 490.746 444.422 499.424 444.42C503.197 444.419 508.64 443.772 512.232 444.77C512.857 444.944 513.497 445.421 513.962 445.861C514.871 446.72 515.427 447.956 515.544 449.195C515.933 453.327 515.749 457.642 515.807 461.801C515.916 469.66 515.979 477.518 515.983 485.377C515.991 504.638 516.232 523.932 515.981 543.188C515.947 545.768 515.763 549.229 513.715 551.094C513.544 551.25 513.389 551.431 513.188 551.546C512.091 552.172 468.109 551.871 462.938 551.519L458.968 550.987C458.116 546.912 458.604 541.968 458.596 537.783C458.582 529.622 458.573 521.462 458.569 513.301C458.56 497.448 458.581 481.595 458.638 465.743C458.654 461.524 458.67 457.305 458.693 453.086C458.706 450.736 458.534 448.235 458.957 445.923Z"/>
	<path fill="#B02519" transform="scale(3.14267 3.20709)" d="M476.153 532.312C477.018 532.176 476.988 532.028 477.789 532.5L477.823 536.614L477.187 537.239C476.73 537.058 476.417 536.788 476.027 536.492C475.843 534.973 475.396 533.683 476.153 532.312Z"/>
	<path fill="#9C3128" transform="scale(3.14267 3.20709)" d="M487.966 532.312C488.978 532.157 489.181 531.979 490.043 532.5C489.795 533.905 489.802 535.388 489.731 536.812C489.389 537.054 489.018 537.147 488.625 537.284L487.8 536.812C487.719 535.26 487.737 533.851 487.966 532.312Z"/>
	<path fill="#B02519" transform="scale(3.14267 3.20709)" d="M510.065 538.312L510.938 538.538C512.115 540.337 512.088 542.01 511.688 544.069C511.136 544.088 510.73 544.033 510.191 543.938C509.963 542.304 509.24 539.775 510.065 538.312Z"/>
	<path fill="#B02519" transform="scale(3.14267 3.20709)" d="M492.609 539.438L493.69 539.281L494.4 539.812C494.437 540.393 494.435 540.908 494.382 541.491L494.321 542.062L495.422 543.188L495.33 543.938L494.754 544.01C493.588 544.055 492.875 543.943 492.026 543.188C491.986 541.798 491.79 540.623 492.609 539.438Z"/>
	<path fill="#B02519" transform="scale(3.14267 3.20709)" d="M481.998 532.312C483.037 532.209 483.53 532.029 484.48 532.5L484.312 536.624C483.612 536.978 483.019 536.922 482.25 536.946L481.748 536.438C481.625 535.056 481.309 533.575 481.998 532.312Z"/>
	<path fill="#B02519" transform="scale(3.14267 3.20709)" d="M484.528 509.588C487.353 509.556 490.322 509.342 493.125 509.656L493.571 510.375L493.27 511.312C490.723 512.187 486.129 511.524 483.35 511.499L483.188 510.757L484.528 509.588Z"/>
	<path fill="#B02519" transform="scale(3.14267 3.20709)" d="M470.711 532.312C471.148 532.25 471.454 532.299 471.887 532.361C472.298 533.309 472.359 534.298 472.478 535.312C472.037 536.052 471.446 537.046 471.4 537.938C471.31 539.723 472.871 542.383 472.044 544.006C470.408 544.005 470.901 543.492 469.688 543.032C469.248 542.865 467.137 544.453 465.938 544.182C465.31 542.003 465.658 539.607 466.253 537.466C466.944 539.186 467.158 540.767 467.357 542.586L468 542.886L469.688 541.548C469.676 541.284 469.649 541.01 469.722 540.75C470.253 538.856 470.856 535.816 469.964 533.918L469.716 533.438L470.711 532.312Z"/>
	<path fill="#951A13" transform="scale(3.14267 3.20709)" d="M483.35 511.499C482.225 511.533 481.434 511.557 480.375 511.083L480.13 510.414C482.067 507.78 484.693 505.56 486.942 503.183C489.014 500.991 490.014 499.464 489.938 496.394C489.366 495.461 489.296 495.034 488.25 494.637C486.574 494.932 485.383 496.248 484.125 497.323L483.503 497.15C483.379 496.365 483.394 495.829 483.705 495.1C484.339 493.617 485.609 492.681 487.115 492.176C488.263 491.791 489.714 491.779 490.799 492.365C492.053 493.043 492.83 494.288 493.152 495.647C494.209 500.098 490.499 503.568 487.541 506.263C486.606 507.114 485.26 508.061 484.688 509.169L484.528 509.588L483.188 510.757L483.35 511.499Z"/>
	<path fill="#9C3128" transform="scale(3.14267 3.20709)" d="M464.794 471.562C465.944 471.139 467.217 471.303 468.435 471.302C471.038 471.3 473.641 471.304 476.244 471.309C485.391 471.325 494.913 470.79 504.013 471.562L504.459 472.312L504.092 473.438C501.163 473.897 497.682 473.52 494.702 473.5C487.908 473.455 481.114 473.396 474.319 473.415C472.132 473.421 469.944 473.431 467.757 473.442C467.301 473.445 465.958 473.607 465.563 473.455C465.327 473.365 465.132 473.193 464.917 473.062L464.794 471.562Z"/>
	<path fill="#9C3128" transform="scale(3.14267 3.20709)" d="M463.468 450.938C466.86 450.172 471.228 450.672 474.726 450.676C483.448 450.685 492.169 450.713 500.89 450.738C502.897 450.744 508.176 450.168 509.812 451.099L509.733 452.062L509.034 452.555C499.201 453.213 488.987 452.653 479.117 452.634C475.7 452.627 472.282 452.632 468.866 452.594C467.223 452.576 465.211 452.779 463.688 452.165L463.468 450.938Z"/>
	<path fill="#F7D089" transform="scale(3.14267 3.20709)" d="M453.121 380.42C457.502 374.546 462.732 371.78 468.63 367.689C473.524 364.294 477.029 359.749 480.289 354.84C482.388 351.68 484.362 348.461 485.37 344.771C486.439 340.857 486.538 336.813 486.753 332.786L502.234 332.699C502.242 337.334 502.272 341.97 502.255 346.605C502.24 350.601 502.074 354.477 503.028 358.396C503.373 359.813 505.994 366.13 505.637 366.938C502.05 363.452 501.429 352.994 499.688 351.635C498.701 353.779 500.386 359.251 501.221 361.452C502.899 365.879 505.703 368.516 509.145 371.628C501.586 372.273 493.973 373.025 486.383 373.07C483.18 373.09 479.993 373.005 476.807 372.645C473.091 372.225 468.968 371.374 465.269 372.292C461.235 373.293 457.781 376.052 455.161 379.188L453.937 380.812C452.494 383.141 451.53 385.262 451.007 387.978C450.029 393.061 450.305 398.428 450.305 403.586C450.307 414.599 450.957 425.971 449.941 436.925L456.392 436.904C459.592 436.414 463.95 437.169 466.847 435.938L466.851 435.466C465.772 434.82 464.413 435.046 463.196 435.048C459.966 435.052 456.736 435.078 453.507 435.122C453.309 424.838 453.375 414.546 453.386 404.26C453.391 398.949 452.821 392.796 453.857 387.616C454.462 384.588 455.623 381.915 457.803 379.688C461.306 376.108 465.123 375.575 469.904 375.662C473.533 375.728 477.115 376.469 480.758 376.55C491.528 376.791 501.923 375.822 512.584 374.444C518.805 373.64 526.381 376.651 531.234 380.438C535.922 384.096 539.857 389.438 540.635 395.461L540.764 396.75C541.696 406.321 541.093 416.388 541.122 426.02C541.166 441.007 541.475 455.994 541.468 470.99L527.517 471.04C527.565 464.85 527.65 458.661 527.732 452.471C527.761 450.333 528.303 446.968 527.642 445.015C526.93 442.91 524.813 440.545 523.281 438.938C522.776 438.407 522.236 437.922 521.629 437.51L519.913 437.286C517.134 437.839 514.197 437.596 511.373 437.564C506.786 437.512 502.199 437.461 497.612 437.43C483.745 437.336 469.928 437.361 456.065 437.615C454.227 438.595 449.111 437.888 446.798 438.191L446.438 438.243L446.37 437.751C447.196 437.313 447.862 436.949 448.559 436.312C448.709 435.56 448.771 435.002 448.657 434.234C447.539 426.722 448.144 418.561 448.17 410.941C448.191 404.644 447.67 397.725 448.719 391.537C449.432 387.334 450.745 383.965 453.121 380.42Z"/>
	<path fill="#9C3128" transform="scale(3.14267 3.20709)" d="M516.639 436.151C515.738 436.418 514.337 436.191 513.389 436.172C510.876 436.121 508.363 436.109 505.849 436.094C493.36 436.02 480.866 435.857 468.377 435.919L466.782 433.948C465.814 432.634 465.225 431.429 465.541 429.755C465.918 427.755 467.648 426.719 469.221 425.671C469.477 426.738 469.499 427.23 469.099 428.257C468.355 429.216 467.758 429.606 467.927 430.925C468.072 432.057 469.154 433.436 469.928 434.255L518.727 434.455L519.564 434.906L518.061 435.094L518.625 435.75L519.191 435.562L519.562 435.941L516.639 436.151Z"/>
	<path fill="#951A13" transform="scale(3.14267 3.20709)" d="M469.221 425.671C470.32 425.207 471.452 424.735 472.636 424.544C477.796 423.713 483.597 424.178 488.844 424.173C493.827 424.167 498.811 424.167 503.794 424.179C508.326 424.189 513.259 423.964 517.533 425.695C519.66 426.557 522.243 428.392 523.227 430.541C523.774 431.735 523.649 433.504 523.168 434.693L521.678 437.399L521.629 437.51L519.913 437.286C519.086 436.369 517.798 436.351 516.639 436.151L519.562 435.941L519.191 435.562L518.625 435.75L518.061 435.094L519.564 434.906L518.727 434.455L519.809 433.886C520.143 432.844 520.375 432.172 520.124 431.062C519.045 429.822 517.974 428.906 516.459 428.229C513.141 426.746 508.859 426.964 505.28 426.934C499.715 426.889 494.147 426.933 488.582 426.971C483.563 427.005 478.102 426.651 473.131 427.207C471.713 427.366 470.431 427.762 469.099 428.257C469.499 427.23 469.477 426.738 469.221 425.671Z"/>
	<path fill="#F7D089" transform="scale(3.14267 3.20709)" d="M469.099 428.257C470.431 427.762 471.713 427.366 473.131 427.207C478.102 426.651 483.563 427.005 488.582 426.971C494.147 426.933 499.715 426.889 505.28 426.934C508.859 426.964 513.141 426.746 516.459 428.229C517.974 428.906 519.045 429.822 520.124 431.062C520.375 432.172 520.143 432.844 519.809 433.886L518.727 434.455L469.928 434.255C469.154 433.436 468.072 432.057 467.927 430.925C467.758 429.606 468.355 429.216 469.099 428.257Z"/>
	<path fill="#F7D089" transform="scale(3.14267 3.20709)" d="M407.565 226.814L408.49 227.293L408.562 227.809L409.691 227.062L409.786 227.691C409.89 228.312 410.022 228.793 410.246 229.373C409.865 232.838 410.152 236.422 410.142 239.91C410.124 246.719 410.09 253.527 410.077 260.335C410.064 266.99 410.055 273.645 410.057 280.3C410.058 283.901 409.751 287.819 410.291 291.366C410.69 293.981 412.061 296.521 413.699 298.585C423.05 310.365 477.988 335.524 479.656 346.144L479.469 346.634C479.268 347.194 479.158 347.694 479.062 348.278L477.938 349.008L477.559 348.75L477.441 347.984L476.764 348.094C476.985 350.114 476.759 350.649 475.446 352.318C471.035 357.925 464.11 361.392 458.438 365.57C457.524 365.024 457.409 363.722 457.085 362.719C456.519 363.046 455.944 363.438 455.341 363.684L456.634 366.729C448.881 373.396 445.277 379.916 444.473 390.199C443.599 401.366 444.083 412.962 444.114 424.166C444.12 426.264 444.115 428.363 444.161 430.46C444.176 431.183 444.41 432.646 444.244 433.3C444.213 433.426 443.333 434.223 443.221 434.336C440.675 436.915 437.718 439.087 437.151 442.875C436.347 448.25 436.875 454.424 436.871 459.896C436.862 472.03 436.94 484.16 437.046 496.294C437.19 512.803 437.209 529.316 437.046 545.825C436.992 551.248 436.469 556.664 436.514 562.08C436.531 564.068 436.545 565.905 437.115 567.823L437.243 568.284C437.855 570.231 440.312 572.157 441.782 573.525C421.932 571.57 402.016 569.929 382.058 570.058C373.491 570.114 364.925 570.431 356.364 570.733C350.939 570.924 345.484 571.351 340.06 570.943C334.928 570.557 329.817 569.866 324.75 568.987C323.099 568.701 321.025 568.554 319.548 567.751C318.634 567.254 317.871 566.351 317.175 565.589C316.081 564.545 315.288 563.156 314.901 561.688C314.521 560.245 314.673 558.56 314.659 557.072C314.63 553.977 314.613 550.883 314.6 547.789C314.547 535.156 314.553 522.523 314.581 509.89C314.655 475.427 314.798 440.948 315.229 406.49C315.358 396.193 315.384 385.895 315.502 375.599C315.56 370.493 315.438 365.267 315.802 360.176C316.007 357.291 317.124 354.922 318.578 352.492C324.999 340.078 337.922 333.726 347.389 324.128C353.971 317.454 359.018 310.527 362.608 301.875C363.582 299.528 364.673 297.334 365.229 294.831C366.661 288.377 366.527 281.375 366.664 274.791C366.793 268.588 367.081 262.401 367.061 256.195C366.011 254.825 366.141 250.119 366.283 248.25C366.509 245.279 366.381 242.237 366.375 239.25C366.863 238.517 367.032 235.814 366.75 234.938L366.469 234.373C366.729 233.725 366.714 233.191 366.75 232.5L366.377 232.123C366.269 231.438 366.265 231.279 365.814 230.719L361.502 230.531L361.688 230.214L363.188 230.37C363.952 230.357 365.551 230.397 366.092 229.875L365.737 229.064C369.045 228.39 373.537 228.945 376.957 228.944C385.804 228.941 394.652 228.941 403.5 228.941C404.3 228.437 404.703 228.482 405.634 228.388L406.127 228.002C406.869 227.599 406.983 227.478 407.565 226.814Z"/>
	<path fill="#951A13" transform="scale(3.14267 3.20709)" d="M406.34 298.048C406.477 298.645 406.532 299.222 406.875 299.737L408.586 299.385C407.628 302.325 406.766 304.899 405.378 307.678C405.224 304.526 405.975 301.188 406.34 298.048Z"/>
	<path fill="#951A13" transform="scale(3.14267 3.20709)" d="M350.196 392.062C351.003 391.896 351.02 391.991 351.754 392.25L352.191 393.375C351.753 395.398 350.185 396.836 348.562 398.007C347.763 398.229 347.982 398.328 347.165 397.877C346.996 396.195 349.208 393.387 350.196 392.062Z"/>
	<path fill="#911D17" transform="scale(3.14267 3.20709)" d="M422.001 391.688L422.786 391.608C424.074 392.529 424.322 395.256 425.321 396.684C425.846 397.435 426.174 397.889 426.366 398.812L425.437 399.197C423.465 397.788 421.595 396.508 420.938 394.047C421.131 392.777 421.147 392.634 422.001 391.688Z"/>
	<path fill="#9C3128" transform="scale(3.14267 3.20709)" d="M393.779 542.812C394.978 542.418 396.659 542.747 397.909 542.828C401.311 543.051 404.723 543.233 408.116 543.562L408.481 544.312L407.812 545.132C403.542 544.437 398.87 544.166 394.546 544.346C393.881 544.373 394.262 544.448 393.519 544.008L393.779 542.812Z"/>
	<path fill="#951A13" transform="scale(3.14267 3.20709)" d="M404.023 391.688C404.741 391.477 405.136 391.531 405.862 391.688C406.097 392.052 406.194 392.152 406.312 392.631C406.78 394.513 406.528 397.483 405.562 399.184C404.77 399.3 404.761 399.164 404.083 398.812C403.446 397.898 403.107 397.165 402.997 396.04C402.837 394.41 402.961 392.92 404.023 391.688Z"/>
	<path fill="#B02519" transform="scale(3.14267 3.20709)" d="M380.698 473.492C382.455 472.906 384.768 473.14 386.625 473.125C390.074 473.097 394.026 472.712 397.406 473.354L397.551 474.188L396.938 474.787C389.715 475.17 382.314 474.855 375.072 474.861C371.987 474.864 366.994 475.515 364.126 474.562L364.017 473.625C365.152 472.558 375.527 473.122 377.812 473.1L378.351 472.084C378.317 472.755 378.312 473.325 378.377 473.998L379.5 474.559L380.558 474.001L380.698 473.492Z"/>
	<path fill="#B02519" transform="scale(3.14267 3.20709)" d="M381.405 267.768C381.314 266.254 381.105 264.675 382.158 263.438C383.144 262.279 384.435 261.335 385.69 260.49C387.876 262.639 389.606 264.43 389.697 267.689C389.749 269.539 389.471 271.042 388.19 272.432C387.667 272.999 387.178 273.229 386.438 273.445C384.673 273.229 383.39 272.124 382.345 270.758L382.122 270.457C383.157 269.664 384.004 268.858 384.655 267.71C385.444 266.317 386.396 264.706 385.941 263.168L385.312 263.048C384.112 264.266 383.022 266.814 381.793 267.594L381.405 267.768Z"/>
	<path fill="#951A13" transform="scale(3.14267 3.20709)" d="M345.452 474.938C346.067 474.868 346.319 474.937 346.902 475.1C347.214 475.883 347.617 504.058 347.444 504.562L345.938 504.812C345.27 504.802 344.819 504.769 344.18 504.536C343.513 504.293 343.631 504.215 343.355 503.625C343.697 503.229 344.451 502.57 344.652 502.125C345.069 501.2 344.828 498.436 344.836 497.35C344.877 491.936 344.886 486.523 344.918 481.109C344.929 479.26 344.549 476.557 345.452 474.938Z"/>
	<path fill="#951A13" transform="scale(3.14267 3.20709)" d="M405.871 475.312C406.374 475.158 406.916 475.121 407.438 475.048C407.627 475.261 407.898 475.423 408.006 475.688C408.385 476.62 408.006 479.417 408.006 480.586C408.007 487.579 407.418 495.198 408.188 502.113L410.438 503.562L410.334 504.562C408.641 504.662 406.971 504.423 405.29 504.244L405.871 475.312Z"/>
	<path fill="#951A13" transform="scale(3.14267 3.20709)" d="M378.351 472.084L378.334 438.188L378.938 437.632L380.438 437.781C380.845 439.072 380.678 440.559 380.678 441.901C380.679 444.679 380.678 447.457 380.676 450.235C380.67 457.866 381.232 465.92 380.698 473.492L380.558 474.001L379.5 474.559L378.377 473.998C378.312 473.325 378.317 472.755 378.351 472.084Z"/>
	<path fill="#B02519" transform="scale(3.14267 3.20709)" d="M384.105 241.312L384.791 241.136C385.477 241.053 386.177 241.312 386.735 241.691C388.406 242.828 388.746 244.78 389.062 246.65C389.52 249.349 389.351 250.56 387.803 252.75C388.094 253.304 388.309 253.848 388.518 254.438L388.1 255.188C386.584 254.987 385.224 255.12 383.708 255.281C382.854 255.446 382.751 255.506 381.967 255.16C380.345 251.58 383.344 250.677 384.274 247.5L383.881 246.875C383.249 246.88 382.895 246.937 382.288 247.169L381.75 247.393L381.231 246.938L381.279 245.597C381.49 243.58 382.639 242.578 384.105 241.312Z"/>
	<path fill="#F7D089" transform="scale(3.14267 3.20709)" d="M384.741 250.865L384.961 251.319C385.34 251.987 385.743 252.245 386.358 252.667L386.641 253.312C385.815 254.16 385.152 254.012 384 254.145L382.688 253.944L382.312 253.135C382.952 251.984 383.441 251.318 384.741 250.865Z"/>
	<path fill="#F7D089" transform="scale(3.14267 3.20709)" d="M385.125 241.839C385.976 242.301 386.303 242.295 386.532 243.3C386.751 244.26 386.32 245.273 386.503 246.188C386.608 246.712 386.855 246.802 386.999 247.312C387.362 248.601 387.296 249.834 386.648 250.947C385.948 251.016 385.43 251.014 384.741 250.865C385.349 249.478 386.236 248.101 385.843 246.562C384.938 245.91 384.026 245.29 383.233 244.5C383.337 243.54 383.513 242.81 384.345 242.188C384.656 241.956 384.792 241.94 385.125 241.839Z"/>
	<path fill="#B02519" transform="scale(3.14267 3.20709)" d="M378.608 564.16C385.068 563.664 391.978 563.883 398.438 564.308C406.231 564.82 413.543 565.559 421.064 567.843L421.099 568.403C417.606 568.663 413.102 567.252 409.566 566.812C404.029 566.125 398.478 565.867 392.906 565.67C380.901 565.238 369.158 566.268 357.249 567.657C355.583 567.852 351.332 568.66 350.066 567.938C351.22 566.782 354.743 566.629 356.379 566.379C363.79 565.245 371.139 564.675 378.608 564.16Z"/>
	<path fill="#B02519" transform="scale(3.14267 3.20709)" d="M405.634 228.388L406.647 228.949L406.125 229.217L405.748 229.498C404.963 229.91 403.98 230.046 403.111 230.049C402.387 230.051 402.75 229.984 402.219 230.248C401.461 230.625 400.397 230.459 399.559 230.438C399.175 231.284 399.452 231.399 399.762 232.235C395.566 231.811 391.279 232.01 387.063 232.02C380.498 232.035 373.932 232.027 367.369 232.13L367.061 256.195C366.011 254.825 366.141 250.119 366.283 248.25C366.509 245.279 366.381 242.237 366.375 239.25C366.863 238.517 367.032 235.814 366.75 234.938L366.469 234.373C366.729 233.725 366.714 233.191 366.75 232.5L366.377 232.123C366.269 231.438 366.265 231.279 365.814 230.719L361.502 230.531L361.688 230.214L363.188 230.37C363.952 230.357 365.551 230.397 366.092 229.875L365.737 229.064C369.045 228.39 373.537 228.945 376.957 228.944C385.804 228.941 394.652 228.941 403.5 228.941C404.3 228.437 404.703 228.482 405.634 228.388Z"/>
	<path fill="#9C3128" transform="scale(3.14267 3.20709)" d="M432.344 434.812L433.215 435.018L432.773 548.235L431.812 548.611L430.842 548.062C430.869 523.208 430.802 498.355 430.762 473.501C430.75 465.772 430.738 458.043 430.739 450.313C430.739 446.346 430.451 442.119 430.895 438.188C431.047 436.842 431.567 435.898 432.344 434.812Z"/>
	<path fill="#951A13" transform="scale(3.14267 3.20709)" d="M455.341 363.684C453.423 358.811 451.402 354.474 447.992 350.438C444.029 345.745 439.057 342.187 433.886 338.941C429.434 336.146 407.242 325.871 405.834 322.312C406.075 321.227 406.098 321.175 406.928 320.438C409.294 320.698 411.897 322.305 414.059 323.322C418.975 325.635 423.902 327.972 428.703 330.516C438.091 335.489 447.219 341.719 452.555 351.187C454.594 354.805 455.868 358.769 457.085 362.719C456.519 363.046 455.944 363.438 455.341 363.684Z"/>
	<path fill="#951A13" transform="scale(3.14267 3.20709)" d="M424.398 422.438L426.375 422.279L426.849 422.812C426.425 452.545 426.703 482.317 426.638 512.056C426.611 524.118 427.044 536.376 426.529 548.42C426.503 549.012 426.301 549.441 426.002 549.938C425.021 550.144 425 550.251 424.15 549.75C423.564 547.219 423.934 544.023 423.932 541.385C423.929 535.814 423.912 530.243 423.895 524.672C423.818 499.624 423.902 474.59 424.043 449.543C424.076 443.611 424.109 437.679 424.116 431.746C424.12 428.829 423.684 425.22 424.398 422.438Z"/>
	<path fill="#951A13" transform="scale(3.14267 3.20709)" d="M329.767 371.438C330.5 371.126 331.093 371.197 331.875 371.204L332.248 371.812C332.149 419.323 332.637 466.874 332.081 514.378C332.038 518.029 331.991 521.68 331.939 525.332C331.928 526.119 332.148 528.058 331.89 528.743C331.767 529.069 331.505 529.324 331.312 529.614L329.812 529.805L329.191 529.312C329.064 491.812 328.843 454.344 329.182 416.842C329.271 407.045 329.366 397.248 329.438 387.451C329.477 382.196 329.17 376.654 329.767 371.438Z"/>
	<path fill="#951A13" transform="scale(3.14267 3.20709)" d="M319.562 353.495C324.624 343.711 333.868 339.163 344.062 336.024L354.188 333.702L354.693 334.125C354.525 334.36 354.418 334.654 354.188 334.829C353.211 335.567 348.839 336.064 347.438 336.437C339.012 338.685 328.247 343.958 323.504 351.578C321.805 354.307 320.774 357.606 320.497 360.797C319.946 367.14 320.303 373.77 320.297 380.15C320.286 392.324 320.286 404.498 320.293 416.672C320.318 455.311 320.463 493.945 319.972 532.584C319.888 539.181 319.834 545.777 319.8 552.375C319.781 555.939 320.207 560.359 319.331 563.812C319.067 564.851 318.685 564.963 317.738 565.306C316.717 561.738 317.113 557.992 317.149 554.326C317.198 549.408 317.235 544.49 317.275 539.572C317.398 524.276 317.508 508.98 317.549 493.682C317.629 463.273 317.468 432.864 317.55 402.454C317.586 389.163 317.244 375.732 317.727 362.457C317.842 359.288 318.542 356.472 319.562 353.495Z"/>
	<path fill="#911D17" transform="scale(3.14267 3.20709)" d="M407.565 226.814L408.49 227.293L408.562 227.809L409.691 227.062L409.786 227.691C409.89 228.312 410.022 228.793 410.246 229.373C409.865 232.838 410.152 236.422 410.142 239.91C410.124 246.719 410.09 253.527 410.077 260.335C410.064 266.99 410.055 273.645 410.057 280.3C410.058 283.901 409.751 287.819 410.291 291.366C410.69 293.981 412.061 296.521 413.699 298.585C423.05 310.365 477.988 335.524 479.656 346.144L479.469 346.634C479.268 347.194 479.158 347.694 479.062 348.278L477.938 349.008L477.559 348.75L477.441 347.984L476.764 348.094C475.435 345.467 473.66 343.269 471.475 341.311C466.243 336.625 459.868 333.123 453.887 329.481C444.039 323.484 433.994 317.733 424.293 311.511C419.218 308.255 413.025 304.531 409.375 299.629L408.97 299.062L408.586 299.385L406.875 299.737C406.532 299.222 406.477 298.645 406.34 298.048L406.188 232.398C404.819 232.437 403.318 232.338 402.056 232.909C401.413 234.823 401.715 237.377 401.716 239.397C401.719 243.973 401.741 248.548 401.77 253.124C401.889 272.064 401.589 291.215 402.475 310.125C401.798 310.791 401.765 310.59 400.866 310.583C399.636 308.561 399.687 240.418 399.762 232.235C399.452 231.399 399.175 231.284 399.559 230.438C400.397 230.459 401.461 230.625 402.219 230.248C402.75 229.984 402.387 230.051 403.111 230.049C403.98 230.046 404.963 229.91 405.748 229.498L406.125 229.217L406.647 228.949L405.634 228.388L406.127 228.002C406.869 227.599 406.983 227.478 407.565 226.814Z"/>
</svg>
