<?xml version="1.0" encoding="utf-8" ?>
<svg xmlns="http://www.w3.org/2000/svg" xmlns:xlink="http://www.w3.org/1999/xlink" width="2353" height="2525">
	<path fill="#EB5151" transform="scale(3.06505 3.28879)" d="M0 0.1875C1.70241 -0.185587 3.61693 -0.00979729 5.35479 -0.0090068C8.44963 -0.00759905 11.5445 -0.00845752 14.6393 -0.00881649C26.6055 -0.0102045 38.5716 -0.00977825 50.5378 -0.00976663C98.2915 -0.00972023 146.045 -0.00952629 193.799 -0.0102393C385.199 -0.0130972 576.6 -0.00755292 768 0L768 767.812C766.298 768.186 764.383 768.01 762.645 768.009C759.55 768.008 756.456 768.008 753.361 768.009C741.395 768.01 729.428 768.01 717.462 768.01C669.708 768.01 621.955 768.01 574.201 768.01C382.801 768.013 191.4 768.008 -0 768L0 0.1875Z"/>
	<path fill="#E6797D" transform="scale(3.06505 3.28879)" d="M321.191 568.312L418.688 569.025L417.562 569.434L320.252 568.701L321.191 568.312Z"/>
	<path fill="#FDF8CF" transform="scale(3.06505 3.28879)" d="M264.016 563.796L312.237 563.65L312.627 564.188L313.495 565.312C313.965 566.187 313.829 566.486 313.493 567.319C311.862 567.828 309.801 567.641 308.092 567.672C297.173 567.597 286.253 567.496 275.333 567.467C271.363 567.457 266.362 568.111 262.5 567.398C260.977 567.118 259.849 566.287 258.693 565.312L259.125 564.74C260.719 564.053 262.31 563.965 264.016 563.796Z"/>
	<path fill="#FDF8CF" transform="scale(3.06505 3.28879)" d="M348.249 557.709L348.539 558.545C347.909 558.996 348.116 558.92 347.399 559.159C344.92 559.983 341.094 559.739 338.464 559.779C331.892 559.877 325.306 559.783 318.738 559.96C315.396 560.05 312.137 560.857 308.812 560.955C297.242 561.296 285.607 560.974 274.028 561.067C264.762 561.141 255.199 561.74 245.969 561.218C244.313 561.124 242.96 560.656 241.52 559.866C241.614 557.63 250.465 558.25 252.262 558.244C273.937 558.174 295.623 558.188 317.297 558.314C325.31 558.361 333.321 558.364 341.334 558.338C342.914 558.333 346.208 558.766 347.625 558.316C347.901 558.228 348.041 557.911 348.249 557.709Z"/>
	<path fill="#FDF8CF" transform="scale(3.06505 3.28879)" d="M477.069 340.895C482.807 340.856 488.546 340.82 494.284 340.801C496.494 340.793 499.505 340.425 501.625 341.028C503.415 341.537 504.86 342.757 506.153 344.047C513.694 351.572 520.483 364.097 522.757 374.481C524.118 380.7 523.633 387.276 523.586 393.609C523.529 401.306 523.493 409.003 523.48 416.7C523.441 439.502 523.908 462.337 523.708 485.132C523.619 495.265 521.454 503.185 516.473 512.047C514.627 515.329 512.544 518.739 509.851 521.403C508.114 523.123 506.511 524.257 504.078 524.792C501.088 525.45 497.113 525.022 494.016 525.014C486.851 524.994 479.683 524.959 472.519 524.857L469.905 524.726C470.137 502.918 469.881 481.196 471.914 459.443C473.151 446.203 474.652 432.824 476.739 419.696C479.247 403.914 483.555 387.796 482.633 371.735C482.301 365.951 481.108 360.079 479.967 354.399C479.073 349.952 478.419 345.214 477.069 340.895Z"/>
	<path fill="#FDF8CF" transform="scale(3.06505 3.28879)" d="M348.249 557.709L343.731 521.776L332.089 521.147C328.201 515.68 326.021 509.046 323.346 502.917C311.112 474.884 301.184 445.74 290.401 417.127C288.68 412.56 286.861 408.013 285.003 403.5C283.833 400.659 281.729 397.234 281.643 394.172C281.559 391.176 282.22 387.938 282.605 384.956C283.42 378.626 284.384 372.314 285.209 365.985C287.825 345.912 290.167 326.289 290.716 306.032C287.889 307.339 284.828 308.342 281.678 308.269C277.602 308.174 273.888 306.304 271.108 303.36C266.94 298.944 264.781 293.354 265.061 287.305C265.255 283.131 267.274 278.63 270.482 275.9C276.439 270.831 282.903 272.834 289.866 273.454C290.113 269.331 289.948 265.139 289.95 261.006C289.953 257.192 289.53 252.642 292.298 249.621C295.036 246.631 298.382 246.185 302.217 246.067C313.62 245.716 325.149 246.129 336.562 246.158C358.31 246.212 380.057 246.213 401.804 246.284C415.154 246.328 428.504 246.345 441.855 246.361C448.437 246.368 455.449 245.888 461.99 246.454C464.18 246.643 465.971 247.582 467.526 249.107C469.037 250.589 470.277 252.365 470.718 254.467C471.219 256.856 470.749 259.808 470.681 262.264C470.562 266.524 470.561 270.763 470.642 275.023C473.7 273.711 476.83 272.459 480.187 272.226C485.684 271.846 490.627 273.138 494.812 276.897C498.603 280.301 500.893 285.454 501.052 290.524C501.229 296.203 499.585 301.231 495.596 305.395C492.003 309.146 487.986 310.958 482.768 311.038C478.198 311.108 474.364 309.914 471.034 306.676L470.777 306.422C471.911 312.417 472.927 318.407 473.823 324.442C474.637 329.929 475.105 335.691 477.069 340.895C478.419 345.214 479.073 349.952 479.967 354.399C481.108 360.079 482.301 365.951 482.633 371.735C483.555 387.796 479.247 403.914 476.739 419.696C474.652 432.824 473.151 446.203 471.914 459.443C469.881 481.196 470.137 502.918 469.905 524.726L467.115 524.616C466.005 524.592 464.959 524.583 463.872 524.324L463.698 524.071C461.92 521.39 460.691 518.038 459.355 515.1C456.144 508.038 452.917 500.205 448.407 493.88C446.157 498.123 444.065 502.4 442.116 506.79C439.974 511.614 438.235 517.339 434.732 521.343L421.985 521.992L413.868 557.378L522.75 557.945L523.085 558.562C522.532 558.994 522.186 558.996 521.514 559.021C508.814 559.504 495.99 559.13 483.274 559.126C464.388 559.121 445.484 559.299 426.602 559.066C420.721 558.994 414.869 558.388 408.985 558.325C394.879 558.176 380.683 558.535 366.592 558.088C370.486 552.347 375.745 546.755 380.723 541.932C383.481 544.505 386.239 547.106 389.101 549.562C391.735 551.823 394.473 553.779 396.719 556.46C396.02 544.94 395.504 533.472 397.116 521.986L365.18 522.313L365.985 558.355L348.539 558.545L348.249 557.709Z"/>
	<path fill="#C45346" transform="scale(3.06505 3.28879)" d="M463.872 524.324L465.017 524.046C465.856 519.791 465.43 514.718 465.51 510.353C465.682 500.955 466.13 491.517 467.014 482.158C467.266 479.486 467.243 476.784 467.782 474.188L467.857 472.556C467.891 471.929 467.853 472.163 468.193 471.562L467.115 524.616C466.005 524.592 464.959 524.583 463.872 524.324Z"/>
	<path fill="#EB5151" transform="scale(3.06505 3.28879)" d="M352.937 522.188L356.638 522.196C357.837 531.611 359.058 541.632 357.89 551.099C357.737 552.344 357.815 552.888 356.809 553.688L356.298 553.312C354.456 551.632 351.977 529.534 351.47 525.526C351.33 524.415 350.87 523.085 351.562 522.191L352.937 522.188Z"/>
	<path fill="#EB5151" transform="scale(3.06505 3.28879)" d="M406.187 522.177L413.765 522.227L407.502 551.397C407.182 552.481 407.144 552.666 406.312 553.412L404.812 552.999C404.285 552.5 404.078 552.118 403.931 551.422C402.689 545.559 401.683 527.224 405 522.325L406.187 522.177Z"/>
	<path fill="#EB5151" transform="scale(3.06505 3.28879)" d="M280.654 278.314C282.522 278.214 284.518 278.475 286.281 279.105C289.042 280.092 291.109 281.766 292.223 284.531C293.524 287.76 293.31 292.403 291.835 295.494C290.289 298.733 287.728 300.198 284.53 301.421C282.354 301.567 280.23 301.283 278.285 300.228C275.508 298.722 273.472 296.074 272.565 293.062C271.658 290.053 271.34 286.193 273.014 283.386C274.814 280.367 277.409 279.159 280.654 278.314Z"/>
	<path fill="#EB5151" transform="scale(3.06505 3.28879)" d="M479.971 277.977C482.428 277.816 484.922 278.138 487.163 279.219C490.294 280.73 492.631 283.578 493.73 286.85C495.082 290.877 494.845 295.078 492.815 298.852C491.068 302.101 487.939 303.891 484.516 304.91L484.369 304.92C481.37 305.161 478.597 304.636 476.018 303.007C472.999 301.099 470.72 297.532 470.062 294.047C469.393 290.502 469.426 285.681 471.562 282.641C473.747 279.533 476.415 278.604 479.971 277.977Z"/>
	<path fill="#EB5151" transform="scale(3.06505 3.28879)" d="M299.441 254.812L300.563 254.621C306.065 254.079 312.222 254.618 317.781 254.633C330.527 254.667 343.273 254.702 356.019 254.699C378.581 254.695 401.143 254.651 423.704 254.651C435.194 254.65 446.768 254.381 458.25 254.721C459.639 254.762 460.292 254.776 461.368 255.674C462.207 257.667 462.194 260.046 461.604 262.112L460.688 262.598L298.48 262.357C298.457 260.027 297.907 256.659 299.441 254.812Z"/>
	<path fill="#EB5151" transform="scale(3.06505 3.28879)" d="M317.733 265.309L462.052 265.876L462.077 278.924C456.049 280.478 448.711 279.789 442.477 279.819L298.422 280.087L298.313 265.721C300.007 265.186 302.654 265.486 304.46 265.463C308.884 265.406 313.309 265.357 317.733 265.309Z"/>
	<path fill="#EB5151" transform="scale(3.06505 3.28879)" d="M370.933 302.692L371.197 286.953L389.81 286.893C391.062 295.248 392.847 303.507 394.382 311.812C397.44 328.358 400.45 344.935 403.402 361.5C405.842 375.195 407.57 388.974 409.654 402.721C411.557 415.267 413.653 427.78 414.697 440.438C415.927 455.354 415.732 470.943 414.094 485.812C413.744 488.985 413.338 492.104 412.734 495.24C412.159 498.225 410.234 503.71 410.812 506.545C411.637 506.778 411.837 506.735 412.64 506.308C416.441 504.283 418.846 495.532 419.869 491.595C422.43 481.738 422.984 471.775 423.036 461.641C423.131 443.107 420.868 425.171 418.332 406.843C414.104 376.287 408.364 346.135 403.066 315.763C401.382 306.109 399.307 296.491 397.92 286.794L413.845 286.803C416.173 295.061 418.923 303.193 421.328 311.43C428.678 336.595 435.699 361.868 441.123 387.528C442.781 395.372 444.441 403.223 445.241 411.212C445.661 415.415 446.018 419.649 446.222 423.868C446.336 426.23 445.983 428.925 446.683 431.187C449.859 423.574 451.364 414.76 451.091 406.53C450.49 388.394 444.961 369.895 440.656 352.348C436.899 337.033 432.937 321.807 428.377 306.709C426.369 300.061 424.544 293.356 422.089 286.854C429.372 286.742 436.652 286.733 443.935 286.754C446.292 286.761 450.273 286.3 452.444 287.062C452.938 287.236 453.695 287.844 454.087 288.188C455.451 289.38 456.388 291.311 456.927 293.003C458.476 297.866 459.234 303.087 460.28 308.081C463.084 321.466 465.414 334.894 467.693 348.375C469.389 358.41 472.172 368.984 472.205 379.172C472.234 387.941 469.638 397.192 467.757 405.746C463.7 424.204 459.265 442.508 452.958 460.352C448.438 473.137 442.947 485.451 437.257 497.744C434.733 503.198 432.596 509.012 428.98 513.862C408.99 514.08 388.994 514.131 369.003 514.125C358.827 514.122 348.056 514.79 337.951 513.73C336.023 510.845 334.815 507.492 333.459 504.312C331.573 499.89 329.649 495.482 327.722 491.076C325.899 486.908 324.077 482.781 321.976 478.742C319.249 473.496 316.284 468.369 314.193 462.82C312.114 457.303 310.669 451.528 309.005 445.875C306.147 436.16 303.241 426.458 299.973 416.871C298.266 411.863 296.378 406.941 294.482 402.003C293.166 398.574 291.688 395.109 290.969 391.5L290.839 390.866C290.472 388.952 290.446 386.875 290.643 384.938C291.654 374.991 293.577 365.112 294.61 355.139C295.908 342.621 296.31 329.877 298.142 317.438C299.012 311.528 300.68 305.796 301.931 299.964C302.862 295.624 303.406 291.212 304.392 286.886L314.483 286.953C310.823 304.252 304.742 321.074 301.029 338.367C299.783 344.166 299.229 350.045 298.611 355.935C297.162 369.759 295.924 384.402 301.667 397.498C302.112 389.705 301.854 381.785 302.72 374.034C303.842 363.987 305.339 353.718 307.535 343.842C311.791 324.701 317.843 305.894 322.735 286.901C324.683 286.429 327.251 286.753 329.262 286.759C334.804 286.777 340.345 286.801 345.887 286.826C345.421 293.801 344.27 300.736 343.379 307.667C340.732 328.243 337.339 348.788 334.161 369.292C332.655 379.012 330.788 388.795 329.818 398.58C328.866 408.197 329.323 418.01 329.449 427.663C329.608 439.739 329.665 451.785 330.428 463.843C330.721 468.476 330.972 473.11 331.137 477.75C331.234 480.474 331.063 483.425 331.555 486.096C332.139 489.261 333.876 493.162 335.318 496.057L335.392 496.138C336.533 495.94 338.271 495.466 339.267 496.126C338.206 474.799 338.713 453.51 338.869 432.172C338.97 418.263 338.347 404.085 339.543 390.226C341.086 372.335 344.493 354.211 347.34 336.467C349.982 319.998 352.076 303.446 354.714 286.982C356.038 286.583 357.911 286.832 359.324 286.846C362.664 286.88 366.004 286.917 369.343 286.956L369.446 355.775L369.582 355.771C370.163 354.362 369.854 352.127 369.854 350.609C369.853 346.598 369.856 342.588 369.858 338.578C369.866 321.783 369.751 304.981 369.934 288.188L370.687 288.254L370.889 302.265L370.933 302.692Z"/>
	<path fill="#FDF8CF" transform="scale(3.06505 3.28879)" d="M335.392 496.138C336.533 495.94 338.271 495.466 339.267 496.126C339.378 499.505 340.016 502.842 340.581 506.167C338.303 502.944 336.877 499.789 335.392 496.138Z"/>
	<path fill="#FDF8CF" transform="scale(3.06505 3.28879)" d="M369.446 355.775L369.582 355.771C370.163 354.362 369.854 352.127 369.854 350.609C369.853 346.598 369.856 342.588 369.858 338.578C369.866 321.783 369.751 304.981 369.934 288.188L370.687 288.254L370.889 302.265L370.933 302.692C371.217 320.403 370.919 338.158 370.889 355.873C370.836 386.957 370.848 418.041 370.856 449.125C370.86 463.196 370.865 477.267 370.868 491.338C370.869 494.992 370.87 498.647 370.855 502.301C370.847 504.283 371.055 506.54 370.688 508.488L369.938 508.724C369.734 508.462 369.426 508.254 369.326 507.938C368.663 505.84 369.147 501.681 369.144 499.379C369.135 491.036 369.139 482.692 369.143 474.349C369.16 434.831 369.016 395.291 369.446 355.775Z"/>
</svg>
