<?xml version="1.0" standalone="no"?>
<!DOCTYPE svg PUBLIC "-//W3C//DTD SVG 1.1//EN" "http://www.w3.org/Graphics/SVG/1.1/DTD/svg11.dtd" >
<svg xmlns="http://www.w3.org/2000/svg" xmlns:xlink="http://www.w3.org/1999/xlink" version="1.1">
<metadata>
Created by FontForge 20200427 at Wed May 11 02:03:12 2016
 By www
Copyright (c) 2016 Monotype Imaging Inc.  All rights reserved.
</metadata>
<defs>
<font id="Posterama2001W04-Regular" horiz-adv-x="689" >
  <font-face 
    font-family="Posterama2001W04-Regular"
    font-weight="400"
    font-stretch="normal"
    units-per-em="1000"
    panose-1="2 11 5 4 2 2 0 2 0 0"
    ascent="800"
    descent="-200"
    x-height="700"
    cap-height="700"
    bbox="-313 -242 1587 989"
    underline-thickness="50"
    underline-position="-125"
    unicode-range="U+000D-FEFF"
  />
<missing-glyph horiz-adv-x="1037" 
d="M999 216.5q-24 -39.5 -68.5 -60.5t-104.5 -21q-30 0 -30 30v318q0 80 -37.5 142.5t-101.5 97.5t-139 35t-138.5 -35t-101.5 -97.5t-38 -142.5v-318q0 -30 -29 -30q-60 0 -104.5 21t-68.5 60.5t-24 92.5q0 52 18 89.5t48.5 58.5t69.5 26q0 100 50.5 182.5t135 130.5
t182.5 48t183 -48t135.5 -130.5t50.5 -182.5q39 -5 69.5 -26t48.5 -58.5t18 -89.5q0 -53 -24 -92.5zM454 114l-2 55q-1 44 -8.5 77t-17 55.5t-24.5 52.5q-13 26 -20.5 43t-12.5 39.5t-5 51.5q0 43 20.5 78.5t56 56.5t77.5 21q43 0 78.5 -21t56 -56.5t20.5 -78.5
q0 -29 -5 -51.5t-12 -39.5t-20 -43q-15 -30 -24.5 -52.5t-17 -55.5t-8.5 -77l-2 -55q-2 -29 -29 -29h-72q-27 0 -29 29zM559 -125h-80q-35 0 -35 35v80q0 35 35 35h80q35 0 35 -35v-80q0 -35 -35 -35z" />
    <glyph glyph-name="uniFB00" unicode="ff" horiz-adv-x="1072" 
d="M706 4.5q-5 -4.5 -17 -4.5h-56q-12 0 -17 4.5t-5 17.5v268h-411q-7 0 -9.5 -2.5t-2.5 -8.5v-257q0 -13 -5 -17.5t-17 -4.5h-56q-12 0 -17 4.5t-5 17.5v656q0 13 5 17.5t17 4.5h380q12 0 17 -4.5t5 -17.5v-51q0 -13 -5 -17.5t-17 -4.5h-290q-7 0 -9.5 -2.5t-2.5 -8.5v-198
q0 -6 2.5 -8.5t9.5 -2.5h411v293q0 13 5 17.5t17 4.5h380q12 0 17 -4.5t5 -17.5v-51q0 -13 -5 -17.5t-17 -4.5h-290q-7 0 -9.5 -2.5t-2.5 -8.5v-198q0 -6 2.5 -8.5t9.5 -2.5h256q12 0 17 -5t5 -18v-50q0 -12 -5 -17t-17 -5h-256q-7 0 -9.5 -2.5t-2.5 -8.5v-257
q0 -13 -5 -17.5z" />
    <glyph glyph-name="uniFB01" unicode="fi" horiz-adv-x="826" 
d="M183 4.5q-5 -4.5 -17 -4.5h-56q-12 0 -17 4.5t-5 17.5v656q0 13 5 17.5t17 4.5h381q12 0 17 -4.5t5 -17.5v-51q0 -13 -5 -17.5t-17 -4.5h-291q-7 0 -9.5 -2.5t-2.5 -8.5v-198q0 -6 2.5 -8.5t9.5 -2.5h256q13 0 18 -5t5 -18v-50q0 -12 -5 -17t-18 -5h-256q-7 0 -9.5 -2.5
t-2.5 -8.5v-257q0 -13 -5 -17.5zM733 4.5q-5 -4.5 -17 -4.5h-56q-12 0 -17 4.5t-5 17.5v656q0 13 5 17.5t17 4.5h56q12 0 17 -4.5t5 -17.5v-656q0 -13 -5 -17.5z" />
    <glyph glyph-name="uniFB02" unicode="fl" horiz-adv-x="1102" 
d="M183 4.5q-5 -4.5 -17 -4.5h-56q-12 0 -17 4.5t-5 17.5v656q0 13 5 17.5t17 4.5h381q12 0 17 -4.5t5 -17.5v-51q0 -13 -5 -17.5t-17 -4.5h-291q-7 0 -9.5 -2.5t-2.5 -8.5v-198q0 -6 2.5 -8.5t9.5 -2.5h256q13 0 18 -5t5 -18v-50q0 -12 -5 -17t-18 -5h-256q-7 0 -9.5 -2.5
t-2.5 -8.5v-257q0 -13 -5 -17.5zM740.5 96.5q2.5 -2.5 9.5 -2.5h295q12 0 17 -5t5 -17v-50q0 -13 -5 -17.5t-17 -4.5h-385q-12 0 -17 4.5t-5 17.5v656q0 13 5 17.5t17 4.5h56q12 0 17 -4.5t5 -17.5v-573q0 -6 2.5 -8.5z" />
    <glyph glyph-name="uniFB03" unicode="ffi" horiz-adv-x="1346" 
d="M706 4.5q-5 -4.5 -17 -4.5h-56q-12 0 -17 4.5t-5 17.5v268h-411q-7 0 -9.5 -2.5t-2.5 -8.5v-257q0 -13 -5 -17.5t-17 -4.5h-56q-12 0 -17 4.5t-5 17.5v656q0 13 5 17.5t17 4.5h380q12 0 17 -4.5t5 -17.5v-51q0 -13 -5 -17.5t-17 -4.5h-290q-7 0 -9.5 -2.5t-2.5 -8.5v-198
q0 -6 2.5 -8.5t9.5 -2.5h411v293q0 13 5 17.5t17 4.5h380q12 0 17 -4.5t5 -17.5v-51q0 -13 -5 -17.5t-17 -4.5h-290q-7 0 -9.5 -2.5t-2.5 -8.5v-198q0 -6 2.5 -8.5t9.5 -2.5h256q12 0 17 -5t5 -18v-50q0 -12 -5 -17t-17 -5h-256q-7 0 -9.5 -2.5t-2.5 -8.5v-257
q0 -13 -5 -17.5zM1253 4.5q-5 -4.5 -17 -4.5h-56q-12 0 -17 4.5t-5 17.5v656q0 13 5 17.5t17 4.5h56q12 0 17 -4.5t5 -17.5v-656q0 -13 -5 -17.5z" />
    <glyph glyph-name="uniFB04" unicode="ffl" horiz-adv-x="1622" 
d="M706 4.5q-5 -4.5 -17 -4.5h-56q-12 0 -17 4.5t-5 17.5v268h-411q-7 0 -9.5 -2.5t-2.5 -8.5v-257q0 -13 -5 -17.5t-17 -4.5h-56q-12 0 -17 4.5t-5 17.5v656q0 13 5 17.5t17 4.5h380q12 0 17 -4.5t5 -17.5v-51q0 -13 -5 -17.5t-17 -4.5h-290q-7 0 -9.5 -2.5t-2.5 -8.5v-198
q0 -6 2.5 -8.5t9.5 -2.5h411v293q0 13 5 17.5t17 4.5h380q12 0 17 -4.5t5 -17.5v-51q0 -13 -5 -17.5t-17 -4.5h-290q-7 0 -9.5 -2.5t-2.5 -8.5v-198q0 -6 2.5 -8.5t9.5 -2.5h256q12 0 17 -5t5 -18v-50q0 -12 -5 -17t-17 -5h-256q-7 0 -9.5 -2.5t-2.5 -8.5v-257
q0 -13 -5 -17.5zM1260.5 96.5q2.5 -2.5 9.5 -2.5h295q12 0 17 -5t5 -17v-50q0 -13 -5 -17.5t-17 -4.5h-385q-12 0 -17 4.5t-5 17.5v656q0 13 5 17.5t17 4.5h56q12 0 17 -4.5t5 -17.5v-573q0 -6 2.5 -8.5z" />
    <glyph glyph-name="uniFDFC" unicode="&#xfdfc;" horiz-adv-x="1005" arabic-form="isolated" 
d="M98.5 51q-48.5 51 -48.5 170v67h42v-28q0 -73 36.5 -110.5t98.5 -37.5q67 0 103.5 52.5t36.5 171.5v364h42v-431q0 -147 -50.5 -208t-132.5 -61q-79 0 -127.5 51zM562 166q-39 47 -39 160v374h42v-307q0 -62 11.5 -97t33.5 -49.5t57 -14.5q48 0 74 31.5t26 101.5v23h42
v-43q0 -121 -38.5 -173.5t-103.5 -52.5q-66 0 -105 47zM680.5 -199.5q-20.5 2.5 -33.5 5.5l-58 121q25 -8 54.5 -12t57.5 -4q110 0 166 63t56 193v40h42v-59q0 -175 -63.5 -262.5t-183.5 -87.5q-17 0 -37.5 2.5zM556.5 -1q-12.5 12 -12.5 29q0 18 12.5 30.5t29.5 12.5
q18 0 30.5 -12t12.5 -31q0 -17 -12 -29t-31 -12q-17 0 -29.5 12zM714.5 -1q-12.5 12 -12.5 29q0 18 12.5 30.5t29.5 12.5q18 0 30.5 -12t12.5 -31q0 -17 -12 -29t-31 -12q-17 0 -29.5 12z" />
    <glyph glyph-name=".notdef" horiz-adv-x="1037" 
d="M999 216.5q-24 -39.5 -68.5 -60.5t-104.5 -21q-30 0 -30 30v318q0 80 -37.5 142.5t-101.5 97.5t-139 35t-138.5 -35t-101.5 -97.5t-38 -142.5v-318q0 -30 -29 -30q-60 0 -104.5 21t-68.5 60.5t-24 92.5q0 52 18 89.5t48.5 58.5t69.5 26q0 100 50.5 182.5t135 130.5
t182.5 48t183 -48t135.5 -130.5t50.5 -182.5q39 -5 69.5 -26t48.5 -58.5t18 -89.5q0 -53 -24 -92.5zM454 114l-2 55q-1 44 -8.5 77t-17 55.5t-24.5 52.5q-13 26 -20.5 43t-12.5 39.5t-5 51.5q0 43 20.5 78.5t56 56.5t77.5 21q43 0 78.5 -21t56 -56.5t20.5 -78.5
q0 -29 -5 -51.5t-12 -39.5t-20 -43q-15 -30 -24.5 -52.5t-17 -55.5t-8.5 -77l-2 -55q-2 -29 -29 -29h-72q-27 0 -29 29zM559 -125h-80q-35 0 -35 35v80q0 35 35 35h80q35 0 35 -35v-80q0 -35 -35 -35z" />
    <glyph glyph-name="glyph1" horiz-adv-x="0" 
 />
    <glyph glyph-name="glyph1" horiz-adv-x="0" 
 />
    <glyph glyph-name="uni000D" unicode="&#xd;" horiz-adv-x="275" 
 />
    <glyph glyph-name="space" unicode=" " horiz-adv-x="275" 
 />
    <glyph glyph-name="exclam" unicode="!" horiz-adv-x="253" 
d="M92 165.5q-5 5.5 -6 23.5l-18 474q-2 21 5 29t27 8h53q19 0 26 -8t6 -29l-19 -474q-1 -18 -6 -23.5t-19 -5.5h-30q-14 0 -19 5.5zM81.5 90.5q17.5 16.5 44.5 16.5t44.5 -16.5t17.5 -42.5q0 -25 -17.5 -41.5t-44.5 -16.5q-26 0 -44 16.5t-18 41.5q0 26 17.5 42.5z" />
    <glyph glyph-name="quotedbl" unicode="&#x22;" horiz-adv-x="323" 
d="M136.5 706q6.5 -5 6.5 -16l-1 -10l-11 -137q-1 -13 -6 -18t-16 -5h-27q-11 0 -16 5t-6 18l-12 137q-2 18 3.5 24.5t23.5 6.5h41q14 0 20.5 -5zM269.5 706q6.5 -5 6.5 -16l-1 -10l-12 -137q-1 -13 -5.5 -18t-16.5 -5h-27q-11 0 -15.5 5t-5.5 18l-12 137q-2 18 3.5 24.5
t22.5 6.5h41q15 0 21.5 -5z" />
    <glyph glyph-name="numbersign" unicode="#" horiz-adv-x="672" 
d="M493 678q4 13 9.5 17.5t18.5 4.5h38q11 0 16 -3.5t5 -11.5q0 -3 -2 -11l-50 -170h92q12 0 17 -4.5t5 -17.5v-36q0 -13 -5 -17.5t-17 -4.5h-113l-44 -148h106q12 0 17 -4.5t5 -17.5v-36q0 -13 -5 -17.5t-17 -4.5h-126l-51 -174q-4 -13 -10 -17.5t-19 -4.5h-38
q-20 0 -20 14q0 2 2 12l50 170h-131l-51 -174q-4 -13 -9.5 -17.5t-18.5 -4.5h-38q-11 0 -16 3.5t-5 11.5q0 3 2 11l50 170h-88q-12 0 -17 4.5t-5 17.5v36q0 13 5 17.5t17 4.5h109l43 148h-101q-12 0 -17 4.5t-5 17.5v36q0 13 5 17.5t17 4.5h122l52 174q3 13 9 17.5t19 4.5
h38q20 0 20 -14q0 -2 -2 -12l-50 -170h131zM378 276l43 148h-131l-43 -148h131z" />
    <glyph glyph-name="dollar" unicode="$" horiz-adv-x="672" 
d="M341 680l28 -1v80q0 15 4 20.5t16 5.5t16 -5.5t4 -20.5v-85q41 -6 80.5 -22.5t75.5 -41.5q6 -4 9.5 -8t3.5 -8q0 -7 -8 -18l-27 -39q-4 -5 -8 -8t-7 -3t-8 3t-7 4q-22 15 -49 27.5t-55 19.5v-195q90 -21 134.5 -61.5t44.5 -110.5q0 -47 -23 -85.5t-64 -64.5t-92 -36v-86
q0 -15 -4 -20.5t-16 -5.5t-16 5.5t-4 20.5v80l-28 -1l-28 1v-80q0 -15 -4 -20.5t-16 -5.5t-16 5.5t-4 20.5v83q-56 7 -103 27t-88 51q-12 9 -12 17t7 16l27 41q9 12 16 12q4 0 8.5 -3t5.5 -4q61 -49 139 -64v200q-87 19 -133.5 59t-46.5 115q0 48 22.5 86t63 62.5t94.5 34.5
v85q0 15 4 20.5t16 5.5t16 -5.5t4 -20.5v-80zM369 586q-10 2 -28 2t-28 -2v-181l56 -11v192zM212 445q20 -19 61 -30v165q-38 -9 -59.5 -31t-21.5 -53q0 -32 20 -51zM313 113l28 -1l28 1v185l-56 11v-196zM469 258q-20 19 -60 31v-169q38 10 59 32.5t21 56.5q0 30 -20 49z
" />
    <glyph glyph-name="percent" unicode="%" horiz-adv-x="736" 
d="M101 378q-35 21 -55 60.5t-20 93.5t20 94.5t56 62.5t82 22q44 0 79 -21t55 -60.5t20 -93.5t-20 -94.5t-55.5 -62.5t-81.5 -22q-45 0 -80 21zM130.5 -7q-6.5 -4 -21.5 -4h-42q-20 0 -20 11q0 4 4 10.5t10 13.5l528 666q10 13 16.5 17t21.5 4h42q20 0 20 -11q0 -4 -4 -10.5
t-10 -13.5l-528 -666q-10 -13 -16.5 -17zM239 457.5q21 28.5 21 76.5t-21.5 76.5t-56.5 28.5q-36 0 -56.5 -28.5t-20.5 -76.5q0 -49 21 -77t56 -28q36 0 57 28.5zM473 10q-35 21 -55 60.5t-20 93.5t20 94.5t55.5 62.5t81.5 22q45 0 80 -21t55 -60.5t20 -93.5t-20 -94.5
t-56 -62.5t-82 -22q-44 0 -79 21zM610 90q21 29 21 76q0 49 -21 77t-56 28q-36 0 -57 -28.5t-21 -76.5t21.5 -76.5t56.5 -28.5t56 29z" />
    <glyph glyph-name="ampersand" unicode="&#x26;" horiz-adv-x="694" 
d="M145.5 614.5q24.5 44.5 70 70.5t105.5 26t103.5 -24t66.5 -65t23 -92q0 -71 -48.5 -119t-131.5 -71l147 -148q24 25 49 61.5t42 70.5q9 17 20 17q4 0 14 -5l39 -24q8 -5 11 -9t3 -9t-5 -17q-18 -37 -47.5 -79.5t-58.5 -71.5l101 -100q11 -11 11 -17q0 -9 -20 -9h-72
q-15 0 -22.5 3t-18.5 14l-49 50q-92 -79 -208 -79q-76 0 -129 26.5t-80 72t-27 102.5q0 67 39 114.5t106 71.5q-27 31 -42.5 68t-15.5 75q0 52 24.5 96.5zM403.5 573q-10.5 22 -32 35.5t-51.5 13.5q-29 0 -51.5 -14t-34.5 -37.5t-12 -53.5q0 -31 15 -60.5t41 -55.5
q74 16 105 47.5t31 78.5q0 24 -10.5 46zM153.5 136.5q16.5 -26.5 47.5 -41.5t73 -15q43 0 76.5 13t62.5 38l-179 184q-48 -16 -72.5 -46.5t-24.5 -72.5q0 -33 16.5 -59.5z" />
    <glyph glyph-name="quotesingle" unicode="'" horiz-adv-x="191" 
d="M136.5 706q6.5 -5 6.5 -16l-1 -10l-11 -137q-1 -13 -6 -18t-16 -5h-27q-11 0 -16 5t-6 18l-12 137q-2 18 3.5 24.5t23.5 6.5h41q14 0 20.5 -5z" />
    <glyph glyph-name="parenleft" unicode="(" horiz-adv-x="319" 
d="M78 606q53 124 137 216q12 13 23 13q9 0 18 -8l31 -24q11 -9 11 -17q0 -7 -10 -19q-74 -80 -120 -190t-46 -227t46 -227t120 -190q10 -12 10 -19q0 -8 -11 -17l-31 -24q-9 -8 -18 -8q-11 0 -23 13q-84 92 -137 215t-53 255q0 134 53 258z" />
    <glyph glyph-name="parenright" unicode=")" horiz-adv-x="319" 
d="M241 94q-53 -124 -137 -216q-12 -13 -22 -13t-19 8l-30 24q-11 8 -11 18q0 7 9 18q74 81 120 190.5t46 226.5t-46 226.5t-120 190.5q-9 11 -9 18q0 10 11 18l30 24q9 8 19 8t22 -13q84 -92 137 -215t53 -255q0 -134 -53 -258z" />
    <glyph glyph-name="asterisk" unicode="*" horiz-adv-x="411" 
d="M246 694.5q4 -5.5 2 -17.5l-9 -96l88 38q2 1 6.5 2.5t7.5 1.5q9 0 14 -14l16 -46q2 -8 2 -10q0 -7 -4.5 -10.5t-14.5 -5.5l-93 -20l63 -73q8 -8 8 -16q0 -7 -10 -14l-39 -28q-7 -6 -13 -6q-8 0 -16 14l-49 83l-48 -83q-8 -14 -16 -14q-6 0 -13 6l-39 28q-10 7 -10 15
q0 7 8 15l63 73l-93 20q-10 2 -14.5 5.5t-4.5 10.5q0 2 2 10l16 46q5 14 14 14q2 0 14 -4l87 -38l-8 96v7q0 9 4 12.5t14 3.5h49q12 0 16 -5.5z" />
    <glyph glyph-name="plus" unicode="+" horiz-adv-x="672" 
d="M83 281.5q-5 4.5 -5 17.5v42q0 13 5 17.5t17 4.5h182q12 0 12 11v182q0 12 4.5 17t17.5 5h40q13 0 18 -5t5 -17v-182q0 -6 2.5 -8.5t8.5 -2.5h182q12 0 17 -4.5t5 -17.5v-42q0 -13 -5 -17.5t-17 -4.5h-182q-6 0 -8.5 -2.5t-2.5 -8.5v-182q0 -12 -5 -17t-18 -5h-40
q-13 0 -17.5 5t-4.5 17v182q0 11 -12 11h-182q-12 0 -17 4.5z" />
    <glyph glyph-name="comma" unicode="," horiz-adv-x="227" 
d="M158 93q18 -17 18 -47q0 -19 -6 -38t-20 -45l-28 -55q-6 -11 -11.5 -14t-17.5 -3h-31q-16 0 -16 10q0 3 1.5 6.5t2.5 5.5l42 78q-17 4 -29 19t-12 38q0 27 17.5 44.5t43.5 17.5q28 0 46 -17z" />
    <glyph glyph-name="hyphen" unicode="-" horiz-adv-x="429" 
d="M373.5 304q-5.5 -5 -17.5 -5h-284q-12 0 -17 4.5t-5 17.5v42q0 13 5 18t17 5h284q12 0 17.5 -5t5.5 -18v-42q0 -12 -5.5 -17z" />
    <glyph glyph-name="period" unicode="." horiz-adv-x="227" 
d="M69 93q18 17 44 17q27 0 45 -17t18 -43t-18 -42.5t-45 -16.5t-44.5 16.5t-17.5 42.5t18 43z" />
    <glyph glyph-name="slash" unicode="/" horiz-adv-x="391" 
d="M298.5 707q5.5 4 19.5 4h52q19 0 19 -13q0 -6 -2 -10l-282 -677q-6 -14 -12 -18t-20 -4h-52q-18 0 -18 12q0 7 2 11l282 677q6 14 11.5 18z" />
    <glyph glyph-name="zero" unicode="0" horiz-adv-x="672" 
d="M83.5 539.5q36.5 82.5 102 127t150.5 44.5q84 0 150 -43.5t102.5 -125t36.5 -190.5q0 -110 -37 -192.5t-103 -126.5t-150 -44q-85 0 -150 42.5t-101.5 123.5t-36.5 191q0 111 36.5 193.5zM173.5 209q22.5 -60 64 -92.5t97.5 -32.5q55 0 97.5 34t65.5 94t23 137
q0 82 -23 142t-65 92.5t-98 32.5t-98 -32.5t-64 -93t-22 -141.5q0 -80 22.5 -140z" />
    <glyph glyph-name="one" unicode="1" horiz-adv-x="365" 
d="M243 4.5q-5 -4.5 -17 -4.5h-56q-12 0 -17 4.5t-5 17.5v571q0 7 -2.5 9.5t-9.5 2.5h-91q-12 0 -17 4.5t-5 17.5v51q0 13 5 17.5t17 4.5h181q12 0 17 -4.5t5 -17.5v-656q0 -13 -5 -17.5z" />
    <glyph glyph-name="two" unicode="2" horiz-adv-x="566" 
d="M523 4.5q-5 -4.5 -18 -4.5h-462q-13 0 -20.5 3.5t-7.5 9.5q0 8 13 23l237 256q67 72 97 119t30 91q0 35 -17 61t-47 39.5t-66 13.5q-43 0 -80 -16t-72 -46q-10 -8 -16 -8q-4 0 -8.5 3t-9.5 10l-23 33q-9 11 -9 18t13 19q41 36 94 59t117 23q63 0 115 -24t82.5 -69.5
t30.5 -108.5q0 -40 -14 -77.5t-43.5 -78.5t-78.5 -94l-151 -164h296q13 -1 18 -5.5t5 -16.5v-51q0 -13 -5 -17.5z" />
    <glyph glyph-name="three" unicode="3" horiz-adv-x="599" 
d="M366.5 101q39.5 17 61 47.5t21.5 69.5q0 64 -49 97t-156 33q-32 0 -32 13q0 6 10 21l161 223h-298q-12 1 -17 5.5t-5 16.5v51q0 13 5 17.5t17 4.5h439q23 0 23 -14q0 -9 -11 -25l-177 -242q92 -11 143 -61.5t51 -136.5q0 -68 -35 -121t-98.5 -82t-144.5 -29
q-71 0 -130 22t-112 65q-11 9 -11 18q0 6 6 15l28 44q4 5 7.5 7.5t7.5 2.5q7 0 15 -7q89 -72 190 -72q51 0 90.5 17z" />
    <glyph glyph-name="four" unicode="4" horiz-adv-x="599" 
d="M549 254q13 0 18 -5t5 -18v-46q0 -13 -5 -17.5t-18 -4.5h-77v-140q0 -13 -5 -18t-18 -5h-55q-13 0 -17.5 5t-4.5 18v140h-322q-18 0 -26.5 6t-8.5 16q0 7 3.5 13t12.5 18l375 466q14 17 22.5 23.5t17.5 6.5q13 0 19.5 -9.5t6.5 -32.5v-416h77zM374 515l-207 -261h207v261
z" />
    <glyph glyph-name="five" unicode="5" horiz-adv-x="599" 
d="M190.5 602.5q-2.5 -2.5 -2.5 -9.5l-7 -170q57 18 125 18q74 0 129.5 -26.5t85.5 -74.5t30 -112q0 -66 -32 -120.5t-95 -86.5t-152 -32q-125 0 -226 74q-6 5 -9 9t-3 9q0 7 6 17l25 40q8 12 15 12t17 -7q82 -59 177 -59q55 0 94 17t59 48.5t20 72.5t-21.5 69t-60 42.5
t-88.5 14.5q-45 0 -89 -8.5t-79 -21.5q-12 -4 -14 -4q-15 0 -14 26l15 332q1 16 7 22t23 6h370q13 0 18 -4.5t5 -17.5v-51q0 -13 -5 -17.5t-18 -4.5h-296q-7 0 -9.5 -2.5z" />
    <glyph glyph-name="six" unicode="6" horiz-adv-x="606" 
d="M298 695.5q7 4.5 23 4.5h63q21 0 21 -11q0 -6 -7 -16l-163 -227q17 10 40.5 15.5t49.5 5.5q66 0 120.5 -28t86 -80.5t31.5 -121.5q0 -75 -35 -131.5t-94.5 -86.5t-132.5 -30q-71 0 -128.5 28t-91 82t-33.5 128q0 62 21 117t72 128l139 204q11 15 18 19.5zM171.5 153
q19.5 -33 54 -51t78.5 -18t79.5 18t55.5 52t20 80q0 42 -19.5 74t-54 50t-78.5 18t-79.5 -18t-55.5 -51.5t-20 -77.5q0 -43 19.5 -76z" />
    <glyph glyph-name="seven" unicode="7" horiz-adv-x="547" 
d="M233.5 5q-6.5 -5 -21.5 -5h-57q-11 0 -16 2.5t-5 9.5q0 5 5 18l255 575h-346q-13 0 -18 5t-5 18v49q0 13 5 18t18 5h456q26 0 26 -15q0 -8 -6 -22l-276 -636q-8 -17 -14.5 -22z" />
    <glyph glyph-name="eight" unicode="8" horiz-adv-x="606" 
d="M426.5 686.5q51.5 -24.5 79.5 -68.5t28 -102q0 -52 -24.5 -90.5t-71.5 -60.5q53 -19 86 -61.5t33 -103.5q0 -69 -33 -116.5t-91 -71t-134 -23.5q-73 0 -129.5 23t-88.5 69t-32 112q0 64 32.5 107.5t85.5 64.5q-46 20 -71 59t-25 92q0 58 29 102t82.5 68.5t124.5 24.5
q68 0 119.5 -24.5zM236 605.5q-30 -13.5 -46.5 -38t-16.5 -56.5t17.5 -56t47 -37.5t65.5 -13.5q35 0 64.5 13.5t47 37.5t17.5 56q0 33 -15.5 57.5t-44.5 37.5t-68 13q-38 0 -68 -13.5zM432 262.5q-21 26.5 -55 40.5t-74 14t-74 -14t-55 -40.5t-21 -63.5q0 -56 40 -87
t109 -31q70 0 110.5 31t40.5 87q0 37 -21 63.5z" />
    <glyph glyph-name="nine" unicode="9" horiz-adv-x="606" 
d="M307.5 4q-7.5 -4 -23.5 -4h-64q-20 0 -20 10q0 6 8 17l164 227q-40 -21 -91 -21q-67 0 -121.5 28.5t-86 81t-31.5 120.5q0 74 34.5 130t94.5 87t133 31q71 0 128.5 -27.5t91 -81.5t33.5 -129q0 -62 -21.5 -117.5t-70.5 -126.5l-139 -205q-11 -16 -18.5 -20zM433.5 547
q-19.5 33 -54 51t-77.5 18q-45 0 -80.5 -18t-55.5 -52t-20 -80q0 -42 19.5 -74t54 -50t77.5 -18q45 0 80.5 18.5t55.5 52t20 76.5t-19.5 76z" />
    <glyph glyph-name="colon" unicode=":" horiz-adv-x="227" 
d="M69 93q18 17 44 17q27 0 45 -17t18 -43t-18 -42.5t-45 -16.5t-44.5 16.5t-17.5 42.5t18 43zM69 434q18 17 44 17q27 0 45 -17t18 -43t-18 -42.5t-45 -16.5t-44.5 16.5t-17.5 42.5t18 43z" />
    <glyph glyph-name="semicolon" unicode=";" horiz-adv-x="227" 
d="M158 93q18 -17 18 -47q0 -19 -6 -38t-20 -45l-28 -55q-6 -11 -11.5 -14t-17.5 -3h-31q-16 0 -16 10q0 3 1.5 6.5t2.5 5.5l42 78q-17 4 -29 19t-12 38q0 27 17.5 44.5t43.5 17.5q28 0 46 -17zM69 434q18 17 44 17q27 0 45 -17t18 -43t-18 -42.5t-45 -16.5t-44.5 16.5
t-17.5 42.5t18 43z" />
    <glyph glyph-name="less" unicode="&#x3c;" horiz-adv-x="672" 
d="M526.5 141q4.5 -6 4.5 -20v-46q0 -19 -11 -19q-8 0 -16 5l-382 215q-14 7 -17.5 13t-3.5 20v22q0 14 3.5 20t17.5 13l382 215q8 5 16 5q11 0 11 -19v-46q0 -14 -4.5 -20t-18.5 -14l-296 -165l296 -165q14 -8 18.5 -14z" />
    <glyph glyph-name="equal" unicode="=" horiz-adv-x="672" 
d="M587 380.5q-5 -4.5 -17 -4.5h-467q-12 0 -17.5 5t-5.5 17v41q0 12 5.5 17t17.5 5h467q12 0 17 -4.5t5 -17.5v-41q0 -13 -5 -17.5zM587 183.5q-5 -4.5 -17 -4.5h-467q-12 0 -17.5 5t-5.5 17v41q0 12 5.5 17t17.5 5h467q12 0 17 -4.5t5 -17.5v-41q0 -13 -5 -17.5z" />
    <glyph glyph-name="greater" unicode="&#x3e;" horiz-adv-x="672" 
d="M146 499q-4 6 -4 20v46q0 10 2.5 14.5t8.5 4.5q8 0 15 -5l382 -215q14 -7 18 -13t4 -20v-22q0 -14 -4 -20t-18 -13l-382 -215q-7 -5 -15 -5q-6 0 -8.5 4.5t-2.5 14.5v46q0 14 4 20t18 14l296 165l-296 165q-14 8 -18 14z" />
    <glyph glyph-name="question" unicode="?" horiz-adv-x="505" 
d="M167 164.5q-5 4.5 -5 16.5v15q0 39 7 65.5t27.5 52t61.5 56.5q38 30 60 52t32.5 43.5t10.5 46.5q0 32 -16.5 56t-44.5 36t-63 12q-42 0 -79.5 -15.5t-71.5 -43.5q-9 -9 -16 -9q-4 0 -8.5 3t-9.5 10l-24 34q-4 5 -6 9.5t-2 8.5q0 5 3.5 10t10.5 11q94 77 206 77
q62 0 113.5 -23t81.5 -66.5t30 -103.5q0 -58 -32 -104.5t-98 -96.5q-30 -23 -45.5 -42t-21.5 -37.5t-6 -42.5v-14q0 -12 -5 -16.5t-17 -4.5h-56q-12 0 -17 4.5zM166.5 90.5q17.5 16.5 44.5 16.5t44.5 -16.5t17.5 -42.5q0 -25 -17.5 -41.5t-44.5 -16.5q-26 0 -44 16.5
t-18 41.5q0 26 17.5 42.5z" />
    <glyph glyph-name="at" unicode="@" horiz-adv-x="894" 
d="M223 -105q-90 50 -142.5 143.5t-52.5 220.5q0 129 52 232t149 161.5t227 58.5q127 0 220 -50.5t141.5 -134.5t48.5 -182q0 -89 -31.5 -157t-82.5 -104t-109 -36q-52 0 -87.5 27t-47.5 73q-30 -37 -67.5 -57.5t-80.5 -20.5q-38 0 -68.5 19.5t-48 55t-17.5 82.5
q0 64 29.5 128.5t80.5 106t111 41.5q39 0 67 -18t45 -51l10 34q6 18 12 23.5t21 5.5h38q12 0 17.5 -3t5.5 -11q0 -6 -3 -15l-49 -147q-24 -76 -24 -115q0 -34 17.5 -54.5t46.5 -20.5q33 0 62.5 26t47 73.5t17.5 110.5q0 80 -36.5 145.5t-109.5 104t-176 38.5
q-105 0 -181.5 -47.5t-117 -131t-40.5 -187.5q0 -103 40.5 -178.5t111 -115t158.5 -39.5q65 0 122 17.5t102 45.5l8 4t10 3t7.5 -3t7.5 -9l19 -30q6 -11 6 -16q0 -11 -13 -18q-55 -35 -126.5 -56.5t-146.5 -21.5q-110 0 -200 50zM384 389q-31 -29 -49 -72.5t-18 -83.5
q0 -35 15 -57.5t46 -22.5q38 0 70.5 30t51.5 73.5t19 80.5q0 36 -17 58.5t-50 22.5q-37 0 -68 -29z" />
    <glyph glyph-name="A" unicode="A" 
d="M111 30q-8 -18 -16 -24t-24 -6h-52q-20 0 -20 13q0 5 5 17l301 634q15 31 22 40.5t17 9.5q9 0 15.5 -9.5t21.5 -40.5l304 -634q5 -12 5 -17q0 -13 -21 -13h-56q-16 0 -23.5 6t-16.5 24l-231 498z" />
    <glyph glyph-name="B" unicode="B" horiz-adv-x="626" 
d="M93 695.5q5 4.5 17 4.5h196q124 0 193.5 -44.5t69.5 -141.5q0 -61 -27 -97.5t-77 -54.5q57 -14 90.5 -54t33.5 -103q0 -107 -72.5 -156t-207.5 -49h-199q-12 0 -17 4.5t-5 17.5v656q0 13 5 17.5zM190.5 605q-2.5 -3 -2.5 -9v-186q0 -6 2.5 -9t9.5 -3h113q76 0 114 26.5
t38 79.5q0 54 -41.5 79t-124.5 25h-99q-7 0 -9.5 -3zM409.5 103q38.5 11 57 36t18.5 65q0 56 -42.5 79.5t-125.5 23.5h-117q-7 0 -9.5 -2.5t-2.5 -9.5v-191q0 -6 2.5 -9t9.5 -3h109q62 0 100.5 11z" />
    <glyph glyph-name="C" unicode="C" horiz-adv-x="701" 
d="M607 156q11 9 17 9q4 0 8 -3t7 -7l29 -40q5 -6 5 -14q0 -4 -3 -8.5t-9 -9.5q-53 -45 -119.5 -69.5t-139.5 -24.5q-98 0 -179.5 46t-129 128t-47.5 184q0 103 47.5 186t130 130.5t184.5 47.5q72 0 137.5 -25t116.5 -68q10 -7 10 -15q0 -7 -6 -16l-29 -39q-8 -11 -16 -11
q-6 0 -17 8q-43 33 -93 52t-105 19q-71 0 -129.5 -34t-92.5 -95t-34 -138q0 -74 33.5 -135t92 -95.5t130.5 -34.5q113 0 201 72z" />
    <glyph glyph-name="D" unicode="D" horiz-adv-x="742" 
d="M93 695.5q5 4.5 17 4.5h208q116 0 201.5 -42.5t131 -119.5t45.5 -180q0 -108 -47.5 -189t-136 -125t-208.5 -44h-194q-12 0 -17 4.5t-5 17.5v656q0 13 5 17.5zM190.5 602.5q-2.5 -2.5 -2.5 -8.5v-488q0 -6 2.5 -8.5t9.5 -2.5h106q90 0 154.5 31.5t98 89.5t33.5 138
q0 75 -33.5 132t-97 88t-151.5 31h-110q-7 0 -9.5 -2.5z" />
    <glyph glyph-name="E" unicode="E" horiz-adv-x="565" 
d="M506 90.5q5 -4.5 5 -17.5v-51q0 -13 -5 -17.5t-17 -4.5h-379q-12 0 -17 4.5t-5 17.5v656q0 13 5 17.5t17 4.5h378q12 0 17 -4.5t5 -17.5v-51q0 -13 -5 -17.5t-17 -4.5h-288q-7 0 -9.5 -2.5t-2.5 -8.5v-183q0 -7 2.5 -9.5t9.5 -2.5h254q12 0 17 -4.5t5 -17.5v-50
q0 -12 -5 -17t-17 -5h-254q-7 0 -9.5 -2.5t-2.5 -8.5v-188q0 -6 2.5 -8.5t9.5 -2.5h289q12 0 17 -4.5z" />
    <glyph glyph-name="F" unicode="F" horiz-adv-x="550" 
d="M183 4.5q-5 -4.5 -17 -4.5h-56q-12 0 -17 4.5t-5 17.5v656q0 13 5 17.5t17 4.5h381q12 0 17 -4.5t5 -17.5v-51q0 -13 -5 -17.5t-17 -4.5h-291q-7 0 -9.5 -2.5t-2.5 -8.5v-198q0 -6 2.5 -8.5t9.5 -2.5h256q13 0 18 -5t5 -18v-50q0 -12 -5 -17t-18 -5h-256q-7 0 -9.5 -2.5
t-2.5 -8.5v-257q0 -13 -5 -17.5z" />
    <glyph glyph-name="G" unicode="G" horiz-adv-x="746" 
d="M675.5 62q-3.5 -6 -14.5 -11q-117 -62 -260 -62q-97 0 -178 44.5t-129 125.5t-48 186q0 108 49 191.5t133 129t186 45.5q71 0 136 -22.5t113 -57.5q13 -9 13 -18q0 -4 -7 -15l-28 -40q-7 -10 -16 -10q-7 0 -16 6q-96 62 -197 62q-76 0 -136 -34t-93 -95t-33 -138
q0 -78 34.5 -139t93 -94t129.5 -33q94 0 158 29q9 4 11.5 7.5t2.5 11.5v178q0 13 5 17.5t17 4.5h56q12 0 17 -4.5t5 -17.5v-229q0 -12 -3.5 -18z" />
    <glyph glyph-name="H" unicode="H" horiz-adv-x="731" 
d="M638 4.5q-5 -4.5 -17 -4.5h-56q-12 0 -17 4.5t-5 17.5v279q0 6 -2.5 8.5t-9.5 2.5h-331q-7 0 -9.5 -2.5t-2.5 -8.5v-279q0 -13 -5 -17.5t-17 -4.5h-56q-12 0 -17 4.5t-5 17.5v656q0 13 5 17.5t17 4.5h56q12 0 17 -4.5t5 -17.5v-260q0 -6 2.5 -9t9.5 -3h331q7 0 9.5 3
t2.5 9v260q0 13 5 17.5t17 4.5h56q12 0 17 -4.5t5 -17.5v-656q0 -13 -5 -17.5z" />
    <glyph glyph-name="I" unicode="I" horiz-adv-x="276" 
d="M183 4.5q-5 -4.5 -17 -4.5h-56q-12 0 -17 4.5t-5 17.5v656q0 13 5 17.5t17 4.5h56q12 0 17 -4.5t5 -17.5v-656q0 -13 -5 -17.5z" />
    <glyph glyph-name="J" unicode="J" horiz-adv-x="284" 
d="M-51 -105.5q4 3.5 12 3.5q6 0 20 -1.5t25 -1.5q45 0 70 35.5t25 104.5v643q0 13 5 17.5t17 4.5h56q12 0 17 -4.5t5 -17.5v-651q0 -227 -187 -227q-41 0 -60 6q-10 2 -13.5 7.5t-2.5 16.5l6 50q1 11 5 14.5z" />
    <glyph glyph-name="K" unicode="K" horiz-adv-x="621" 
d="M183 4.5q-5 -4.5 -17 -4.5h-56q-12 0 -17 4.5t-5 17.5v656q0 13 5 17.5t17 4.5h56q12 0 17 -4.5t5 -17.5v-656q0 -13 -5 -17.5zM498 695.5q8 4.5 24 4.5h65q19 0 19 -11q0 -6 -7 -14l-271 -320l278 -329q8 -10 8 -15q0 -11 -20 -11h-69q-17 0 -25 4.5t-20 18.5l-257 310
q-9 11 -9 19q0 9 10 20l254 304q12 15 20 19.5z" />
    <glyph glyph-name="L" unicode="L" horiz-adv-x="552" 
d="M190.5 97.5q2.5 -2.5 9.5 -2.5h295q12 0 17 -4.5t5 -17.5v-51q0 -13 -5 -17.5t-17 -4.5h-385q-12 0 -17 4.5t-5 17.5v656q0 13 5 17.5t17 4.5h56q12 0 17 -4.5t5 -17.5v-572q0 -6 2.5 -8.5z" />
    <glyph glyph-name="M" unicode="M" horiz-adv-x="846" 
d="M188 22q0 -13 -5 -17.5t-17 -4.5h-56q-12 0 -17 4.5t-5 17.5v655q0 17 4.5 25t15.5 8q8 0 16 -6.5t22 -22.5l279 -335l275 335q16 17 23 23t15 6q11 0 15.5 -8t4.5 -25v-655q0 -13 -5 -17.5t-17 -4.5h-56q-12 0 -17 4.5t-5 17.5v466l-200 -246q-13 -17 -20 -22.5
t-15 -5.5t-15 5.5t-20 22.5l-200 246v-466z" />
    <glyph glyph-name="N" unicode="N" horiz-adv-x="744" 
d="M561 695.5q5 4.5 17 4.5h56q12 0 17 -4.5t5 -17.5v-656q0 -33 -20 -33q-8 0 -17 6.5t-25 24.5l-406 479v-477q0 -13 -5 -17.5t-17 -4.5h-56q-12 0 -17 4.5t-5 17.5v656q0 17 5 25t16 8q8 0 17 -6.5t24 -24.5l406 -479v477q0 13 5 17.5z" />
    <glyph glyph-name="O" unicode="O" horiz-adv-x="814" 
d="M93.5 532.5q47.5 83.5 130 131t184.5 47.5t184 -47t129 -129t47 -184t-47.5 -185t-130.5 -130t-186 -47q-101 0 -182.5 46.5t-128.5 128.5t-47 183q0 102 47.5 185.5zM183.5 212.5q33.5 -60.5 92 -94.5t129.5 -34t130.5 34.5t94 95.5t34.5 136q0 77 -34 137.5t-93 94.5
t-130 34t-130 -34.5t-93 -95.5t-34 -138q0 -75 33.5 -135.5z" />
    <glyph glyph-name="P" unicode="P" horiz-adv-x="624" 
d="M190.5 228.5q-2.5 -2.5 -2.5 -8.5v-198q0 -13 -5 -17.5t-17 -4.5h-56q-12 0 -17 4.5t-5 17.5v656q0 13 5 17.5t17 4.5h193q143 0 213.5 -58.5t70.5 -171.5q0 -76 -33.5 -129.5t-99.5 -81.5t-160 -28h-94q-7 0 -9.5 -2.5zM190.5 602.5q-2.5 -2.5 -2.5 -8.5v-256
q0 -6 2.5 -9t9.5 -3h97q88 0 137 35t49 107t-47.5 104.5t-138.5 32.5h-97q-7 0 -9.5 -2.5z" />
    <glyph glyph-name="Q" unicode="Q" horiz-adv-x="814" 
d="M93 533.5q47 82.5 129.5 130t183.5 47.5q102 0 185 -47t130 -130t47 -185q0 -86 -34.5 -158.5t-96.5 -121.5t-141 -67l89 -136q6 -11 6 -16q0 -11 -22 -11h-58q-17 0 -25 5t-18 21l-80 124q-97 4 -175 52t-122.5 128.5t-44.5 179.5q0 102 47 184.5zM184 213.5
q34 -60.5 92.5 -95t129.5 -34.5t130 34.5t93.5 95t34.5 135.5q0 77 -34 138t-93 95t-131 34q-71 0 -129.5 -34t-92.5 -95t-34 -138q0 -75 34 -135.5z" />
    <glyph glyph-name="R" unicode="R" horiz-adv-x="635" 
d="M183 4.5q-5 -4.5 -17 -4.5h-56q-12 0 -17 4.5t-5 17.5v656q0 13 5 17.5t17 4.5h191q285 0 285 -217q0 -72 -36 -118.5t-100 -68.5l172 -266q8 -11 8 -19q0 -6 -5.5 -8.5t-16.5 -2.5h-59q-17 0 -25 5t-19 22l-184 292q-6 8 -6 14q0 8 15 9q151 16 151 135q0 68 -47.5 99.5
t-137.5 31.5h-96q-7 0 -9.5 -2.5t-2.5 -9.5v-574q0 -13 -5 -17.5z" />
    <glyph glyph-name="S" unicode="S" horiz-adv-x="569" 
d="M71 162q5 0 15 -8q91 -71 183 -71q46 0 80 13t52.5 37.5t18.5 56.5q0 31 -15 51t-48.5 34.5t-94.5 30.5q-72 18 -118.5 42t-72 62.5t-25.5 96.5q0 63 31 109t84.5 70.5t120.5 24.5q126 0 228 -79q5 -4 7.5 -7.5t2.5 -7.5q0 -3 -2 -7t-5 -9l-29 -43q-4 -6 -7.5 -8.5
t-7.5 -2.5q-7 0 -17 7q-40 29 -82 46t-89 17q-38 0 -67.5 -12.5t-46 -36t-16.5 -55.5t16.5 -53t49 -35t88.5 -28q77 -20 124.5 -45t71 -62.5t23.5 -92.5q0 -62 -33 -109.5t-91 -73t-133 -25.5q-68 0 -127.5 23t-109.5 63q-11 10 -11 17t7 17l30 42q8 11 15 11z" />
    <glyph glyph-name="T" unicode="T" horiz-adv-x="574" 
d="M554 609.5q-5 -4.5 -17 -4.5h-188q-7 0 -9.5 -2.5t-2.5 -8.5v-572q0 -13 -5 -17.5t-17 -4.5h-56q-12 0 -17 4.5t-5 17.5v572q0 6 -2.5 8.5t-9.5 2.5h-188q-12 0 -17 4.5t-5 17.5v51q0 13 5 17.5t17 4.5h500q12 0 17 -4.5t5 -17.5v-51q0 -13 -5 -17.5z" />
    <glyph glyph-name="U" unicode="U" horiz-adv-x="743" 
d="M622.5 127.5q-37.5 -69.5 -104 -104t-152.5 -34.5q-83 0 -146.5 33t-99.5 102t-36 171v383q0 13 5 17.5t17 4.5h55q13 0 18 -4.5t5 -17.5v-377q0 -103 48 -160t138 -57q60 0 102.5 26t65 74.5t22.5 115.5v378q0 13 5 17.5t16 4.5h56q13 0 18 -4.5t5 -17.5v-380
q0 -101 -37.5 -170.5z" />
    <glyph glyph-name="V" unicode="V" 
d="M577 670q9 18 17 24t24 6h51q21 0 21 -13q0 -5 -5 -17l-302 -634q-8 -18 -15 -30t-11.5 -16t-11.5 -4q-9 0 -16.5 10t-21.5 40l-303 634q-5 12 -5 17q0 13 21 13h55q16 0 24 -6t16 -24l232 -498z" />
    <glyph glyph-name="W" unicode="W" horiz-adv-x="967" 
d="M313.5 -2.5q-7.5 -10.5 -18.5 -10.5t-18.5 10.5t-19.5 42.5l-245 630q-3 9 -3 15q0 8 5 11.5t17 3.5h55q16 0 22.5 -5.5t14.5 -24.5l175 -472l155 432q10 25 17 34.5t18 9.5q10 0 17 -9t17 -35l153 -429l175 469q8 18 15 24t22 6h54q12 0 17 -3.5t5 -11.5q0 -6 -3 -15
l-245 -630q-12 -32 -19.5 -42.5t-17.5 -10.5t-18 10.5t-19 39.5l-155 425l-155 -425q-10 -29 -17.5 -39.5z" />
    <glyph glyph-name="X" unicode="X" horiz-adv-x="615" 
d="M601 24q6 -7 6 -13q0 -5 -5 -8t-13 -3h-70q-15 0 -22 4.5t-17 19.5l-172 253l-173 -255q-10 -14 -16.5 -18t-20.5 -4h-68q-8 0 -13 3t-5 8q0 6 6 13l228 331l-220 321q-5 6 -5 13q0 5 5 8t13 3h70q14 0 21 -4.5t18 -19.5l163 -242l164 244q10 14 17.5 18t21.5 4h67
q18 0 18 -10q0 -5 -6 -14l-221 -319z" />
    <glyph glyph-name="Y" unicode="Y" horiz-adv-x="603" 
d="M487 675q10 16 17 20.5t23 4.5h59q9 0 14 -3t5 -8q0 -4 -5 -14l-248 -411v-242q0 -13 -5 -17.5t-17 -4.5h-56q-12 0 -17 4.5t-5 17.5v237l-248 416q-5 10 -5 14q0 6 4.5 8.5t13.5 2.5h62q17 0 24 -4.5t17 -20.5l183 -316z" />
    <glyph glyph-name="Z" unicode="Z" horiz-adv-x="581" 
d="M532 4.5q-5 -4.5 -18 -4.5h-463q-28 0 -28 15q0 6 8 19l354 571h-317q-12 1 -17 5.5t-5 16.5v51q0 13 5 17.5t17 4.5h450q28 0 28 -15q0 -6 -8 -19l-355 -571h331q13 0 18 -4.5t5 -17.5v-51q0 -13 -5 -17.5z" />
    <glyph glyph-name="bracketleft" unicode="[" horiz-adv-x="320" 
d="M79 833.5q5 4.5 17 4.5h178q11 0 15.5 -4.5t4.5 -14.5v-41q0 -11 -4.5 -15.5t-15.5 -4.5h-95q-7 0 -9.5 -2.5t-2.5 -9.5v-793q0 -6 2.5 -9t9.5 -3h95q11 0 15.5 -4.5t4.5 -14.5v-41q0 -11 -4.5 -15.5t-15.5 -4.5h-178q-12 0 -17 4.5t-5 17.5v933q0 13 5 17.5z" />
    <glyph glyph-name="backslash" unicode="\" horiz-adv-x="391" 
d="M389 1q0 -12 -18 -12h-52q-14 0 -20 4t-12 18l-282 677q-2 4 -2 10q0 13 18 13h52q14 0 20 -4t12 -18l282 -677q2 -4 2 -11z" />
    <glyph glyph-name="bracketright" unicode="]" horiz-adv-x="320" 
d="M240 -134.5q-5 -4.5 -17 -4.5h-177q-11 0 -15.5 4.5t-4.5 15.5v41q0 10 4.5 14.5t15.5 4.5h95q7 0 9.5 3t2.5 9v793q0 7 -2.5 9.5t-9.5 2.5h-95q-11 0 -15.5 4.5t-4.5 15.5v41q0 10 4.5 14.5t15.5 4.5h177q12 0 17 -4.5t5 -17.5v-933q0 -13 -5 -17.5z" />
    <glyph glyph-name="asciicircum" unicode="^" horiz-adv-x="513" 
d="M132.5 482q-4.5 -3 -8.5 -3q-6 0 -14 5l-33 19q-6 4 -9 7.5t-3 7.5q0 6 7 14l134 157q7 9 13 11.5t18 2.5h39q12 0 18 -2.5t13 -11.5l134 -157q3 -4 5 -8t2 -7q0 -6 -12 -14l-33 -19q-8 -5 -14 -5q-4 0 -8.5 3t-9.5 9l-115 137l-114 -137q-5 -6 -9.5 -9z" />
    <glyph glyph-name="underscore" unicode="_" horiz-adv-x="500" 
d="M485 -163.5q-5 -4.5 -17 -4.5h-436q-12 0 -17 4.5t-5 17.5v34q0 13 5 18t17 5h436q12 0 17 -5t5 -18v-34q0 -13 -5 -17.5z" />
    <glyph glyph-name="grave" unicode="`" horiz-adv-x="500" 
d="M158 938q4 0 8.5 -2t9.5 -6l144 -118q10 -7 10 -14q0 -5 -9 -13l-25 -20q-9 -7 -14 -7q-3 0 -8 2.5t-10 5.5l-150 108q-11 8 -11 16q0 7 8 15l29 24q11 9 18 9z" />
    <glyph glyph-name="a" unicode="a" 
d="M111 30q-8 -18 -16 -24t-24 -6h-52q-20 0 -20 13q0 5 5 17l301 634q15 31 22 40.5t17 9.5q9 0 15.5 -9.5t21.5 -40.5l304 -634q5 -12 5 -17q0 -13 -21 -13h-56q-16 0 -23.5 6t-16.5 24l-231 498z" />
    <glyph glyph-name="b" unicode="b" horiz-adv-x="626" 
d="M93 695.5q5 4.5 17 4.5h196q124 0 193.5 -44.5t69.5 -141.5q0 -61 -27 -97.5t-77 -54.5q57 -14 90.5 -54t33.5 -103q0 -107 -72.5 -156t-207.5 -49h-199q-12 0 -17 4.5t-5 17.5v656q0 13 5 17.5zM190.5 605q-2.5 -3 -2.5 -9v-186q0 -6 2.5 -9t9.5 -3h113q76 0 114 26.5
t38 79.5q0 54 -41.5 79t-124.5 25h-99q-7 0 -9.5 -3zM409.5 103q38.5 11 57 36t18.5 65q0 56 -42.5 79.5t-125.5 23.5h-117q-7 0 -9.5 -2.5t-2.5 -9.5v-191q0 -6 2.5 -9t9.5 -3h109q62 0 100.5 11z" />
    <glyph glyph-name="c" unicode="c" horiz-adv-x="701" 
d="M607 156q11 9 17 9q4 0 8 -3t7 -7l29 -40q5 -6 5 -14q0 -4 -3 -8.5t-9 -9.5q-53 -45 -119.5 -69.5t-139.5 -24.5q-98 0 -179.5 46t-129 128t-47.5 184q0 103 47.5 186t130 130.5t184.5 47.5q72 0 137.5 -25t116.5 -68q10 -7 10 -15q0 -7 -6 -16l-29 -39q-8 -11 -16 -11
q-6 0 -17 8q-43 33 -93 52t-105 19q-71 0 -129.5 -34t-92.5 -95t-34 -138q0 -74 33.5 -135t92 -95.5t130.5 -34.5q113 0 201 72z" />
    <glyph glyph-name="d" unicode="d" horiz-adv-x="742" 
d="M93 695.5q5 4.5 17 4.5h208q116 0 201.5 -42.5t131 -119.5t45.5 -180q0 -108 -47.5 -189t-136 -125t-208.5 -44h-194q-12 0 -17 4.5t-5 17.5v656q0 13 5 17.5zM190.5 602.5q-2.5 -2.5 -2.5 -8.5v-488q0 -6 2.5 -8.5t9.5 -2.5h106q90 0 154.5 31.5t98 89.5t33.5 138
q0 75 -33.5 132t-97 88t-151.5 31h-110q-7 0 -9.5 -2.5z" />
    <glyph glyph-name="e" unicode="e" horiz-adv-x="565" 
d="M506 90.5q5 -4.5 5 -17.5v-51q0 -13 -5 -17.5t-17 -4.5h-379q-12 0 -17 4.5t-5 17.5v656q0 13 5 17.5t17 4.5h378q12 0 17 -4.5t5 -17.5v-51q0 -13 -5 -17.5t-17 -4.5h-288q-7 0 -9.5 -2.5t-2.5 -8.5v-183q0 -7 2.5 -9.5t9.5 -2.5h254q12 0 17 -4.5t5 -17.5v-50
q0 -12 -5 -17t-17 -5h-254q-7 0 -9.5 -2.5t-2.5 -8.5v-188q0 -6 2.5 -8.5t9.5 -2.5h289q12 0 17 -4.5z" />
    <glyph glyph-name="f" unicode="f" horiz-adv-x="550" 
d="M183 4.5q-5 -4.5 -17 -4.5h-56q-12 0 -17 4.5t-5 17.5v656q0 13 5 17.5t17 4.5h381q12 0 17 -4.5t5 -17.5v-51q0 -13 -5 -17.5t-17 -4.5h-291q-7 0 -9.5 -2.5t-2.5 -8.5v-198q0 -6 2.5 -8.5t9.5 -2.5h256q13 0 18 -5t5 -18v-50q0 -12 -5 -17t-18 -5h-256q-7 0 -9.5 -2.5
t-2.5 -8.5v-257q0 -13 -5 -17.5z" />
    <glyph glyph-name="g" unicode="g" horiz-adv-x="746" 
d="M675.5 62q-3.5 -6 -14.5 -11q-117 -62 -260 -62q-97 0 -178 44.5t-129 125.5t-48 186q0 108 49 191.5t133 129t186 45.5q71 0 136 -22.5t113 -57.5q13 -9 13 -18q0 -4 -7 -15l-28 -40q-7 -10 -16 -10q-7 0 -16 6q-96 62 -197 62q-76 0 -136 -34t-93 -95t-33 -138
q0 -78 34.5 -139t93 -94t129.5 -33q94 0 158 29q9 4 11.5 7.5t2.5 11.5v178q0 13 5 17.5t17 4.5h56q12 0 17 -4.5t5 -17.5v-229q0 -12 -3.5 -18z" />
    <glyph glyph-name="h" unicode="h" horiz-adv-x="731" 
d="M638 4.5q-5 -4.5 -17 -4.5h-56q-12 0 -17 4.5t-5 17.5v279q0 6 -2.5 8.5t-9.5 2.5h-331q-7 0 -9.5 -2.5t-2.5 -8.5v-279q0 -13 -5 -17.5t-17 -4.5h-56q-12 0 -17 4.5t-5 17.5v656q0 13 5 17.5t17 4.5h56q12 0 17 -4.5t5 -17.5v-260q0 -6 2.5 -9t9.5 -3h331q7 0 9.5 3
t2.5 9v260q0 13 5 17.5t17 4.5h56q12 0 17 -4.5t5 -17.5v-656q0 -13 -5 -17.5z" />
    <glyph glyph-name="i" unicode="i" horiz-adv-x="276" 
d="M183 4.5q-5 -4.5 -17 -4.5h-56q-12 0 -17 4.5t-5 17.5v656q0 13 5 17.5t17 4.5h56q12 0 17 -4.5t5 -17.5v-656q0 -13 -5 -17.5z" />
    <glyph glyph-name="j" unicode="j" horiz-adv-x="284" 
d="M-51 -105.5q4 3.5 12 3.5q6 0 20 -1.5t25 -1.5q45 0 70 35.5t25 104.5v643q0 13 5 17.5t17 4.5h56q12 0 17 -4.5t5 -17.5v-651q0 -227 -187 -227q-41 0 -60 6q-10 2 -13.5 7.5t-2.5 16.5l6 50q1 11 5 14.5z" />
    <glyph glyph-name="k" unicode="k" horiz-adv-x="621" 
d="M183 4.5q-5 -4.5 -17 -4.5h-56q-12 0 -17 4.5t-5 17.5v656q0 13 5 17.5t17 4.5h56q12 0 17 -4.5t5 -17.5v-656q0 -13 -5 -17.5zM498 695.5q8 4.5 24 4.5h65q19 0 19 -11q0 -6 -7 -14l-271 -320l278 -329q8 -10 8 -15q0 -11 -20 -11h-69q-17 0 -25 4.5t-20 18.5l-257 310
q-9 11 -9 19q0 9 10 20l254 304q12 15 20 19.5z" />
    <glyph glyph-name="l" unicode="l" horiz-adv-x="552" 
d="M190.5 97.5q2.5 -2.5 9.5 -2.5h295q12 0 17 -4.5t5 -17.5v-51q0 -13 -5 -17.5t-17 -4.5h-385q-12 0 -17 4.5t-5 17.5v656q0 13 5 17.5t17 4.5h56q12 0 17 -4.5t5 -17.5v-572q0 -6 2.5 -8.5z" />
    <glyph glyph-name="m" unicode="m" horiz-adv-x="846" 
d="M188 22q0 -13 -5 -17.5t-17 -4.5h-56q-12 0 -17 4.5t-5 17.5v655q0 17 4.5 25t15.5 8q8 0 16 -6.5t22 -22.5l279 -335l275 335q16 17 23 23t15 6q11 0 15.5 -8t4.5 -25v-655q0 -13 -5 -17.5t-17 -4.5h-56q-12 0 -17 4.5t-5 17.5v466l-200 -246q-13 -17 -20 -22.5
t-15 -5.5t-15 5.5t-20 22.5l-200 246v-466z" />
    <glyph glyph-name="n" unicode="n" horiz-adv-x="744" 
d="M561 695.5q5 4.5 17 4.5h56q12 0 17 -4.5t5 -17.5v-656q0 -33 -20 -33q-8 0 -17 6.5t-25 24.5l-406 479v-477q0 -13 -5 -17.5t-17 -4.5h-56q-12 0 -17 4.5t-5 17.5v656q0 17 5 25t16 8q8 0 17 -6.5t24 -24.5l406 -479v477q0 13 5 17.5z" />
    <glyph glyph-name="o" unicode="o" horiz-adv-x="814" 
d="M93.5 532.5q47.5 83.5 130 131t184.5 47.5t184 -47t129 -129t47 -184t-47.5 -185t-130.5 -130t-186 -47q-101 0 -182.5 46.5t-128.5 128.5t-47 183q0 102 47.5 185.5zM183.5 212.5q33.5 -60.5 92 -94.5t129.5 -34t130.5 34.5t94 95.5t34.5 136q0 77 -34 137.5t-93 94.5
t-130 34t-130 -34.5t-93 -95.5t-34 -138q0 -75 33.5 -135.5z" />
    <glyph glyph-name="p" unicode="p" horiz-adv-x="624" 
d="M190.5 228.5q-2.5 -2.5 -2.5 -8.5v-198q0 -13 -5 -17.5t-17 -4.5h-56q-12 0 -17 4.5t-5 17.5v656q0 13 5 17.5t17 4.5h193q143 0 213.5 -58.5t70.5 -171.5q0 -76 -33.5 -129.5t-99.5 -81.5t-160 -28h-94q-7 0 -9.5 -2.5zM190.5 602.5q-2.5 -2.5 -2.5 -8.5v-256
q0 -6 2.5 -9t9.5 -3h97q88 0 137 35t49 107t-47.5 104.5t-138.5 32.5h-97q-7 0 -9.5 -2.5z" />
    <glyph glyph-name="q" unicode="q" horiz-adv-x="814" 
d="M93 533.5q47 82.5 129.5 130t183.5 47.5q102 0 185 -47t130 -130t47 -185q0 -86 -34.5 -158.5t-96.5 -121.5t-141 -67l89 -136q6 -11 6 -16q0 -11 -22 -11h-58q-17 0 -25 5t-18 21l-80 124q-97 4 -175 52t-122.5 128.5t-44.5 179.5q0 102 47 184.5zM184 213.5
q34 -60.5 92.5 -95t129.5 -34.5t130 34.5t93.5 95t34.5 135.5q0 77 -34 138t-93 95t-131 34q-71 0 -129.5 -34t-92.5 -95t-34 -138q0 -75 34 -135.5z" />
    <glyph glyph-name="r" unicode="r" horiz-adv-x="635" 
d="M183 4.5q-5 -4.5 -17 -4.5h-56q-12 0 -17 4.5t-5 17.5v656q0 13 5 17.5t17 4.5h191q285 0 285 -217q0 -72 -36 -118.5t-100 -68.5l172 -266q8 -11 8 -19q0 -6 -5.5 -8.5t-16.5 -2.5h-59q-17 0 -25 5t-19 22l-184 292q-6 8 -6 14q0 8 15 9q151 16 151 135q0 68 -47.5 99.5
t-137.5 31.5h-96q-7 0 -9.5 -2.5t-2.5 -9.5v-574q0 -13 -5 -17.5z" />
    <glyph glyph-name="s" unicode="s" horiz-adv-x="569" 
d="M71 162q5 0 15 -8q91 -71 183 -71q46 0 80 13t52.5 37.5t18.5 56.5q0 31 -15 51t-48.5 34.5t-94.5 30.5q-72 18 -118.5 42t-72 62.5t-25.5 96.5q0 63 31 109t84.5 70.5t120.5 24.5q126 0 228 -79q5 -4 7.5 -7.5t2.5 -7.5q0 -3 -2 -7t-5 -9l-29 -43q-4 -6 -7.5 -8.5
t-7.5 -2.5q-7 0 -17 7q-40 29 -82 46t-89 17q-38 0 -67.5 -12.5t-46 -36t-16.5 -55.5t16.5 -53t49 -35t88.5 -28q77 -20 124.5 -45t71 -62.5t23.5 -92.5q0 -62 -33 -109.5t-91 -73t-133 -25.5q-68 0 -127.5 23t-109.5 63q-11 10 -11 17t7 17l30 42q8 11 15 11z" />
    <glyph glyph-name="t" unicode="t" horiz-adv-x="574" 
d="M554 609.5q-5 -4.5 -17 -4.5h-188q-7 0 -9.5 -2.5t-2.5 -8.5v-572q0 -13 -5 -17.5t-17 -4.5h-56q-12 0 -17 4.5t-5 17.5v572q0 6 -2.5 8.5t-9.5 2.5h-188q-12 0 -17 4.5t-5 17.5v51q0 13 5 17.5t17 4.5h500q12 0 17 -4.5t5 -17.5v-51q0 -13 -5 -17.5z" />
    <glyph glyph-name="u" unicode="u" horiz-adv-x="743" 
d="M622.5 127.5q-37.5 -69.5 -104 -104t-152.5 -34.5q-83 0 -146.5 33t-99.5 102t-36 171v383q0 13 5 17.5t17 4.5h55q13 0 18 -4.5t5 -17.5v-377q0 -103 48 -160t138 -57q60 0 102.5 26t65 74.5t22.5 115.5v378q0 13 5 17.5t16 4.5h56q13 0 18 -4.5t5 -17.5v-380
q0 -101 -37.5 -170.5z" />
    <glyph glyph-name="v" unicode="v" 
d="M577 670q9 18 17 24t24 6h51q21 0 21 -13q0 -5 -5 -17l-302 -634q-8 -18 -15 -30t-11.5 -16t-11.5 -4q-9 0 -16.5 10t-21.5 40l-303 634q-5 12 -5 17q0 13 21 13h55q16 0 24 -6t16 -24l232 -498z" />
    <glyph glyph-name="w" unicode="w" horiz-adv-x="967" 
d="M313.5 -2.5q-7.5 -10.5 -18.5 -10.5t-18.5 10.5t-19.5 42.5l-245 630q-3 9 -3 15q0 8 5 11.5t17 3.5h55q16 0 22.5 -5.5t14.5 -24.5l175 -472l155 432q10 25 17 34.5t18 9.5q10 0 17 -9t17 -35l153 -429l175 469q8 18 15 24t22 6h54q12 0 17 -3.5t5 -11.5q0 -6 -3 -15
l-245 -630q-12 -32 -19.5 -42.5t-17.5 -10.5t-18 10.5t-19 39.5l-155 425l-155 -425q-10 -29 -17.5 -39.5z" />
    <glyph glyph-name="x" unicode="x" horiz-adv-x="615" 
d="M601 24q6 -7 6 -13q0 -5 -5 -8t-13 -3h-70q-15 0 -22 4.5t-17 19.5l-172 253l-173 -255q-10 -14 -16.5 -18t-20.5 -4h-68q-8 0 -13 3t-5 8q0 6 6 13l228 331l-220 321q-5 6 -5 13q0 5 5 8t13 3h70q14 0 21 -4.5t18 -19.5l163 -242l164 244q10 14 17.5 18t21.5 4h67
q18 0 18 -10q0 -5 -6 -14l-221 -319z" />
    <glyph glyph-name="y" unicode="y" horiz-adv-x="603" 
d="M486 675q10 16 17 20.5t23 4.5h59q9 0 14 -3t5 -8q0 -4 -5 -14l-248 -411v-242q0 -13 -5 -17.5t-17 -4.5h-56q-12 0 -17 4.5t-5 17.5v237l-248 416q-5 10 -5 14q0 6 4.5 8.5t13.5 2.5h62q17 0 24 -4.5t17 -20.5l183 -316z" />
    <glyph glyph-name="z" unicode="z" horiz-adv-x="581" 
d="M532 4.5q-5 -4.5 -18 -4.5h-463q-28 0 -28 15q0 6 8 19l354 571h-317q-12 1 -17 5.5t-5 16.5v51q0 13 5 17.5t17 4.5h450q28 0 28 -15q0 -6 -8 -19l-355 -571h331q13 0 18 -4.5t5 -17.5v-51q0 -13 -5 -17.5z" />
    <glyph glyph-name="braceleft" unicode="{" horiz-adv-x="347" 
d="M184 302q20 -32 20 -90v-145q0 -63 22 -92t75 -33q12 -1 16 -4.5t4 -14.5v-45q0 -9 -4.5 -13t-15.5 -4q-94 0 -142 50.5t-48 145.5v154q0 46 -18 70.5t-56 28.5q-12 1 -16 5.5t-4 14.5v40q0 10 4 14.5t16 5.5q38 4 56 28.5t18 70.5v154q0 95 48 145.5t142 50.5
q11 0 15.5 -4t4.5 -13v-45q0 -11 -4 -14.5t-16 -4.5q-53 -4 -75 -33t-22 -92v-145q0 -58 -20 -90t-67 -48q47 -16 67 -48z" />
    <glyph glyph-name="bar" unicode="|" horiz-adv-x="262" 
d="M92.5 795q4.5 5 17.5 5h42q13 0 17.5 -5t4.5 -17v-886q0 -12 -4.5 -17t-17.5 -5h-42q-13 0 -17.5 5t-4.5 17v886q0 12 4.5 17z" />
    <glyph glyph-name="braceright" unicode="}" horiz-adv-x="347" 
d="M163 398q-20 32 -20 90v145q0 63 -22 92t-75 33q-12 1 -16 4.5t-4 14.5v45q0 9 4.5 13t14.5 4q95 0 143 -50.5t48 -145.5v-154q0 -46 18 -70.5t56 -28.5q12 -1 16 -5.5t4 -14.5v-40q0 -10 -4 -14.5t-16 -5.5q-38 -4 -56 -28.5t-18 -70.5v-154q0 -95 -48 -145.5
t-143 -50.5q-10 0 -14.5 4t-4.5 13v45q0 11 4 14.5t16 4.5q53 4 75 33t22 92v145q0 58 20 90t67 48q-47 16 -67 48z" />
    <glyph glyph-name="asciitilde" unicode="~" horiz-adv-x="672" 
d="M492.5 344.5q21.5 13.5 42.5 37.5q9 10 17 10q7 0 15 -8l24 -28q8 -8 8 -16q0 -6 -8 -17q-28 -34 -65.5 -55t-84.5 -21q-29 0 -55.5 8.5t-65.5 25.5q-29 14 -50 21t-41 7q-28 0 -49.5 -13.5t-42.5 -37.5q-7 -10 -16 -10q-8 0 -15 8l-24 28q-8 10 -8 16q0 7 8 17
q64 76 149 76q29 0 55.5 -8.5t65.5 -25.5q29 -14 50 -21t41 -7q28 0 49.5 13.5z" />
    <glyph glyph-name="uni00A0" unicode="&#xa0;" horiz-adv-x="275" 
 />
    <glyph glyph-name="exclamdown" unicode="&#xa1;" horiz-adv-x="253" 
d="M171 609.5q-18 -16.5 -45 -16.5t-44.5 16.5t-17.5 42.5q0 25 17.5 41.5t44.5 16.5t45 -16.5t18 -41.5q0 -26 -18 -42.5zM160 534.5q5 -5.5 6 -23.5l19 -474q1 -21 -6 -29t-26 -8h-53q-20 0 -27 8t-5 29l18 474q1 18 6 23.5t19 5.5h30q14 0 19 -5.5z" />
    <glyph glyph-name="cent" unicode="&#xa2;" horiz-adv-x="672" 
d="M194 118q-56 37 -88 96t-32 132q0 74 32 134.5t88 98.5t127 49v118q0 12 4.5 17t17.5 5h36q13 0 17.5 -5t4.5 -17v-118q52 -4 98.5 -24.5t82.5 -52.5q12 -9 12 -18t-7 -17l-24 -38q-7 -10 -16 -10q-8 0 -16 7q-62 50 -130 57v-364q69 7 132 58q11 9 17 9q7 0 14 -10
l24 -38q6 -9 6 -16q0 -8 -13 -20q-39 -32 -84.5 -52.5t-95.5 -26.5v-118q0 -12 -4.5 -17t-17.5 -5h-36q-13 0 -17.5 5t-4.5 17v117q-71 10 -127 47zM193 265.5q18 -37.5 51.5 -62.5t76.5 -33v360q-44 -9 -77 -33t-51 -62t-18 -86q0 -46 18 -83.5z" />
    <glyph glyph-name="sterling" unicode="&#xa3;" horiz-adv-x="672" 
d="M268.5 157q-15.5 -33 -34.5 -53q14 2 36 2q25 0 47.5 -3.5t50.5 -9.5q22 -5 46.5 -8.5t46.5 -3.5q59 0 107 29q10 5 14 5t7 -2.5t6 -8.5l20 -43q1 -1 2.5 -5.5t1.5 -7.5q0 -5 -3.5 -9t-10.5 -9q-29 -20 -68 -30.5t-81 -10.5q-25 0 -48.5 3.5t-52.5 9.5q-6 1 -27.5 5
t-41 6t-37.5 2q-63 0 -120 -25q-8 -4 -14 -4q-4 0 -6.5 2.5t-5.5 6.5l-22 45q-1 2 -2.5 6t-1.5 6q0 8 12 15q44 28 72 67.5t28 82.5q0 32 -15 75h-97q-12 0 -17 4.5t-5 17.5v42q0 13 5 17.5t17 4.5h70q-19 50 -19 98q0 69 31 122t88.5 83t133.5 30q61 0 113 -20.5t93 -58.5
q9 -7 9 -15q0 -6 -6 -15l-29 -41q-7 -9 -13 -9q-5 0 -15 8q-70 56 -152 56q-45 0 -79 -17.5t-53 -49.5t-19 -74q0 -44 20 -97h218q12 0 16.5 -4.5t4.5 -17.5v-42q0 -12 -4.5 -17t-16.5 -5h-195q11 -38 11 -70t-15.5 -65z" />
    <glyph glyph-name="currency" unicode="&#xa4;" horiz-adv-x="672" 
d="M280.5 138.5q-26.5 8.5 -48.5 23.5l-79 -79q-4 -4 -8 -6.5t-8 -2.5q-7 0 -16 9l-28 29q-9 9 -9 16t9 16l78 78q-32 46 -32 104q0 29 8 55.5t24 48.5l-78 79q-4 4 -6.5 8t-2.5 8q0 7 9 16l28 28q9 9 16 9q9 0 16 -9l79 -78q23 15 49.5 23.5t54.5 8.5q53 0 104 -32l79 78
q8 9 15 9t16 -9l29 -28q9 -9 9 -16q0 -4 -2.5 -8t-6.5 -8l-79 -79q16 -22 24 -48.5t8 -55.5q0 -58 -32 -104l79 -78q9 -9 9 -16t-9 -16l-29 -29q-9 -9 -16 -9q-4 0 -7.5 2.5t-7.5 6.5l-79 79q-48 -32 -104 -32q-29 0 -55.5 8.5zM392 229q26 15 41 41t15 56t-15 56t-41 41
t-56 15q-31 0 -56.5 -15t-40.5 -40.5t-15 -56.5q0 -30 15 -56t41 -41t56 -15t56 15z" />
    <glyph glyph-name="yen" unicode="&#xa5;" horiz-adv-x="599" 
d="M358 308h110q13 0 17.5 -4t4.5 -16v-34q0 -12 -4.5 -16t-17.5 -4h-110q-8 0 -8 -8v-41q0 -8 8 -8h110q13 0 17.5 -4.5t4.5 -16.5v-33q0 -12 -4.5 -16.5t-17.5 -4.5h-110q-8 0 -8 -8v-72q0 -13 -5 -17.5t-17 -4.5h-56q-12 0 -17 4.5t-5 17.5v72q0 8 -8 8h-110
q-13 0 -17.5 4.5t-4.5 16.5v33q0 12 4.5 16.5t17.5 4.5h110q8 0 8 8v41q0 8 -8 8h-110q-13 0 -17.5 4t-4.5 16v34q0 12 4.5 16t17.5 4h110q8 0 8 8v12l-246 347q-6 8 -6 13q0 12 19 12h64q16 0 23 -4.5t17 -19.5l179 -261l181 261q12 15 19 19.5t22 4.5h59q9 0 14.5 -3
t5.5 -8q0 -8 -7 -16l-244 -341v-16q0 -8 8 -8z" />
    <glyph glyph-name="brokenbar" unicode="&#xa6;" horiz-adv-x="262" 
d="M92.5 795q4.5 5 17.5 5h42q13 0 17.5 -5t4.5 -17v-356q0 -12 -4.5 -17t-17.5 -5h-42q-13 0 -17.5 5t-4.5 17v356q0 12 4.5 17zM92.5 265q4.5 5 17.5 5h42q13 0 17.5 -5t4.5 -17v-356q0 -12 -4.5 -17t-17.5 -5h-42q-13 0 -17.5 5t-4.5 17v356q0 12 4.5 17z" />
    <glyph glyph-name="section" unicode="&#xa7;" horiz-adv-x="595" 
d="M70.5 362q24.5 36 65.5 59q-40 38 -40 104q0 58 30.5 100t81.5 64t111 22q123 0 218 -73q11 -8 11 -16q0 -7 -7 -15l-29 -42q-7 -10 -14 -10q-6 0 -15 6q-73 55 -160 55q-55 0 -88.5 -22t-33.5 -64q0 -28 16.5 -46.5t46 -30.5t80.5 -24q72 -17 117 -37.5t70 -53.5t25 -85
q0 -45 -25.5 -81.5t-63.5 -58.5q40 -40 40 -104q0 -58 -32.5 -101.5t-89 -66.5t-126.5 -23q-66 0 -123.5 21.5t-106.5 58.5q-11 7 -11 16q0 8 7 16l29 42q7 11 14 11q6 0 14 -7q41 -30 84.5 -46.5t94.5 -16.5q63 0 102 23.5t39 66.5q0 29 -15.5 46.5t-46 29t-87.5 24.5
q-65 16 -110 36.5t-71 55t-26 86.5q0 45 24.5 81zM168 336q-17 -21 -17 -47q0 -27 16.5 -44.5t47 -29.5t79.5 -23q27 -6 52 -13.5t43 -15.5q29 12 46 33t17 47q0 27 -15.5 44t-46 28.5t-85.5 24.5q-25 6 -49.5 13.5t-41.5 14.5q-29 -11 -46 -32z" />
    <glyph glyph-name="dieresis" unicode="&#xa8;" horiz-adv-x="500" 
d="M118.5 852.5q14.5 14.5 38.5 14.5t39 -14.5t15 -38.5q0 -23 -15 -38t-39 -15t-38.5 15t-14.5 38q0 24 14.5 38.5zM303.5 852.5q14.5 14.5 38.5 14.5q25 0 39.5 -14.5t14.5 -38.5q0 -23 -14.5 -38t-39.5 -15q-24 0 -38.5 15t-14.5 38q0 24 14.5 38.5z" />
    <glyph glyph-name="copyright" unicode="&#xa9;" horiz-adv-x="524" 
d="M57.5 592.5q31.5 54.5 86.5 86.5t120 32q64 0 117.5 -31.5t85 -85t31.5 -117.5q0 -65 -31.5 -120t-86 -86.5t-119.5 -31.5q-64 0 -118 31.5t-85.5 85t-31.5 117.5q0 65 31.5 119.5zM101.5 380q24.5 -43 66.5 -67.5t94 -24.5q51 0 93.5 25t67 68t24.5 94q0 52 -24.5 94.5
t-66.5 67.5t-94 25q-51 0 -93.5 -25t-67 -68t-24.5 -94q0 -52 24.5 -95zM156.5 540q17.5 30 48 47t67.5 17q27 0 50.5 -8.5t42.5 -24.5q5 -4 5.5 -7t-2.5 -8l-19 -28q-3 -5 -6.5 -5.5t-7.5 3.5q-28 23 -62 23q-31 0 -51.5 -21t-20.5 -54q0 -32 20.5 -52t51.5 -20q36 0 63 22
q4 4 7.5 3.5t5.5 -4.5l18 -28q4 -6 4 -8t-6 -7q-19 -16 -43.5 -25t-52.5 -9q-36 0 -66 16.5t-47 45.5t-17 65q0 37 17.5 67z" />
    <glyph glyph-name="ordfeminine" unicode="&#xaa;" horiz-adv-x="425" 
d="M230.5 321.5q-34.5 -13.5 -72.5 -13.5t-67.5 15t-45.5 42.5t-16 62.5q0 66 59 102t181 36h22v4q0 73 -86 73q-31 0 -60 -10.5t-54 -28.5q-6 -5 -12 -5q-4 0 -6.5 2t-5.5 5l-16 26q-6 8 -6 13q0 7 10 14q31 23 71 37.5t85 14.5q72 0 114 -35t42 -103v-242q0 -16 -16 -16
h-43q-8 0 -12 3.5t-4 12.5v27q-27 -23 -61.5 -36.5zM277 410q8 6 11 11t3 14v60q0 6 -2.5 8.5t-9.5 2.5h-8q-82 0 -123.5 -18.5t-41.5 -55.5q0 -26 18.5 -41.5t49.5 -15.5q55 0 103 35z" />
    <glyph glyph-name="guillemotleft" unicode="&#xab;" horiz-adv-x="475" 
d="M241 191q0 -6 -6 -17l-19 -35q-6 -12 -15 -12q-8 0 -15 10l-134 152q-14 16 -18 24.5t-4 23.5v26q0 15 4 23.5t18 24.5l134 152q7 10 15 10q9 0 15 -12l19 -35q6 -10 6 -17q0 -9 -11 -22l-122 -137l122 -137q11 -13 11 -22zM435 191q0 -6 -6 -17l-19 -35q-6 -12 -15 -12
q-8 0 -15 10l-134 152q-14 16 -18 24.5t-4 23.5v26q0 15 4 23.5t18 24.5l134 152q7 10 15 10q9 0 15 -12l19 -35q6 -10 6 -17q0 -9 -11 -22l-122 -137l122 -137q11 -13 11 -22z" />
    <glyph glyph-name="logicalnot" unicode="&#xac;" horiz-adv-x="672" 
d="M549.5 129q-4.5 -5 -17.5 -5h-41q-12 0 -17 5t-5 17v186q0 7 -2.5 9.5t-8.5 2.5h-363q-12 0 -17 4.5t-5 17.5v41q0 13 5 17.5t17 4.5h437q12 0 17 -4.5t5 -17.5v-261q0 -12 -4.5 -17z" />
    <glyph glyph-name="uni00AD" unicode="&#xad;" horiz-adv-x="429" 
d="M373.5 304q-5.5 -5 -17.5 -5h-284q-12 0 -17 4.5t-5 17.5v42q0 13 5 18t17 5h284q12 0 17.5 -5t5.5 -18v-42q0 -12 -5.5 -17z" />
    <glyph glyph-name="registered" unicode="&#xae;" horiz-adv-x="524" 
d="M57.5 592.5q31.5 54.5 86.5 86.5t120 32q64 0 117.5 -31.5t85 -85t31.5 -117.5q0 -65 -31.5 -120t-86 -86.5t-119.5 -31.5q-64 0 -118 31.5t-85.5 85t-31.5 117.5q0 65 31.5 119.5zM101.5 380q24.5 -43 66.5 -67.5t94 -24.5q51 0 93.5 25t67 68t24.5 94q0 52 -24.5 94.5
t-66.5 67.5t-94 25q-51 0 -93.5 -25t-67 -68t-24.5 -94q0 -52 24.5 -95zM222 426v-60q0 -7 -3 -10.5t-11 -3.5h-32q-7 0 -10.5 3.5t-3.5 10.5v220q0 8 3.5 11t10.5 3h86q51 0 78.5 -20.5t27.5 -61.5q0 -50 -46 -72l54 -79q4 -5 4 -9q0 -6 -11 -6h-40q-8 0 -12 2t-9 10
l-38 60q-4 5 -6.5 6.5t-7.5 1.5h-29q-5 0 -5 -6zM224 546.5q-2 -1.5 -2 -6.5v-52q0 -4 2 -6t6 -2h31q21 0 33 9t12 26q0 33 -45 33h-31q-4 0 -6 -1.5z" />
    <glyph glyph-name="macron" unicode="&#xaf;" horiz-adv-x="500" 
d="M112.5 786q-4.5 4 -4.5 16v36q0 12 4.5 16.5t17.5 4.5h240q13 0 17.5 -4.5t4.5 -16.5v-36q0 -12 -4.5 -16t-17.5 -4h-240q-13 0 -17.5 4z" />
    <glyph glyph-name="degree" unicode="&#xb0;" horiz-adv-x="376" 
d="M58 636.5q20 34.5 54.5 54.5t75.5 20t75.5 -20t54.5 -54.5t20 -75.5t-20 -75.5t-54.5 -54.5t-75.5 -20t-75.5 20t-54.5 54.5t-20 75.5t20 75.5zM122 522.5q10 -17.5 27.5 -27.5t38.5 -10t38.5 10t27.5 27.5t10 38.5t-10 38.5t-27.5 27.5t-38.5 10t-38.5 -10t-27.5 -27.5
t-10 -38.5t10 -38.5z" />
    <glyph glyph-name="plusminus" unicode="&#xb1;" horiz-adv-x="672" 
d="M95.5 336q-5.5 5 -5.5 17v40q0 12 5.5 17t17.5 5h169q7 0 9.5 3t2.5 9v156q0 12 4.5 17t17.5 5h40q13 0 18 -5t5 -17v-156q0 -12 11 -12h170q12 0 17 -4.5t5 -17.5v-40q0 -13 -5 -17.5t-17 -4.5h-170q-6 0 -8.5 -2.5t-2.5 -9.5v-156q0 -12 -5 -16.5t-18 -4.5h-40
q-13 0 -17.5 4.5t-4.5 16.5v156q0 7 -2.5 9.5t-9.5 2.5h-169q-12 0 -17.5 5zM577 4.5q-5 -4.5 -17 -4.5h-447q-12 0 -17.5 5t-5.5 17v41q0 12 5.5 17t17.5 5h447q12 0 17 -5t5 -17v-41q0 -13 -5 -17.5z" />
    <glyph glyph-name="uni00B2" unicode="&#xb2;" horiz-adv-x="364" 
d="M321 444.5q-4 -3.5 -12 -3.5h-274q-15 0 -15 8q0 6 6 13l131 145q36 40 52 65.5t16 47.5q0 27 -18 42t-47 15q-47 0 -85 -32q-7 -5 -10 -5q-5 0 -10 7l-21 32q-4 5 -4 11t7 12q56 47 127 47q42 0 74 -15.5t49 -43.5t17 -64q0 -34 -15 -62.5t-51 -68.5l-74 -83h145
q8 0 12 -3.5t4 -11.5v-41q0 -8 -4 -11.5z" />
    <glyph glyph-name="uni00B3" unicode="&#xb3;" horiz-adv-x="364" 
d="M227.5 522.5q25.5 18.5 25.5 48.5q0 65 -114 65q-16 0 -16 9q0 3 5 11l77 113h-150q-8 0 -12 3.5t-4 11.5v41q0 8 4 11.5t12 3.5h260q13 0 13 -8q0 -6 -6 -14l-93 -132q48 -8 75.5 -37t27.5 -76q0 -41 -21 -73t-59.5 -50t-90.5 -18q-40 0 -75 12t-61 34q-9 8 -9 14
q0 2 1.5 5.5t2.5 4.5l21 33q6 9 12 9q4 0 9 -5q19 -16 45 -25.5t55 -9.5q40 0 65.5 18.5z" />
    <glyph glyph-name="acute" unicode="&#xb4;" horiz-adv-x="500" 
d="M397 890q0 -8 -11 -16l-150 -108q-5 -3 -10 -5.5t-8 -2.5q-5 0 -14 7l-25 20q-8 8 -8 13q0 7 9 14l144 118q5 4 9.5 6t8.5 2q7 0 18 -9l29 -24q8 -8 8 -15z" />
    <glyph glyph-name="uni00B5" unicode="&#xb5;" horiz-adv-x="587" 
d="M81 486q4 4 13 4h63q9 0 13.5 -4t4.5 -14v-245q0 -148 119 -148q120 0 120 148v245q0 10 4.5 14t13.5 4h63q9 0 13 -4t4 -14v-253q0 -111 -56.5 -170.5t-161.5 -59.5q-37 0 -68 11.5t-51 32.5v-241q0 -13 -5 -17.5t-17 -4.5h-54q-12 0 -17 4.5t-5 17.5v680q0 10 4 14z
" />
    <glyph glyph-name="paragraph" unicode="&#xb6;" horiz-adv-x="590" 
d="M182 601q-36 -21 -56.5 -57t-20.5 -80q0 -45 20.5 -81t56.5 -57t82 -21h35q12 0 17 -4.5t5 -16.5v-422q0 -13 -5 -17.5t-17 -4.5h-34q-12 0 -17 4.5t-5 17.5v369q-61 3 -111 34.5t-79 83t-29 113.5q0 66 32 120.5t87 86t122 31.5h275q12 0 17 -4.5t5 -17.5v-34
q0 -13 -5 -17.5t-17 -4.5h-53q-6 0 -9 -2.5t-3 -9.5v-748q0 -13 -4.5 -17.5t-17.5 -4.5h-34q-12 0 -17 4.5t-5 17.5v748q0 7 -2.5 9.5t-9.5 2.5h-121q-46 0 -82 -21zM224.5 501.5q15.5 14.5 37.5 14.5t37 -14.5t15 -37.5q0 -22 -15 -37t-37 -15t-37.5 15t-15.5 37
q0 23 15.5 37.5z" />
    <glyph glyph-name="periodcentered" unicode="&#xb7;" horiz-adv-x="227" 
d="M68.5 394.5q17.5 16.5 44.5 16.5t45 -16.5t18 -42.5t-18 -42.5t-45 -16.5t-44.5 16.5t-17.5 42.5t17.5 42.5z" />
    <glyph glyph-name="cedilla" unicode="&#xb8;" horiz-adv-x="500" 
d="M151 -161q4 0 10 -3q35 -15 70 -15q30 0 46 10.5t16 29.5t-16 29.5t-45 10.5q-18 0 -44 -4h-5q-9 0 -9 7q0 5 2 8l49 98h65l-30 -59q50 0 78.5 -24t28.5 -64q0 -31 -17.5 -55t-48.5 -36.5t-70 -12.5q-49 0 -93 21q-12 6 -12 13q0 4 3 10l12 26q4 10 10 10z" />
    <glyph glyph-name="uni00B9" unicode="&#xb9;" horiz-adv-x="266" 
d="M174.5 836.5q3.5 -3.5 3.5 -11.5v-369q0 -8 -3.5 -11.5t-11.5 -3.5h-46q-16 0 -16 15v305q0 5 -2 7t-7 2h-48q-8 0 -11.5 3.5t-3.5 11.5v40q0 8 3.5 11.5t11.5 3.5h119q8 0 11.5 -3.5z" />
    <glyph glyph-name="ordmasculine" unicode="&#xba;" horiz-adv-x="425" 
d="M115 332q-42 24 -66 69t-24 106t24 107.5t67.5 71.5t98.5 25q53 0 95 -24t66 -69t24 -106t-24 -107.5t-67.5 -71.5t-98.5 -25q-53 0 -95 24zM270 393.5q25 16.5 38.5 46t13.5 69.5q0 41 -13.5 71t-38 46t-57.5 16q-34 0 -58.5 -16.5t-38 -46.5t-13.5 -70t13.5 -70t38 -46
t57.5 -16t58 16.5z" />
    <glyph glyph-name="guillemotright" unicode="&#xbb;" horiz-adv-x="475" 
d="M40 509q0 7 6 17l19 35q6 12 14 12q7 0 16 -10l134 -152q14 -16 18 -24.5t4 -23.5v-26q0 -15 -4 -23.5t-18 -24.5l-134 -152q-9 -10 -16 -10q-8 0 -14 12l-19 35q-6 11 -6 17q0 9 11 22l122 137l-122 137q-11 13 -11 22zM234 509q0 7 6 17l19 35q6 12 14 12q7 0 16 -10
l134 -152q14 -16 18 -24.5t4 -23.5v-26q0 -15 -4 -23.5t-18 -24.5l-134 -152q-9 -10 -16 -10q-8 0 -14 12l-19 35q-6 11 -6 17q0 9 11 22l122 137l-122 137q-11 13 -11 22z" />
    <glyph glyph-name="onequarter" unicode="&#xbc;" horiz-adv-x="725" 
d="M113.5 -7q-6.5 -4 -20.5 -4h-40q-20 0 -20 12q0 4 3.5 10t9.5 13l503 666q10 13 16.5 17t20.5 4h40q20 0 20 -12q0 -4 -3 -8.5t-6 -8.5t-4 -6l-504 -666q-9 -13 -15.5 -17zM174.5 696.5q3.5 -3.5 3.5 -11.5v-369q0 -8 -3.5 -11.5t-11.5 -3.5h-46q-16 0 -16 15v305
q0 5 -2 7t-7 2h-48q-8 0 -11.5 3.5t-3.5 11.5v40q0 8 3.5 11.5t11.5 3.5h119q8 0 11.5 -3.5zM669 155q8 0 11.5 -3.5t3.5 -11.5v-37q0 -16 -15 -16h-41v-72q0 -8 -3.5 -11.5t-11.5 -3.5h-46q-16 0 -16 15v72h-184q-12 0 -19 5.5t-7 13.5q0 6 2.5 11t7.5 11l219 257
q12 14 19.5 19.5t16.5 5.5q10 0 16 -7.5t6 -22.5v-225h41zM552 278l-102 -123h102v123z" />
    <glyph glyph-name="onehalf" unicode="&#xbd;" horiz-adv-x="799" 
d="M113.5 -7q-6.5 -4 -20.5 -4h-40q-20 0 -20 12q0 4 3.5 10t9.5 13l503 666q10 13 16.5 17t20.5 4h40q20 0 20 -12q0 -4 -3 -8.5t-6 -8.5t-4 -6l-504 -666q-9 -13 -15.5 -17zM174.5 696.5q3.5 -3.5 3.5 -11.5v-369q0 -8 -3.5 -11.5t-11.5 -3.5h-46q-16 0 -16 15v305
q0 5 -2 7t-7 2h-48q-8 0 -11.5 3.5t-3.5 11.5v40q0 8 3.5 11.5t11.5 3.5h119q8 0 11.5 -3.5zM753 3.5q-4 -3.5 -12 -3.5h-274q-15 0 -15 8q0 6 6 13l131 145q36 40 52 65.5t16 47.5q0 27 -18 42t-47 15q-47 0 -85 -32q-7 -5 -10 -5q-5 0 -10 7l-21 32q-4 5 -4 11t7 12
q56 47 127 47q42 0 74 -15.5t49 -43.5t17 -64q0 -34 -15 -62.5t-51 -68.5l-74 -83h145q8 0 12 -3.5t4 -11.5v-41q0 -8 -4 -11.5z" />
    <glyph glyph-name="threequarters" unicode="&#xbe;" horiz-adv-x="828" 
d="M216.5 -7q-6.5 -4 -20.5 -4h-40q-20 0 -20 12q0 4 3.5 10t9.5 13l503 666q10 13 16.5 17t20.5 4h40q20 0 20 -12q0 -4 -3 -8.5t-6 -8.5t-4 -6l-504 -666q-9 -13 -15.5 -17zM771 155q8 0 11.5 -3.5t3.5 -11.5v-37q0 -16 -15 -16h-41v-72q0 -8 -3.5 -11.5t-11.5 -3.5h-46
q-16 0 -16 15v72h-184q-12 0 -19 5.5t-7 13.5q0 6 2.5 11t7.5 11l219 257q12 14 19.5 19.5t16.5 5.5q10 0 16 -7.5t6 -22.5v-225h41zM654 278l-102 -123h102v123zM227.5 382.5q25.5 18.5 25.5 48.5q0 65 -114 65q-16 0 -16 9q0 3 5 11l77 113h-150q-8 0 -12 3.5t-4 11.5v41
q0 8 4 11.5t12 3.5h260q13 0 13 -8q0 -6 -6 -14l-93 -132q48 -8 75.5 -37t27.5 -76q0 -41 -21 -73t-59.5 -50t-90.5 -18q-40 0 -75 12t-61 34q-9 8 -9 14q0 2 1.5 5.5t2.5 4.5l21 33q6 9 12 9q4 0 9 -5q19 -16 45 -25.5t55 -9.5q40 0 65.5 18.5z" />
    <glyph glyph-name="questiondown" unicode="&#xbf;" horiz-adv-x="505" 
d="M339 609.5q-18 -16.5 -45 -16.5t-44.5 16.5t-17.5 42.5q0 25 17.5 41.5t44.5 16.5t45 -16.5t18 -41.5q0 -26 -18 -42.5zM339 535.5q5 -4.5 5 -16.5v-15q0 -38 -7.5 -64.5t-28 -52.5t-60.5 -57q-38 -30 -60 -52t-32.5 -43.5t-10.5 -46.5q0 -33 16.5 -56.5t44.5 -35.5
t62 -12q44 0 81 15t70 44q11 9 17 9q5 0 9 -3t9 -10l23 -34q8 -11 8 -18q0 -5 -3 -10t-10 -11q-94 -77 -206 -77q-62 0 -113.5 23t-82 66.5t-30.5 103.5q0 57 32 104t98 97q30 23 46 42t22 37.5t6 42.5v14q0 12 4.5 16.5t16.5 4.5h57q12 0 17 -4.5z" />
    <glyph glyph-name="Agrave" unicode="&#xc0;" 
d="M111 30q-8 -18 -16 -24t-24 -6h-52q-20 0 -20 13q0 5 5 17l301 634q15 31 22 40.5t17 9.5q9 0 15.5 -9.5t21.5 -40.5l304 -634q5 -12 5 -17q0 -13 -21 -13h-56q-16 0 -23.5 6t-16.5 24l-231 498zM252 938q4 0 8.5 -2t9.5 -6l144 -118q10 -7 10 -14q0 -5 -9 -13l-25 -20
q-9 -7 -14 -7q-3 0 -8 2.5t-10 5.5l-150 108q-11 8 -11 16q0 7 8 15l29 24q11 9 18 9z" />
    <glyph glyph-name="Aacute" unicode="&#xc1;" 
d="M111 30q-8 -18 -16 -24t-24 -6h-52q-20 0 -20 13q0 5 5 17l301 634q15 31 22 40.5t17 9.5q9 0 15.5 -9.5t21.5 -40.5l304 -634q5 -12 5 -17q0 -13 -21 -13h-56q-16 0 -23.5 6t-16.5 24l-231 498zM491 890q0 -8 -11 -16l-150 -108q-5 -3 -10 -5.5t-8 -2.5q-5 0 -14 7
l-25 20q-8 8 -8 13q0 7 9 14l144 118q5 4 9.5 6t8.5 2q7 0 18 -9l29 -24q8 -8 8 -15z" />
    <glyph glyph-name="Acircumflex" unicode="&#xc2;" 
d="M111 30q-8 -18 -16 -24t-24 -6h-52q-20 0 -20 13q0 5 5 17l301 634q15 31 22 40.5t17 9.5q9 0 15.5 -9.5t21.5 -40.5l304 -634q5 -12 5 -17q0 -13 -21 -13h-56q-16 0 -23.5 6t-16.5 24l-231 498zM239 761q-5 -3 -10 -3t-15 5l-30 17q-10 7 -10 14t8 15l109 105
q10 9 15.5 11.5t18.5 2.5h38q13 0 18.5 -2.5t15.5 -11.5l109 -105q8 -8 8 -15t-10 -14l-30 -17q-10 -5 -15 -5t-10 3t-10 8l-95 94l-95 -94q-5 -5 -10 -8z" />
    <glyph glyph-name="Atilde" unicode="&#xc3;" 
d="M111 30q-8 -18 -16 -24t-24 -6h-52q-20 0 -20 13q0 5 5 17l301 634q15 31 22 40.5t17 9.5q9 0 15.5 -9.5t21.5 -40.5l304 -634q5 -12 5 -17q0 -13 -21 -13h-56q-16 0 -23.5 6t-16.5 24l-231 498zM374.5 770q-19.5 6 -43.5 18q-4 2 -16.5 7.5t-22.5 8t-19 2.5
q-34 0 -63 -35q-6 -7 -12 -7q-5 0 -11 6l-24 30q-4 5 -4 10t6 12q19 24 48 40t62 16q22 0 41 -6.5t43 -17.5q4 -2 16.5 -7.5t22.5 -8t19 -2.5q34 0 63 35q6 7 12 7q5 0 11 -6l24 -30q4 -5 4 -10q0 -4 -6 -13q-19 -23 -48 -39t-62 -16q-21 0 -40.5 6z" />
    <glyph glyph-name="Adieresis" unicode="&#xc4;" 
d="M111 30q-8 -18 -16 -24t-24 -6h-52q-20 0 -20 13q0 5 5 17l301 634q15 31 22 40.5t17 9.5q9 0 15.5 -9.5t21.5 -40.5l304 -634q5 -12 5 -17q0 -13 -21 -13h-56q-16 0 -23.5 6t-16.5 24l-231 498zM212.5 852.5q14.5 14.5 38.5 14.5t39 -14.5t15 -38.5q0 -23 -15 -38
t-39 -15t-38.5 15t-14.5 38q0 24 14.5 38.5zM397.5 852.5q14.5 14.5 38.5 14.5q25 0 39.5 -14.5t14.5 -38.5q0 -23 -14.5 -38t-39.5 -15q-24 0 -38.5 15t-14.5 38q0 24 14.5 38.5z" />
    <glyph glyph-name="Aring" unicode="&#xc5;" 
d="M227 841q18 31 49 49.5t68 18.5t68.5 -18.5t49.5 -49.5t18 -68q0 -43 -25.5 -78t-64.5 -49l295 -616q5 -12 5 -17q0 -13 -21 -13h-56q-16 0 -23.5 6t-16.5 24l-231 498l-231 -498q-8 -18 -16 -24t-24 -6h-52q-20 0 -20 13q0 5 5 17l292 616q-39 15 -63 49.5t-24 77.5
q0 37 18 68zM299.5 728.5q18.5 -18.5 44.5 -18.5q27 0 45 18.5t18 44.5q0 27 -18 45.5t-45 18.5q-26 0 -44.5 -18.5t-18.5 -45.5q0 -26 18.5 -44.5z" />
    <glyph glyph-name="AE" unicode="&#xc6;" horiz-adv-x="983" 
d="M245.5 232.5q-3.5 -2.5 -8.5 -9.5l-132 -200q-9 -14 -16.5 -18.5t-23.5 -4.5h-60q-20 0 -20 13q0 4 3 9t8 13l426 642q10 14 17 18.5t23 4.5h443q12 0 17 -4.5t5 -17.5v-51q0 -13 -5 -17.5t-17 -4.5h-288q-7 0 -9.5 -2.5t-2.5 -8.5v-183q0 -7 2.5 -9.5t9.5 -2.5h255
q12 0 16.5 -4.5t4.5 -17.5v-50q0 -12 -5 -17t-16 -5h-255q-7 0 -9.5 -2.5t-2.5 -8.5v-188q0 -6 2.5 -8.5t9.5 -2.5h289q12 0 17 -4.5t5 -17.5v-51q0 -13 -5 -17.5t-17 -4.5h-379q-12 0 -17 4.5t-5 17.5v201q0 7 -2.5 9.5t-8.5 2.5h-236q-9 0 -12.5 -2.5zM502.5 330.5
q2.5 2.5 2.5 9.5v272q0 10 -5 10q-3 0 -7 -6l-182 -273q-3 -6 -3 -9q0 -6 11 -6h175q6 0 8.5 2.5z" />
    <glyph glyph-name="Ccedilla" unicode="&#xc7;" horiz-adv-x="701" 
d="M607 156q11 9 17 9q4 0 8 -3t7 -7l29 -40q5 -6 5 -14q0 -4 -3 -8.5t-9 -9.5q-53 -45 -119.5 -69.5t-139.5 -24.5l-19 -38h5q46 0 73 -23.5t27 -60.5q0 -32 -18.5 -56.5t-50 -38t-70.5 -13.5q-26 0 -50 6t-44 16q-5 3 -8.5 6.5t-3.5 7.5t3 10l13 26q2 5 4.5 7.5t6.5 2.5
t10 -3q13 -8 30.5 -12.5t36.5 -4.5q31 0 49.5 12t18.5 30t-16.5 28.5t-43.5 10.5q-22 0 -44 -5q-2 -1 -6 -1q-8 0 -8 7q0 5 2 8l41 83q-84 13 -151 61.5t-105 124t-38 167.5q0 103 47.5 186t130 130.5t184.5 47.5q72 0 137.5 -25t116.5 -68q10 -7 10 -15q0 -7 -6 -16
l-29 -39q-8 -11 -16 -11q-6 0 -17 8q-43 33 -93 52t-105 19q-71 0 -129.5 -34t-92.5 -95t-34 -138q0 -74 33.5 -135t92 -95.5t130.5 -34.5q113 0 201 72z" />
    <glyph glyph-name="Egrave" unicode="&#xc8;" horiz-adv-x="565" 
d="M506 90.5q5 -4.5 5 -17.5v-51q0 -13 -5 -17.5t-17 -4.5h-379q-12 0 -17 4.5t-5 17.5v656q0 13 5 17.5t17 4.5h378q12 0 17 -4.5t5 -17.5v-51q0 -13 -5 -17.5t-17 -4.5h-288q-7 0 -9.5 -2.5t-2.5 -8.5v-183q0 -7 2.5 -9.5t9.5 -2.5h254q12 0 17 -4.5t5 -17.5v-50
q0 -12 -5 -17t-17 -5h-254q-7 0 -9.5 -2.5t-2.5 -8.5v-188q0 -6 2.5 -8.5t9.5 -2.5h289q12 0 17 -4.5zM207 938q4 0 8.5 -2t9.5 -6l144 -118q10 -7 10 -14q0 -5 -9 -13l-25 -20q-9 -7 -14 -7q-3 0 -8 2.5t-10 5.5l-150 108q-11 8 -11 16q0 7 8 15l29 24q11 9 18 9z" />
    <glyph glyph-name="Eacute" unicode="&#xc9;" horiz-adv-x="565" 
d="M506 90.5q5 -4.5 5 -17.5v-51q0 -13 -5 -17.5t-17 -4.5h-379q-12 0 -17 4.5t-5 17.5v656q0 13 5 17.5t17 4.5h378q12 0 17 -4.5t5 -17.5v-51q0 -13 -5 -17.5t-17 -4.5h-288q-7 0 -9.5 -2.5t-2.5 -8.5v-183q0 -7 2.5 -9.5t9.5 -2.5h254q12 0 17 -4.5t5 -17.5v-50
q0 -12 -5 -17t-17 -5h-254q-7 0 -9.5 -2.5t-2.5 -8.5v-188q0 -6 2.5 -8.5t9.5 -2.5h289q12 0 17 -4.5zM446 890q0 -8 -11 -16l-150 -108q-5 -3 -10 -5.5t-8 -2.5q-5 0 -14 7l-25 20q-8 8 -8 13q0 7 9 14l144 118q5 4 9.5 6t8.5 2q7 0 18 -9l29 -24q8 -8 8 -15z" />
    <glyph glyph-name="Ecircumflex" unicode="&#xca;" horiz-adv-x="565" 
d="M506 90.5q5 -4.5 5 -17.5v-51q0 -13 -5 -17.5t-17 -4.5h-379q-12 0 -17 4.5t-5 17.5v656q0 13 5 17.5t17 4.5h378q12 0 17 -4.5t5 -17.5v-51q0 -13 -5 -17.5t-17 -4.5h-288q-7 0 -9.5 -2.5t-2.5 -8.5v-183q0 -7 2.5 -9.5t9.5 -2.5h254q12 0 17 -4.5t5 -17.5v-50
q0 -12 -5 -17t-17 -5h-254q-7 0 -9.5 -2.5t-2.5 -8.5v-188q0 -6 2.5 -8.5t9.5 -2.5h289q12 0 17 -4.5zM194 761q-5 -3 -10 -3t-15 5l-30 17q-10 7 -10 14t8 15l109 105q10 9 15.5 11.5t18.5 2.5h38q13 0 18.5 -2.5t15.5 -11.5l109 -105q8 -8 8 -15t-10 -14l-30 -17
q-10 -5 -15 -5t-10 3t-10 8l-95 94l-95 -94q-5 -5 -10 -8z" />
    <glyph glyph-name="Edieresis" unicode="&#xcb;" horiz-adv-x="565" 
d="M506 90.5q5 -4.5 5 -17.5v-51q0 -13 -5 -17.5t-17 -4.5h-379q-12 0 -17 4.5t-5 17.5v656q0 13 5 17.5t17 4.5h378q12 0 17 -4.5t5 -17.5v-51q0 -13 -5 -17.5t-17 -4.5h-288q-7 0 -9.5 -2.5t-2.5 -8.5v-183q0 -7 2.5 -9.5t9.5 -2.5h254q12 0 17 -4.5t5 -17.5v-50
q0 -12 -5 -17t-17 -5h-254q-7 0 -9.5 -2.5t-2.5 -8.5v-188q0 -6 2.5 -8.5t9.5 -2.5h289q12 0 17 -4.5zM167.5 852.5q14.5 14.5 38.5 14.5t39 -14.5t15 -38.5q0 -23 -15 -38t-39 -15t-38.5 15t-14.5 38q0 24 14.5 38.5zM352.5 852.5q14.5 14.5 38.5 14.5q25 0 39.5 -14.5
t14.5 -38.5q0 -23 -14.5 -38t-39.5 -15q-24 0 -38.5 15t-14.5 38q0 24 14.5 38.5z" />
    <glyph glyph-name="Igrave" unicode="&#xcc;" horiz-adv-x="276" 
d="M183 4.5q-5 -4.5 -17 -4.5h-56q-12 0 -17 4.5t-5 17.5v656q0 13 5 17.5t17 4.5h56q12 0 17 -4.5t5 -17.5v-656q0 -13 -5 -17.5zM46 938q4 0 8.5 -2t9.5 -6l144 -118q10 -7 10 -14q0 -5 -9 -13l-25 -20q-9 -7 -14 -7q-3 0 -8 2.5t-10 5.5l-150 108q-11 8 -11 16q0 7 8 15
l29 24q11 9 18 9z" />
    <glyph glyph-name="Iacute" unicode="&#xcd;" horiz-adv-x="276" 
d="M183 4.5q-5 -4.5 -17 -4.5h-56q-12 0 -17 4.5t-5 17.5v656q0 13 5 17.5t17 4.5h56q12 0 17 -4.5t5 -17.5v-656q0 -13 -5 -17.5zM285 890q0 -8 -11 -16l-150 -108q-5 -3 -10 -5.5t-8 -2.5q-5 0 -14 7l-25 20q-8 8 -8 13q0 7 9 14l144 118q5 4 9.5 6t8.5 2q7 0 18 -9
l29 -24q8 -8 8 -15z" />
    <glyph glyph-name="Icircumflex" unicode="&#xce;" horiz-adv-x="276" 
d="M183 4.5q-5 -4.5 -17 -4.5h-56q-12 0 -17 4.5t-5 17.5v656q0 13 5 17.5t17 4.5h56q12 0 17 -4.5t5 -17.5v-656q0 -13 -5 -17.5zM33 761q-5 -3 -10 -3t-15 5l-30 17q-10 7 -10 14t8 15l109 105q10 9 15.5 11.5t18.5 2.5h38q13 0 18.5 -2.5t15.5 -11.5l109 -105q8 -8 8 -15
t-10 -14l-30 -17q-10 -5 -15 -5t-10 3t-10 8l-95 94l-95 -94q-5 -5 -10 -8z" />
    <glyph glyph-name="Idieresis" unicode="&#xcf;" horiz-adv-x="276" 
d="M183 4.5q-5 -4.5 -17 -4.5h-56q-12 0 -17 4.5t-5 17.5v656q0 13 5 17.5t17 4.5h56q12 0 17 -4.5t5 -17.5v-656q0 -13 -5 -17.5zM6.5 852.5q14.5 14.5 38.5 14.5t39 -14.5t15 -38.5q0 -23 -15 -38t-39 -15t-38.5 15t-14.5 38q0 24 14.5 38.5zM191.5 852.5
q14.5 14.5 38.5 14.5q25 0 39.5 -14.5t14.5 -38.5q0 -23 -14.5 -38t-39.5 -15q-24 0 -38.5 15t-14.5 38q0 24 14.5 38.5z" />
    <glyph glyph-name="Eth" unicode="&#xd0;" horiz-adv-x="744" 
d="M78 310h-42q-13 0 -17.5 4t-4.5 16v44q0 12 4.5 16t17.5 4h42q10 0 10 10v274q0 13 5 17.5t17 4.5h208q116 0 201.5 -42.5t131 -119.5t45.5 -180q0 -108 -47.5 -189t-136 -125t-208.5 -44h-194q-12 0 -17 4.5t-5 17.5v278q0 10 -10 10zM190.5 602.5q-2.5 -2.5 -2.5 -8.5
v-190q0 -10 10 -10h155q13 0 17.5 -4t4.5 -16v-44q0 -12 -4.5 -16t-17.5 -4h-155q-10 0 -10 -10v-194q0 -6 2.5 -8.5t9.5 -2.5h106q90 0 154.5 31.5t98 89.5t33.5 138q0 75 -33.5 132t-97 88t-151.5 31h-110q-7 0 -9.5 -2.5z" />
    <glyph glyph-name="Ntilde" unicode="&#xd1;" horiz-adv-x="744" 
d="M561 695.5q5 4.5 17 4.5h56q12 0 17 -4.5t5 -17.5v-656q0 -33 -20 -33q-8 0 -17 6.5t-25 24.5l-406 479v-477q0 -13 -5 -17.5t-17 -4.5h-56q-12 0 -17 4.5t-5 17.5v656q0 17 5 25t16 8q8 0 17 -6.5t24 -24.5l406 -479v477q0 13 5 17.5zM402.5 770q-19.5 6 -43.5 18
q-4 2 -16.5 7.5t-22.5 8t-19 2.5q-34 0 -63 -35q-6 -7 -12 -7q-5 0 -11 6l-24 30q-4 5 -4 10t6 12q19 24 48 40t62 16q22 0 41 -6.5t43 -17.5q4 -2 16.5 -7.5t22.5 -8t19 -2.5q34 0 63 35q6 7 12 7q5 0 11 -6l24 -30q4 -5 4 -10q0 -4 -6 -13q-19 -23 -48 -39t-62 -16
q-21 0 -40.5 6z" />
    <glyph glyph-name="Ograve" unicode="&#xd2;" horiz-adv-x="814" 
d="M93.5 532.5q47.5 83.5 130 131t184.5 47.5t184 -47t129 -129t47 -184t-47.5 -185t-130.5 -130t-186 -47q-101 0 -182.5 46.5t-128.5 128.5t-47 183q0 102 47.5 185.5zM183.5 212.5q33.5 -60.5 92 -94.5t129.5 -34t130.5 34.5t94 95.5t34.5 136q0 77 -34 137.5t-93 94.5
t-130 34t-130 -34.5t-93 -95.5t-34 -138q0 -75 33.5 -135.5zM315 938q4 0 8.5 -2t9.5 -6l144 -118q10 -7 10 -14q0 -5 -9 -13l-25 -20q-9 -7 -14 -7q-3 0 -8 2.5t-10 5.5l-150 108q-11 8 -11 16q0 7 8 15l29 24q11 9 18 9z" />
    <glyph glyph-name="Oacute" unicode="&#xd3;" horiz-adv-x="814" 
d="M93.5 532.5q47.5 83.5 130 131t184.5 47.5t184 -47t129 -129t47 -184t-47.5 -185t-130.5 -130t-186 -47q-101 0 -182.5 46.5t-128.5 128.5t-47 183q0 102 47.5 185.5zM183.5 212.5q33.5 -60.5 92 -94.5t129.5 -34t130.5 34.5t94 95.5t34.5 136q0 77 -34 137.5t-93 94.5
t-130 34t-130 -34.5t-93 -95.5t-34 -138q0 -75 33.5 -135.5zM554 890q0 -8 -11 -16l-150 -108q-5 -3 -10 -5.5t-8 -2.5q-5 0 -14 7l-25 20q-8 8 -8 13q0 7 9 14l144 118q5 4 9.5 6t8.5 2q7 0 18 -9l29 -24q8 -8 8 -15z" />
    <glyph glyph-name="Ocircumflex" unicode="&#xd4;" horiz-adv-x="814" 
d="M93.5 532.5q47.5 83.5 130 131t184.5 47.5t184 -47t129 -129t47 -184t-47.5 -185t-130.5 -130t-186 -47q-101 0 -182.5 46.5t-128.5 128.5t-47 183q0 102 47.5 185.5zM183.5 212.5q33.5 -60.5 92 -94.5t129.5 -34t130.5 34.5t94 95.5t34.5 136q0 77 -34 137.5t-93 94.5
t-130 34t-130 -34.5t-93 -95.5t-34 -138q0 -75 33.5 -135.5zM302 761q-5 -3 -10 -3t-15 5l-30 17q-10 7 -10 14t8 15l109 105q10 9 15.5 11.5t18.5 2.5h38q13 0 18.5 -2.5t15.5 -11.5l109 -105q8 -8 8 -15t-10 -14l-30 -17q-10 -5 -15 -5t-10 3t-10 8l-95 94l-95 -94
q-5 -5 -10 -8z" />
    <glyph glyph-name="Otilde" unicode="&#xd5;" horiz-adv-x="814" 
d="M93.5 532.5q47.5 83.5 130 131t184.5 47.5t184 -47t129 -129t47 -184t-47.5 -185t-130.5 -130t-186 -47q-101 0 -182.5 46.5t-128.5 128.5t-47 183q0 102 47.5 185.5zM183.5 212.5q33.5 -60.5 92 -94.5t129.5 -34t130.5 34.5t94 95.5t34.5 136q0 77 -34 137.5t-93 94.5
t-130 34t-130 -34.5t-93 -95.5t-34 -138q0 -75 33.5 -135.5zM436.5 770q-19.5 6 -43.5 18q-4 2 -16.5 7.5t-22.5 8t-19 2.5q-34 0 -63 -35q-6 -7 -12 -7q-5 0 -11 6l-24 30q-4 5 -4 10t6 12q19 24 48 40t62 16q22 0 41 -6.5t43 -17.5q4 -2 16.5 -7.5t22.5 -8t19 -2.5
q34 0 63 35q6 7 12 7q5 0 11 -6l24 -30q4 -5 4 -10q0 -4 -6 -13q-19 -23 -48 -39t-62 -16q-21 0 -40.5 6z" />
    <glyph glyph-name="Odieresis" unicode="&#xd6;" horiz-adv-x="814" 
d="M93.5 532.5q47.5 83.5 130 131t184.5 47.5t184 -47t129 -129t47 -184t-47.5 -185t-130.5 -130t-186 -47q-101 0 -182.5 46.5t-128.5 128.5t-47 183q0 102 47.5 185.5zM183.5 212.5q33.5 -60.5 92 -94.5t129.5 -34t130.5 34.5t94 95.5t34.5 136q0 77 -34 137.5t-93 94.5
t-130 34t-130 -34.5t-93 -95.5t-34 -138q0 -75 33.5 -135.5zM275.5 852.5q14.5 14.5 38.5 14.5t39 -14.5t15 -38.5q0 -23 -15 -38t-39 -15t-38.5 15t-14.5 38q0 24 14.5 38.5zM460.5 852.5q14.5 14.5 38.5 14.5q25 0 39.5 -14.5t14.5 -38.5q0 -23 -14.5 -38t-39.5 -15
q-24 0 -38.5 15t-14.5 38q0 24 14.5 38.5z" />
    <glyph glyph-name="multiply" unicode="&#xd7;" horiz-adv-x="672" 
d="M554 156q0 -7 -9 -16l-29 -29q-9 -9 -16 -9q-4 0 -7.5 2.5t-7.5 6.5l-141 141q-5 5 -8 5t-8 -5l-140 -141q-9 -9 -16 -9t-16 9l-29 29q-9 9 -9 16t9 16l141 140q5 5 5 8t-5 8l-141 140q-9 9 -9 16t9 16l29 29q9 9 16 9t16 -9l140 -141q5 -5 8 -5t8 5l141 141q4 4 7.5 6.5
t7.5 2.5q7 0 16 -9l29 -29q9 -9 9 -16t-9 -16l-141 -140q-4 -4 -4 -8t4 -8l141 -140q9 -9 9 -16z" />
    <glyph glyph-name="Oslash" unicode="&#xd8;" horiz-adv-x="814" 
d="M743.5 487.5q24.5 -63.5 24.5 -136.5q0 -102 -47.5 -185t-130.5 -130t-186 -47q-60 0 -114 17t-98 49l-40 -45q-11 -12 -19 -16.5t-22 -4.5h-32q-22 0 -22 12q0 4 4 9.5t11 13.5l67 76q-45 48 -69 111t-24 136q0 102 47.5 185.5t130 131t184.5 47.5q61 0 114.5 -17
t98.5 -50l41 46q11 12 19 16.5t22 4.5h32q22 0 22 -12q0 -4 -4 -9.5t-11 -13.5l-68 -77q45 -48 69.5 -111.5zM165 254q15 -44 43 -77l347 392q-31 23 -69 35t-79 12q-71 0 -130 -34.5t-93 -95.5t-34 -138q0 -50 15 -94zM649 444.5q-15 43.5 -44 77.5l-347 -392
q31 -23 68.5 -34.5t78.5 -11.5q71 0 130.5 34.5t94 95.5t34.5 136q0 51 -15 94.5z" />
    <glyph glyph-name="Ugrave" unicode="&#xd9;" horiz-adv-x="743" 
d="M622.5 127.5q-37.5 -69.5 -104 -104t-152.5 -34.5q-83 0 -146.5 33t-99.5 102t-36 171v383q0 13 5 17.5t17 4.5h55q13 0 18 -4.5t5 -17.5v-377q0 -103 48 -160t138 -57q60 0 102.5 26t65 74.5t22.5 115.5v378q0 13 5 17.5t16 4.5h56q13 0 18 -4.5t5 -17.5v-380
q0 -101 -37.5 -170.5zM279 938q4 0 8.5 -2t9.5 -6l144 -118q10 -7 10 -14q0 -5 -9 -13l-25 -20q-9 -7 -14 -7q-3 0 -8 2.5t-10 5.5l-150 108q-11 8 -11 16q0 7 8 15l29 24q11 9 18 9z" />
    <glyph glyph-name="Uacute" unicode="&#xda;" horiz-adv-x="743" 
d="M622.5 127.5q-37.5 -69.5 -104 -104t-152.5 -34.5q-83 0 -146.5 33t-99.5 102t-36 171v383q0 13 5 17.5t17 4.5h55q13 0 18 -4.5t5 -17.5v-377q0 -103 48 -160t138 -57q60 0 102.5 26t65 74.5t22.5 115.5v378q0 13 5 17.5t16 4.5h56q13 0 18 -4.5t5 -17.5v-380
q0 -101 -37.5 -170.5zM518 890q0 -8 -11 -16l-150 -108q-5 -3 -10 -5.5t-8 -2.5q-5 0 -14 7l-25 20q-8 8 -8 13q0 7 9 14l144 118q5 4 9.5 6t8.5 2q7 0 18 -9l29 -24q8 -8 8 -15z" />
    <glyph glyph-name="Ucircumflex" unicode="&#xdb;" horiz-adv-x="743" 
d="M622.5 127.5q-37.5 -69.5 -104 -104t-152.5 -34.5q-83 0 -146.5 33t-99.5 102t-36 171v383q0 13 5 17.5t17 4.5h55q13 0 18 -4.5t5 -17.5v-377q0 -103 48 -160t138 -57q60 0 102.5 26t65 74.5t22.5 115.5v378q0 13 5 17.5t16 4.5h56q13 0 18 -4.5t5 -17.5v-380
q0 -101 -37.5 -170.5zM266 761q-5 -3 -10 -3t-15 5l-30 17q-10 7 -10 14t8 15l109 105q10 9 15.5 11.5t18.5 2.5h38q13 0 18.5 -2.5t15.5 -11.5l109 -105q8 -8 8 -15t-10 -14l-30 -17q-10 -5 -15 -5t-10 3t-10 8l-95 94l-95 -94q-5 -5 -10 -8z" />
    <glyph glyph-name="Udieresis" unicode="&#xdc;" horiz-adv-x="743" 
d="M622.5 127.5q-37.5 -69.5 -104 -104t-152.5 -34.5q-83 0 -146.5 33t-99.5 102t-36 171v383q0 13 5 17.5t17 4.5h55q13 0 18 -4.5t5 -17.5v-377q0 -103 48 -160t138 -57q60 0 102.5 26t65 74.5t22.5 115.5v378q0 13 5 17.5t16 4.5h56q13 0 18 -4.5t5 -17.5v-380
q0 -101 -37.5 -170.5zM239.5 852.5q14.5 14.5 38.5 14.5t39 -14.5t15 -38.5q0 -23 -15 -38t-39 -15t-38.5 15t-14.5 38q0 24 14.5 38.5zM424.5 852.5q14.5 14.5 38.5 14.5q25 0 39.5 -14.5t14.5 -38.5q0 -23 -14.5 -38t-39.5 -15q-24 0 -38.5 15t-14.5 38q0 24 14.5 38.5z
" />
    <glyph glyph-name="Yacute" unicode="&#xdd;" horiz-adv-x="603" 
d="M487 675q10 16 17 20.5t23 4.5h59q9 0 14 -3t5 -8q0 -4 -5 -14l-248 -411v-242q0 -13 -5 -17.5t-17 -4.5h-56q-12 0 -17 4.5t-5 17.5v237l-248 416q-5 10 -5 14q0 6 4.5 8.5t13.5 2.5h62q17 0 24 -4.5t17 -20.5l183 -316zM449 890q0 -8 -11 -16l-150 -108q-5 -3 -10 -5.5
t-8 -2.5q-5 0 -14 7l-25 20q-8 8 -8 13q0 7 9 14l144 118q5 4 9.5 6t8.5 2q7 0 18 -9l29 -24q8 -8 8 -15z" />
    <glyph glyph-name="Thorn" unicode="&#xde;" horiz-adv-x="624" 
d="M190.5 584q2.5 -3 9.5 -3h107q139 0 209.5 -56.5t70.5 -165.5q0 -72 -34 -124t-99.5 -79t-158.5 -27h-95q-7 0 -9.5 -2.5t-2.5 -9.5v-95q0 -13 -5 -17.5t-17 -4.5h-56q-12 0 -17 4.5t-5 17.5v656q0 13 5 17.5t17 4.5h56q12 0 17 -4.5t5 -17.5v-85q0 -6 2.5 -9z
M190.5 483.5q-2.5 -2.5 -2.5 -8.5v-240q0 -6 2.5 -9t9.5 -3h95q89 0 138.5 33.5t49.5 100.5q0 68 -47 98.5t-138 30.5h-98q-7 0 -9.5 -2.5z" />
    <glyph glyph-name="germandbls" unicode="&#xdf;" horiz-adv-x="785" 
d="M420.5 440q14.5 -20 44 -34t80.5 -28q71 -19 114.5 -43t65.5 -59t22 -87q0 -60 -31 -105t-86.5 -70t-126.5 -25q-66 0 -123 21t-103 59q-10 7 -10 15q0 7 7 17l29 43q4 5 8 8t7 3t7 -2t8 -5q38 -31 81.5 -48t89.5 -17q64 0 101 26.5t37 73.5q0 28 -14 47t-45 33t-85 29
q-65 17 -107.5 40t-65 59t-22.5 88q0 46 23.5 83t65.5 57l-26 1q-45 0 -78 -13t-58 -41q-24 -27 -34.5 -66t-10.5 -101v-377q0 -13 -5 -17.5t-17 -4.5h-56q-12 0 -17 4.5t-5 17.5v385q0 84 16.5 135t55.5 91q40 40 94.5 60t131.5 20q73 0 154 -19.5t140 -49.5q8 -5 11.5 -9
t3.5 -10t-6 -17l-22 -38q-4 -7 -7.5 -10t-8.5 -3t-17 5q-57 26 -113 26q-32 0 -57.5 -13t-40 -35.5t-14.5 -49.5q0 -30 14.5 -50z" />
    <glyph glyph-name="agrave" unicode="&#xe0;" 
d="M111 30q-8 -18 -16 -24t-24 -6h-52q-20 0 -20 13q0 5 5 17l301 634q15 31 22 40.5t17 9.5q9 0 15.5 -9.5t21.5 -40.5l304 -634q5 -12 5 -17q0 -13 -21 -13h-56q-16 0 -23.5 6t-16.5 24l-231 498zM252 938q4 0 8.5 -2t9.5 -6l144 -118q10 -7 10 -14q0 -5 -9 -13l-25 -20
q-9 -7 -14 -7q-3 0 -8 2.5t-10 5.5l-150 108q-11 8 -11 16q0 7 8 15l29 24q11 9 18 9z" />
    <glyph glyph-name="aacute" unicode="&#xe1;" 
d="M111 30q-8 -18 -16 -24t-24 -6h-52q-20 0 -20 13q0 5 5 17l301 634q15 31 22 40.5t17 9.5q9 0 15.5 -9.5t21.5 -40.5l304 -634q5 -12 5 -17q0 -13 -21 -13h-56q-16 0 -23.5 6t-16.5 24l-231 498zM491 890q0 -8 -11 -16l-150 -108q-5 -3 -10 -5.5t-8 -2.5q-5 0 -14 7
l-25 20q-8 8 -8 13q0 7 9 14l144 118q5 4 9.5 6t8.5 2q7 0 18 -9l29 -24q8 -8 8 -15z" />
    <glyph glyph-name="acircumflex" unicode="&#xe2;" 
d="M111 30q-8 -18 -16 -24t-24 -6h-52q-20 0 -20 13q0 5 5 17l301 634q15 31 22 40.5t17 9.5q9 0 15.5 -9.5t21.5 -40.5l304 -634q5 -12 5 -17q0 -13 -21 -13h-56q-16 0 -23.5 6t-16.5 24l-231 498zM239 761q-5 -3 -10 -3t-15 5l-30 17q-10 7 -10 14t8 15l109 105
q10 9 15.5 11.5t18.5 2.5h38q13 0 18.5 -2.5t15.5 -11.5l109 -105q8 -8 8 -15t-10 -14l-30 -17q-10 -5 -15 -5t-10 3t-10 8l-95 94l-95 -94q-5 -5 -10 -8z" />
    <glyph glyph-name="atilde" unicode="&#xe3;" 
d="M111 30q-8 -18 -16 -24t-24 -6h-52q-20 0 -20 13q0 5 5 17l301 634q15 31 22 40.5t17 9.5q9 0 15.5 -9.5t21.5 -40.5l304 -634q5 -12 5 -17q0 -13 -21 -13h-56q-16 0 -23.5 6t-16.5 24l-231 498zM374.5 770q-19.5 6 -43.5 18q-4 2 -16.5 7.5t-22.5 8t-19 2.5
q-34 0 -63 -35q-6 -7 -12 -7q-5 0 -11 6l-24 30q-4 5 -4 10t6 12q19 24 48 40t62 16q22 0 41 -6.5t43 -17.5q4 -2 16.5 -7.5t22.5 -8t19 -2.5q34 0 63 35q6 7 12 7q5 0 11 -6l24 -30q4 -5 4 -10q0 -4 -6 -13q-19 -23 -48 -39t-62 -16q-21 0 -40.5 6z" />
    <glyph glyph-name="adieresis" unicode="&#xe4;" 
d="M111 30q-8 -18 -16 -24t-24 -6h-52q-20 0 -20 13q0 5 5 17l301 634q15 31 22 40.5t17 9.5q9 0 15.5 -9.5t21.5 -40.5l304 -634q5 -12 5 -17q0 -13 -21 -13h-56q-16 0 -23.5 6t-16.5 24l-231 498zM212.5 852.5q14.5 14.5 38.5 14.5t39 -14.5t15 -38.5q0 -23 -15 -38
t-39 -15t-38.5 15t-14.5 38q0 24 14.5 38.5zM397.5 852.5q14.5 14.5 38.5 14.5q25 0 39.5 -14.5t14.5 -38.5q0 -23 -14.5 -38t-39.5 -15q-24 0 -38.5 15t-14.5 38q0 24 14.5 38.5z" />
    <glyph glyph-name="aring" unicode="&#xe5;" 
d="M227 841q18 31 49 49.5t68 18.5t68.5 -18.5t49.5 -49.5t18 -68q0 -43 -25.5 -78t-64.5 -49l295 -616q5 -12 5 -17q0 -13 -21 -13h-56q-16 0 -23.5 6t-16.5 24l-231 498l-231 -498q-8 -18 -16 -24t-24 -6h-52q-20 0 -20 13q0 5 5 17l292 616q-39 15 -63 49.5t-24 77.5
q0 37 18 68zM299.5 728.5q18.5 -18.5 44.5 -18.5q27 0 45 18.5t18 44.5q0 27 -18 45.5t-45 18.5q-26 0 -44.5 -18.5t-18.5 -45.5q0 -26 18.5 -44.5z" />
    <glyph glyph-name="ae" unicode="&#xe6;" horiz-adv-x="983" 
d="M245.5 232.5q-3.5 -2.5 -8.5 -9.5l-132 -200q-9 -14 -16.5 -18.5t-23.5 -4.5h-60q-20 0 -20 13q0 4 3 9t8 13l426 642q10 14 17 18.5t23 4.5h443q12 0 17 -4.5t5 -17.5v-51q0 -13 -5 -17.5t-17 -4.5h-288q-7 0 -9.5 -2.5t-2.5 -8.5v-183q0 -7 2.5 -9.5t9.5 -2.5h255
q12 0 16.5 -4.5t4.5 -17.5v-50q0 -12 -5 -17t-16 -5h-255q-7 0 -9.5 -2.5t-2.5 -8.5v-188q0 -6 2.5 -8.5t9.5 -2.5h289q12 0 17 -4.5t5 -17.5v-51q0 -13 -5 -17.5t-17 -4.5h-379q-12 0 -17 4.5t-5 17.5v201q0 7 -2.5 9.5t-8.5 2.5h-236q-9 0 -12.5 -2.5zM502.5 330.5
q2.5 2.5 2.5 9.5v272q0 10 -5 10q-3 0 -7 -6l-182 -273q-3 -6 -3 -9q0 -6 11 -6h175q6 0 8.5 2.5z" />
    <glyph glyph-name="ccedilla" unicode="&#xe7;" horiz-adv-x="701" 
d="M607 156q11 9 17 9q4 0 8 -3t7 -7l29 -40q5 -6 5 -14q0 -4 -3 -8.5t-9 -9.5q-53 -45 -119.5 -69.5t-139.5 -24.5l-19 -38h5q46 0 73 -23.5t27 -60.5q0 -32 -18.5 -56.5t-50 -38t-70.5 -13.5q-26 0 -50 6t-44 16q-5 3 -8.5 6.5t-3.5 7.5t3 10l13 26q2 5 4.5 7.5t6.5 2.5
t10 -3q13 -8 30.5 -12.5t36.5 -4.5q31 0 49.5 12t18.5 30t-16.5 28.5t-43.5 10.5q-22 0 -44 -5q-2 -1 -6 -1q-8 0 -8 7q0 5 2 8l41 83q-84 13 -151 61.5t-105 124t-38 167.5q0 103 47.5 186t130 130.5t184.5 47.5q72 0 137.5 -25t116.5 -68q10 -7 10 -15q0 -7 -6 -16
l-29 -39q-8 -11 -16 -11q-6 0 -17 8q-43 33 -93 52t-105 19q-71 0 -129.5 -34t-92.5 -95t-34 -138q0 -74 33.5 -135t92 -95.5t130.5 -34.5q113 0 201 72z" />
    <glyph glyph-name="egrave" unicode="&#xe8;" horiz-adv-x="565" 
d="M506 90.5q5 -4.5 5 -17.5v-51q0 -13 -5 -17.5t-17 -4.5h-379q-12 0 -17 4.5t-5 17.5v656q0 13 5 17.5t17 4.5h378q12 0 17 -4.5t5 -17.5v-51q0 -13 -5 -17.5t-17 -4.5h-288q-7 0 -9.5 -2.5t-2.5 -8.5v-183q0 -7 2.5 -9.5t9.5 -2.5h254q12 0 17 -4.5t5 -17.5v-50
q0 -12 -5 -17t-17 -5h-254q-7 0 -9.5 -2.5t-2.5 -8.5v-188q0 -6 2.5 -8.5t9.5 -2.5h289q12 0 17 -4.5zM207 938q4 0 8.5 -2t9.5 -6l144 -118q10 -7 10 -14q0 -5 -9 -13l-25 -20q-9 -7 -14 -7q-3 0 -8 2.5t-10 5.5l-150 108q-11 8 -11 16q0 7 8 15l29 24q11 9 18 9z" />
    <glyph glyph-name="eacute" unicode="&#xe9;" horiz-adv-x="565" 
d="M506 90.5q5 -4.5 5 -17.5v-51q0 -13 -5 -17.5t-17 -4.5h-379q-12 0 -17 4.5t-5 17.5v656q0 13 5 17.5t17 4.5h378q12 0 17 -4.5t5 -17.5v-51q0 -13 -5 -17.5t-17 -4.5h-288q-7 0 -9.5 -2.5t-2.5 -8.5v-183q0 -7 2.5 -9.5t9.5 -2.5h254q12 0 17 -4.5t5 -17.5v-50
q0 -12 -5 -17t-17 -5h-254q-7 0 -9.5 -2.5t-2.5 -8.5v-188q0 -6 2.5 -8.5t9.5 -2.5h289q12 0 17 -4.5zM446 890q0 -8 -11 -16l-150 -108q-5 -3 -10 -5.5t-8 -2.5q-5 0 -14 7l-25 20q-8 8 -8 13q0 7 9 14l144 118q5 4 9.5 6t8.5 2q7 0 18 -9l29 -24q8 -8 8 -15z" />
    <glyph glyph-name="ecircumflex" unicode="&#xea;" horiz-adv-x="565" 
d="M506 90.5q5 -4.5 5 -17.5v-51q0 -13 -5 -17.5t-17 -4.5h-379q-12 0 -17 4.5t-5 17.5v656q0 13 5 17.5t17 4.5h378q12 0 17 -4.5t5 -17.5v-51q0 -13 -5 -17.5t-17 -4.5h-288q-7 0 -9.5 -2.5t-2.5 -8.5v-183q0 -7 2.5 -9.5t9.5 -2.5h254q12 0 17 -4.5t5 -17.5v-50
q0 -12 -5 -17t-17 -5h-254q-7 0 -9.5 -2.5t-2.5 -8.5v-188q0 -6 2.5 -8.5t9.5 -2.5h289q12 0 17 -4.5zM194 761q-5 -3 -10 -3t-15 5l-30 17q-10 7 -10 14t8 15l109 105q10 9 15.5 11.5t18.5 2.5h38q13 0 18.5 -2.5t15.5 -11.5l109 -105q8 -8 8 -15t-10 -14l-30 -17
q-10 -5 -15 -5t-10 3t-10 8l-95 94l-95 -94q-5 -5 -10 -8z" />
    <glyph glyph-name="edieresis" unicode="&#xeb;" horiz-adv-x="565" 
d="M506 90.5q5 -4.5 5 -17.5v-51q0 -13 -5 -17.5t-17 -4.5h-379q-12 0 -17 4.5t-5 17.5v656q0 13 5 17.5t17 4.5h378q12 0 17 -4.5t5 -17.5v-51q0 -13 -5 -17.5t-17 -4.5h-288q-7 0 -9.5 -2.5t-2.5 -8.5v-183q0 -7 2.5 -9.5t9.5 -2.5h254q12 0 17 -4.5t5 -17.5v-50
q0 -12 -5 -17t-17 -5h-254q-7 0 -9.5 -2.5t-2.5 -8.5v-188q0 -6 2.5 -8.5t9.5 -2.5h289q12 0 17 -4.5zM167.5 852.5q14.5 14.5 38.5 14.5t39 -14.5t15 -38.5q0 -23 -15 -38t-39 -15t-38.5 15t-14.5 38q0 24 14.5 38.5zM352.5 852.5q14.5 14.5 38.5 14.5q25 0 39.5 -14.5
t14.5 -38.5q0 -23 -14.5 -38t-39.5 -15q-24 0 -38.5 15t-14.5 38q0 24 14.5 38.5z" />
    <glyph glyph-name="igrave" unicode="&#xec;" horiz-adv-x="276" 
d="M183 4.5q-5 -4.5 -17 -4.5h-56q-12 0 -17 4.5t-5 17.5v656q0 13 5 17.5t17 4.5h56q12 0 17 -4.5t5 -17.5v-656q0 -13 -5 -17.5zM46 938q4 0 8.5 -2t9.5 -6l144 -118q10 -7 10 -14q0 -5 -9 -13l-25 -20q-9 -7 -14 -7q-3 0 -8 2.5t-10 5.5l-150 108q-11 8 -11 16q0 7 8 15
l29 24q11 9 18 9z" />
    <glyph glyph-name="iacute" unicode="&#xed;" horiz-adv-x="276" 
d="M183 4.5q-5 -4.5 -17 -4.5h-56q-12 0 -17 4.5t-5 17.5v656q0 13 5 17.5t17 4.5h56q12 0 17 -4.5t5 -17.5v-656q0 -13 -5 -17.5zM285 890q0 -8 -11 -16l-150 -108q-5 -3 -10 -5.5t-8 -2.5q-5 0 -14 7l-25 20q-8 8 -8 13q0 7 9 14l144 118q5 4 9.5 6t8.5 2q7 0 18 -9
l29 -24q8 -8 8 -15z" />
    <glyph glyph-name="icircumflex" unicode="&#xee;" horiz-adv-x="276" 
d="M183 4.5q-5 -4.5 -17 -4.5h-56q-12 0 -17 4.5t-5 17.5v656q0 13 5 17.5t17 4.5h56q12 0 17 -4.5t5 -17.5v-656q0 -13 -5 -17.5zM33 761q-5 -3 -10 -3t-15 5l-30 17q-10 7 -10 14t8 15l109 105q10 9 15.5 11.5t18.5 2.5h38q13 0 18.5 -2.5t15.5 -11.5l109 -105q8 -8 8 -15
t-10 -14l-30 -17q-10 -5 -15 -5t-10 3t-10 8l-95 94l-95 -94q-5 -5 -10 -8z" />
    <glyph glyph-name="idieresis" unicode="&#xef;" horiz-adv-x="276" 
d="M183 4.5q-5 -4.5 -17 -4.5h-56q-12 0 -17 4.5t-5 17.5v656q0 13 5 17.5t17 4.5h56q12 0 17 -4.5t5 -17.5v-656q0 -13 -5 -17.5zM6.5 852.5q14.5 14.5 38.5 14.5t39 -14.5t15 -38.5q0 -23 -15 -38t-39 -15t-38.5 15t-14.5 38q0 24 14.5 38.5zM191.5 852.5
q14.5 14.5 38.5 14.5q25 0 39.5 -14.5t14.5 -38.5q0 -23 -14.5 -38t-39.5 -15q-24 0 -38.5 15t-14.5 38q0 24 14.5 38.5z" />
    <glyph glyph-name="eth" unicode="&#xf0;" horiz-adv-x="744" 
d="M78 310h-42q-13 0 -17.5 4t-4.5 16v44q0 12 4.5 16t17.5 4h42q10 0 10 10v274q0 13 5 17.5t17 4.5h208q116 0 201.5 -42.5t131 -119.5t45.5 -180q0 -108 -47.5 -189t-136 -125t-208.5 -44h-194q-12 0 -17 4.5t-5 17.5v278q0 10 -10 10zM190.5 602.5q-2.5 -2.5 -2.5 -8.5
v-190q0 -10 10 -10h155q13 0 17.5 -4t4.5 -16v-44q0 -12 -4.5 -16t-17.5 -4h-155q-10 0 -10 -10v-194q0 -6 2.5 -8.5t9.5 -2.5h106q90 0 154.5 31.5t98 89.5t33.5 138q0 75 -33.5 132t-97 88t-151.5 31h-110q-7 0 -9.5 -2.5z" />
    <glyph glyph-name="ntilde" unicode="&#xf1;" horiz-adv-x="744" 
d="M561 695.5q5 4.5 17 4.5h56q12 0 17 -4.5t5 -17.5v-656q0 -33 -20 -33q-8 0 -17 6.5t-25 24.5l-406 479v-477q0 -13 -5 -17.5t-17 -4.5h-56q-12 0 -17 4.5t-5 17.5v656q0 17 5 25t16 8q8 0 17 -6.5t24 -24.5l406 -479v477q0 13 5 17.5zM402.5 770q-19.5 6 -43.5 18
q-4 2 -16.5 7.5t-22.5 8t-19 2.5q-34 0 -63 -35q-6 -7 -12 -7q-5 0 -11 6l-24 30q-4 5 -4 10t6 12q19 24 48 40t62 16q22 0 41 -6.5t43 -17.5q4 -2 16.5 -7.5t22.5 -8t19 -2.5q34 0 63 35q6 7 12 7q5 0 11 -6l24 -30q4 -5 4 -10q0 -4 -6 -13q-19 -23 -48 -39t-62 -16
q-21 0 -40.5 6z" />
    <glyph glyph-name="ograve" unicode="&#xf2;" horiz-adv-x="814" 
d="M93.5 532.5q47.5 83.5 130 131t184.5 47.5t184 -47t129 -129t47 -184t-47.5 -185t-130.5 -130t-186 -47q-101 0 -182.5 46.5t-128.5 128.5t-47 183q0 102 47.5 185.5zM183.5 212.5q33.5 -60.5 92 -94.5t129.5 -34t130.5 34.5t94 95.5t34.5 136q0 77 -34 137.5t-93 94.5
t-130 34t-130 -34.5t-93 -95.5t-34 -138q0 -75 33.5 -135.5zM315 938q4 0 8.5 -2t9.5 -6l144 -118q10 -7 10 -14q0 -5 -9 -13l-25 -20q-9 -7 -14 -7q-3 0 -8 2.5t-10 5.5l-150 108q-11 8 -11 16q0 7 8 15l29 24q11 9 18 9z" />
    <glyph glyph-name="oacute" unicode="&#xf3;" horiz-adv-x="814" 
d="M93.5 532.5q47.5 83.5 130 131t184.5 47.5t184 -47t129 -129t47 -184t-47.5 -185t-130.5 -130t-186 -47q-101 0 -182.5 46.5t-128.5 128.5t-47 183q0 102 47.5 185.5zM183.5 212.5q33.5 -60.5 92 -94.5t129.5 -34t130.5 34.5t94 95.5t34.5 136q0 77 -34 137.5t-93 94.5
t-130 34t-130 -34.5t-93 -95.5t-34 -138q0 -75 33.5 -135.5zM554 890q0 -8 -11 -16l-150 -108q-5 -3 -10 -5.5t-8 -2.5q-5 0 -14 7l-25 20q-8 8 -8 13q0 7 9 14l144 118q5 4 9.5 6t8.5 2q7 0 18 -9l29 -24q8 -8 8 -15z" />
    <glyph glyph-name="ocircumflex" unicode="&#xf4;" horiz-adv-x="814" 
d="M93.5 532.5q47.5 83.5 130 131t184.5 47.5t184 -47t129 -129t47 -184t-47.5 -185t-130.5 -130t-186 -47q-101 0 -182.5 46.5t-128.5 128.5t-47 183q0 102 47.5 185.5zM183.5 212.5q33.5 -60.5 92 -94.5t129.5 -34t130.5 34.5t94 95.5t34.5 136q0 77 -34 137.5t-93 94.5
t-130 34t-130 -34.5t-93 -95.5t-34 -138q0 -75 33.5 -135.5zM302 761q-5 -3 -10 -3t-15 5l-30 17q-10 7 -10 14t8 15l109 105q10 9 15.5 11.5t18.5 2.5h38q13 0 18.5 -2.5t15.5 -11.5l109 -105q8 -8 8 -15t-10 -14l-30 -17q-10 -5 -15 -5t-10 3t-10 8l-95 94l-95 -94
q-5 -5 -10 -8z" />
    <glyph glyph-name="otilde" unicode="&#xf5;" horiz-adv-x="814" 
d="M93.5 532.5q47.5 83.5 130 131t184.5 47.5t184 -47t129 -129t47 -184t-47.5 -185t-130.5 -130t-186 -47q-101 0 -182.5 46.5t-128.5 128.5t-47 183q0 102 47.5 185.5zM183.5 212.5q33.5 -60.5 92 -94.5t129.5 -34t130.5 34.5t94 95.5t34.5 136q0 77 -34 137.5t-93 94.5
t-130 34t-130 -34.5t-93 -95.5t-34 -138q0 -75 33.5 -135.5zM436.5 770q-19.5 6 -43.5 18q-4 2 -16.5 7.5t-22.5 8t-19 2.5q-34 0 -63 -35q-6 -7 -12 -7q-5 0 -11 6l-24 30q-4 5 -4 10t6 12q19 24 48 40t62 16q22 0 41 -6.5t43 -17.5q4 -2 16.5 -7.5t22.5 -8t19 -2.5
q34 0 63 35q6 7 12 7q5 0 11 -6l24 -30q4 -5 4 -10q0 -4 -6 -13q-19 -23 -48 -39t-62 -16q-21 0 -40.5 6z" />
    <glyph glyph-name="odieresis" unicode="&#xf6;" horiz-adv-x="814" 
d="M93.5 532.5q47.5 83.5 130 131t184.5 47.5t184 -47t129 -129t47 -184t-47.5 -185t-130.5 -130t-186 -47q-101 0 -182.5 46.5t-128.5 128.5t-47 183q0 102 47.5 185.5zM183.5 212.5q33.5 -60.5 92 -94.5t129.5 -34t130.5 34.5t94 95.5t34.5 136q0 77 -34 137.5t-93 94.5
t-130 34t-130 -34.5t-93 -95.5t-34 -138q0 -75 33.5 -135.5zM275.5 852.5q14.5 14.5 38.5 14.5t39 -14.5t15 -38.5q0 -23 -15 -38t-39 -15t-38.5 15t-14.5 38q0 24 14.5 38.5zM460.5 852.5q14.5 14.5 38.5 14.5q25 0 39.5 -14.5t14.5 -38.5q0 -23 -14.5 -38t-39.5 -15
q-24 0 -38.5 15t-14.5 38q0 24 14.5 38.5z" />
    <glyph glyph-name="divide" unicode="&#xf7;" horiz-adv-x="672" 
d="M294.5 542q16.5 16 41.5 16q26 0 42.5 -16t16.5 -41t-16.5 -40.5t-42.5 -15.5q-25 0 -41.5 15.5t-16.5 40.5t16.5 41zM587 281.5q-5 -4.5 -17 -4.5h-467q-12 0 -17.5 5t-5.5 17v42q0 12 5.5 17t17.5 5h467q12 0 17 -4.5t5 -17.5v-42q0 -13 -5 -17.5zM294.5 179
q16.5 16 41.5 16q26 0 42.5 -16t16.5 -41t-16.5 -40.5t-42.5 -15.5q-25 0 -41.5 15.5t-16.5 40.5t16.5 41z" />
    <glyph glyph-name="oslash" unicode="&#xf8;" horiz-adv-x="814" 
d="M743.5 487.5q24.5 -63.5 24.5 -136.5q0 -102 -47.5 -185t-130.5 -130t-186 -47q-60 0 -114 17t-98 49l-40 -45q-11 -12 -19 -16.5t-22 -4.5h-32q-22 0 -22 12q0 4 4 9.5t11 13.5l67 76q-45 48 -69 111t-24 136q0 102 47.5 185.5t130 131t184.5 47.5q61 0 114.5 -17
t98.5 -50l41 46q11 12 19 16.5t22 4.5h32q22 0 22 -12q0 -4 -4 -9.5t-11 -13.5l-68 -77q45 -48 69.5 -111.5zM165 254q15 -44 43 -77l347 392q-31 23 -69 35t-79 12q-71 0 -130 -34.5t-93 -95.5t-34 -138q0 -50 15 -94zM649 444.5q-15 43.5 -44 77.5l-347 -392
q31 -23 68.5 -34.5t78.5 -11.5q71 0 130.5 34.5t94 95.5t34.5 136q0 51 -15 94.5z" />
    <glyph glyph-name="ugrave" unicode="&#xf9;" horiz-adv-x="743" 
d="M622.5 127.5q-37.5 -69.5 -104 -104t-152.5 -34.5q-83 0 -146.5 33t-99.5 102t-36 171v383q0 13 5 17.5t17 4.5h55q13 0 18 -4.5t5 -17.5v-377q0 -103 48 -160t138 -57q60 0 102.5 26t65 74.5t22.5 115.5v378q0 13 5 17.5t16 4.5h56q13 0 18 -4.5t5 -17.5v-380
q0 -101 -37.5 -170.5zM279 938q4 0 8.5 -2t9.5 -6l144 -118q10 -7 10 -14q0 -5 -9 -13l-25 -20q-9 -7 -14 -7q-3 0 -8 2.5t-10 5.5l-150 108q-11 8 -11 16q0 7 8 15l29 24q11 9 18 9z" />
    <glyph glyph-name="uacute" unicode="&#xfa;" horiz-adv-x="743" 
d="M622.5 127.5q-37.5 -69.5 -104 -104t-152.5 -34.5q-83 0 -146.5 33t-99.5 102t-36 171v383q0 13 5 17.5t17 4.5h55q13 0 18 -4.5t5 -17.5v-377q0 -103 48 -160t138 -57q60 0 102.5 26t65 74.5t22.5 115.5v378q0 13 5 17.5t16 4.5h56q13 0 18 -4.5t5 -17.5v-380
q0 -101 -37.5 -170.5zM518 890q0 -8 -11 -16l-150 -108q-5 -3 -10 -5.5t-8 -2.5q-5 0 -14 7l-25 20q-8 8 -8 13q0 7 9 14l144 118q5 4 9.5 6t8.5 2q7 0 18 -9l29 -24q8 -8 8 -15z" />
    <glyph glyph-name="ucircumflex" unicode="&#xfb;" horiz-adv-x="743" 
d="M622.5 127.5q-37.5 -69.5 -104 -104t-152.5 -34.5q-83 0 -146.5 33t-99.5 102t-36 171v383q0 13 5 17.5t17 4.5h55q13 0 18 -4.5t5 -17.5v-377q0 -103 48 -160t138 -57q60 0 102.5 26t65 74.5t22.5 115.5v378q0 13 5 17.5t16 4.5h56q13 0 18 -4.5t5 -17.5v-380
q0 -101 -37.5 -170.5zM266 761q-5 -3 -10 -3t-15 5l-30 17q-10 7 -10 14t8 15l109 105q10 9 15.5 11.5t18.5 2.5h38q13 0 18.5 -2.5t15.5 -11.5l109 -105q8 -8 8 -15t-10 -14l-30 -17q-10 -5 -15 -5t-10 3t-10 8l-95 94l-95 -94q-5 -5 -10 -8z" />
    <glyph glyph-name="udieresis" unicode="&#xfc;" horiz-adv-x="743" 
d="M622.5 127.5q-37.5 -69.5 -104 -104t-152.5 -34.5q-83 0 -146.5 33t-99.5 102t-36 171v383q0 13 5 17.5t17 4.5h55q13 0 18 -4.5t5 -17.5v-377q0 -103 48 -160t138 -57q60 0 102.5 26t65 74.5t22.5 115.5v378q0 13 5 17.5t16 4.5h56q13 0 18 -4.5t5 -17.5v-380
q0 -101 -37.5 -170.5zM239.5 852.5q14.5 14.5 38.5 14.5t39 -14.5t15 -38.5q0 -23 -15 -38t-39 -15t-38.5 15t-14.5 38q0 24 14.5 38.5zM424.5 852.5q14.5 14.5 38.5 14.5q25 0 39.5 -14.5t14.5 -38.5q0 -23 -14.5 -38t-39.5 -15q-24 0 -38.5 15t-14.5 38q0 24 14.5 38.5z
" />
    <glyph glyph-name="yacute" unicode="&#xfd;" horiz-adv-x="603" 
d="M487 675q10 16 17 20.5t23 4.5h59q9 0 14 -3t5 -8q0 -4 -5 -14l-248 -411v-242q0 -13 -5 -17.5t-17 -4.5h-56q-12 0 -17 4.5t-5 17.5v237l-248 416q-5 10 -5 14q0 6 4.5 8.5t13.5 2.5h62q17 0 24 -4.5t17 -20.5l183 -316zM449 890q0 -8 -11 -16l-150 -108q-5 -3 -10 -5.5
t-8 -2.5q-5 0 -14 7l-25 20q-8 8 -8 13q0 7 9 14l144 118q5 4 9.5 6t8.5 2q7 0 18 -9l29 -24q8 -8 8 -15z" />
    <glyph glyph-name="thorn" unicode="&#xfe;" horiz-adv-x="624" 
d="M190.5 584q2.5 -3 9.5 -3h107q139 0 209.5 -56.5t70.5 -165.5q0 -72 -34 -124t-99.5 -79t-158.5 -27h-95q-7 0 -9.5 -2.5t-2.5 -9.5v-95q0 -13 -5 -17.5t-17 -4.5h-56q-12 0 -17 4.5t-5 17.5v656q0 13 5 17.5t17 4.5h56q12 0 17 -4.5t5 -17.5v-85q0 -6 2.5 -9z
M190.5 483.5q-2.5 -2.5 -2.5 -8.5v-240q0 -6 2.5 -9t9.5 -3h95q89 0 138.5 33.5t49.5 100.5q0 68 -47 98.5t-138 30.5h-98q-7 0 -9.5 -2.5z" />
    <glyph glyph-name="ydieresis" unicode="&#xff;" horiz-adv-x="603" 
d="M487 675q10 16 17 20.5t23 4.5h59q9 0 14 -3t5 -8q0 -4 -5 -14l-248 -411v-242q0 -13 -5 -17.5t-17 -4.5h-56q-12 0 -17 4.5t-5 17.5v237l-248 416q-5 10 -5 14q0 6 4.5 8.5t13.5 2.5h62q17 0 24 -4.5t17 -20.5l183 -316zM170.5 852.5q14.5 14.5 38.5 14.5t39 -14.5
t15 -38.5q0 -23 -15 -38t-39 -15t-38.5 15t-14.5 38q0 24 14.5 38.5zM355.5 852.5q14.5 14.5 38.5 14.5q25 0 39.5 -14.5t14.5 -38.5q0 -23 -14.5 -38t-39.5 -15q-24 0 -38.5 15t-14.5 38q0 24 14.5 38.5z" />
    <glyph glyph-name="Amacron" unicode="&#x100;" 
d="M111 30q-8 -18 -16 -24t-24 -6h-52q-20 0 -20 13q0 5 5 17l301 634q15 31 22 40.5t17 9.5q9 0 15.5 -9.5t21.5 -40.5l304 -634q5 -12 5 -17q0 -13 -21 -13h-56q-16 0 -23.5 6t-16.5 24l-231 498zM206.5 786q-4.5 4 -4.5 16v36q0 12 4.5 16.5t17.5 4.5h240q13 0 17.5 -4.5
t4.5 -16.5v-36q0 -12 -4.5 -16t-17.5 -4h-240q-13 0 -17.5 4z" />
    <glyph glyph-name="amacron" unicode="&#x101;" 
d="M111 30q-8 -18 -16 -24t-24 -6h-52q-20 0 -20 13q0 5 5 17l301 634q15 31 22 40.5t17 9.5q9 0 15.5 -9.5t21.5 -40.5l304 -634q5 -12 5 -17q0 -13 -21 -13h-56q-16 0 -23.5 6t-16.5 24l-231 498zM206.5 786q-4.5 4 -4.5 16v36q0 12 4.5 16.5t17.5 4.5h240q13 0 17.5 -4.5
t4.5 -16.5v-36q0 -12 -4.5 -16t-17.5 -4h-240q-13 0 -17.5 4z" />
    <glyph glyph-name="Abreve" unicode="&#x102;" 
d="M111 30q-8 -18 -16 -24t-24 -6h-52q-20 0 -20 13q0 5 5 17l301 634q15 31 22 40.5t17 9.5q9 0 15.5 -9.5t21.5 -40.5l304 -634q5 -12 5 -17q0 -13 -21 -13h-56q-16 0 -23.5 6t-16.5 24l-231 498zM259 776q-33 18 -48.5 49t-15.5 69q0 9 3 12.5t11 3.5h44q8 0 11 -3t5 -12
q4 -31 22.5 -48t52.5 -17q33 0 52 17.5t23 47.5q2 9 5 12t11 3h44q8 0 11 -3.5t3 -12.5q0 -37 -16 -68t-49.5 -49.5t-85.5 -18.5q-50 0 -83 18z" />
    <glyph glyph-name="abreve" unicode="&#x103;" 
d="M111 30q-8 -18 -16 -24t-24 -6h-52q-20 0 -20 13q0 5 5 17l301 634q15 31 22 40.5t17 9.5q9 0 15.5 -9.5t21.5 -40.5l304 -634q5 -12 5 -17q0 -13 -21 -13h-56q-16 0 -23.5 6t-16.5 24l-231 498zM259 776q-33 18 -48.5 49t-15.5 69q0 9 3 12.5t11 3.5h44q8 0 11 -3t5 -12
q4 -31 22.5 -48t52.5 -17q33 0 52 17.5t23 47.5q2 9 5 12t11 3h44q8 0 11 -3.5t3 -12.5q0 -37 -16 -68t-49.5 -49.5t-85.5 -18.5q-50 0 -83 18z" />
    <glyph glyph-name="Aogonek" unicode="&#x104;" 
d="M111 30q-8 -18 -16 -24t-24 -6h-52q-20 0 -20 13q0 5 5 17l301 634q15 31 22 40.5t17 9.5q9 0 15.5 -9.5t21.5 -40.5l304 -634q5 -12 5 -17q0 -13 -21 -13h-33q-30 -16 -47 -38.5t-17 -47.5q0 -24 17 -39t41 -15q29 0 56 15q7 4 12 4q7 0 11 -9l12 -23q3 -6 3 -11
q0 -10 -12 -17q-41 -25 -90 -25q-36 0 -64 14t-43.5 38.5t-15.5 55.5q0 34 20.5 64.5t58.5 53.5l-236 508z" />
    <glyph glyph-name="aogonek" unicode="&#x105;" 
d="M111 30q-8 -18 -16 -24t-24 -6h-52q-20 0 -20 13q0 5 5 17l301 634q15 31 22 40.5t17 9.5q9 0 15.5 -9.5t21.5 -40.5l304 -634q5 -12 5 -17q0 -13 -21 -13h-33q-30 -16 -47 -38.5t-17 -47.5q0 -24 17 -39t41 -15q29 0 56 15q7 4 12 4q7 0 11 -9l12 -23q3 -6 3 -11
q0 -10 -12 -17q-41 -25 -90 -25q-36 0 -64 14t-43.5 38.5t-15.5 55.5q0 34 20.5 64.5t58.5 53.5l-236 508z" />
    <glyph glyph-name="Cacute" unicode="&#x106;" horiz-adv-x="701" 
d="M607 156q11 9 17 9q4 0 8 -3t7 -7l29 -40q5 -6 5 -14q0 -4 -3 -8.5t-9 -9.5q-53 -45 -119.5 -69.5t-139.5 -24.5q-98 0 -179.5 46t-129 128t-47.5 184q0 103 47.5 186t130 130.5t184.5 47.5q72 0 137.5 -25t116.5 -68q10 -7 10 -15q0 -7 -6 -16l-29 -39q-8 -11 -16 -11
q-6 0 -17 8q-43 33 -93 52t-105 19q-71 0 -129.5 -34t-92.5 -95t-34 -138q0 -74 33.5 -135t92 -95.5t130.5 -34.5q113 0 201 72zM535 890q0 -8 -11 -16l-150 -108q-5 -3 -10 -5.5t-8 -2.5q-5 0 -14 7l-25 20q-8 8 -8 13q0 7 9 14l144 118q5 4 9.5 6t8.5 2q7 0 18 -9l29 -24
q8 -8 8 -15z" />
    <glyph glyph-name="cacute" unicode="&#x107;" horiz-adv-x="701" 
d="M607 156q11 9 17 9q4 0 8 -3t7 -7l29 -40q5 -6 5 -14q0 -4 -3 -8.5t-9 -9.5q-53 -45 -119.5 -69.5t-139.5 -24.5q-98 0 -179.5 46t-129 128t-47.5 184q0 103 47.5 186t130 130.5t184.5 47.5q72 0 137.5 -25t116.5 -68q10 -7 10 -15q0 -7 -6 -16l-29 -39q-8 -11 -16 -11
q-6 0 -17 8q-43 33 -93 52t-105 19q-71 0 -129.5 -34t-92.5 -95t-34 -138q0 -74 33.5 -135t92 -95.5t130.5 -34.5q113 0 201 72zM535 890q0 -8 -11 -16l-150 -108q-5 -3 -10 -5.5t-8 -2.5q-5 0 -14 7l-25 20q-8 8 -8 13q0 7 9 14l144 118q5 4 9.5 6t8.5 2q7 0 18 -9l29 -24
q8 -8 8 -15z" />
    <glyph glyph-name="Ccircumflex" unicode="&#x108;" horiz-adv-x="701" 
d="M607 156q11 9 17 9q4 0 8 -3t7 -7l29 -40q5 -6 5 -14q0 -4 -3 -8.5t-9 -9.5q-53 -45 -119.5 -69.5t-139.5 -24.5q-98 0 -179.5 46t-129 128t-47.5 184q0 103 47.5 186t130 130.5t184.5 47.5q72 0 137.5 -25t116.5 -68q10 -7 10 -15q0 -7 -6 -16l-29 -39q-8 -11 -16 -11
q-6 0 -17 8q-43 33 -93 52t-105 19q-71 0 -129.5 -34t-92.5 -95t-34 -138q0 -74 33.5 -135t92 -95.5t130.5 -34.5q113 0 201 72zM283 761q-5 -3 -10 -3t-15 5l-30 17q-10 7 -10 14t8 15l109 105q10 9 15.5 11.5t18.5 2.5h38q13 0 18.5 -2.5t15.5 -11.5l109 -105q8 -8 8 -15
t-10 -14l-30 -17q-10 -5 -15 -5t-10 3t-10 8l-95 94l-95 -94q-5 -5 -10 -8z" />
    <glyph glyph-name="ccircumflex" unicode="&#x109;" horiz-adv-x="701" 
d="M607 156q11 9 17 9q4 0 8 -3t7 -7l29 -40q5 -6 5 -14q0 -4 -3 -8.5t-9 -9.5q-53 -45 -119.5 -69.5t-139.5 -24.5q-98 0 -179.5 46t-129 128t-47.5 184q0 103 47.5 186t130 130.5t184.5 47.5q72 0 137.5 -25t116.5 -68q10 -7 10 -15q0 -7 -6 -16l-29 -39q-8 -11 -16 -11
q-6 0 -17 8q-43 33 -93 52t-105 19q-71 0 -129.5 -34t-92.5 -95t-34 -138q0 -74 33.5 -135t92 -95.5t130.5 -34.5q113 0 201 72zM283 761q-5 -3 -10 -3t-15 5l-30 17q-10 7 -10 14t8 15l109 105q10 9 15.5 11.5t18.5 2.5h38q13 0 18.5 -2.5t15.5 -11.5l109 -105q8 -8 8 -15
t-10 -14l-30 -17q-10 -5 -15 -5t-10 3t-10 8l-95 94l-95 -94q-5 -5 -10 -8z" />
    <glyph glyph-name="Cdotaccent" unicode="&#x10a;" horiz-adv-x="701" 
d="M607 156q11 9 17 9q4 0 8 -3t7 -7l29 -40q5 -6 5 -14q0 -4 -3 -8.5t-9 -9.5q-53 -45 -119.5 -69.5t-139.5 -24.5q-98 0 -179.5 46t-129 128t-47.5 184q0 103 47.5 186t130 130.5t184.5 47.5q72 0 137.5 -25t116.5 -68q10 -7 10 -15q0 -7 -6 -16l-29 -39q-8 -11 -16 -11
q-6 0 -17 8q-43 33 -93 52t-105 19q-71 0 -129.5 -34t-92.5 -95t-34 -138q0 -74 33.5 -135t92 -95.5t130.5 -34.5q113 0 201 72zM346 855q17 16 42 16q26 0 42.5 -16t16.5 -41t-16.5 -40.5t-42.5 -15.5q-25 0 -42 16t-17 40q0 25 17 41z" />
    <glyph glyph-name="cdotaccent" unicode="&#x10b;" horiz-adv-x="701" 
d="M607 156q11 9 17 9q4 0 8 -3t7 -7l29 -40q5 -6 5 -14q0 -4 -3 -8.5t-9 -9.5q-53 -45 -119.5 -69.5t-139.5 -24.5q-98 0 -179.5 46t-129 128t-47.5 184q0 103 47.5 186t130 130.5t184.5 47.5q72 0 137.5 -25t116.5 -68q10 -7 10 -15q0 -7 -6 -16l-29 -39q-8 -11 -16 -11
q-6 0 -17 8q-43 33 -93 52t-105 19q-71 0 -129.5 -34t-92.5 -95t-34 -138q0 -74 33.5 -135t92 -95.5t130.5 -34.5q113 0 201 72zM346 855q17 16 42 16q26 0 42.5 -16t16.5 -41t-16.5 -40.5t-42.5 -15.5q-25 0 -42 16t-17 40q0 25 17 41z" />
    <glyph glyph-name="Ccaron" unicode="&#x10c;" horiz-adv-x="701" 
d="M607 156q11 9 17 9q4 0 8 -3t7 -7l29 -40q5 -6 5 -14q0 -4 -3 -8.5t-9 -9.5q-53 -45 -119.5 -69.5t-139.5 -24.5q-98 0 -179.5 46t-129 128t-47.5 184q0 103 47.5 186t130 130.5t184.5 47.5q72 0 137.5 -25t116.5 -68q10 -7 10 -15q0 -7 -6 -16l-29 -39q-8 -11 -16 -11
q-6 0 -17 8q-43 33 -93 52t-105 19q-71 0 -129.5 -34t-92.5 -95t-34 -138q0 -74 33.5 -135t92 -95.5t130.5 -34.5q113 0 201 72zM493 925q5 3 10 3t15 -5l30 -18q10 -6 10 -13t-8 -15l-109 -105q-10 -9 -15.5 -11.5t-18.5 -2.5h-38q-13 0 -18.5 2.5t-15.5 11.5l-109 105
q-8 8 -8 15t10 13l30 18q10 5 15 5t10 -3t10 -8l95 -94l95 94q5 5 10 8z" />
    <glyph glyph-name="ccaron" unicode="&#x10d;" horiz-adv-x="701" 
d="M607 156q11 9 17 9q4 0 8 -3t7 -7l29 -40q5 -6 5 -14q0 -4 -3 -8.5t-9 -9.5q-53 -45 -119.5 -69.5t-139.5 -24.5q-98 0 -179.5 46t-129 128t-47.5 184q0 103 47.5 186t130 130.5t184.5 47.5q72 0 137.5 -25t116.5 -68q10 -7 10 -15q0 -7 -6 -16l-29 -39q-8 -11 -16 -11
q-6 0 -17 8q-43 33 -93 52t-105 19q-71 0 -129.5 -34t-92.5 -95t-34 -138q0 -74 33.5 -135t92 -95.5t130.5 -34.5q113 0 201 72zM493 925q5 3 10 3t15 -5l30 -18q10 -6 10 -13t-8 -15l-109 -105q-10 -9 -15.5 -11.5t-18.5 -2.5h-38q-13 0 -18.5 2.5t-15.5 11.5l-109 105
q-8 8 -8 15t10 13l30 18q10 5 15 5t10 -3t10 -8l95 -94l95 94q5 5 10 8z" />
    <glyph glyph-name="Dcaron" unicode="&#x10e;" horiz-adv-x="742" 
d="M93 695.5q5 4.5 17 4.5h208q116 0 201.5 -42.5t131 -119.5t45.5 -180q0 -108 -47.5 -189t-136 -125t-208.5 -44h-194q-12 0 -17 4.5t-5 17.5v656q0 13 5 17.5zM190.5 602.5q-2.5 -2.5 -2.5 -8.5v-488q0 -6 2.5 -8.5t9.5 -2.5h106q90 0 154.5 31.5t98 89.5t33.5 138
q0 75 -33.5 132t-97 88t-151.5 31h-110q-7 0 -9.5 -2.5zM458 925q5 3 10 3t15 -5l30 -18q10 -6 10 -13t-8 -15l-109 -105q-10 -9 -15.5 -11.5t-18.5 -2.5h-38q-13 0 -18.5 2.5t-15.5 11.5l-109 105q-8 8 -8 15t10 13l30 18q10 5 15 5t10 -3t10 -8l95 -94l95 94q5 5 10 8z
" />
    <glyph glyph-name="dcaron" unicode="&#x10f;" horiz-adv-x="742" 
d="M93 695.5q5 4.5 17 4.5h208q116 0 201.5 -42.5t131 -119.5t45.5 -180q0 -108 -47.5 -189t-136 -125t-208.5 -44h-194q-12 0 -17 4.5t-5 17.5v656q0 13 5 17.5zM190.5 602.5q-2.5 -2.5 -2.5 -8.5v-488q0 -6 2.5 -8.5t9.5 -2.5h106q90 0 154.5 31.5t98 89.5t33.5 138
q0 75 -33.5 132t-97 88t-151.5 31h-110q-7 0 -9.5 -2.5zM458 925q5 3 10 3t15 -5l30 -18q10 -6 10 -13t-8 -15l-109 -105q-10 -9 -15.5 -11.5t-18.5 -2.5h-38q-13 0 -18.5 2.5t-15.5 11.5l-109 105q-8 8 -8 15t10 13l30 18q10 5 15 5t10 -3t10 -8l95 -94l95 94q5 5 10 8z
" />
    <glyph glyph-name="Dcroat" unicode="&#x110;" horiz-adv-x="744" 
d="M78 310h-42q-13 0 -17.5 4t-4.5 16v44q0 12 4.5 16t17.5 4h42q10 0 10 10v274q0 13 5 17.5t17 4.5h208q116 0 201.5 -42.5t131 -119.5t45.5 -180q0 -108 -47.5 -189t-136 -125t-208.5 -44h-194q-12 0 -17 4.5t-5 17.5v278q0 10 -10 10zM190.5 602.5q-2.5 -2.5 -2.5 -8.5
v-190q0 -10 10 -10h155q13 0 17.5 -4t4.5 -16v-44q0 -12 -4.5 -16t-17.5 -4h-155q-10 0 -10 -10v-194q0 -6 2.5 -8.5t9.5 -2.5h106q90 0 154.5 31.5t98 89.5t33.5 138q0 75 -33.5 132t-97 88t-151.5 31h-110q-7 0 -9.5 -2.5z" />
    <glyph glyph-name="dcroat" unicode="&#x111;" horiz-adv-x="744" 
d="M78 310h-42q-13 0 -17.5 4t-4.5 16v44q0 12 4.5 16t17.5 4h42q10 0 10 10v274q0 13 5 17.5t17 4.5h208q116 0 201.5 -42.5t131 -119.5t45.5 -180q0 -108 -47.5 -189t-136 -125t-208.5 -44h-194q-12 0 -17 4.5t-5 17.5v278q0 10 -10 10zM190.5 602.5q-2.5 -2.5 -2.5 -8.5
v-190q0 -10 10 -10h155q13 0 17.5 -4t4.5 -16v-44q0 -12 -4.5 -16t-17.5 -4h-155q-10 0 -10 -10v-194q0 -6 2.5 -8.5t9.5 -2.5h106q90 0 154.5 31.5t98 89.5t33.5 138q0 75 -33.5 132t-97 88t-151.5 31h-110q-7 0 -9.5 -2.5z" />
    <glyph glyph-name="Emacron" unicode="&#x112;" horiz-adv-x="565" 
d="M506 90.5q5 -4.5 5 -17.5v-51q0 -13 -5 -17.5t-17 -4.5h-379q-12 0 -17 4.5t-5 17.5v656q0 13 5 17.5t17 4.5h378q12 0 17 -4.5t5 -17.5v-51q0 -13 -5 -17.5t-17 -4.5h-288q-7 0 -9.5 -2.5t-2.5 -8.5v-183q0 -7 2.5 -9.5t9.5 -2.5h254q12 0 17 -4.5t5 -17.5v-50
q0 -12 -5 -17t-17 -5h-254q-7 0 -9.5 -2.5t-2.5 -8.5v-188q0 -6 2.5 -8.5t9.5 -2.5h289q12 0 17 -4.5zM161.5 786q-4.5 4 -4.5 16v36q0 12 4.5 16.5t17.5 4.5h240q13 0 17.5 -4.5t4.5 -16.5v-36q0 -12 -4.5 -16t-17.5 -4h-240q-13 0 -17.5 4z" />
    <glyph glyph-name="emacron" unicode="&#x113;" horiz-adv-x="565" 
d="M506 90.5q5 -4.5 5 -17.5v-51q0 -13 -5 -17.5t-17 -4.5h-379q-12 0 -17 4.5t-5 17.5v656q0 13 5 17.5t17 4.5h378q12 0 17 -4.5t5 -17.5v-51q0 -13 -5 -17.5t-17 -4.5h-288q-7 0 -9.5 -2.5t-2.5 -8.5v-183q0 -7 2.5 -9.5t9.5 -2.5h254q12 0 17 -4.5t5 -17.5v-50
q0 -12 -5 -17t-17 -5h-254q-7 0 -9.5 -2.5t-2.5 -8.5v-188q0 -6 2.5 -8.5t9.5 -2.5h289q12 0 17 -4.5zM161.5 786q-4.5 4 -4.5 16v36q0 12 4.5 16.5t17.5 4.5h240q13 0 17.5 -4.5t4.5 -16.5v-36q0 -12 -4.5 -16t-17.5 -4h-240q-13 0 -17.5 4z" />
    <glyph glyph-name="Ebreve" unicode="&#x114;" horiz-adv-x="565" 
d="M506 90.5q5 -4.5 5 -17.5v-51q0 -13 -5 -17.5t-17 -4.5h-379q-12 0 -17 4.5t-5 17.5v656q0 13 5 17.5t17 4.5h378q12 0 17 -4.5t5 -17.5v-51q0 -13 -5 -17.5t-17 -4.5h-288q-7 0 -9.5 -2.5t-2.5 -8.5v-183q0 -7 2.5 -9.5t9.5 -2.5h254q12 0 17 -4.5t5 -17.5v-50
q0 -12 -5 -17t-17 -5h-254q-7 0 -9.5 -2.5t-2.5 -8.5v-188q0 -6 2.5 -8.5t9.5 -2.5h289q12 0 17 -4.5zM214 776q-33 18 -48.5 49t-15.5 69q0 9 3 12.5t11 3.5h44q8 0 11 -3t5 -12q4 -31 22.5 -48t52.5 -17q33 0 52 17.5t23 47.5q2 9 5 12t11 3h44q8 0 11 -3.5t3 -12.5
q0 -37 -16 -68t-49.5 -49.5t-85.5 -18.5q-50 0 -83 18z" />
    <glyph glyph-name="ebreve" unicode="&#x115;" horiz-adv-x="565" 
d="M506 90.5q5 -4.5 5 -17.5v-51q0 -13 -5 -17.5t-17 -4.5h-379q-12 0 -17 4.5t-5 17.5v656q0 13 5 17.5t17 4.5h378q12 0 17 -4.5t5 -17.5v-51q0 -13 -5 -17.5t-17 -4.5h-288q-7 0 -9.5 -2.5t-2.5 -8.5v-183q0 -7 2.5 -9.5t9.5 -2.5h254q12 0 17 -4.5t5 -17.5v-50
q0 -12 -5 -17t-17 -5h-254q-7 0 -9.5 -2.5t-2.5 -8.5v-188q0 -6 2.5 -8.5t9.5 -2.5h289q12 0 17 -4.5zM214 776q-33 18 -48.5 49t-15.5 69q0 9 3 12.5t11 3.5h44q8 0 11 -3t5 -12q4 -31 22.5 -48t52.5 -17q33 0 52 17.5t23 47.5q2 9 5 12t11 3h44q8 0 11 -3.5t3 -12.5
q0 -37 -16 -68t-49.5 -49.5t-85.5 -18.5q-50 0 -83 18z" />
    <glyph glyph-name="Edotaccent" unicode="&#x116;" horiz-adv-x="565" 
d="M506 90.5q5 -4.5 5 -17.5v-51q0 -13 -5 -17.5t-17 -4.5h-379q-12 0 -17 4.5t-5 17.5v656q0 13 5 17.5t17 4.5h378q12 0 17 -4.5t5 -17.5v-51q0 -13 -5 -17.5t-17 -4.5h-288q-7 0 -9.5 -2.5t-2.5 -8.5v-183q0 -7 2.5 -9.5t9.5 -2.5h254q12 0 17 -4.5t5 -17.5v-50
q0 -12 -5 -17t-17 -5h-254q-7 0 -9.5 -2.5t-2.5 -8.5v-188q0 -6 2.5 -8.5t9.5 -2.5h289q12 0 17 -4.5zM257 855q17 16 42 16q26 0 42.5 -16t16.5 -41t-16.5 -40.5t-42.5 -15.5q-25 0 -42 16t-17 40q0 25 17 41z" />
    <glyph glyph-name="edotaccent" unicode="&#x117;" horiz-adv-x="565" 
d="M506 90.5q5 -4.5 5 -17.5v-51q0 -13 -5 -17.5t-17 -4.5h-379q-12 0 -17 4.5t-5 17.5v656q0 13 5 17.5t17 4.5h378q12 0 17 -4.5t5 -17.5v-51q0 -13 -5 -17.5t-17 -4.5h-288q-7 0 -9.5 -2.5t-2.5 -8.5v-183q0 -7 2.5 -9.5t9.5 -2.5h254q12 0 17 -4.5t5 -17.5v-50
q0 -12 -5 -17t-17 -5h-254q-7 0 -9.5 -2.5t-2.5 -8.5v-188q0 -6 2.5 -8.5t9.5 -2.5h289q12 0 17 -4.5zM257 855q17 16 42 16q26 0 42.5 -16t16.5 -41t-16.5 -40.5t-42.5 -15.5q-25 0 -42 16t-17 40q0 25 17 41z" />
    <glyph glyph-name="Eogonek" unicode="&#x118;" horiz-adv-x="565" 
d="M506 90.5q5 -4.5 5 -17.5v-51q0 -13 -5 -17.5t-17 -4.5h-82q-30 -16 -47 -38.5t-17 -47.5q0 -24 17 -39t41 -15q29 0 56 15q7 4 12 4q7 0 11 -9l12 -23q3 -6 3 -11q0 -10 -12 -17q-41 -25 -90 -25q-36 0 -64 14t-43.5 38.5t-15.5 55.5q0 27 13 52t38 46h-211
q-12 0 -17 4.5t-5 17.5v656q0 13 5 17.5t17 4.5h378q12 0 17 -4.5t5 -17.5v-51q0 -13 -5 -17.5t-17 -4.5h-288q-7 0 -9.5 -2.5t-2.5 -8.5v-183q0 -7 2.5 -9.5t9.5 -2.5h254q12 0 17 -4.5t5 -17.5v-50q0 -12 -5 -17t-17 -5h-254q-7 0 -9.5 -2.5t-2.5 -8.5v-188q0 -6 2.5 -8.5
t9.5 -2.5h289q12 0 17 -4.5z" />
    <glyph glyph-name="eogonek" unicode="&#x119;" horiz-adv-x="565" 
d="M506 90.5q5 -4.5 5 -17.5v-51q0 -13 -5 -17.5t-17 -4.5h-82q-30 -16 -47 -38.5t-17 -47.5q0 -24 17 -39t41 -15q29 0 56 15q7 4 12 4q7 0 11 -9l12 -23q3 -6 3 -11q0 -10 -12 -17q-41 -25 -90 -25q-36 0 -64 14t-43.5 38.5t-15.5 55.5q0 27 13 52t38 46h-211
q-12 0 -17 4.5t-5 17.5v656q0 13 5 17.5t17 4.5h378q12 0 17 -4.5t5 -17.5v-51q0 -13 -5 -17.5t-17 -4.5h-288q-7 0 -9.5 -2.5t-2.5 -8.5v-183q0 -7 2.5 -9.5t9.5 -2.5h254q12 0 17 -4.5t5 -17.5v-50q0 -12 -5 -17t-17 -5h-254q-7 0 -9.5 -2.5t-2.5 -8.5v-188q0 -6 2.5 -8.5
t9.5 -2.5h289q12 0 17 -4.5z" />
    <glyph glyph-name="Ecaron" unicode="&#x11a;" horiz-adv-x="565" 
d="M506 90.5q5 -4.5 5 -17.5v-51q0 -13 -5 -17.5t-17 -4.5h-379q-12 0 -17 4.5t-5 17.5v656q0 13 5 17.5t17 4.5h378q12 0 17 -4.5t5 -17.5v-51q0 -13 -5 -17.5t-17 -4.5h-288q-7 0 -9.5 -2.5t-2.5 -8.5v-183q0 -7 2.5 -9.5t9.5 -2.5h254q12 0 17 -4.5t5 -17.5v-50
q0 -12 -5 -17t-17 -5h-254q-7 0 -9.5 -2.5t-2.5 -8.5v-188q0 -6 2.5 -8.5t9.5 -2.5h289q12 0 17 -4.5zM404 925q5 3 10 3t15 -5l30 -18q10 -6 10 -13t-8 -15l-109 -105q-10 -9 -15.5 -11.5t-18.5 -2.5h-38q-13 0 -18.5 2.5t-15.5 11.5l-109 105q-8 8 -8 15t10 13l30 18
q10 5 15 5t10 -3t10 -8l95 -94l95 94q5 5 10 8z" />
    <glyph glyph-name="ecaron" unicode="&#x11b;" horiz-adv-x="565" 
d="M506 90.5q5 -4.5 5 -17.5v-51q0 -13 -5 -17.5t-17 -4.5h-379q-12 0 -17 4.5t-5 17.5v656q0 13 5 17.5t17 4.5h378q12 0 17 -4.5t5 -17.5v-51q0 -13 -5 -17.5t-17 -4.5h-288q-7 0 -9.5 -2.5t-2.5 -8.5v-183q0 -7 2.5 -9.5t9.5 -2.5h254q12 0 17 -4.5t5 -17.5v-50
q0 -12 -5 -17t-17 -5h-254q-7 0 -9.5 -2.5t-2.5 -8.5v-188q0 -6 2.5 -8.5t9.5 -2.5h289q12 0 17 -4.5zM404 925q5 3 10 3t15 -5l30 -18q10 -6 10 -13t-8 -15l-109 -105q-10 -9 -15.5 -11.5t-18.5 -2.5h-38q-13 0 -18.5 2.5t-15.5 11.5l-109 105q-8 8 -8 15t10 13l30 18
q10 5 15 5t10 -3t10 -8l95 -94l95 94q5 5 10 8z" />
    <glyph glyph-name="Gcircumflex" unicode="&#x11c;" horiz-adv-x="746" 
d="M675.5 62q-3.5 -6 -14.5 -11q-117 -62 -260 -62q-97 0 -178 44.5t-129 125.5t-48 186q0 108 49 191.5t133 129t186 45.5q71 0 136 -22.5t113 -57.5q13 -9 13 -18q0 -4 -7 -15l-28 -40q-7 -10 -16 -10q-7 0 -16 6q-96 62 -197 62q-76 0 -136 -34t-93 -95t-33 -138
q0 -78 34.5 -139t93 -94t129.5 -33q94 0 158 29q9 4 11.5 7.5t2.5 11.5v178q0 13 5 17.5t17 4.5h56q12 0 17 -4.5t5 -17.5v-229q0 -12 -3.5 -18zM283 761q-5 -3 -10 -3t-15 5l-30 17q-10 7 -10 14t8 15l109 105q10 9 15.5 11.5t18.5 2.5h38q13 0 18.5 -2.5t15.5 -11.5
l109 -105q8 -8 8 -15t-10 -14l-30 -17q-10 -5 -15 -5t-10 3t-10 8l-95 94l-95 -94q-5 -5 -10 -8z" />
    <glyph glyph-name="gcircumflex" unicode="&#x11d;" horiz-adv-x="746" 
d="M675.5 62q-3.5 -6 -14.5 -11q-117 -62 -260 -62q-97 0 -178 44.5t-129 125.5t-48 186q0 108 49 191.5t133 129t186 45.5q71 0 136 -22.5t113 -57.5q13 -9 13 -18q0 -4 -7 -15l-28 -40q-7 -10 -16 -10q-7 0 -16 6q-96 62 -197 62q-76 0 -136 -34t-93 -95t-33 -138
q0 -78 34.5 -139t93 -94t129.5 -33q94 0 158 29q9 4 11.5 7.5t2.5 11.5v178q0 13 5 17.5t17 4.5h56q12 0 17 -4.5t5 -17.5v-229q0 -12 -3.5 -18zM283 761q-5 -3 -10 -3t-15 5l-30 17q-10 7 -10 14t8 15l109 105q10 9 15.5 11.5t18.5 2.5h38q13 0 18.5 -2.5t15.5 -11.5
l109 -105q8 -8 8 -15t-10 -14l-30 -17q-10 -5 -15 -5t-10 3t-10 8l-95 94l-95 -94q-5 -5 -10 -8z" />
    <glyph glyph-name="Gbreve" unicode="&#x11e;" horiz-adv-x="746" 
d="M675.5 62q-3.5 -6 -14.5 -11q-117 -62 -260 -62q-97 0 -178 44.5t-129 125.5t-48 186q0 108 49 191.5t133 129t186 45.5q71 0 136 -22.5t113 -57.5q13 -9 13 -18q0 -4 -7 -15l-28 -40q-7 -10 -16 -10q-7 0 -16 6q-96 62 -197 62q-76 0 -136 -34t-93 -95t-33 -138
q0 -78 34.5 -139t93 -94t129.5 -33q94 0 158 29q9 4 11.5 7.5t2.5 11.5v178q0 13 5 17.5t17 4.5h56q12 0 17 -4.5t5 -17.5v-229q0 -12 -3.5 -18zM303 776q-33 18 -48.5 49t-15.5 69q0 9 3 12.5t11 3.5h44q8 0 11 -3t5 -12q4 -31 22.5 -48t52.5 -17q33 0 52 17.5t23 47.5
q2 9 5 12t11 3h44q8 0 11 -3.5t3 -12.5q0 -37 -16 -68t-49.5 -49.5t-85.5 -18.5q-50 0 -83 18z" />
    <glyph glyph-name="gbreve" unicode="&#x11f;" horiz-adv-x="746" 
d="M675.5 62q-3.5 -6 -14.5 -11q-117 -62 -260 -62q-97 0 -178 44.5t-129 125.5t-48 186q0 108 49 191.5t133 129t186 45.5q71 0 136 -22.5t113 -57.5q13 -9 13 -18q0 -4 -7 -15l-28 -40q-7 -10 -16 -10q-7 0 -16 6q-96 62 -197 62q-76 0 -136 -34t-93 -95t-33 -138
q0 -78 34.5 -139t93 -94t129.5 -33q94 0 158 29q9 4 11.5 7.5t2.5 11.5v178q0 13 5 17.5t17 4.5h56q12 0 17 -4.5t5 -17.5v-229q0 -12 -3.5 -18zM303 776q-33 18 -48.5 49t-15.5 69q0 9 3 12.5t11 3.5h44q8 0 11 -3t5 -12q4 -31 22.5 -48t52.5 -17q33 0 52 17.5t23 47.5
q2 9 5 12t11 3h44q8 0 11 -3.5t3 -12.5q0 -37 -16 -68t-49.5 -49.5t-85.5 -18.5q-50 0 -83 18z" />
    <glyph glyph-name="Gdotaccent" unicode="&#x120;" horiz-adv-x="746" 
d="M675.5 62q-3.5 -6 -14.5 -11q-117 -62 -260 -62q-97 0 -178 44.5t-129 125.5t-48 186q0 108 49 191.5t133 129t186 45.5q71 0 136 -22.5t113 -57.5q13 -9 13 -18q0 -4 -7 -15l-28 -40q-7 -10 -16 -10q-7 0 -16 6q-96 62 -197 62q-76 0 -136 -34t-93 -95t-33 -138
q0 -78 34.5 -139t93 -94t129.5 -33q94 0 158 29q9 4 11.5 7.5t2.5 11.5v178q0 13 5 17.5t17 4.5h56q12 0 17 -4.5t5 -17.5v-229q0 -12 -3.5 -18zM346 855q17 16 42 16q26 0 42.5 -16t16.5 -41t-16.5 -40.5t-42.5 -15.5q-25 0 -42 16t-17 40q0 25 17 41z" />
    <glyph glyph-name="gdotaccent" unicode="&#x121;" horiz-adv-x="746" 
d="M675.5 62q-3.5 -6 -14.5 -11q-117 -62 -260 -62q-97 0 -178 44.5t-129 125.5t-48 186q0 108 49 191.5t133 129t186 45.5q71 0 136 -22.5t113 -57.5q13 -9 13 -18q0 -4 -7 -15l-28 -40q-7 -10 -16 -10q-7 0 -16 6q-96 62 -197 62q-76 0 -136 -34t-93 -95t-33 -138
q0 -78 34.5 -139t93 -94t129.5 -33q94 0 158 29q9 4 11.5 7.5t2.5 11.5v178q0 13 5 17.5t17 4.5h56q12 0 17 -4.5t5 -17.5v-229q0 -12 -3.5 -18zM346 855q17 16 42 16q26 0 42.5 -16t16.5 -41t-16.5 -40.5t-42.5 -15.5q-25 0 -42 16t-17 40q0 25 17 41z" />
    <glyph glyph-name="Gcommaaccent" unicode="&#x122;" horiz-adv-x="746" 
d="M675.5 62q-3.5 -6 -14.5 -11q-117 -62 -260 -62q-97 0 -178 44.5t-129 125.5t-48 186q0 108 49 191.5t133 129t186 45.5q71 0 136 -22.5t113 -57.5q13 -9 13 -18q0 -4 -7 -15l-28 -40q-7 -10 -16 -10q-7 0 -16 6q-96 62 -197 62q-76 0 -136 -34t-93 -95t-33 -138
q0 -78 34.5 -139t93 -94t129.5 -33q94 0 158 29q9 4 11.5 7.5t2.5 11.5v178q0 13 5 17.5t17 4.5h56q12 0 17 -4.5t5 -17.5v-229q0 -12 -3.5 -18zM433.5 -54.5q17.5 -16.5 17.5 -44.5q0 -18 -6 -35.5t-20 -43.5l-24 -47q-6 -10 -11.5 -13t-17.5 -3h-31q-16 0 -16 10q0 3 4 11
l38 69q-18 4 -29.5 18t-11.5 36q0 26 18 42.5t45 16.5t44.5 -16.5z" />
    <glyph glyph-name="gcommaaccent" unicode="&#x123;" horiz-adv-x="746" 
d="M675.5 62q-3.5 -6 -14.5 -11q-117 -62 -260 -62q-97 0 -178 44.5t-129 125.5t-48 186q0 108 49 191.5t133 129t186 45.5q71 0 136 -22.5t113 -57.5q13 -9 13 -18q0 -4 -7 -15l-28 -40q-7 -10 -16 -10q-7 0 -16 6q-96 62 -197 62q-76 0 -136 -34t-93 -95t-33 -138
q0 -78 34.5 -139t93 -94t129.5 -33q94 0 158 29q9 4 11.5 7.5t2.5 11.5v178q0 13 5 17.5t17 4.5h56q12 0 17 -4.5t5 -17.5v-229q0 -12 -3.5 -18zM433.5 -54.5q17.5 -16.5 17.5 -44.5q0 -18 -6 -35.5t-20 -43.5l-24 -47q-6 -10 -11.5 -13t-17.5 -3h-31q-16 0 -16 10q0 3 4 11
l38 69q-18 4 -29.5 18t-11.5 36q0 26 18 42.5t45 16.5t44.5 -16.5z" />
    <glyph glyph-name="Hcircumflex" unicode="&#x124;" horiz-adv-x="731" 
d="M638 4.5q-5 -4.5 -17 -4.5h-56q-12 0 -17 4.5t-5 17.5v279q0 6 -2.5 8.5t-9.5 2.5h-331q-7 0 -9.5 -2.5t-2.5 -8.5v-279q0 -13 -5 -17.5t-17 -4.5h-56q-12 0 -17 4.5t-5 17.5v656q0 13 5 17.5t17 4.5h56q12 0 17 -4.5t5 -17.5v-260q0 -6 2.5 -9t9.5 -3h331q7 0 9.5 3
t2.5 9v260q0 13 5 17.5t17 4.5h56q12 0 17 -4.5t5 -17.5v-656q0 -13 -5 -17.5zM260 761q-5 -3 -10 -3t-15 5l-30 17q-10 7 -10 14t8 15l109 105q10 9 15.5 11.5t18.5 2.5h38q13 0 18.5 -2.5t15.5 -11.5l109 -105q8 -8 8 -15t-10 -14l-30 -17q-10 -5 -15 -5t-10 3t-10 8
l-95 94l-95 -94q-5 -5 -10 -8z" />
    <glyph glyph-name="hcircumflex" unicode="&#x125;" horiz-adv-x="731" 
d="M638 4.5q-5 -4.5 -17 -4.5h-56q-12 0 -17 4.5t-5 17.5v279q0 6 -2.5 8.5t-9.5 2.5h-331q-7 0 -9.5 -2.5t-2.5 -8.5v-279q0 -13 -5 -17.5t-17 -4.5h-56q-12 0 -17 4.5t-5 17.5v656q0 13 5 17.5t17 4.5h56q12 0 17 -4.5t5 -17.5v-260q0 -6 2.5 -9t9.5 -3h331q7 0 9.5 3
t2.5 9v260q0 13 5 17.5t17 4.5h56q12 0 17 -4.5t5 -17.5v-656q0 -13 -5 -17.5zM260 761q-5 -3 -10 -3t-15 5l-30 17q-10 7 -10 14t8 15l109 105q10 9 15.5 11.5t18.5 2.5h38q13 0 18.5 -2.5t15.5 -11.5l109 -105q8 -8 8 -15t-10 -14l-30 -17q-10 -5 -15 -5t-10 3t-10 8
l-95 94l-95 -94q-5 -5 -10 -8z" />
    <glyph glyph-name="Hbar" unicode="&#x126;" horiz-adv-x="731" 
d="M78 512h-42q-13 0 -17.5 4t-4.5 17v40q0 12 4.5 16t17.5 4h42q10 0 10 10v75q0 13 5 17.5t17 4.5h56q12 0 17 -4.5t5 -17.5v-75q0 -10 10 -10h335q10 0 10 10v75q0 13 5 17.5t17 4.5h56q12 0 17 -4.5t5 -17.5v-75q0 -10 10 -10h42q13 0 17.5 -4t4.5 -16v-40
q0 -13 -4.5 -17t-17.5 -4h-42q-10 0 -10 -10v-480q0 -13 -5 -17.5t-17 -4.5h-56q-12 0 -17 4.5t-5 17.5v278q0 7 -2.5 9.5t-9.5 2.5h-331q-7 0 -9.5 -2.5t-2.5 -9.5v-278q0 -13 -5 -17.5t-17 -4.5h-56q-12 0 -17 4.5t-5 17.5v480q0 10 -10 10zM540.5 402.5q2.5 2.5 2.5 9.5
v90q0 10 -10 10h-335q-10 0 -10 -10v-90q0 -7 2.5 -9.5t9.5 -2.5h331q7 0 9.5 2.5z" />
    <glyph glyph-name="hbar" unicode="&#x127;" horiz-adv-x="731" 
d="M78 512h-42q-13 0 -17.5 4t-4.5 17v40q0 12 4.5 16t17.5 4h42q10 0 10 10v75q0 13 5 17.5t17 4.5h56q12 0 17 -4.5t5 -17.5v-75q0 -10 10 -10h335q10 0 10 10v75q0 13 5 17.5t17 4.5h56q12 0 17 -4.5t5 -17.5v-75q0 -10 10 -10h42q13 0 17.5 -4t4.5 -16v-40
q0 -13 -4.5 -17t-17.5 -4h-42q-10 0 -10 -10v-480q0 -13 -5 -17.5t-17 -4.5h-56q-12 0 -17 4.5t-5 17.5v278q0 7 -2.5 9.5t-9.5 2.5h-331q-7 0 -9.5 -2.5t-2.5 -9.5v-278q0 -13 -5 -17.5t-17 -4.5h-56q-12 0 -17 4.5t-5 17.5v480q0 10 -10 10zM540.5 402.5q2.5 2.5 2.5 9.5
v90q0 10 -10 10h-335q-10 0 -10 -10v-90q0 -7 2.5 -9.5t9.5 -2.5h331q7 0 9.5 2.5z" />
    <glyph glyph-name="Itilde" unicode="&#x128;" horiz-adv-x="276" 
d="M183 4.5q-5 -4.5 -17 -4.5h-56q-12 0 -17 4.5t-5 17.5v656q0 13 5 17.5t17 4.5h56q12 0 17 -4.5t5 -17.5v-656q0 -13 -5 -17.5zM167.5 770q-19.5 6 -43.5 18q-4 2 -16.5 7.5t-22.5 8t-19 2.5q-34 0 -63 -35q-6 -7 -12 -7q-5 0 -11 6l-24 30q-4 5 -4 10t6 12q19 24 48 40
t62 16q22 0 41 -6.5t43 -17.5q4 -2 16.5 -7.5t22.5 -8t19 -2.5q34 0 63 35q6 7 12 7q5 0 11 -6l24 -30q4 -5 4 -10q0 -4 -6 -13q-19 -23 -48 -39t-62 -16q-21 0 -40.5 6z" />
    <glyph glyph-name="itilde" unicode="&#x129;" horiz-adv-x="276" 
d="M183 4.5q-5 -4.5 -17 -4.5h-56q-12 0 -17 4.5t-5 17.5v656q0 13 5 17.5t17 4.5h56q12 0 17 -4.5t5 -17.5v-656q0 -13 -5 -17.5zM167.5 770q-19.5 6 -43.5 18q-4 2 -16.5 7.5t-22.5 8t-19 2.5q-34 0 -63 -35q-6 -7 -12 -7q-5 0 -11 6l-24 30q-4 5 -4 10t6 12q19 24 48 40
t62 16q22 0 41 -6.5t43 -17.5q4 -2 16.5 -7.5t22.5 -8t19 -2.5q34 0 63 35q6 7 12 7q5 0 11 -6l24 -30q4 -5 4 -10q0 -4 -6 -13q-19 -23 -48 -39t-62 -16q-21 0 -40.5 6z" />
    <glyph glyph-name="Imacron" unicode="&#x12a;" horiz-adv-x="276" 
d="M183 4.5q-5 -4.5 -17 -4.5h-56q-12 0 -17 4.5t-5 17.5v656q0 13 5 17.5t17 4.5h56q12 0 17 -4.5t5 -17.5v-656q0 -13 -5 -17.5zM0.5 786q-4.5 4 -4.5 16v36q0 12 4.5 16.5t17.5 4.5h240q13 0 17.5 -4.5t4.5 -16.5v-36q0 -12 -4.5 -16t-17.5 -4h-240q-13 0 -17.5 4z" />
    <glyph glyph-name="imacron" unicode="&#x12b;" horiz-adv-x="276" 
d="M183 4.5q-5 -4.5 -17 -4.5h-56q-12 0 -17 4.5t-5 17.5v656q0 13 5 17.5t17 4.5h56q12 0 17 -4.5t5 -17.5v-656q0 -13 -5 -17.5zM0.5 786q-4.5 4 -4.5 16v36q0 12 4.5 16.5t17.5 4.5h240q13 0 17.5 -4.5t4.5 -16.5v-36q0 -12 -4.5 -16t-17.5 -4h-240q-13 0 -17.5 4z" />
    <glyph glyph-name="Ibreve" unicode="&#x12c;" horiz-adv-x="276" 
d="M183 4.5q-5 -4.5 -17 -4.5h-56q-12 0 -17 4.5t-5 17.5v656q0 13 5 17.5t17 4.5h56q12 0 17 -4.5t5 -17.5v-656q0 -13 -5 -17.5zM53 776q-33 18 -48.5 49t-15.5 69q0 9 3 12.5t11 3.5h44q8 0 11 -3t5 -12q4 -31 22.5 -48t52.5 -17q33 0 52 17.5t23 47.5q2 9 5 12t11 3h44
q8 0 11 -3.5t3 -12.5q0 -37 -16 -68t-49.5 -49.5t-85.5 -18.5q-50 0 -83 18z" />
    <glyph glyph-name="ibreve" unicode="&#x12d;" horiz-adv-x="276" 
d="M183 4.5q-5 -4.5 -17 -4.5h-56q-12 0 -17 4.5t-5 17.5v656q0 13 5 17.5t17 4.5h56q12 0 17 -4.5t5 -17.5v-656q0 -13 -5 -17.5zM53 776q-33 18 -48.5 49t-15.5 69q0 9 3 12.5t11 3.5h44q8 0 11 -3t5 -12q4 -31 22.5 -48t52.5 -17q33 0 52 17.5t23 47.5q2 9 5 12t11 3h44
q8 0 11 -3.5t3 -12.5q0 -37 -16 -68t-49.5 -49.5t-85.5 -18.5q-50 0 -83 18z" />
    <glyph glyph-name="Iogonek" unicode="&#x12e;" horiz-adv-x="276" 
d="M183 4.5q-5 -4.5 -17 -4.5h-9q-30 -16 -47 -38.5t-17 -47.5q0 -24 17 -39t41 -15q29 0 56 15q7 4 12 4q7 0 11 -9l12 -23q3 -6 3 -11q0 -10 -12 -17q-41 -25 -90 -25q-36 0 -64 14t-43.5 38.5t-15.5 55.5q0 32 18 60.5t50 50.5v665q0 13 5 17.5t17 4.5h56q12 0 17 -4.5
t5 -17.5v-656q0 -13 -5 -17.5z" />
    <glyph glyph-name="iogonek" unicode="&#x12f;" horiz-adv-x="276" 
d="M183 4.5q-5 -4.5 -17 -4.5h-9q-30 -16 -47 -38.5t-17 -47.5q0 -24 17 -39t41 -15q29 0 56 15q7 4 12 4q7 0 11 -9l12 -23q3 -6 3 -11q0 -10 -12 -17q-41 -25 -90 -25q-36 0 -64 14t-43.5 38.5t-15.5 55.5q0 32 18 60.5t50 50.5v665q0 13 5 17.5t17 4.5h56q12 0 17 -4.5
t5 -17.5v-656q0 -13 -5 -17.5z" />
    <glyph glyph-name="Idotaccent" unicode="&#x130;" horiz-adv-x="276" 
d="M183 4.5q-5 -4.5 -17 -4.5h-56q-12 0 -17 4.5t-5 17.5v656q0 13 5 17.5t17 4.5h56q12 0 17 -4.5t5 -17.5v-656q0 -13 -5 -17.5zM96 855q17 16 42 16q26 0 42.5 -16t16.5 -41t-16.5 -40.5t-42.5 -15.5q-25 0 -42 16t-17 40q0 25 17 41z" />
    <glyph glyph-name="dotlessi" unicode="&#x131;" horiz-adv-x="276" 
d="M183 4.5q-5 -4.5 -17 -4.5h-56q-12 0 -17 4.5t-5 17.5v656q0 13 5 17.5t17 4.5h56q12 0 17 -4.5t5 -17.5v-656q0 -13 -5 -17.5z" />
    <glyph glyph-name="IJ" unicode="&#x132;" horiz-adv-x="560" 
d="M183 4.5q-5 -4.5 -17 -4.5h-56q-12 0 -17 4.5t-5 17.5v656q0 13 5 17.5t17 4.5h56q12 0 17 -4.5t5 -17.5v-656q0 -13 -5 -17.5zM225 -105.5q4 3.5 12 3.5q6 0 20 -1.5t25 -1.5q45 0 70 35.5t25 104.5v643q0 13 5 17.5t17 4.5h56q12 0 17 -4.5t5 -17.5v-651
q0 -227 -187 -227q-41 0 -60 6q-10 2 -13.5 7.5t-2.5 16.5l6 50q1 11 5 14.5z" />
    <glyph glyph-name="ij" unicode="&#x133;" horiz-adv-x="560" 
d="M183 4.5q-5 -4.5 -17 -4.5h-56q-12 0 -17 4.5t-5 17.5v656q0 13 5 17.5t17 4.5h56q12 0 17 -4.5t5 -17.5v-656q0 -13 -5 -17.5zM225 -105.5q4 3.5 12 3.5q6 0 20 -1.5t25 -1.5q45 0 70 35.5t25 104.5v643q0 13 5 17.5t17 4.5h56q12 0 17 -4.5t5 -17.5v-651
q0 -227 -187 -227q-41 0 -60 6q-10 2 -13.5 7.5t-2.5 16.5l6 50q1 11 5 14.5z" />
    <glyph glyph-name="Jcircumflex" unicode="&#x134;" horiz-adv-x="283" 
d="M-51 -105.5q4 3.5 12 3.5q6 0 20 -1.5t25 -1.5q45 0 70 35.5t25 104.5v643q0 13 5 17.5t17 4.5h56q12 0 17 -4.5t5 -17.5v-651q0 -227 -187 -227q-41 0 -60 6q-10 2 -13.5 7.5t-2.5 16.5l6 50q1 11 5 14.5zM46 761q-5 -3 -10 -3t-15 5l-30 17q-10 7 -10 14t8 15l109 105
q10 9 15.5 11.5t18.5 2.5h38q13 0 18.5 -2.5t15.5 -11.5l109 -105q8 -8 8 -15t-10 -14l-30 -17q-10 -5 -15 -5t-10 3t-10 8l-95 94l-95 -94q-5 -5 -10 -8z" />
    <glyph glyph-name="jcircumflex" unicode="&#x135;" horiz-adv-x="283" 
d="M-51 -105.5q4 3.5 12 3.5q6 0 20 -1.5t25 -1.5q45 0 70 35.5t25 104.5v643q0 13 5 17.5t17 4.5h56q12 0 17 -4.5t5 -17.5v-651q0 -227 -187 -227q-41 0 -60 6q-10 2 -13.5 7.5t-2.5 16.5l6 50q1 11 5 14.5zM46 761q-5 -3 -10 -3t-15 5l-30 17q-10 7 -10 14t8 15l109 105
q10 9 15.5 11.5t18.5 2.5h38q13 0 18.5 -2.5t15.5 -11.5l109 -105q8 -8 8 -15t-10 -14l-30 -17q-10 -5 -15 -5t-10 3t-10 8l-95 94l-95 -94q-5 -5 -10 -8z" />
    <glyph glyph-name="Kcommaaccent" unicode="&#x136;" horiz-adv-x="621" 
d="M183 4.5q-5 -4.5 -17 -4.5h-56q-12 0 -17 4.5t-5 17.5v656q0 13 5 17.5t17 4.5h56q12 0 17 -4.5t5 -17.5v-656q0 -13 -5 -17.5zM498 695.5q8 4.5 24 4.5h65q19 0 19 -11q0 -6 -7 -14l-271 -320l278 -329q8 -10 8 -15q0 -11 -20 -11h-69q-17 0 -25 4.5t-20 18.5l-257 310
q-9 11 -9 19q0 9 10 20l254 304q12 15 20 19.5zM376.5 -54.5q17.5 -16.5 17.5 -44.5q0 -18 -6 -35.5t-20 -43.5l-24 -47q-6 -10 -11.5 -13t-17.5 -3h-31q-16 0 -16 10q0 3 4 11l38 69q-18 4 -29.5 18t-11.5 36q0 26 18 42.5t45 16.5t44.5 -16.5z" />
    <glyph glyph-name="kcommaaccent" unicode="&#x137;" horiz-adv-x="621" 
d="M183 4.5q-5 -4.5 -17 -4.5h-56q-12 0 -17 4.5t-5 17.5v656q0 13 5 17.5t17 4.5h56q12 0 17 -4.5t5 -17.5v-656q0 -13 -5 -17.5zM498 695.5q8 4.5 24 4.5h65q19 0 19 -11q0 -6 -7 -14l-271 -320l278 -329q8 -10 8 -15q0 -11 -20 -11h-69q-17 0 -25 4.5t-20 18.5l-257 310
q-9 11 -9 19q0 9 10 20l254 304q12 15 20 19.5zM376.5 -54.5q17.5 -16.5 17.5 -44.5q0 -18 -6 -35.5t-20 -43.5l-24 -47q-6 -10 -11.5 -13t-17.5 -3h-31q-16 0 -16 10q0 3 4 11l38 69q-18 4 -29.5 18t-11.5 36q0 26 18 42.5t45 16.5t44.5 -16.5z" />
    <glyph glyph-name="kgreenlandic" unicode="&#x138;" horiz-adv-x="621" 
d="M183 4.5q-5 -4.5 -17 -4.5h-56q-12 0 -17 4.5t-5 17.5v656q0 13 5 17.5t17 4.5h56q12 0 17 -4.5t5 -17.5v-656q0 -13 -5 -17.5zM498 695.5q8 4.5 24 4.5h65q19 0 19 -11q0 -6 -7 -14l-271 -320l278 -329q8 -10 8 -15q0 -11 -20 -11h-69q-17 0 -25 4.5t-20 18.5l-257 310
q-9 11 -9 19q0 9 10 20l254 304q12 15 20 19.5z" />
    <glyph glyph-name="Lacute" unicode="&#x139;" horiz-adv-x="552" 
d="M190.5 97.5q2.5 -2.5 9.5 -2.5h295q12 0 17 -4.5t5 -17.5v-51q0 -13 -5 -17.5t-17 -4.5h-385q-12 0 -17 4.5t-5 17.5v656q0 13 5 17.5t17 4.5h56q12 0 17 -4.5t5 -17.5v-572q0 -6 2.5 -8.5zM318 890q0 -8 -11 -16l-150 -108q-5 -3 -10 -5.5t-8 -2.5q-5 0 -14 7l-25 20
q-8 8 -8 13q0 7 9 14l144 118q5 4 9.5 6t8.5 2q7 0 18 -9l29 -24q8 -8 8 -15z" />
    <glyph glyph-name="lacute" unicode="&#x13a;" horiz-adv-x="552" 
d="M190.5 97.5q2.5 -2.5 9.5 -2.5h295q12 0 17 -4.5t5 -17.5v-51q0 -13 -5 -17.5t-17 -4.5h-385q-12 0 -17 4.5t-5 17.5v656q0 13 5 17.5t17 4.5h56q12 0 17 -4.5t5 -17.5v-572q0 -6 2.5 -8.5zM318 890q0 -8 -11 -16l-150 -108q-5 -3 -10 -5.5t-8 -2.5q-5 0 -14 7l-25 20
q-8 8 -8 13q0 7 9 14l144 118q5 4 9.5 6t8.5 2q7 0 18 -9l29 -24q8 -8 8 -15z" />
    <glyph glyph-name="Lcommaaccent" unicode="&#x13b;" horiz-adv-x="552" 
d="M190.5 97.5q2.5 -2.5 9.5 -2.5h295q12 0 17 -4.5t5 -17.5v-51q0 -13 -5 -17.5t-17 -4.5h-385q-12 0 -17 4.5t-5 17.5v656q0 13 5 17.5t17 4.5h56q12 0 17 -4.5t5 -17.5v-572q0 -6 2.5 -8.5zM352.5 -54.5q17.5 -16.5 17.5 -44.5q0 -18 -6 -35.5t-20 -43.5l-24 -47
q-6 -10 -11.5 -13t-17.5 -3h-31q-16 0 -16 10q0 3 4 11l38 69q-18 4 -29.5 18t-11.5 36q0 26 18 42.5t45 16.5t44.5 -16.5z" />
    <glyph glyph-name="lcommaaccent" unicode="&#x13c;" horiz-adv-x="552" 
d="M190.5 97.5q2.5 -2.5 9.5 -2.5h295q12 0 17 -4.5t5 -17.5v-51q0 -13 -5 -17.5t-17 -4.5h-385q-12 0 -17 4.5t-5 17.5v656q0 13 5 17.5t17 4.5h56q12 0 17 -4.5t5 -17.5v-572q0 -6 2.5 -8.5zM352.5 -54.5q17.5 -16.5 17.5 -44.5q0 -18 -6 -35.5t-20 -43.5l-24 -47
q-6 -10 -11.5 -13t-17.5 -3h-31q-16 0 -16 10q0 3 4 11l38 69q-18 4 -29.5 18t-11.5 36q0 26 18 42.5t45 16.5t44.5 -16.5z" />
    <glyph glyph-name="Lcaron" unicode="&#x13d;" horiz-adv-x="552" 
d="M190.5 97.5q2.5 -2.5 9.5 -2.5h295q12 0 17 -4.5t5 -17.5v-51q0 -13 -5 -17.5t-17 -4.5h-385q-12 0 -17 4.5t-5 17.5v656q0 13 5 17.5t17 4.5h56q12 0 17 -4.5t5 -17.5v-572q0 -6 2.5 -8.5zM459.5 693q17.5 -17 17.5 -47q0 -18 -6 -36.5t-20 -45.5l-28 -56
q-6 -10 -11.5 -13t-17.5 -3h-31q-16 0 -16 10q0 3 4 11l43 78q-18 5 -29.5 19.5t-11.5 38.5q0 27 17.5 44t43.5 17q28 0 45.5 -17z" />
    <glyph glyph-name="lcaron" unicode="&#x13e;" horiz-adv-x="552" 
d="M190.5 97.5q2.5 -2.5 9.5 -2.5h295q12 0 17 -4.5t5 -17.5v-51q0 -13 -5 -17.5t-17 -4.5h-385q-12 0 -17 4.5t-5 17.5v656q0 13 5 17.5t17 4.5h56q12 0 17 -4.5t5 -17.5v-572q0 -6 2.5 -8.5zM456.5 693q17.5 -17 17.5 -47q0 -18 -6 -36.5t-20 -45.5l-28 -56
q-6 -10 -11.5 -13t-17.5 -3h-31q-16 0 -16 10q0 3 4 11l43 78q-18 5 -29.5 19.5t-11.5 38.5q0 27 17.5 44t43.5 17q28 0 45.5 -17z" />
    <glyph glyph-name="Ldot" unicode="&#x13f;" horiz-adv-x="552" 
d="M190.5 97.5q2.5 -2.5 9.5 -2.5h295q12 0 17 -4.5t5 -17.5v-51q0 -13 -5 -17.5t-17 -4.5h-385q-12 0 -17 4.5t-5 17.5v656q0 13 5 17.5t17 4.5h56q12 0 17 -4.5t5 -17.5v-572q0 -6 2.5 -8.5zM355 403q17 16 42 16q26 0 42.5 -16t16.5 -41t-16.5 -40.5t-42.5 -15.5
q-25 0 -42 16t-17 40q0 25 17 41z" />
    <glyph glyph-name="ldot" unicode="&#x140;" horiz-adv-x="552" 
d="M190.5 97.5q2.5 -2.5 9.5 -2.5h295q12 0 17 -4.5t5 -17.5v-51q0 -13 -5 -17.5t-17 -4.5h-385q-12 0 -17 4.5t-5 17.5v656q0 13 5 17.5t17 4.5h56q12 0 17 -4.5t5 -17.5v-572q0 -6 2.5 -8.5zM349.5 407.5q17.5 16.5 44.5 16.5t45 -16.5t18 -42.5t-18 -42.5t-45 -16.5
t-44.5 16.5t-17.5 42.5t17.5 42.5z" />
    <glyph glyph-name="Lslash" unicode="&#x141;" horiz-adv-x="552" 
d="M23 241q-7 -4 -13 -4q-12 0 -12 19v42q0 13 4 19.5t16 12.5l70 34v314q0 13 5 17.5t17 4.5h56q12 0 17 -4.5t5 -17.5v-266l186 91q7 4 13 4q12 0 12 -19v-43q0 -12 -4 -18.5t-16 -12.5l-191 -94v-214q0 -6 2.5 -8.5t9.5 -2.5h295q12 0 17 -4.5t5 -17.5v-51
q0 -13 -5 -17.5t-17 -4.5h-385q-12 0 -17 4.5t-5 17.5v250z" />
    <glyph glyph-name="lslash" unicode="&#x142;" horiz-adv-x="552" 
d="M23 241q-7 -4 -13 -4q-12 0 -12 19v42q0 13 4 19.5t16 12.5l70 34v314q0 13 5 17.5t17 4.5h56q12 0 17 -4.5t5 -17.5v-266l186 91q7 4 13 4q12 0 12 -19v-43q0 -12 -4 -18.5t-16 -12.5l-191 -94v-214q0 -6 2.5 -8.5t9.5 -2.5h295q12 0 17 -4.5t5 -17.5v-51
q0 -13 -5 -17.5t-17 -4.5h-385q-12 0 -17 4.5t-5 17.5v250z" />
    <glyph glyph-name="Nacute" unicode="&#x143;" horiz-adv-x="744" 
d="M561 695.5q5 4.5 17 4.5h56q12 0 17 -4.5t5 -17.5v-656q0 -33 -20 -33q-8 0 -17 6.5t-25 24.5l-406 479v-477q0 -13 -5 -17.5t-17 -4.5h-56q-12 0 -17 4.5t-5 17.5v656q0 17 5 25t16 8q8 0 17 -6.5t24 -24.5l406 -479v477q0 13 5 17.5zM520 890q0 -8 -11 -16l-150 -108
q-5 -3 -10 -5.5t-8 -2.5q-5 0 -14 7l-25 20q-8 8 -8 13q0 7 9 14l144 118q5 4 9.5 6t8.5 2q7 0 18 -9l29 -24q8 -8 8 -15z" />
    <glyph glyph-name="nacute" unicode="&#x144;" horiz-adv-x="744" 
d="M561 695.5q5 4.5 17 4.5h56q12 0 17 -4.5t5 -17.5v-656q0 -33 -20 -33q-8 0 -17 6.5t-25 24.5l-406 479v-477q0 -13 -5 -17.5t-17 -4.5h-56q-12 0 -17 4.5t-5 17.5v656q0 17 5 25t16 8q8 0 17 -6.5t24 -24.5l406 -479v477q0 13 5 17.5zM520 890q0 -8 -11 -16l-150 -108
q-5 -3 -10 -5.5t-8 -2.5q-5 0 -14 7l-25 20q-8 8 -8 13q0 7 9 14l144 118q5 4 9.5 6t8.5 2q7 0 18 -9l29 -24q8 -8 8 -15z" />
    <glyph glyph-name="Ncommaaccent" unicode="&#x145;" horiz-adv-x="744" 
d="M561 695.5q5 4.5 17 4.5h56q12 0 17 -4.5t5 -17.5v-656q0 -33 -20 -33q-8 0 -17 6.5t-25 24.5l-406 479v-477q0 -13 -5 -17.5t-17 -4.5h-56q-12 0 -17 4.5t-5 17.5v656q0 17 5 25t16 8q8 0 17 -6.5t24 -24.5l406 -479v477q0 13 5 17.5zM420.5 -54.5
q17.5 -16.5 17.5 -44.5q0 -18 -6 -35.5t-20 -43.5l-24 -47q-6 -10 -11.5 -13t-17.5 -3h-31q-16 0 -16 10q0 3 4 11l38 69q-18 4 -29.5 18t-11.5 36q0 26 18 42.5t45 16.5t44.5 -16.5z" />
    <glyph glyph-name="ncommaaccent" unicode="&#x146;" horiz-adv-x="744" 
d="M561 695.5q5 4.5 17 4.5h56q12 0 17 -4.5t5 -17.5v-656q0 -33 -20 -33q-8 0 -17 6.5t-25 24.5l-406 479v-477q0 -13 -5 -17.5t-17 -4.5h-56q-12 0 -17 4.5t-5 17.5v656q0 17 5 25t16 8q8 0 17 -6.5t24 -24.5l406 -479v477q0 13 5 17.5zM420.5 -54.5
q17.5 -16.5 17.5 -44.5q0 -18 -6 -35.5t-20 -43.5l-24 -47q-6 -10 -11.5 -13t-17.5 -3h-31q-16 0 -16 10q0 3 4 11l38 69q-18 4 -29.5 18t-11.5 36q0 26 18 42.5t45 16.5t44.5 -16.5z" />
    <glyph glyph-name="Ncaron" unicode="&#x147;" horiz-adv-x="744" 
d="M561 695.5q5 4.5 17 4.5h56q12 0 17 -4.5t5 -17.5v-656q0 -33 -20 -33q-8 0 -17 6.5t-25 24.5l-406 479v-477q0 -13 -5 -17.5t-17 -4.5h-56q-12 0 -17 4.5t-5 17.5v656q0 17 5 25t16 8q8 0 17 -6.5t24 -24.5l406 -479v477q0 13 5 17.5zM478 925q5 3 10 3t15 -5l30 -18
q10 -6 10 -13t-8 -15l-109 -105q-10 -9 -15.5 -11.5t-18.5 -2.5h-38q-13 0 -18.5 2.5t-15.5 11.5l-109 105q-8 8 -8 15t10 13l30 18q10 5 15 5t10 -3t10 -8l95 -94l95 94q5 5 10 8z" />
    <glyph glyph-name="ncaron" unicode="&#x148;" horiz-adv-x="744" 
d="M561 695.5q5 4.5 17 4.5h56q12 0 17 -4.5t5 -17.5v-656q0 -33 -20 -33q-8 0 -17 6.5t-25 24.5l-406 479v-477q0 -13 -5 -17.5t-17 -4.5h-56q-12 0 -17 4.5t-5 17.5v656q0 17 5 25t16 8q8 0 17 -6.5t24 -24.5l406 -479v477q0 13 5 17.5zM478 925q5 3 10 3t15 -5l30 -18
q10 -6 10 -13t-8 -15l-109 -105q-10 -9 -15.5 -11.5t-18.5 -2.5h-38q-13 0 -18.5 2.5t-15.5 11.5l-109 105q-8 8 -8 15t10 13l30 18q10 5 15 5t10 -3t10 -8l95 -94l95 94q5 5 10 8z" />
    <glyph glyph-name="napostrophe" unicode="&#x149;" horiz-adv-x="744" 
d="M561 695.5q5 4.5 17 4.5h56q12 0 17 -4.5t5 -17.5v-656q0 -33 -20 -33q-8 0 -17 6.5t-25 24.5l-406 479v-477q0 -13 -5 -17.5t-17 -4.5h-56q-12 0 -17 4.5t-5 17.5v656q0 17 5 25t16 8q8 0 17 -6.5t24 -24.5l406 -479v477q0 13 5 17.5zM-17.5 692.5
q17.5 -16.5 17.5 -46.5q0 -19 -6 -38t-20 -45l-28 -55q-6 -11 -11.5 -14t-17.5 -3h-31q-16 0 -16 10q0 3 1.5 6.5t2.5 5.5l42 78q-17 4 -29 19t-12 38q0 27 17.5 44t43.5 17q29 0 46.5 -16.5z" />
    <glyph glyph-name="Eng" unicode="&#x14a;" horiz-adv-x="744" 
d="M93 703q5 8 16 8q8 0 17 -6.5t24 -24.5l406 -479v477q0 13 5 17.5t17 4.5h56q12 0 17 -4.5t5 -17.5v-651q0 -113 -46 -170t-140 -57q-41 0 -60 6q-10 2 -13.5 7.5t-2.5 16.5l5 50q1 11 5 14.5t13 3.5q7 0 20 -1.5t24 -1.5q45 0 70 35.5t25 104.5v22l-368 442v-477
q0 -13 -5 -17.5t-17 -4.5h-56q-12 0 -17 4.5t-5 17.5v656q0 17 5 25z" />
    <glyph glyph-name="eng" unicode="&#x14b;" horiz-adv-x="744" 
d="M93 703q5 8 16 8q8 0 17 -6.5t24 -24.5l406 -479v477q0 13 5 17.5t17 4.5h56q12 0 17 -4.5t5 -17.5v-651q0 -113 -46 -170t-140 -57q-41 0 -60 6q-10 2 -13.5 7.5t-2.5 16.5l5 50q1 11 5 14.5t13 3.5q7 0 20 -1.5t24 -1.5q45 0 70 35.5t25 104.5v22l-368 442v-477
q0 -13 -5 -17.5t-17 -4.5h-56q-12 0 -17 4.5t-5 17.5v656q0 17 5 25z" />
    <glyph glyph-name="Omacron" unicode="&#x14c;" horiz-adv-x="814" 
d="M93.5 532.5q47.5 83.5 130 131t184.5 47.5t184 -47t129 -129t47 -184t-47.5 -185t-130.5 -130t-186 -47q-101 0 -182.5 46.5t-128.5 128.5t-47 183q0 102 47.5 185.5zM183.5 212.5q33.5 -60.5 92 -94.5t129.5 -34t130.5 34.5t94 95.5t34.5 136q0 77 -34 137.5t-93 94.5
t-130 34t-130 -34.5t-93 -95.5t-34 -138q0 -75 33.5 -135.5zM269.5 786q-4.5 4 -4.5 16v36q0 12 4.5 16.5t17.5 4.5h240q13 0 17.5 -4.5t4.5 -16.5v-36q0 -12 -4.5 -16t-17.5 -4h-240q-13 0 -17.5 4z" />
    <glyph glyph-name="omacron" unicode="&#x14d;" horiz-adv-x="814" 
d="M93.5 532.5q47.5 83.5 130 131t184.5 47.5t184 -47t129 -129t47 -184t-47.5 -185t-130.5 -130t-186 -47q-101 0 -182.5 46.5t-128.5 128.5t-47 183q0 102 47.5 185.5zM183.5 212.5q33.5 -60.5 92 -94.5t129.5 -34t130.5 34.5t94 95.5t34.5 136q0 77 -34 137.5t-93 94.5
t-130 34t-130 -34.5t-93 -95.5t-34 -138q0 -75 33.5 -135.5zM269.5 786q-4.5 4 -4.5 16v36q0 12 4.5 16.5t17.5 4.5h240q13 0 17.5 -4.5t4.5 -16.5v-36q0 -12 -4.5 -16t-17.5 -4h-240q-13 0 -17.5 4z" />
    <glyph glyph-name="Obreve" unicode="&#x14e;" horiz-adv-x="814" 
d="M93.5 532.5q47.5 83.5 130 131t184.5 47.5t184 -47t129 -129t47 -184t-47.5 -185t-130.5 -130t-186 -47q-101 0 -182.5 46.5t-128.5 128.5t-47 183q0 102 47.5 185.5zM183.5 212.5q33.5 -60.5 92 -94.5t129.5 -34t130.5 34.5t94 95.5t34.5 136q0 77 -34 137.5t-93 94.5
t-130 34t-130 -34.5t-93 -95.5t-34 -138q0 -75 33.5 -135.5zM322 776q-33 18 -48.5 49t-15.5 69q0 9 3 12.5t11 3.5h44q8 0 11 -3t5 -12q4 -31 22.5 -48t52.5 -17q33 0 52 17.5t23 47.5q2 9 5 12t11 3h44q8 0 11 -3.5t3 -12.5q0 -37 -16 -68t-49.5 -49.5t-85.5 -18.5
q-50 0 -83 18z" />
    <glyph glyph-name="obreve" unicode="&#x14f;" horiz-adv-x="814" 
d="M93.5 532.5q47.5 83.5 130 131t184.5 47.5t184 -47t129 -129t47 -184t-47.5 -185t-130.5 -130t-186 -47q-101 0 -182.5 46.5t-128.5 128.5t-47 183q0 102 47.5 185.5zM183.5 212.5q33.5 -60.5 92 -94.5t129.5 -34t130.5 34.5t94 95.5t34.5 136q0 77 -34 137.5t-93 94.5
t-130 34t-130 -34.5t-93 -95.5t-34 -138q0 -75 33.5 -135.5zM322 776q-33 18 -48.5 49t-15.5 69q0 9 3 12.5t11 3.5h44q8 0 11 -3t5 -12q4 -31 22.5 -48t52.5 -17q33 0 52 17.5t23 47.5q2 9 5 12t11 3h44q8 0 11 -3.5t3 -12.5q0 -37 -16 -68t-49.5 -49.5t-85.5 -18.5
q-50 0 -83 18z" />
    <glyph glyph-name="Ohungarumlaut" unicode="&#x150;" horiz-adv-x="814" 
d="M93.5 532.5q47.5 83.5 130 131t184.5 47.5t184 -47t129 -129t47 -184t-47.5 -185t-130.5 -130t-186 -47q-101 0 -182.5 46.5t-128.5 128.5t-47 183q0 102 47.5 185.5zM183.5 212.5q33.5 -60.5 92 -94.5t129.5 -34t130.5 34.5t94 95.5t34.5 136q0 77 -34 137.5t-93 94.5
t-130 34t-130 -34.5t-93 -95.5t-34 -138q0 -75 33.5 -135.5zM458 896q0 -7 -11 -16l-136 -113q-5 -4 -10 -6.5t-9 -2.5q-6 0 -15 6l-26 18q-9 6 -9 13t9 14l131 119q10 10 16 10q7 0 18 -8l31 -19q11 -8 11 -15zM651 895q0 -8 -11 -16l-143 -112q-12 -9 -20 -9q-7 0 -14 6
l-26 18q-8 8 -8 13q0 7 9 14l137 119q5 4 9.5 7t8.5 3q6 0 17 -8l31 -20q10 -7 10 -15z" />
    <glyph glyph-name="ohungarumlaut" unicode="&#x151;" horiz-adv-x="814" 
d="M93.5 532.5q47.5 83.5 130 131t184.5 47.5t184 -47t129 -129t47 -184t-47.5 -185t-130.5 -130t-186 -47q-101 0 -182.5 46.5t-128.5 128.5t-47 183q0 102 47.5 185.5zM183.5 212.5q33.5 -60.5 92 -94.5t129.5 -34t130.5 34.5t94 95.5t34.5 136q0 77 -34 137.5t-93 94.5
t-130 34t-130 -34.5t-93 -95.5t-34 -138q0 -75 33.5 -135.5zM458 896q0 -7 -11 -16l-136 -113q-5 -4 -10 -6.5t-9 -2.5q-6 0 -15 6l-26 18q-9 6 -9 13t9 14l131 119q10 10 16 10q7 0 18 -8l31 -19q11 -8 11 -15zM651 895q0 -8 -11 -16l-143 -112q-12 -9 -20 -9q-7 0 -14 6
l-26 18q-8 8 -8 13q0 7 9 14l137 119q5 4 9.5 7t8.5 3q6 0 17 -8l31 -20q10 -7 10 -15z" />
    <glyph glyph-name="OE" unicode="&#x152;" horiz-adv-x="1002" 
d="M504 -5q-56 -6 -93 -6q-107 0 -190 46.5t-129 128t-46 184.5t46 186t129.5 130t190.5 47q36 0 92 -6q38 -5 65 -5h355q12 0 17 -4.5t5 -17.5v-51q0 -13 -5 -17.5t-17 -4.5h-288q-7 0 -9.5 -2.5t-2.5 -8.5v-184q0 -6 2.5 -8.5t9.5 -2.5h254q12 0 17 -5t5 -17v-49
q0 -13 -5 -17.5t-17 -4.5h-254q-7 0 -9.5 -3t-2.5 -9v-188q0 -6 2.5 -8.5t9.5 -2.5h289q12 0 17 -4.5t5 -17.5v-51q0 -13 -5 -17.5t-17 -4.5h-356q-27 0 -65 -5zM521.5 601.5q-2.5 3.5 -9.5 5.5q-45 9 -96 9q-79 0 -139.5 -34t-93.5 -94.5t-33 -138.5q0 -76 33 -136.5
t93.5 -94.5t139.5 -34q51 0 96 9q7 2 9.5 5.5t2.5 11.5v480q0 8 -2.5 11.5z" />
    <glyph glyph-name="oe" unicode="&#x153;" horiz-adv-x="1002" 
d="M504 -5q-56 -6 -93 -6q-107 0 -190 46.5t-129 128t-46 184.5t46 186t129.5 130t190.5 47q36 0 92 -6q38 -5 65 -5h355q12 0 17 -4.5t5 -17.5v-51q0 -13 -5 -17.5t-17 -4.5h-288q-7 0 -9.5 -2.5t-2.5 -8.5v-184q0 -6 2.5 -8.5t9.5 -2.5h254q12 0 17 -5t5 -17v-49
q0 -13 -5 -17.5t-17 -4.5h-254q-7 0 -9.5 -3t-2.5 -9v-188q0 -6 2.5 -8.5t9.5 -2.5h289q12 0 17 -4.5t5 -17.5v-51q0 -13 -5 -17.5t-17 -4.5h-356q-27 0 -65 -5zM521.5 601.5q-2.5 3.5 -9.5 5.5q-45 9 -96 9q-79 0 -139.5 -34t-93.5 -94.5t-33 -138.5q0 -76 33 -136.5
t93.5 -94.5t139.5 -34q51 0 96 9q7 2 9.5 5.5t2.5 11.5v480q0 8 -2.5 11.5z" />
    <glyph glyph-name="Racute" unicode="&#x154;" horiz-adv-x="635" 
d="M183 4.5q-5 -4.5 -17 -4.5h-56q-12 0 -17 4.5t-5 17.5v656q0 13 5 17.5t17 4.5h191q285 0 285 -217q0 -72 -36 -118.5t-100 -68.5l172 -266q8 -11 8 -19q0 -6 -5.5 -8.5t-16.5 -2.5h-59q-17 0 -25 5t-19 22l-184 292q-6 8 -6 14q0 8 15 9q151 16 151 135q0 68 -47.5 99.5
t-137.5 31.5h-96q-7 0 -9.5 -2.5t-2.5 -9.5v-574q0 -13 -5 -17.5zM458 890q0 -8 -11 -16l-150 -108q-5 -3 -10 -5.5t-8 -2.5q-5 0 -14 7l-25 20q-8 8 -8 13q0 7 9 14l144 118q5 4 9.5 6t8.5 2q7 0 18 -9l29 -24q8 -8 8 -15z" />
    <glyph glyph-name="racute" unicode="&#x155;" horiz-adv-x="635" 
d="M183 4.5q-5 -4.5 -17 -4.5h-56q-12 0 -17 4.5t-5 17.5v656q0 13 5 17.5t17 4.5h191q285 0 285 -217q0 -72 -36 -118.5t-100 -68.5l172 -266q8 -11 8 -19q0 -6 -5.5 -8.5t-16.5 -2.5h-59q-17 0 -25 5t-19 22l-184 292q-6 8 -6 14q0 8 15 9q151 16 151 135q0 68 -47.5 99.5
t-137.5 31.5h-96q-7 0 -9.5 -2.5t-2.5 -9.5v-574q0 -13 -5 -17.5zM458 890q0 -8 -11 -16l-150 -108q-5 -3 -10 -5.5t-8 -2.5q-5 0 -14 7l-25 20q-8 8 -8 13q0 7 9 14l144 118q5 4 9.5 6t8.5 2q7 0 18 -9l29 -24q8 -8 8 -15z" />
    <glyph glyph-name="Rcommaaccent" unicode="&#x156;" horiz-adv-x="635" 
d="M183 4.5q-5 -4.5 -17 -4.5h-56q-12 0 -17 4.5t-5 17.5v656q0 13 5 17.5t17 4.5h191q285 0 285 -217q0 -72 -36 -118.5t-100 -68.5l172 -266q8 -11 8 -19q0 -6 -5.5 -8.5t-16.5 -2.5h-59q-17 0 -25 5t-19 22l-184 292q-6 8 -6 14q0 8 15 9q151 16 151 135q0 68 -47.5 99.5
t-137.5 31.5h-96q-7 0 -9.5 -2.5t-2.5 -9.5v-574q0 -13 -5 -17.5zM388.5 -54.5q17.5 -16.5 17.5 -44.5q0 -18 -6 -35.5t-20 -43.5l-24 -47q-6 -10 -11.5 -13t-17.5 -3h-31q-16 0 -16 10q0 3 4 11l38 69q-18 4 -29.5 18t-11.5 36q0 26 18 42.5t45 16.5t44.5 -16.5z" />
    <glyph glyph-name="rcommaaccent" unicode="&#x157;" horiz-adv-x="635" 
d="M183 4.5q-5 -4.5 -17 -4.5h-56q-12 0 -17 4.5t-5 17.5v656q0 13 5 17.5t17 4.5h191q285 0 285 -217q0 -72 -36 -118.5t-100 -68.5l172 -266q8 -11 8 -19q0 -6 -5.5 -8.5t-16.5 -2.5h-59q-17 0 -25 5t-19 22l-184 292q-6 8 -6 14q0 8 15 9q151 16 151 135q0 68 -47.5 99.5
t-137.5 31.5h-96q-7 0 -9.5 -2.5t-2.5 -9.5v-574q0 -13 -5 -17.5zM388.5 -54.5q17.5 -16.5 17.5 -44.5q0 -18 -6 -35.5t-20 -43.5l-24 -47q-6 -10 -11.5 -13t-17.5 -3h-31q-16 0 -16 10q0 3 4 11l38 69q-18 4 -29.5 18t-11.5 36q0 26 18 42.5t45 16.5t44.5 -16.5z" />
    <glyph glyph-name="Rcaron" unicode="&#x158;" horiz-adv-x="635" 
d="M183 4.5q-5 -4.5 -17 -4.5h-56q-12 0 -17 4.5t-5 17.5v656q0 13 5 17.5t17 4.5h191q285 0 285 -217q0 -72 -36 -118.5t-100 -68.5l172 -266q8 -11 8 -19q0 -6 -5.5 -8.5t-16.5 -2.5h-59q-17 0 -25 5t-19 22l-184 292q-6 8 -6 14q0 8 15 9q151 16 151 135q0 68 -47.5 99.5
t-137.5 31.5h-96q-7 0 -9.5 -2.5t-2.5 -9.5v-574q0 -13 -5 -17.5zM416 925q5 3 10 3t15 -5l30 -18q10 -6 10 -13t-8 -15l-109 -105q-10 -9 -15.5 -11.5t-18.5 -2.5h-38q-13 0 -18.5 2.5t-15.5 11.5l-109 105q-8 8 -8 15t10 13l30 18q10 5 15 5t10 -3t10 -8l95 -94l95 94
q5 5 10 8z" />
    <glyph glyph-name="rcaron" unicode="&#x159;" horiz-adv-x="635" 
d="M183 4.5q-5 -4.5 -17 -4.5h-56q-12 0 -17 4.5t-5 17.5v656q0 13 5 17.5t17 4.5h191q285 0 285 -217q0 -72 -36 -118.5t-100 -68.5l172 -266q8 -11 8 -19q0 -6 -5.5 -8.5t-16.5 -2.5h-59q-17 0 -25 5t-19 22l-184 292q-6 8 -6 14q0 8 15 9q151 16 151 135q0 68 -47.5 99.5
t-137.5 31.5h-96q-7 0 -9.5 -2.5t-2.5 -9.5v-574q0 -13 -5 -17.5zM416 925q5 3 10 3t15 -5l30 -18q10 -6 10 -13t-8 -15l-109 -105q-10 -9 -15.5 -11.5t-18.5 -2.5h-38q-13 0 -18.5 2.5t-15.5 11.5l-109 105q-8 8 -8 15t10 13l30 18q10 5 15 5t10 -3t10 -8l95 -94l95 94
q5 5 10 8z" />
    <glyph glyph-name="Sacute" unicode="&#x15a;" horiz-adv-x="569" 
d="M71 162q5 0 15 -8q91 -71 183 -71q46 0 80 13t52.5 37.5t18.5 56.5q0 31 -15 51t-48.5 34.5t-94.5 30.5q-72 18 -118.5 42t-72 62.5t-25.5 96.5q0 63 31 109t84.5 70.5t120.5 24.5q126 0 228 -79q5 -4 7.5 -7.5t2.5 -7.5q0 -3 -2 -7t-5 -9l-29 -43q-4 -6 -7.5 -8.5
t-7.5 -2.5q-7 0 -17 7q-40 29 -82 46t-89 17q-38 0 -67.5 -12.5t-46 -36t-16.5 -55.5t16.5 -53t49 -35t88.5 -28q77 -20 124.5 -45t71 -62.5t23.5 -92.5q0 -62 -33 -109.5t-91 -73t-133 -25.5q-68 0 -127.5 23t-109.5 63q-11 10 -11 17t7 17l30 42q8 11 15 11zM434 890
q0 -8 -11 -16l-150 -108q-5 -3 -10 -5.5t-8 -2.5q-5 0 -14 7l-25 20q-8 8 -8 13q0 7 9 14l144 118q5 4 9.5 6t8.5 2q7 0 18 -9l29 -24q8 -8 8 -15z" />
    <glyph glyph-name="sacute" unicode="&#x15b;" horiz-adv-x="569" 
d="M71 162q5 0 15 -8q91 -71 183 -71q46 0 80 13t52.5 37.5t18.5 56.5q0 31 -15 51t-48.5 34.5t-94.5 30.5q-72 18 -118.5 42t-72 62.5t-25.5 96.5q0 63 31 109t84.5 70.5t120.5 24.5q126 0 228 -79q5 -4 7.5 -7.5t2.5 -7.5q0 -3 -2 -7t-5 -9l-29 -43q-4 -6 -7.5 -8.5
t-7.5 -2.5q-7 0 -17 7q-40 29 -82 46t-89 17q-38 0 -67.5 -12.5t-46 -36t-16.5 -55.5t16.5 -53t49 -35t88.5 -28q77 -20 124.5 -45t71 -62.5t23.5 -92.5q0 -62 -33 -109.5t-91 -73t-133 -25.5q-68 0 -127.5 23t-109.5 63q-11 10 -11 17t7 17l30 42q8 11 15 11zM434 890
q0 -8 -11 -16l-150 -108q-5 -3 -10 -5.5t-8 -2.5q-5 0 -14 7l-25 20q-8 8 -8 13q0 7 9 14l144 118q5 4 9.5 6t8.5 2q7 0 18 -9l29 -24q8 -8 8 -15z" />
    <glyph glyph-name="Scircumflex" unicode="&#x15c;" horiz-adv-x="569" 
d="M71 162q5 0 15 -8q91 -71 183 -71q46 0 80 13t52.5 37.5t18.5 56.5q0 31 -15 51t-48.5 34.5t-94.5 30.5q-72 18 -118.5 42t-72 62.5t-25.5 96.5q0 63 31 109t84.5 70.5t120.5 24.5q126 0 228 -79q5 -4 7.5 -7.5t2.5 -7.5q0 -3 -2 -7t-5 -9l-29 -43q-4 -6 -7.5 -8.5
t-7.5 -2.5q-7 0 -17 7q-40 29 -82 46t-89 17q-38 0 -67.5 -12.5t-46 -36t-16.5 -55.5t16.5 -53t49 -35t88.5 -28q77 -20 124.5 -45t71 -62.5t23.5 -92.5q0 -62 -33 -109.5t-91 -73t-133 -25.5q-68 0 -127.5 23t-109.5 63q-11 10 -11 17t7 17l30 42q8 11 15 11zM182 761
q-5 -3 -10 -3t-15 5l-30 17q-10 7 -10 14t8 15l109 105q10 9 15.5 11.5t18.5 2.5h38q13 0 18.5 -2.5t15.5 -11.5l109 -105q8 -8 8 -15t-10 -14l-30 -17q-10 -5 -15 -5t-10 3t-10 8l-95 94l-95 -94q-5 -5 -10 -8z" />
    <glyph glyph-name="scircumflex" unicode="&#x15d;" horiz-adv-x="569" 
d="M71 162q5 0 15 -8q91 -71 183 -71q46 0 80 13t52.5 37.5t18.5 56.5q0 31 -15 51t-48.5 34.5t-94.5 30.5q-72 18 -118.5 42t-72 62.5t-25.5 96.5q0 63 31 109t84.5 70.5t120.5 24.5q126 0 228 -79q5 -4 7.5 -7.5t2.5 -7.5q0 -3 -2 -7t-5 -9l-29 -43q-4 -6 -7.5 -8.5
t-7.5 -2.5q-7 0 -17 7q-40 29 -82 46t-89 17q-38 0 -67.5 -12.5t-46 -36t-16.5 -55.5t16.5 -53t49 -35t88.5 -28q77 -20 124.5 -45t71 -62.5t23.5 -92.5q0 -62 -33 -109.5t-91 -73t-133 -25.5q-68 0 -127.5 23t-109.5 63q-11 10 -11 17t7 17l30 42q8 11 15 11zM182 761
q-5 -3 -10 -3t-15 5l-30 17q-10 7 -10 14t8 15l109 105q10 9 15.5 11.5t18.5 2.5h38q13 0 18.5 -2.5t15.5 -11.5l109 -105q8 -8 8 -15t-10 -14l-30 -17q-10 -5 -15 -5t-10 3t-10 8l-95 94l-95 -94q-5 -5 -10 -8z" />
    <glyph glyph-name="Scedilla" unicode="&#x15e;" horiz-adv-x="569" 
d="M183 -159q4 0 10 -3q13 -8 30.5 -12.5t37.5 -4.5q31 0 49 12t18 30t-16.5 28.5t-43.5 10.5q-21 0 -44 -5q-2 -1 -6 -1q-8 0 -8 7q0 5 2 8l39 78q-63 3 -119 26t-102 60q-11 10 -11 17t7 17l30 42q8 11 15 11q5 0 15 -8q91 -71 183 -71q46 0 80 13t52.5 37.5t18.5 56.5
q0 31 -15 51t-48.5 34.5t-94.5 30.5q-72 18 -118.5 42t-72 62.5t-25.5 96.5q0 63 31 109t84.5 70.5t120.5 24.5q126 0 228 -79q5 -4 7.5 -7.5t2.5 -7.5q0 -3 -2 -7t-5 -9l-29 -43q-4 -6 -7.5 -8.5t-7.5 -2.5q-7 0 -17 7q-40 29 -82 46t-89 17q-38 0 -67.5 -12.5t-46 -36
t-16.5 -55.5t16.5 -53t49 -35t88.5 -28q77 -20 124.5 -45t71 -62.5t23.5 -92.5t-26 -98.5t-72.5 -70.5t-108.5 -36l-21 -41h5q46 0 73 -23.5t27 -60.5q0 -32 -18.5 -56.5t-50.5 -38t-71 -13.5q-25 0 -49 6t-44 16q-11 5 -11 13q0 5 3 11l13 26q4 10 10 10z" />
    <glyph glyph-name="scedilla" unicode="&#x15f;" horiz-adv-x="569" 
d="M183 -159q4 0 10 -3q13 -8 30.5 -12.5t37.5 -4.5q31 0 49 12t18 30t-16.5 28.5t-43.5 10.5q-21 0 -44 -5q-2 -1 -6 -1q-8 0 -8 7q0 5 2 8l39 78q-63 3 -119 26t-102 60q-11 10 -11 17t7 17l30 42q8 11 15 11q5 0 15 -8q91 -71 183 -71q46 0 80 13t52.5 37.5t18.5 56.5
q0 31 -15 51t-48.5 34.5t-94.5 30.5q-72 18 -118.5 42t-72 62.5t-25.5 96.5q0 63 31 109t84.5 70.5t120.5 24.5q126 0 228 -79q5 -4 7.5 -7.5t2.5 -7.5q0 -3 -2 -7t-5 -9l-29 -43q-4 -6 -7.5 -8.5t-7.5 -2.5q-7 0 -17 7q-40 29 -82 46t-89 17q-38 0 -67.5 -12.5t-46 -36
t-16.5 -55.5t16.5 -53t49 -35t88.5 -28q77 -20 124.5 -45t71 -62.5t23.5 -92.5t-26 -98.5t-72.5 -70.5t-108.5 -36l-21 -41h5q46 0 73 -23.5t27 -60.5q0 -32 -18.5 -56.5t-50.5 -38t-71 -13.5q-25 0 -49 6t-44 16q-11 5 -11 13q0 5 3 11l13 26q4 10 10 10z" />
    <glyph glyph-name="Scaron" unicode="&#x160;" horiz-adv-x="569" 
d="M71 162q5 0 15 -8q91 -71 183 -71q46 0 80 13t52.5 37.5t18.5 56.5q0 31 -15 51t-48.5 34.5t-94.5 30.5q-72 18 -118.5 42t-72 62.5t-25.5 96.5q0 63 31 109t84.5 70.5t120.5 24.5q126 0 228 -79q5 -4 7.5 -7.5t2.5 -7.5q0 -3 -2 -7t-5 -9l-29 -43q-4 -6 -7.5 -8.5
t-7.5 -2.5q-7 0 -17 7q-40 29 -82 46t-89 17q-38 0 -67.5 -12.5t-46 -36t-16.5 -55.5t16.5 -53t49 -35t88.5 -28q77 -20 124.5 -45t71 -62.5t23.5 -92.5q0 -62 -33 -109.5t-91 -73t-133 -25.5q-68 0 -127.5 23t-109.5 63q-11 10 -11 17t7 17l30 42q8 11 15 11zM392 925
q5 3 10 3t15 -5l30 -18q10 -6 10 -13t-8 -15l-109 -105q-10 -9 -15.5 -11.5t-18.5 -2.5h-38q-13 0 -18.5 2.5t-15.5 11.5l-109 105q-8 8 -8 15t10 13l30 18q10 5 15 5t10 -3t10 -8l95 -94l95 94q5 5 10 8z" />
    <glyph glyph-name="scaron" unicode="&#x161;" horiz-adv-x="569" 
d="M71 162q5 0 15 -8q91 -71 183 -71q46 0 80 13t52.5 37.5t18.5 56.5q0 31 -15 51t-48.5 34.5t-94.5 30.5q-72 18 -118.5 42t-72 62.5t-25.5 96.5q0 63 31 109t84.5 70.5t120.5 24.5q126 0 228 -79q5 -4 7.5 -7.5t2.5 -7.5q0 -3 -2 -7t-5 -9l-29 -43q-4 -6 -7.5 -8.5
t-7.5 -2.5q-7 0 -17 7q-40 29 -82 46t-89 17q-38 0 -67.5 -12.5t-46 -36t-16.5 -55.5t16.5 -53t49 -35t88.5 -28q77 -20 124.5 -45t71 -62.5t23.5 -92.5q0 -62 -33 -109.5t-91 -73t-133 -25.5q-68 0 -127.5 23t-109.5 63q-11 10 -11 17t7 17l30 42q8 11 15 11zM392 925
q5 3 10 3t15 -5l30 -18q10 -6 10 -13t-8 -15l-109 -105q-10 -9 -15.5 -11.5t-18.5 -2.5h-38q-13 0 -18.5 2.5t-15.5 11.5l-109 105q-8 8 -8 15t10 13l30 18q10 5 15 5t10 -3t10 -8l95 -94l95 94q5 5 10 8z" />
    <glyph glyph-name="Tcommaaccent" unicode="&#x162;" horiz-adv-x="574" 
d="M554 609.5q-5 -4.5 -17 -4.5h-188q-7 0 -9.5 -2.5t-2.5 -8.5v-572q0 -13 -5 -17.5t-17 -4.5h-56q-12 0 -17 4.5t-5 17.5v572q0 6 -2.5 8.5t-9.5 2.5h-188q-12 0 -17 4.5t-5 17.5v51q0 13 5 17.5t17 4.5h500q12 0 17 -4.5t5 -17.5v-51q0 -13 -5 -17.5zM331.5 -54.5
q17.5 -16.5 17.5 -44.5q0 -18 -6 -35.5t-20 -43.5l-24 -47q-6 -10 -11.5 -13t-17.5 -3h-31q-16 0 -16 10q0 3 4 11l38 69q-18 4 -29.5 18t-11.5 36q0 26 18 42.5t45 16.5t44.5 -16.5z" />
    <glyph glyph-name="tcommaaccent" unicode="&#x163;" horiz-adv-x="574" 
d="M554 609.5q-5 -4.5 -17 -4.5h-188q-7 0 -9.5 -2.5t-2.5 -8.5v-572q0 -13 -5 -17.5t-17 -4.5h-56q-12 0 -17 4.5t-5 17.5v572q0 6 -2.5 8.5t-9.5 2.5h-188q-12 0 -17 4.5t-5 17.5v51q0 13 5 17.5t17 4.5h500q12 0 17 -4.5t5 -17.5v-51q0 -13 -5 -17.5zM331.5 -54.5
q17.5 -16.5 17.5 -44.5q0 -18 -6 -35.5t-20 -43.5l-24 -47q-6 -10 -11.5 -13t-17.5 -3h-31q-16 0 -16 10q0 3 4 11l38 69q-18 4 -29.5 18t-11.5 36q0 26 18 42.5t45 16.5t44.5 -16.5z" />
    <glyph glyph-name="Tcaron" unicode="&#x164;" horiz-adv-x="574" 
d="M554 609.5q-5 -4.5 -17 -4.5h-188q-7 0 -9.5 -2.5t-2.5 -8.5v-572q0 -13 -5 -17.5t-17 -4.5h-56q-12 0 -17 4.5t-5 17.5v572q0 6 -2.5 8.5t-9.5 2.5h-188q-12 0 -17 4.5t-5 17.5v51q0 13 5 17.5t17 4.5h500q12 0 17 -4.5t5 -17.5v-51q0 -13 -5 -17.5zM392 925q5 3 10 3
t15 -5l30 -18q10 -6 10 -13t-8 -15l-109 -105q-10 -9 -15.5 -11.5t-18.5 -2.5h-38q-13 0 -18.5 2.5t-15.5 11.5l-109 105q-8 8 -8 15t10 13l30 18q10 5 15 5t10 -3t10 -8l95 -94l95 94q5 5 10 8z" />
    <glyph glyph-name="tcaron" unicode="&#x165;" horiz-adv-x="574" 
d="M554 609.5q-5 -4.5 -17 -4.5h-188q-7 0 -9.5 -2.5t-2.5 -8.5v-572q0 -13 -5 -17.5t-17 -4.5h-56q-12 0 -17 4.5t-5 17.5v572q0 6 -2.5 8.5t-9.5 2.5h-188q-12 0 -17 4.5t-5 17.5v51q0 13 5 17.5t17 4.5h500q12 0 17 -4.5t5 -17.5v-51q0 -13 -5 -17.5zM392 925q5 3 10 3
t15 -5l30 -18q10 -6 10 -13t-8 -15l-109 -105q-10 -9 -15.5 -11.5t-18.5 -2.5h-38q-13 0 -18.5 2.5t-15.5 11.5l-109 105q-8 8 -8 15t10 13l30 18q10 5 15 5t10 -3t10 -8l95 -94l95 94q5 5 10 8z" />
    <glyph glyph-name="Tbar" unicode="&#x166;" horiz-adv-x="574" 
d="M227 293h-104q-13 0 -17.5 4.5t-4.5 16.5v43q0 12 4.5 16.5t17.5 4.5h104q5 0 7.5 2t2.5 7v207q0 6 -2.5 8.5t-9.5 2.5h-188q-12 0 -17 4.5t-5 17.5v51q0 13 5 17.5t17 4.5h500q12 0 17 -4.5t5 -17.5v-51q0 -13 -5 -17.5t-17 -4.5h-188q-7 0 -9.5 -2.5t-2.5 -8.5v-207
q0 -5 2.5 -7t7.5 -2h104q13 0 18 -4.5t5 -16.5v-43q0 -12 -5 -16.5t-18 -4.5h-104q-10 0 -10 -10v-261q0 -13 -5 -17.5t-17 -4.5h-56q-12 0 -17 4.5t-5 17.5v261q0 10 -10 10z" />
    <glyph glyph-name="tbar" unicode="&#x167;" horiz-adv-x="574" 
d="M227 293h-104q-13 0 -17.5 4.5t-4.5 16.5v43q0 12 4.5 16.5t17.5 4.5h104q5 0 7.5 2t2.5 7v207q0 6 -2.5 8.5t-9.5 2.5h-188q-12 0 -17 4.5t-5 17.5v51q0 13 5 17.5t17 4.5h500q12 0 17 -4.5t5 -17.5v-51q0 -13 -5 -17.5t-17 -4.5h-188q-7 0 -9.5 -2.5t-2.5 -8.5v-207
q0 -5 2.5 -7t7.5 -2h104q13 0 18 -4.5t5 -16.5v-43q0 -12 -5 -16.5t-18 -4.5h-104q-10 0 -10 -10v-261q0 -13 -5 -17.5t-17 -4.5h-56q-12 0 -17 4.5t-5 17.5v261q0 10 -10 10z" />
    <glyph glyph-name="Utilde" unicode="&#x168;" horiz-adv-x="743" 
d="M622.5 127.5q-37.5 -69.5 -104 -104t-152.5 -34.5q-83 0 -146.5 33t-99.5 102t-36 171v383q0 13 5 17.5t17 4.5h55q13 0 18 -4.5t5 -17.5v-377q0 -103 48 -160t138 -57q60 0 102.5 26t65 74.5t22.5 115.5v378q0 13 5 17.5t16 4.5h56q13 0 18 -4.5t5 -17.5v-380
q0 -101 -37.5 -170.5zM400.5 770q-19.5 6 -43.5 18q-4 2 -16.5 7.5t-22.5 8t-19 2.5q-34 0 -63 -35q-6 -7 -12 -7q-5 0 -11 6l-24 30q-4 5 -4 10t6 12q19 24 48 40t62 16q22 0 41 -6.5t43 -17.5q4 -2 16.5 -7.5t22.5 -8t19 -2.5q34 0 63 35q6 7 12 7q5 0 11 -6l24 -30
q4 -5 4 -10q0 -4 -6 -13q-19 -23 -48 -39t-62 -16q-21 0 -40.5 6z" />
    <glyph glyph-name="utilde" unicode="&#x169;" horiz-adv-x="743" 
d="M622.5 127.5q-37.5 -69.5 -104 -104t-152.5 -34.5q-83 0 -146.5 33t-99.5 102t-36 171v383q0 13 5 17.5t17 4.5h55q13 0 18 -4.5t5 -17.5v-377q0 -103 48 -160t138 -57q60 0 102.5 26t65 74.5t22.5 115.5v378q0 13 5 17.5t16 4.5h56q13 0 18 -4.5t5 -17.5v-380
q0 -101 -37.5 -170.5zM400.5 770q-19.5 6 -43.5 18q-4 2 -16.5 7.5t-22.5 8t-19 2.5q-34 0 -63 -35q-6 -7 -12 -7q-5 0 -11 6l-24 30q-4 5 -4 10t6 12q19 24 48 40t62 16q22 0 41 -6.5t43 -17.5q4 -2 16.5 -7.5t22.5 -8t19 -2.5q34 0 63 35q6 7 12 7q5 0 11 -6l24 -30
q4 -5 4 -10q0 -4 -6 -13q-19 -23 -48 -39t-62 -16q-21 0 -40.5 6z" />
    <glyph glyph-name="Umacron" unicode="&#x16a;" horiz-adv-x="743" 
d="M622.5 127.5q-37.5 -69.5 -104 -104t-152.5 -34.5q-83 0 -146.5 33t-99.5 102t-36 171v383q0 13 5 17.5t17 4.5h55q13 0 18 -4.5t5 -17.5v-377q0 -103 48 -160t138 -57q60 0 102.5 26t65 74.5t22.5 115.5v378q0 13 5 17.5t16 4.5h56q13 0 18 -4.5t5 -17.5v-380
q0 -101 -37.5 -170.5zM233.5 786q-4.5 4 -4.5 16v36q0 12 4.5 16.5t17.5 4.5h240q13 0 17.5 -4.5t4.5 -16.5v-36q0 -12 -4.5 -16t-17.5 -4h-240q-13 0 -17.5 4z" />
    <glyph glyph-name="umacron" unicode="&#x16b;" horiz-adv-x="743" 
d="M622.5 127.5q-37.5 -69.5 -104 -104t-152.5 -34.5q-83 0 -146.5 33t-99.5 102t-36 171v383q0 13 5 17.5t17 4.5h55q13 0 18 -4.5t5 -17.5v-377q0 -103 48 -160t138 -57q60 0 102.5 26t65 74.5t22.5 115.5v378q0 13 5 17.5t16 4.5h56q13 0 18 -4.5t5 -17.5v-380
q0 -101 -37.5 -170.5zM233.5 786q-4.5 4 -4.5 16v36q0 12 4.5 16.5t17.5 4.5h240q13 0 17.5 -4.5t4.5 -16.5v-36q0 -12 -4.5 -16t-17.5 -4h-240q-13 0 -17.5 4z" />
    <glyph glyph-name="Ubreve" unicode="&#x16c;" horiz-adv-x="743" 
d="M622.5 127.5q-37.5 -69.5 -104 -104t-152.5 -34.5q-83 0 -146.5 33t-99.5 102t-36 171v383q0 13 5 17.5t17 4.5h55q13 0 18 -4.5t5 -17.5v-377q0 -103 48 -160t138 -57q60 0 102.5 26t65 74.5t22.5 115.5v378q0 13 5 17.5t16 4.5h56q13 0 18 -4.5t5 -17.5v-380
q0 -101 -37.5 -170.5zM286 776q-33 18 -48.5 49t-15.5 69q0 9 3 12.5t11 3.5h44q8 0 11 -3t5 -12q4 -31 22.5 -48t52.5 -17q33 0 52 17.5t23 47.5q2 9 5 12t11 3h44q8 0 11 -3.5t3 -12.5q0 -37 -16 -68t-49.5 -49.5t-85.5 -18.5q-50 0 -83 18z" />
    <glyph glyph-name="ubreve" unicode="&#x16d;" horiz-adv-x="743" 
d="M622.5 127.5q-37.5 -69.5 -104 -104t-152.5 -34.5q-83 0 -146.5 33t-99.5 102t-36 171v383q0 13 5 17.5t17 4.5h55q13 0 18 -4.5t5 -17.5v-377q0 -103 48 -160t138 -57q60 0 102.5 26t65 74.5t22.5 115.5v378q0 13 5 17.5t16 4.5h56q13 0 18 -4.5t5 -17.5v-380
q0 -101 -37.5 -170.5zM286 776q-33 18 -48.5 49t-15.5 69q0 9 3 12.5t11 3.5h44q8 0 11 -3t5 -12q4 -31 22.5 -48t52.5 -17q33 0 52 17.5t23 47.5q2 9 5 12t11 3h44q8 0 11 -3.5t3 -12.5q0 -37 -16 -68t-49.5 -49.5t-85.5 -18.5q-50 0 -83 18z" />
    <glyph glyph-name="Uring" unicode="&#x16e;" horiz-adv-x="743" 
d="M622.5 127.5q-37.5 -69.5 -104 -104t-152.5 -34.5q-83 0 -146.5 33t-99.5 102t-36 171v383q0 13 5 17.5t17 4.5h55q13 0 18 -4.5t5 -17.5v-377q0 -103 48 -160t138 -57q60 0 102.5 26t65 74.5t22.5 115.5v378q0 13 5 17.5t16 4.5h56q13 0 18 -4.5t5 -17.5v-380
q0 -101 -37.5 -170.5zM254 922q18 31 49 49t68 18t68 -18t49 -49t18 -67q0 -37 -18 -68t-49 -49t-68 -18t-68 18t-49 49t-18 68q0 36 18 67zM315.5 822.5q8.5 -14.5 23.5 -23t32 -8.5t32 8.5t23.5 23t8.5 32.5q0 17 -8.5 31.5t-23.5 23t-32 8.5t-32 -8.5t-23.5 -23
t-8.5 -31.5q0 -18 8.5 -32.5z" />
    <glyph glyph-name="uring" unicode="&#x16f;" horiz-adv-x="743" 
d="M622.5 127.5q-37.5 -69.5 -104 -104t-152.5 -34.5q-83 0 -146.5 33t-99.5 102t-36 171v383q0 13 5 17.5t17 4.5h55q13 0 18 -4.5t5 -17.5v-377q0 -103 48 -160t138 -57q60 0 102.5 26t65 74.5t22.5 115.5v378q0 13 5 17.5t16 4.5h56q13 0 18 -4.5t5 -17.5v-380
q0 -101 -37.5 -170.5zM254 922q18 31 49 49t68 18t68 -18t49 -49t18 -67q0 -37 -18 -68t-49 -49t-68 -18t-68 18t-49 49t-18 68q0 36 18 67zM315.5 822.5q8.5 -14.5 23.5 -23t32 -8.5t32 8.5t23.5 23t8.5 32.5q0 17 -8.5 31.5t-23.5 23t-32 8.5t-32 -8.5t-23.5 -23
t-8.5 -31.5q0 -18 8.5 -32.5z" />
    <glyph glyph-name="Uhungarumlaut" unicode="&#x170;" horiz-adv-x="743" 
d="M622.5 127.5q-37.5 -69.5 -104 -104t-152.5 -34.5q-83 0 -146.5 33t-99.5 102t-36 171v383q0 13 5 17.5t17 4.5h55q13 0 18 -4.5t5 -17.5v-377q0 -103 48 -160t138 -57q60 0 102.5 26t65 74.5t22.5 115.5v378q0 13 5 17.5t16 4.5h56q13 0 18 -4.5t5 -17.5v-380
q0 -101 -37.5 -170.5zM422 896q0 -7 -11 -16l-136 -113q-5 -4 -10 -6.5t-9 -2.5q-6 0 -15 6l-26 18q-9 6 -9 13t9 14l131 119q10 10 16 10q7 0 18 -8l31 -19q11 -8 11 -15zM615 895q0 -8 -11 -16l-143 -112q-12 -9 -20 -9q-7 0 -14 6l-26 18q-8 8 -8 13q0 7 9 14l137 119
q5 4 9.5 7t8.5 3q6 0 17 -8l31 -20q10 -7 10 -15z" />
    <glyph glyph-name="uhungarumlaut" unicode="&#x171;" horiz-adv-x="743" 
d="M622.5 127.5q-37.5 -69.5 -104 -104t-152.5 -34.5q-83 0 -146.5 33t-99.5 102t-36 171v383q0 13 5 17.5t17 4.5h55q13 0 18 -4.5t5 -17.5v-377q0 -103 48 -160t138 -57q60 0 102.5 26t65 74.5t22.5 115.5v378q0 13 5 17.5t16 4.5h56q13 0 18 -4.5t5 -17.5v-380
q0 -101 -37.5 -170.5zM422 896q0 -7 -11 -16l-136 -113q-5 -4 -10 -6.5t-9 -2.5q-6 0 -15 6l-26 18q-9 6 -9 13t9 14l131 119q10 10 16 10q7 0 18 -8l31 -19q11 -8 11 -15zM615 895q0 -8 -11 -16l-143 -112q-12 -9 -20 -9q-7 0 -14 6l-26 18q-8 8 -8 13q0 7 9 14l137 119
q5 4 9.5 7t8.5 3q6 0 17 -8l31 -20q10 -7 10 -15z" />
    <glyph glyph-name="Uogonek" unicode="&#x172;" horiz-adv-x="743" 
d="M625 132q-35 -68 -97.5 -103.5t-144.5 -39.5q-46 -33 -46 -75q0 -24 17 -39t41 -15q29 0 56 15q7 4 12 4q7 0 11 -9l12 -23q3 -6 3 -11q0 -10 -12 -17q-41 -25 -90 -25q-36 0 -64 14t-43.5 38.5t-15.5 55.5q0 25 11 48.5t33 43.5q-68 10 -118 46.5t-78 100.5t-28 154v383
q0 13 5 17.5t17 4.5h55q13 0 18 -4.5t5 -17.5v-377q0 -103 48 -160t138 -57q60 0 102.5 26t65 74.5t22.5 115.5v378q0 13 5 17.5t16 4.5h56q13 0 18 -4.5t5 -17.5v-380q0 -98 -35 -166z" />
    <glyph glyph-name="uogonek" unicode="&#x173;" horiz-adv-x="743" 
d="M625 132q-35 -68 -97.5 -103.5t-144.5 -39.5q-46 -33 -46 -75q0 -24 17 -39t41 -15q29 0 56 15q7 4 12 4q7 0 11 -9l12 -23q3 -6 3 -11q0 -10 -12 -17q-41 -25 -90 -25q-36 0 -64 14t-43.5 38.5t-15.5 55.5q0 25 11 48.5t33 43.5q-68 10 -118 46.5t-78 100.5t-28 154v383
q0 13 5 17.5t17 4.5h55q13 0 18 -4.5t5 -17.5v-377q0 -103 48 -160t138 -57q60 0 102.5 26t65 74.5t22.5 115.5v378q0 13 5 17.5t16 4.5h56q13 0 18 -4.5t5 -17.5v-380q0 -98 -35 -166z" />
    <glyph glyph-name="Wcircumflex" unicode="&#x174;" horiz-adv-x="967" 
d="M313.5 -2.5q-7.5 -10.5 -18.5 -10.5t-18.5 10.5t-19.5 42.5l-245 630q-3 9 -3 15q0 8 5 11.5t17 3.5h55q16 0 22.5 -5.5t14.5 -24.5l175 -472l155 432q10 25 17 34.5t18 9.5q10 0 17 -9t17 -35l153 -429l175 469q8 18 15 24t22 6h54q12 0 17 -3.5t5 -11.5q0 -6 -3 -15
l-245 -630q-12 -32 -19.5 -42.5t-17.5 -10.5t-18 10.5t-19 39.5l-155 425l-155 -425q-10 -29 -17.5 -39.5zM378 761q-5 -3 -10 -3t-15 5l-30 17q-10 7 -10 14t8 15l109 105q10 9 15.5 11.5t18.5 2.5h38q13 0 18.5 -2.5t15.5 -11.5l109 -105q8 -8 8 -15t-10 -14l-30 -17
q-10 -5 -15 -5t-10 3t-10 8l-95 94l-95 -94q-5 -5 -10 -8z" />
    <glyph glyph-name="wcircumflex" unicode="&#x175;" horiz-adv-x="967" 
d="M313.5 -2.5q-7.5 -10.5 -18.5 -10.5t-18.5 10.5t-19.5 42.5l-245 630q-3 9 -3 15q0 8 5 11.5t17 3.5h55q16 0 22.5 -5.5t14.5 -24.5l175 -472l155 432q10 25 17 34.5t18 9.5q10 0 17 -9t17 -35l153 -429l175 469q8 18 15 24t22 6h54q12 0 17 -3.5t5 -11.5q0 -6 -3 -15
l-245 -630q-12 -32 -19.5 -42.5t-17.5 -10.5t-18 10.5t-19 39.5l-155 425l-155 -425q-10 -29 -17.5 -39.5zM378 761q-5 -3 -10 -3t-15 5l-30 17q-10 7 -10 14t8 15l109 105q10 9 15.5 11.5t18.5 2.5h38q13 0 18.5 -2.5t15.5 -11.5l109 -105q8 -8 8 -15t-10 -14l-30 -17
q-10 -5 -15 -5t-10 3t-10 8l-95 94l-95 -94q-5 -5 -10 -8z" />
    <glyph glyph-name="Ycircumflex" unicode="&#x176;" horiz-adv-x="603" 
d="M487 675q10 16 17 20.5t23 4.5h59q9 0 14 -3t5 -8q0 -4 -5 -14l-248 -411v-242q0 -13 -5 -17.5t-17 -4.5h-56q-12 0 -17 4.5t-5 17.5v237l-248 416q-5 10 -5 14q0 6 4.5 8.5t13.5 2.5h62q17 0 24 -4.5t17 -20.5l183 -316zM197 761q-5 -3 -10 -3t-15 5l-30 17
q-10 7 -10 14t8 15l109 105q10 9 15.5 11.5t18.5 2.5h38q13 0 18.5 -2.5t15.5 -11.5l109 -105q8 -8 8 -15t-10 -14l-30 -17q-10 -5 -15 -5t-10 3t-10 8l-95 94l-95 -94q-5 -5 -10 -8z" />
    <glyph glyph-name="ycircumflex" unicode="&#x177;" horiz-adv-x="603" 
d="M487 675q10 16 17 20.5t23 4.5h59q9 0 14 -3t5 -8q0 -4 -5 -14l-248 -411v-242q0 -13 -5 -17.5t-17 -4.5h-56q-12 0 -17 4.5t-5 17.5v237l-248 416q-5 10 -5 14q0 6 4.5 8.5t13.5 2.5h62q17 0 24 -4.5t17 -20.5l183 -316zM197 761q-5 -3 -10 -3t-15 5l-30 17
q-10 7 -10 14t8 15l109 105q10 9 15.5 11.5t18.5 2.5h38q13 0 18.5 -2.5t15.5 -11.5l109 -105q8 -8 8 -15t-10 -14l-30 -17q-10 -5 -15 -5t-10 3t-10 8l-95 94l-95 -94q-5 -5 -10 -8z" />
    <glyph glyph-name="Ydieresis" unicode="&#x178;" horiz-adv-x="603" 
d="M487 675q10 16 17 20.5t23 4.5h59q9 0 14 -3t5 -8q0 -4 -5 -14l-248 -411v-242q0 -13 -5 -17.5t-17 -4.5h-56q-12 0 -17 4.5t-5 17.5v237l-248 416q-5 10 -5 14q0 6 4.5 8.5t13.5 2.5h62q17 0 24 -4.5t17 -20.5l183 -316zM170.5 852.5q14.5 14.5 38.5 14.5t39 -14.5
t15 -38.5q0 -23 -15 -38t-39 -15t-38.5 15t-14.5 38q0 24 14.5 38.5zM355.5 852.5q14.5 14.5 38.5 14.5q25 0 39.5 -14.5t14.5 -38.5q0 -23 -14.5 -38t-39.5 -15q-24 0 -38.5 15t-14.5 38q0 24 14.5 38.5z" />
    <glyph glyph-name="Zacute" unicode="&#x179;" horiz-adv-x="581" 
d="M532 4.5q-5 -4.5 -18 -4.5h-463q-28 0 -28 15q0 6 8 19l354 571h-317q-12 1 -17 5.5t-5 16.5v51q0 13 5 17.5t17 4.5h450q28 0 28 -15q0 -6 -8 -19l-355 -571h331q13 0 18 -4.5t5 -17.5v-51q0 -13 -5 -17.5zM437 890q0 -8 -11 -16l-150 -108q-5 -3 -10 -5.5t-8 -2.5
q-5 0 -14 7l-25 20q-8 8 -8 13q0 7 9 14l144 118q5 4 9.5 6t8.5 2q7 0 18 -9l29 -24q8 -8 8 -15z" />
    <glyph glyph-name="zacute" unicode="&#x17a;" horiz-adv-x="581" 
d="M532 4.5q-5 -4.5 -18 -4.5h-463q-28 0 -28 15q0 6 8 19l354 571h-317q-12 1 -17 5.5t-5 16.5v51q0 13 5 17.5t17 4.5h450q28 0 28 -15q0 -6 -8 -19l-355 -571h331q13 0 18 -4.5t5 -17.5v-51q0 -13 -5 -17.5zM437 890q0 -8 -11 -16l-150 -108q-5 -3 -10 -5.5t-8 -2.5
q-5 0 -14 7l-25 20q-8 8 -8 13q0 7 9 14l144 118q5 4 9.5 6t8.5 2q7 0 18 -9l29 -24q8 -8 8 -15z" />
    <glyph glyph-name="Zdotaccent" unicode="&#x17b;" horiz-adv-x="581" 
d="M532 4.5q-5 -4.5 -18 -4.5h-463q-28 0 -28 15q0 6 8 19l354 571h-317q-12 1 -17 5.5t-5 16.5v51q0 13 5 17.5t17 4.5h450q28 0 28 -15q0 -6 -8 -19l-355 -571h331q13 0 18 -4.5t5 -17.5v-51q0 -13 -5 -17.5zM248 855q17 16 42 16q26 0 42.5 -16t16.5 -41t-16.5 -40.5
t-42.5 -15.5q-25 0 -42 16t-17 40q0 25 17 41z" />
    <glyph glyph-name="zdotaccent" unicode="&#x17c;" horiz-adv-x="581" 
d="M532 4.5q-5 -4.5 -18 -4.5h-463q-28 0 -28 15q0 6 8 19l354 571h-317q-12 1 -17 5.5t-5 16.5v51q0 13 5 17.5t17 4.5h450q28 0 28 -15q0 -6 -8 -19l-355 -571h331q13 0 18 -4.5t5 -17.5v-51q0 -13 -5 -17.5zM248 855q17 16 42 16q26 0 42.5 -16t16.5 -41t-16.5 -40.5
t-42.5 -15.5q-25 0 -42 16t-17 40q0 25 17 41z" />
    <glyph glyph-name="Zcaron" unicode="&#x17d;" horiz-adv-x="581" 
d="M532 4.5q-5 -4.5 -18 -4.5h-463q-28 0 -28 15q0 6 8 19l354 571h-317q-12 1 -17 5.5t-5 16.5v51q0 13 5 17.5t17 4.5h450q28 0 28 -15q0 -6 -8 -19l-355 -571h331q13 0 18 -4.5t5 -17.5v-51q0 -13 -5 -17.5zM395 925q5 3 10 3t15 -5l30 -18q10 -6 10 -13t-8 -15
l-109 -105q-10 -9 -15.5 -11.5t-18.5 -2.5h-38q-13 0 -18.5 2.5t-15.5 11.5l-109 105q-8 8 -8 15t10 13l30 18q10 5 15 5t10 -3t10 -8l95 -94l95 94q5 5 10 8z" />
    <glyph glyph-name="zcaron" unicode="&#x17e;" horiz-adv-x="581" 
d="M532 4.5q-5 -4.5 -18 -4.5h-463q-28 0 -28 15q0 6 8 19l354 571h-317q-12 1 -17 5.5t-5 16.5v51q0 13 5 17.5t17 4.5h450q28 0 28 -15q0 -6 -8 -19l-355 -571h331q13 0 18 -4.5t5 -17.5v-51q0 -13 -5 -17.5zM395 925q5 3 10 3t15 -5l30 -18q10 -6 10 -13t-8 -15
l-109 -105q-10 -9 -15.5 -11.5t-18.5 -2.5h-38q-13 0 -18.5 2.5t-15.5 11.5l-109 105q-8 8 -8 15t10 13l30 18q10 5 15 5t10 -3t10 -8l95 -94l95 94q5 5 10 8z" />
    <glyph glyph-name="florin" unicode="&#x192;" horiz-adv-x="599" 
d="M216 17q-26 -91 -76.5 -134t-127.5 -43q-62 0 -108 28q-7 5 -10 8.5t-3 8.5q0 6 4 13l19 35q4 7 7.5 10t8.5 3q4 0 12 -3q31 -16 68 -16q42 0 69.5 28t44.5 86l74 260h-77q-12 0 -17 5t-5 18v42q0 13 5 17.5t17 4.5h101l41 146q27 92 77.5 134.5t126.5 42.5q31 0 59 -7.5
t50 -20.5q7 -5 10 -8.5t3 -8.5q0 -6 -4 -13l-20 -35q-3 -6 -7 -9.5t-8 -3.5q-3 0 -6.5 1.5t-5.5 2.5q-35 16 -68 16q-42 0 -70 -28.5t-45 -86.5l-35 -122h101q13 0 18 -4.5t5 -17.5v-42q0 -13 -5 -18t-18 -5h-124z" />
    <glyph glyph-name="Scommaaccent" unicode="&#x218;" horiz-adv-x="569" 
d="M71 162q5 0 15 -8q91 -71 183 -71q46 0 80 13t52.5 37.5t18.5 56.5q0 31 -15 51t-48.5 34.5t-94.5 30.5q-72 18 -118.5 42t-72 62.5t-25.5 96.5q0 63 31 109t84.5 70.5t120.5 24.5q126 0 228 -79q5 -4 7.5 -7.5t2.5 -7.5q0 -3 -2 -7t-5 -9l-29 -43q-4 -6 -7.5 -8.5
t-7.5 -2.5q-7 0 -17 7q-40 29 -82 46t-89 17q-38 0 -67.5 -12.5t-46 -36t-16.5 -55.5t16.5 -53t49 -35t88.5 -28q77 -20 124.5 -45t71 -62.5t23.5 -92.5q0 -62 -33 -109.5t-91 -73t-133 -25.5q-68 0 -127.5 23t-109.5 63q-11 10 -11 17t7 17l30 42q8 11 15 11zM328.5 -54.5
q17.5 -16.5 17.5 -44.5q0 -18 -6 -35.5t-20 -43.5l-24 -47q-6 -10 -11.5 -13t-17.5 -3h-31q-16 0 -16 10q0 3 4 11l38 69q-18 4 -29.5 18t-11.5 36q0 26 18 42.5t45 16.5t44.5 -16.5z" />
    <glyph glyph-name="scommaaccent" unicode="&#x219;" horiz-adv-x="569" 
d="M71 162q5 0 15 -8q91 -71 183 -71q46 0 80 13t52.5 37.5t18.5 56.5q0 31 -15 51t-48.5 34.5t-94.5 30.5q-72 18 -118.5 42t-72 62.5t-25.5 96.5q0 63 31 109t84.5 70.5t120.5 24.5q126 0 228 -79q5 -4 7.5 -7.5t2.5 -7.5q0 -3 -2 -7t-5 -9l-29 -43q-4 -6 -7.5 -8.5
t-7.5 -2.5q-7 0 -17 7q-40 29 -82 46t-89 17q-38 0 -67.5 -12.5t-46 -36t-16.5 -55.5t16.5 -53t49 -35t88.5 -28q77 -20 124.5 -45t71 -62.5t23.5 -92.5q0 -62 -33 -109.5t-91 -73t-133 -25.5q-68 0 -127.5 23t-109.5 63q-11 10 -11 17t7 17l30 42q8 11 15 11zM328.5 -54.5
q17.5 -16.5 17.5 -44.5q0 -18 -6 -35.5t-20 -43.5l-24 -47q-6 -10 -11.5 -13t-17.5 -3h-31q-16 0 -16 10q0 3 4 11l38 69q-18 4 -29.5 18t-11.5 36q0 26 18 42.5t45 16.5t44.5 -16.5z" />
    <glyph glyph-name="uni021A" unicode="&#x21a;" horiz-adv-x="574" 
d="M554 609.5q-5 -4.5 -17 -4.5h-188q-7 0 -9.5 -2.5t-2.5 -8.5v-572q0 -13 -5 -17.5t-17 -4.5h-56q-12 0 -17 4.5t-5 17.5v572q0 6 -2.5 8.5t-9.5 2.5h-188q-12 0 -17 4.5t-5 17.5v51q0 13 5 17.5t17 4.5h500q12 0 17 -4.5t5 -17.5v-51q0 -13 -5 -17.5zM331.5 -54.5
q17.5 -16.5 17.5 -44.5q0 -18 -6 -35.5t-20 -43.5l-24 -47q-6 -10 -11.5 -13t-17.5 -3h-31q-16 0 -16 10q0 3 4 11l38 69q-18 4 -29.5 18t-11.5 36q0 26 18 42.5t45 16.5t44.5 -16.5z" />
    <glyph glyph-name="uni021B" unicode="&#x21b;" horiz-adv-x="574" 
d="M554 609.5q-5 -4.5 -17 -4.5h-188q-7 0 -9.5 -2.5t-2.5 -8.5v-572q0 -13 -5 -17.5t-17 -4.5h-56q-12 0 -17 4.5t-5 17.5v572q0 6 -2.5 8.5t-9.5 2.5h-188q-12 0 -17 4.5t-5 17.5v51q0 13 5 17.5t17 4.5h500q12 0 17 -4.5t5 -17.5v-51q0 -13 -5 -17.5zM331.5 -54.5
q17.5 -16.5 17.5 -44.5q0 -18 -6 -35.5t-20 -43.5l-24 -47q-6 -10 -11.5 -13t-17.5 -3h-31q-16 0 -16 10q0 3 4 11l38 69q-18 4 -29.5 18t-11.5 36q0 26 18 42.5t45 16.5t44.5 -16.5z" />
    <glyph glyph-name="uni0237" unicode="&#x237;" horiz-adv-x="283" 
d="M-51 -105.5q4 3.5 12 3.5q6 0 20 -1.5t25 -1.5q45 0 70 35.5t25 104.5v643q0 13 5 17.5t17 4.5h56q12 0 17 -4.5t5 -17.5v-651q0 -227 -187 -227q-41 0 -60 6q-10 2 -13.5 7.5t-2.5 16.5l6 50q1 11 5 14.5z" />
    <glyph glyph-name="circumflex" unicode="&#x2c6;" horiz-adv-x="500" 
d="M145 761q-5 -3 -10 -3t-15 5l-30 17q-10 7 -10 14t8 15l109 105q10 9 15.5 11.5t18.5 2.5h38q13 0 18.5 -2.5t15.5 -11.5l109 -105q8 -8 8 -15t-10 -14l-30 -17q-10 -5 -15 -5t-10 3t-10 8l-95 94l-95 -94q-5 -5 -10 -8z" />
    <glyph glyph-name="caron" unicode="&#x2c7;" horiz-adv-x="500" 
d="M355 925q5 3 10 3t15 -5l30 -18q10 -6 10 -13t-8 -15l-109 -105q-10 -9 -15.5 -11.5t-18.5 -2.5h-38q-13 0 -18.5 2.5t-15.5 11.5l-109 105q-8 8 -8 15t10 13l30 18q10 5 15 5t10 -3t10 -8l95 -94l95 94q5 5 10 8z" />
    <glyph glyph-name="uni02C9" unicode="&#x2c9;" horiz-adv-x="500" 
d="M112.5 786q-4.5 4 -4.5 16v36q0 12 4.5 16.5t17.5 4.5h240q13 0 17.5 -4.5t4.5 -16.5v-36q0 -12 -4.5 -16t-17.5 -4h-240q-13 0 -17.5 4z" />
    <glyph glyph-name="breve" unicode="&#x2d8;" horiz-adv-x="500" 
d="M165 776q-33 18 -48.5 49t-15.5 69q0 9 3 12.5t11 3.5h44q8 0 11 -3t5 -12q4 -31 22.5 -48t52.5 -17q33 0 52 17.5t23 47.5q2 9 5 12t11 3h44q8 0 11 -3.5t3 -12.5q0 -37 -16 -68t-49.5 -49.5t-85.5 -18.5q-50 0 -83 18z" />
    <glyph glyph-name="dotaccent" unicode="&#x2d9;" horiz-adv-x="500" 
d="M208 855q17 16 42 16q26 0 42.5 -16t16.5 -41t-16.5 -40.5t-42.5 -15.5q-25 0 -42 16t-17 40q0 25 17 41z" />
    <glyph glyph-name="ring" unicode="&#x2da;" horiz-adv-x="500" 
d="M133 922q18 31 49 49t68 18t68 -18t49 -49t18 -67q0 -37 -18 -68t-49 -49t-68 -18t-68 18t-49 49t-18 68q0 36 18 67zM194.5 822.5q8.5 -14.5 23.5 -23t32 -8.5t32 8.5t23.5 23t8.5 32.5q0 17 -8.5 31.5t-23.5 23t-32 8.5t-32 -8.5t-23.5 -23t-8.5 -31.5q0 -18 8.5 -32.5
z" />
    <glyph glyph-name="ogonek" unicode="&#x2db;" horiz-adv-x="500" 
d="M363 -164q0 -10 -12 -17q-39 -25 -89 -25q-36 0 -63.5 14t-43 38.5t-15.5 55.5q0 38 24 70.5t70 56.5l53 -25q-36 -17 -55 -40t-19 -51q0 -24 16 -38.5t40 -14.5q30 0 57 15q7 4 11 4t6.5 -2.5t5.5 -6.5l11 -23q3 -6 3 -11z" />
    <glyph glyph-name="tilde" unicode="&#x2dc;" horiz-adv-x="500" 
d="M279.5 770q-19.5 6 -43.5 18q-4 2 -16.5 7.5t-22.5 8t-19 2.5q-34 0 -63 -35q-6 -7 -12 -7q-5 0 -11 6l-24 30q-4 5 -4 10t6 12q19 24 48 40t62 16q22 0 41 -6.5t43 -17.5q4 -2 16.5 -7.5t22.5 -8t19 -2.5q34 0 63 35q6 7 12 7q5 0 11 -6l24 -30q4 -5 4 -10q0 -4 -6 -13
q-19 -23 -48 -39t-62 -16q-21 0 -40.5 6z" />
    <glyph glyph-name="hungarumlaut" unicode="&#x2dd;" horiz-adv-x="500" 
d="M301 896q0 -7 -11 -16l-136 -113q-5 -4 -10 -6.5t-9 -2.5q-6 0 -15 6l-26 18q-9 6 -9 13t9 14l131 119q10 10 16 10q7 0 18 -8l31 -19q11 -8 11 -15zM494 895q0 -8 -11 -16l-143 -112q-12 -9 -20 -9q-7 0 -14 6l-26 18q-8 8 -8 13q0 7 9 14l137 119q5 4 9.5 7t8.5 3
q6 0 17 -8l31 -20q10 -7 10 -15z" />
    <glyph glyph-name="uni0326" unicode="&#x326;" horiz-adv-x="0" 
d="M-204.5 -54.5q17.5 -16.5 17.5 -44.5q0 -18 -6 -35.5t-20 -43.5l-24 -47q-6 -10 -11.5 -13t-17.5 -3h-31q-16 0 -16 10q0 3 4 11l38 69q-18 4 -29.5 18t-11.5 36q0 26 18 42.5t45 16.5t44.5 -16.5z" />
    <glyph glyph-name="Delta" unicode="&#x394;" 
d="M0 15q0 6 5 18l297 628q15 31 23.5 41.5t18.5 10.5t18.5 -10.5t22.5 -41.5l298 -628q5 -12 5 -18q0 -15 -22 -15h-644q-22 0 -22 15zM342 535l-201 -440h402z" />
    <glyph glyph-name="Omega" unicode="&#x3a9;" horiz-adv-x="792" 
d="M607 496.5q-30 56.5 -84.5 88t-126.5 31.5q-73 0 -127.5 -31.5t-84 -88t-29.5 -130.5q0 -83 40 -152.5t107 -118.5q10 -8 12.5 -14t2.5 -19v-40q0 -13 -5 -17.5t-17 -4.5h-226q-12 0 -17 4.5t-5 17.5v51q0 13 5 17.5t17 4.5h116q-59 50 -96.5 121t-37.5 155
q0 97 43.5 174.5t122 121.5t179.5 44t179.5 -43.5t122 -120t43.5 -172.5q0 -86 -37.5 -157t-97.5 -123h117q13 0 17.5 -4.5t4.5 -17.5v-51q0 -13 -4.5 -17.5t-17.5 -4.5h-226q-12 0 -17 4.5t-5 17.5v40q0 13 2.5 19t12.5 14q67 49 107 118.5t40 152.5q0 74 -30 130.5z" />
    <glyph glyph-name="mu" unicode="&#x3bc;" horiz-adv-x="589" 
d="M83 486q4 4 13 4h62q9 0 13.5 -4t4.5 -14v-245q0 -148 119 -148q121 0 121 148v245q0 10 4.5 14t13.5 4h62q9 0 13 -4t4 -14v-253q0 -111 -56 -170.5t-162 -59.5q-38 0 -69.5 11.5t-49.5 34.5v-243q0 -13 -5 -17.5t-17 -4.5h-54q-12 0 -16.5 4.5t-4.5 17.5v680q0 10 4 14
z" />
    <glyph glyph-name="pi" unicode="&#x3c0;" horiz-adv-x="600" 
d="M47 401q-15 0 -21.5 4.5t-6.5 17.5v46q0 12 5.5 16.5t18.5 4.5h517q12 0 17.5 -4.5t5.5 -16.5v-46q0 -12 -5.5 -17t-17.5 -5h-93v-231q0 -37 4.5 -57t13.5 -28t26 -8q9 0 18.5 2t14.5 2q6 0 9 -3.5t4 -10.5l6 -48v-4q0 -8 -3 -12t-12 -7q-10 -4 -25.5 -6t-30.5 -2
q-45 0 -72 17.5t-39 55t-12 98.5v242h-163v-380q0 -11 -4.5 -16t-15.5 -5h-56q-11 0 -15.5 5t-4.5 16v380h-63z" />
    <glyph glyph-name="uni058F" unicode="&#x58f;" horiz-adv-x="638" 
d="M491 256h90l-10 -51h-90l-41 -205h-87l42 205h-141l10 51h141l17 81h-142l10 51h142l5 25q9 49 9 77q0 69 -33 106t-97 37q-48 0 -82 -19.5t-57 -61t-38 -109.5l-12 -56h-84l13 62q20 99 56 157t87 82t120 24q100 0 157.5 -51.5t57.5 -155.5q0 -36 -12 -96l-4 -21h89
l-10 -51h-89z" />
    <glyph glyph-name="uni060B" unicode="&#x60b;" horiz-adv-x="583" 
d="M277.5 505q-17.5 17 -17.5 42q0 26 17.5 42.5t43.5 16.5t43.5 -16.5t17.5 -42.5q0 -25 -17.5 -42t-43.5 -17t-43.5 17zM436.5 396.5q39.5 -23.5 62.5 -69t23 -110.5q0 -107 -65.5 -162t-190.5 -55h-232v81h227q25 0 37 2q-59 22 -90 65t-31 101q0 51 22 90t60.5 60
t86.5 21q51 0 90.5 -23.5zM429 217q0 54 -22 85t-61 31q-34 0 -55 -24t-21 -61q0 -46 33.5 -76t101.5 -39q24 32 24 84zM357 -51v-191h-71v191h71z" />
    <glyph glyph-name="uni09F2" unicode="&#x9f2;" horiz-adv-x="631" 
d="M405 267.5q-81 123.5 -183.5 216.5t-217.5 145l103 93q115 -60 217 -174t179 -256.5t124 -291.5h-84q-57 144 -138 267.5z" />
    <glyph glyph-name="uni09F3" unicode="&#x9f3;" horiz-adv-x="602" 
d="M55 502h97v53q0 49 -15.5 72.5t-47.5 23.5q-13 0 -37 -4l-9 56q43 9 80 9q120 0 120 -153v-57h288v-70h-288v-245q0 -71 30.5 -104.5t90.5 -33.5q44 0 78 18t52.5 50.5t18.5 73.5q0 42 -19 67t-51 25q-20 0 -31 -8q8 -4 12.5 -11.5t4.5 -16.5q0 -14 -11 -25t-28 -11
q-19 0 -30 12t-11 32q0 19 11.5 35t32.5 25t48 9q31 0 57.5 -15t42.5 -45.5t16 -73.5q0 -56 -25.5 -101.5t-76.5 -73t-124 -27.5q-93 0 -136 48t-43 147v249h-97v70z" />
    <glyph glyph-name="uni0AF1" unicode="&#xaf1;" horiz-adv-x="815" 
d="M44 247q0 25 16 41.5t43 16.5q23 0 38 -13.5t19 -38.5l2 -19q18 -8 49 -8q44 0 68 25t24 66t-28 65.5t-74 24.5h-58v78h58q45 0 73.5 19.5t28.5 56.5q0 35 -23 53t-62 18q-55 0 -120 -28l-29 71q81 38 165 38q49 0 85.5 -16.5t57 -47.5t20.5 -74q0 -54 -30 -85.5
t-75 -42.5q46 -11 75.5 -46.5t29.5 -89.5q0 -50 -21.5 -87.5t-61 -58t-93.5 -20.5q-24 0 -48 6l11 -87q6 -51 27.5 -71.5t59.5 -20.5q26 0 57 7l10 -74q-15 -6 -38 -9.5t-44 -3.5q-64 0 -100 35.5t-46 112.5l-17 130q-49 34 -49 77zM689.5 444.5q37.5 -20.5 59.5 -57
t22 -82.5q0 -47 -22 -83.5t-59 -56.5t-81 -20t-81.5 20t-59.5 56.5t-22 83.5q0 46 22 82.5t59.5 57t81.5 20.5q43 0 80.5 -20.5zM649.5 233.5q18.5 10.5 29.5 29.5t11 42q0 22 -11 41t-29.5 30t-40.5 11q-23 0 -41.5 -11t-29.5 -29.5t-11 -41.5t11 -42t29.5 -29.5
t41.5 -10.5q22 0 40.5 10.5z" />
    <glyph glyph-name="uni0BF9" unicode="&#xbf9;" horiz-adv-x="1087" 
d="M1048 338h-166v67q0 53 -19.5 86.5t-57.5 43.5q14 -33 14 -65q0 -49 -27.5 -79t-75.5 -30q-46 0 -72 26.5t-26 71.5q0 37 20 70t55 52q-43 32 -107.5 51t-139.5 19q-100 0 -173.5 -38t-113 -107t-39.5 -160q0 -88 33.5 -152.5t93.5 -99t138 -34.5q67 0 115.5 19t73.5 54
t25 83t-26 73t-65 25q-16 0 -24 -1v-119h-75v252h-95v-252h-75v318h321v-66h-76v-69q19 3 42 3q43 0 77.5 -18t55 -55t20.5 -91q0 -72 -35 -125t-101 -81t-158 -28q-102 0 -180.5 44t-122 126t-43.5 193q0 113 50 200t142.5 135.5t215.5 48.5q101 0 185.5 -35.5t133.5 -93.5
h9q53 0 92 -22.5t60 -65.5t21 -104v-9h100v-61zM739 534q-29 -8 -45 -28.5t-16 -46.5q0 -18 10 -29.5t28 -11.5q20 0 31.5 14.5t11.5 38.5q0 32 -20 63z" />
    <glyph glyph-name="uni0E3F" unicode="&#xe3f;" horiz-adv-x="619" 
d="M91 695.5q5 4.5 17 4.5h173v78q0 12 4.5 17t17.5 5h26q13 0 17.5 -5t4.5 -17v-80q210 -20 210 -184q0 -61 -27 -97.5t-77 -54.5q57 -14 90.5 -54t33.5 -103q0 -187 -230 -203v-110q0 -12 -4.5 -17t-17.5 -5h-26q-13 0 -17.5 5t-4.5 17v108h-173q-12 0 -17 4.5t-5 17.5
v656q0 13 5 17.5zM281 608h-86q-7 0 -9.5 -3t-2.5 -9v-189q0 -6 2.5 -9t9.5 -3h86v213zM460 502q0 87 -109 102v-206q109 13 109 104zM281 310h-86q-7 0 -9.5 -2.5t-2.5 -9.5v-194q0 -6 2.5 -9t9.5 -3h86v218zM449 127q31 27 31 79q0 48 -33 72.5t-96 29.5v-214q67 6 98 33z
" />
    <glyph glyph-name="uni17DB" unicode="&#x17db;" horiz-adv-x="509" 
d="M169 376h94v89h-39q-30 0 -56 11.5t-41.5 34t-15.5 55.5q0 39 28.5 74.5t72.5 57t87 21.5q49 0 93 -21t79 -53l-38 -53q-37 29 -70.5 45.5t-63.5 16.5q-22 0 -50 -13.5t-48 -34t-20 -39.5q0 -37 56 -37h125v-154h88v-61h-88v-325h-88q-77 0 -132 20.5t-83.5 58.5
t-28.5 90q0 39 15.5 67t40.5 49l76 -55q-27 -29 -27 -64q0 -24 16.5 -44t45.5 -32.5t66 -13.5v248h-94v62z" />
    <glyph glyph-name="Wgrave" unicode="&#x1e80;" horiz-adv-x="967" 
d="M313.5 -2.5q-7.5 -10.5 -18.5 -10.5t-18.5 10.5t-19.5 42.5l-245 630q-3 9 -3 15q0 8 5 11.5t17 3.5h55q16 0 22.5 -5.5t14.5 -24.5l175 -472l155 432q10 25 17 34.5t18 9.5q10 0 17 -9t17 -35l153 -429l175 469q8 18 15 24t22 6h54q12 0 17 -3.5t5 -11.5q0 -6 -3 -15
l-245 -630q-12 -32 -19.5 -42.5t-17.5 -10.5t-18 10.5t-19 39.5l-155 425l-155 -425q-10 -29 -17.5 -39.5zM391 938q4 0 8.5 -2t9.5 -6l144 -118q10 -7 10 -14q0 -5 -9 -13l-25 -20q-9 -7 -14 -7q-3 0 -8 2.5t-10 5.5l-150 108q-11 8 -11 16q0 7 8 15l29 24q11 9 18 9z" />
    <glyph glyph-name="wgrave" unicode="&#x1e81;" horiz-adv-x="967" 
d="M313.5 -2.5q-7.5 -10.5 -18.5 -10.5t-18.5 10.5t-19.5 42.5l-245 630q-3 9 -3 15q0 8 5 11.5t17 3.5h55q16 0 22.5 -5.5t14.5 -24.5l175 -472l155 432q10 25 17 34.5t18 9.5q10 0 17 -9t17 -35l153 -429l175 469q8 18 15 24t22 6h54q12 0 17 -3.5t5 -11.5q0 -6 -3 -15
l-245 -630q-12 -32 -19.5 -42.5t-17.5 -10.5t-18 10.5t-19 39.5l-155 425l-155 -425q-10 -29 -17.5 -39.5zM391 938q4 0 8.5 -2t9.5 -6l144 -118q10 -7 10 -14q0 -5 -9 -13l-25 -20q-9 -7 -14 -7q-3 0 -8 2.5t-10 5.5l-150 108q-11 8 -11 16q0 7 8 15l29 24q11 9 18 9z" />
    <glyph glyph-name="Wacute" unicode="&#x1e82;" horiz-adv-x="967" 
d="M313.5 -2.5q-7.5 -10.5 -18.5 -10.5t-18.5 10.5t-19.5 42.5l-245 630q-3 9 -3 15q0 8 5 11.5t17 3.5h55q16 0 22.5 -5.5t14.5 -24.5l175 -472l155 432q10 25 17 34.5t18 9.5q10 0 17 -9t17 -35l153 -429l175 469q8 18 15 24t22 6h54q12 0 17 -3.5t5 -11.5q0 -6 -3 -15
l-245 -630q-12 -32 -19.5 -42.5t-17.5 -10.5t-18 10.5t-19 39.5l-155 425l-155 -425q-10 -29 -17.5 -39.5zM630 890q0 -8 -11 -16l-150 -108q-5 -3 -10 -5.5t-8 -2.5q-5 0 -14 7l-25 20q-8 8 -8 13q0 7 9 14l144 118q5 4 9.5 6t8.5 2q7 0 18 -9l29 -24q8 -8 8 -15z" />
    <glyph glyph-name="wacute" unicode="&#x1e83;" horiz-adv-x="967" 
d="M313.5 -2.5q-7.5 -10.5 -18.5 -10.5t-18.5 10.5t-19.5 42.5l-245 630q-3 9 -3 15q0 8 5 11.5t17 3.5h55q16 0 22.5 -5.5t14.5 -24.5l175 -472l155 432q10 25 17 34.5t18 9.5q10 0 17 -9t17 -35l153 -429l175 469q8 18 15 24t22 6h54q12 0 17 -3.5t5 -11.5q0 -6 -3 -15
l-245 -630q-12 -32 -19.5 -42.5t-17.5 -10.5t-18 10.5t-19 39.5l-155 425l-155 -425q-10 -29 -17.5 -39.5zM630 890q0 -8 -11 -16l-150 -108q-5 -3 -10 -5.5t-8 -2.5q-5 0 -14 7l-25 20q-8 8 -8 13q0 7 9 14l144 118q5 4 9.5 6t8.5 2q7 0 18 -9l29 -24q8 -8 8 -15z" />
    <glyph glyph-name="Wdieresis" unicode="&#x1e84;" horiz-adv-x="967" 
d="M313.5 -2.5q-7.5 -10.5 -18.5 -10.5t-18.5 10.5t-19.5 42.5l-245 630q-3 9 -3 15q0 8 5 11.5t17 3.5h55q16 0 22.5 -5.5t14.5 -24.5l175 -472l155 432q10 25 17 34.5t18 9.5q10 0 17 -9t17 -35l153 -429l175 469q8 18 15 24t22 6h54q12 0 17 -3.5t5 -11.5q0 -6 -3 -15
l-245 -630q-12 -32 -19.5 -42.5t-17.5 -10.5t-18 10.5t-19 39.5l-155 425l-155 -425q-10 -29 -17.5 -39.5zM351.5 852.5q14.5 14.5 38.5 14.5t39 -14.5t15 -38.5q0 -23 -15 -38t-39 -15t-38.5 15t-14.5 38q0 24 14.5 38.5zM536.5 852.5q14.5 14.5 38.5 14.5q25 0 39.5 -14.5
t14.5 -38.5q0 -23 -14.5 -38t-39.5 -15q-24 0 -38.5 15t-14.5 38q0 24 14.5 38.5z" />
    <glyph glyph-name="wdieresis" unicode="&#x1e85;" horiz-adv-x="967" 
d="M313.5 -2.5q-7.5 -10.5 -18.5 -10.5t-18.5 10.5t-19.5 42.5l-245 630q-3 9 -3 15q0 8 5 11.5t17 3.5h55q16 0 22.5 -5.5t14.5 -24.5l175 -472l155 432q10 25 17 34.5t18 9.5q10 0 17 -9t17 -35l153 -429l175 469q8 18 15 24t22 6h54q12 0 17 -3.5t5 -11.5q0 -6 -3 -15
l-245 -630q-12 -32 -19.5 -42.5t-17.5 -10.5t-18 10.5t-19 39.5l-155 425l-155 -425q-10 -29 -17.5 -39.5zM351.5 852.5q14.5 14.5 38.5 14.5t39 -14.5t15 -38.5q0 -23 -15 -38t-39 -15t-38.5 15t-14.5 38q0 24 14.5 38.5zM536.5 852.5q14.5 14.5 38.5 14.5q25 0 39.5 -14.5
t14.5 -38.5q0 -23 -14.5 -38t-39.5 -15q-24 0 -38.5 15t-14.5 38q0 24 14.5 38.5z" />
    <glyph glyph-name="uni1E9E" unicode="&#x1e9e;" horiz-adv-x="785" 
d="M420.5 440q14.5 -20 44 -34t80.5 -28q71 -19 114.5 -43t65.5 -59t22 -87q0 -60 -31 -105t-86.5 -70t-126.5 -25q-66 0 -123 21t-103 59q-10 7 -10 15q0 7 7 17l29 43q4 5 8 8t7 3t7 -2t8 -5q38 -31 81.5 -48t89.5 -17q64 0 101 26.5t37 73.5q0 28 -14 47t-45 33t-85 29
q-65 17 -107.5 40t-65 59t-22.5 88q0 46 23.5 83t65.5 57l-26 1q-45 0 -78 -13t-58 -41q-24 -27 -34.5 -66t-10.5 -101v-377q0 -13 -5 -17.5t-17 -4.5h-56q-12 0 -17 4.5t-5 17.5v385q0 84 16.5 135t55.5 91q40 40 94.5 60t131.5 20q73 0 154 -19.5t140 -49.5q8 -5 11.5 -9
t3.5 -10t-6 -17l-22 -38q-4 -7 -7.5 -10t-8.5 -3t-17 5q-57 26 -113 26q-32 0 -57.5 -13t-40 -35.5t-14.5 -49.5q0 -30 14.5 -50z" />
    <glyph glyph-name="Ygrave" unicode="&#x1ef2;" horiz-adv-x="603" 
d="M487 675q10 16 17 20.5t23 4.5h59q9 0 14 -3t5 -8q0 -4 -5 -14l-248 -411v-242q0 -13 -5 -17.5t-17 -4.5h-56q-12 0 -17 4.5t-5 17.5v237l-248 416q-5 10 -5 14q0 6 4.5 8.5t13.5 2.5h62q17 0 24 -4.5t17 -20.5l183 -316zM210 938q4 0 8.5 -2t9.5 -6l144 -118
q10 -7 10 -14q0 -5 -9 -13l-25 -20q-9 -7 -14 -7q-3 0 -8 2.5t-10 5.5l-150 108q-11 8 -11 16q0 7 8 15l29 24q11 9 18 9z" />
    <glyph glyph-name="ygrave" unicode="&#x1ef3;" horiz-adv-x="603" 
d="M487 675q10 16 17 20.5t23 4.5h59q9 0 14 -3t5 -8q0 -4 -5 -14l-248 -411v-242q0 -13 -5 -17.5t-17 -4.5h-56q-12 0 -17 4.5t-5 17.5v237l-248 416q-5 10 -5 14q0 6 4.5 8.5t13.5 2.5h62q17 0 24 -4.5t17 -20.5l183 -316zM210 938q4 0 8.5 -2t9.5 -6l144 -118
q10 -7 10 -14q0 -5 -9 -13l-25 -20q-9 -7 -14 -7q-3 0 -8 2.5t-10 5.5l-150 108q-11 8 -11 16q0 7 8 15l29 24q11 9 18 9z" />
    <glyph glyph-name="endash" unicode="&#x2013;" horiz-adv-x="600" 
d="M545 303.5q-5 -4.5 -17 -4.5h-456q-12 0 -17 4.5t-5 17.5v42q0 13 5 17.5t17 4.5h456q12 0 17 -4.5t5 -17.5v-42q0 -13 -5 -17.5z" />
    <glyph glyph-name="emdash" unicode="&#x2014;" horiz-adv-x="840" 
d="M785 303.5q-5 -4.5 -17 -4.5h-696q-12 0 -17 4.5t-5 17.5v42q0 13 5 17.5t17 4.5h696q12 0 17 -4.5t5 -17.5v-42q0 -13 -5 -17.5z" />
    <glyph glyph-name="afii00208" unicode="&#x2015;" horiz-adv-x="500" 
d="M44 303.5q5 4.5 17 4.5h378q12 0 17 -4.5t5 -17.5v-42q0 -13 -5 -17.5t-17 -4.5h-378q-12 0 -17 4.5t-5 17.5v42q0 13 5 17.5z" />
    <glyph glyph-name="quoteleft" unicode="&#x2018;" horiz-adv-x="227" 
d="M68.5 508q-17.5 17 -17.5 47q0 19 6 38t20 45l28 55q6 10 11.5 13t17.5 3h31q16 0 16 -10q0 -3 -4 -11l-42 -78q17 -5 29 -19.5t12 -37.5q0 -27 -17.5 -44.5t-44.5 -17.5q-28 0 -45.5 17z" />
    <glyph glyph-name="quoteright" unicode="&#x2019;" horiz-adv-x="227" 
d="M158.5 692.5q17.5 -16.5 17.5 -46.5q0 -19 -6 -38t-20 -45l-28 -55q-6 -11 -11.5 -14t-17.5 -3h-31q-16 0 -16 10q0 3 1.5 6.5t2.5 5.5l42 78q-17 4 -29 19t-12 38q0 27 17.5 44t43.5 17q29 0 46.5 -16.5z" />
    <glyph glyph-name="quotesinglbase" unicode="&#x201a;" horiz-adv-x="227" 
d="M158 93q18 -17 18 -47q0 -19 -6 -38t-20 -45l-28 -55q-6 -11 -11.5 -14t-17.5 -3h-31q-16 0 -16 10q0 3 1.5 6.5t2.5 5.5l42 78q-17 4 -29 19t-12 38q0 27 17.5 44.5t43.5 17.5q28 0 46 -17z" />
    <glyph glyph-name="quotedblleft" unicode="&#x201c;" horiz-adv-x="378" 
d="M68.5 508q-17.5 17 -17.5 47q0 19 6 38t20 45l28 55q6 10 11.5 13t17.5 3h31q16 0 16 -10q0 -3 -4 -11l-42 -78q17 -5 29 -19.5t12 -37.5q0 -27 -17.5 -44.5t-44.5 -17.5q-28 0 -45.5 17zM220.5 508q-17.5 17 -17.5 47q0 19 6 38.5t19 44.5l29 55q5 10 11 13t17 3h31
q16 0 16 -10q0 -6 -4 -11l-42 -78q18 -5 29.5 -19.5t11.5 -37.5q0 -27 -17 -44.5t-44 -17.5q-28 0 -45.5 17z" />
    <glyph glyph-name="quotedblright" unicode="&#x201d;" horiz-adv-x="378" 
d="M158.5 692.5q17.5 -16.5 17.5 -46.5q0 -19 -6 -38t-20 -45l-28 -55q-6 -11 -11.5 -14t-17.5 -3h-31q-16 0 -16 10q0 3 1.5 6.5t2.5 5.5l42 78q-17 4 -29 19t-12 38q0 27 17.5 44t43.5 17q29 0 46.5 -16.5zM309.5 692.5q17.5 -16.5 17.5 -46.5q0 -19 -6 -38t-20 -45
l-28 -55q-6 -11 -11.5 -14t-17.5 -3h-31q-16 0 -16 10q0 3 1.5 6.5t2.5 5.5l42 78q-17 4 -28.5 19t-11.5 38q0 27 17.5 44t43.5 17q28 0 45.5 -16.5z" />
    <glyph glyph-name="quotedblbase" unicode="&#x201e;" horiz-adv-x="378" 
d="M158 93q18 -17 18 -47q0 -19 -6 -38t-20 -45l-28 -55q-6 -11 -11.5 -14t-17.5 -3h-31q-16 0 -16 10q0 3 1.5 6.5t2.5 5.5l42 78q-17 4 -29 19t-12 38q0 27 17.5 44.5t43.5 17.5q28 0 46 -17zM309.5 93q17.5 -17 17.5 -47q0 -19 -6 -38t-20 -45l-28 -55q-6 -11 -11.5 -14
t-17.5 -3h-31q-16 0 -16 10q0 3 1.5 6.5t2.5 5.5l42 78q-17 4 -28.5 19t-11.5 38q0 27 17.5 44.5t43.5 17.5q28 0 45.5 -17z" />
    <glyph glyph-name="dagger" unicode="&#x2020;" horiz-adv-x="440" 
d="M27 398.5q-5 4.5 -5 17.5v40q0 12 5 17t17 5h121q7 0 9.5 2.5t2.5 8.5v189q0 12 4.5 17t17.5 5h42q13 0 17.5 -5t4.5 -17v-189q0 -6 2.5 -8.5t9.5 -2.5h121q13 0 18 -5t5 -17v-40q0 -13 -5 -17.5t-18 -4.5h-121q-7 0 -9.5 -2.5t-2.5 -9.5v-428q0 -12 -4.5 -17t-17.5 -5
h-42q-13 0 -17.5 5t-4.5 17v428q0 7 -2.5 9.5t-9.5 2.5h-121q-12 0 -17 4.5z" />
    <glyph glyph-name="daggerdbl" unicode="&#x2021;" horiz-adv-x="440" 
d="M174.5 449.5q-2.5 2.5 -9.5 2.5h-121q-12 0 -17 5t-5 18v39q0 13 5 17.5t17 4.5h121q7 0 9.5 2.5t2.5 9.5v130q0 12 4.5 17t17.5 5h42q13 0 17.5 -5t4.5 -17v-130q0 -7 2.5 -9.5t9.5 -2.5h121q13 0 18 -4.5t5 -17.5v-39q0 -13 -5 -18t-18 -5h-121q-7 0 -9.5 -2.5
t-2.5 -8.5v-250q0 -6 2.5 -9t9.5 -3h121q13 0 18 -4.5t5 -17.5v-39q0 -13 -5 -17.5t-18 -4.5h-121q-7 0 -9.5 -3t-2.5 -9v-130q0 -12 -4.5 -17t-17.5 -5h-42q-13 0 -17.5 5t-4.5 17v130q0 6 -2.5 9t-9.5 3h-121q-12 0 -17 4.5t-5 17.5v39q0 13 5 17.5t17 4.5h121q7 0 9.5 3
t2.5 9v250q0 6 -2.5 8.5z" />
    <glyph glyph-name="bullet" unicode="&#x2022;" horiz-adv-x="264" 
d="M57.5 395q11.5 20 31.5 31.5t43 11.5q24 0 43.5 -11.5t31 -31.5t11.5 -43t-11.5 -43t-31 -31.5t-43.5 -11.5q-23 0 -43 11.5t-31.5 31.5t-11.5 43t11.5 43z" />
    <glyph glyph-name="ellipsis" unicode="&#x2026;" horiz-adv-x="673" 
d="M69 93q18 17 44 17q27 0 45 -17t18 -43t-18 -42.5t-45 -16.5t-44.5 16.5t-17.5 42.5t18 43zM292 93q18 17 45 17t44.5 -17t17.5 -43t-17.5 -42.5t-44.5 -16.5t-45 16.5t-18 42.5t18 43zM516 93q18 17 44 17q27 0 44.5 -17t17.5 -43t-17.5 -42.5t-44.5 -16.5t-44.5 16.5
t-17.5 42.5t18 43z" />
    <glyph glyph-name="perthousand" unicode="&#x2030;" horiz-adv-x="1079" 
d="M101 378q-35 21 -55 60.5t-20 93.5t20 94.5t56 62.5t82 22q44 0 79 -21t55 -60.5t20 -93.5t-20 -94.5t-55.5 -62.5t-81.5 -22q-45 0 -80 21zM130.5 -7q-6.5 -4 -21.5 -4h-42q-20 0 -20 11q0 4 4 10.5t10 13.5l528 666q10 13 16.5 17t21.5 4h42q20 0 20 -11q0 -4 -4 -10.5
t-10 -13.5l-528 -666q-10 -13 -16.5 -17zM239 457.5q21 28.5 21 76.5t-21.5 76.5t-56.5 28.5q-36 0 -56.5 -28.5t-20.5 -76.5q0 -49 21 -77t56 -28q36 0 57 28.5zM473 10q-35 21 -55 60.5t-20 93.5t20 94.5t55.5 62.5t81.5 22q45 0 80 -21t55 -60.5t20 -93.5t-20 -94.5
t-56 -62.5t-82 -22q-44 0 -79 21zM825 10q-35 21 -55 60.5t-20 93.5t20 94.5t56 62.5t82 22q44 0 79 -21t55 -60.5t20 -93.5t-20 -94.5t-56 -62.5t-82 -22q-44 0 -79 21zM610 90q21 29 21 76q0 49 -21 77t-56 28q-36 0 -57 -28.5t-21 -76.5t21.5 -76.5t56.5 -28.5t56 29z
M963 89.5q21 28.5 21 76.5t-21.5 76.5t-56.5 28.5q-36 0 -57 -28.5t-21 -76.5t21.5 -76.5t56.5 -28.5q36 0 57 28.5z" />
    <glyph glyph-name="guilsinglleft" unicode="&#x2039;" horiz-adv-x="281" 
d="M241 191q0 -6 -6 -17l-19 -35q-6 -12 -15 -12q-8 0 -15 10l-134 152q-14 16 -18 24.5t-4 23.5v26q0 15 4 23.5t18 24.5l134 152q7 10 15 10q9 0 15 -12l19 -35q6 -10 6 -17q0 -9 -11 -22l-122 -137l122 -137q11 -13 11 -22z" />
    <glyph glyph-name="guilsinglright" unicode="&#x203a;" horiz-adv-x="281" 
d="M40 509q0 7 6 17l19 35q6 12 14 12q7 0 16 -10l134 -152q14 -16 18 -24.5t4 -23.5v-26q0 -15 -4 -23.5t-18 -24.5l-134 -152q-9 -10 -16 -10q-8 0 -14 12l-19 35q-6 11 -6 17q0 9 11 22l122 137l-122 137q-11 13 -11 22z" />
    <glyph glyph-name="fraction" unicode="&#x2044;" horiz-adv-x="181" 
d="M-135.5 -7q-6.5 -4 -20.5 -4h-40q-20 0 -20 12q0 4 3.5 10t9.5 13l503 666q10 13 16.5 17t20.5 4h40q20 0 20 -12q0 -4 -3 -8.5t-6 -8.5t-4 -6l-504 -666q-9 -13 -15.5 -17z" />
    <glyph glyph-name="uni2070" unicode="&#x2070;" horiz-adv-x="399" 
d="M50 749.5q22 47.5 61 73.5t89 26t88.5 -25.5t60.5 -72.5t22 -110t-22 -110.5t-61.5 -73t-88.5 -25.5q-50 0 -88.5 25t-60.5 72t-22 110t22 110.5zM131.5 541q24.5 -37 67.5 -37q28 0 49 17.5t32.5 48.5t11.5 70q0 63 -25 100t-68 37t-67.5 -37t-24.5 -100q0 -62 24.5 -99
z" />
    <glyph glyph-name="uni2074" unicode="&#x2074;" horiz-adv-x="364" 
d="M334 596q8 0 11.5 -3.5t3.5 -11.5v-37q0 -16 -15 -16h-41v-72q0 -8 -3.5 -11.5t-11.5 -3.5h-46q-16 0 -16 15v72h-184q-12 0 -19 5.5t-7 13.5q0 6 2.5 11t7.5 11l219 257q12 14 19.5 19.5t16.5 5.5q10 0 16 -7.5t6 -22.5v-225h41zM217 719l-102 -123h102v123z" />
    <glyph glyph-name="uni2075" unicode="&#x2075;" horiz-adv-x="364" 
d="M124.5 767.5q-2.5 -2.5 -2.5 -9.5l-4 -70q27 9 62 9q46 0 79 -16t51 -43.5t18 -63.5q0 -39 -19.5 -71.5t-58 -51.5t-93.5 -19q-73 0 -129 38q-10 6 -10 12t4 11l20 33q6 9 11 9q4 0 9 -4q42 -29 95 -29q44 0 67.5 18.5t23.5 50.5q0 29 -23 45.5t-63 16.5q-51 0 -98 -17
q-6 -2 -9 -2q-11 0 -10 17l10 190q1 11 5 15t15 4h216q16 0 16 -15v-40q0 -15 -16 -15h-157q-7 0 -9.5 -2.5z" />
    <glyph glyph-name="uni2076" unicode="&#x2076;" horiz-adv-x="364" 
d="M171.5 837.5q4.5 2.5 14.5 2.5h56q6 0 9.5 -2t3.5 -6q0 -3 -5 -10l-85 -113q19 7 38 7q38 0 70.5 -16.5t51.5 -47.5t19 -72q0 -44 -22 -78t-59.5 -52t-83.5 -18t-82 17.5t-56 49.5t-20 73q0 35 14 69t46 77l78 107q8 10 12.5 12.5zM122.5 522.5q22.5 -20.5 58.5 -20.5
q37 0 60.5 21t23.5 55q0 33 -22.5 53t-58.5 20q-37 0 -60.5 -20.5t-23.5 -54.5q0 -33 22.5 -53.5z" />
    <glyph glyph-name="uni2077" unicode="&#x2077;" horiz-adv-x="364" 
d="M174.5 444.5q-5.5 -3.5 -14.5 -3.5h-50q-13 0 -13 8q0 4 3 10l137 310h-194q-8 0 -11.5 3.5t-3.5 11.5v41q0 8 3.5 11.5t11.5 3.5h283q8 0 11.5 -2t3.5 -7t-3 -13l-154 -360q-4 -10 -9.5 -13.5z" />
    <glyph glyph-name="uni2078" unicode="&#x2078;" horiz-adv-x="364" 
d="M258.5 834.5q32.5 -14.5 50 -40.5t17.5 -60q0 -30 -15 -52t-42 -34q31 -11 49.5 -35t18.5 -59q0 -60 -43 -91t-114 -31q-69 0 -111.5 31t-42.5 89q0 36 19 60.5t49 35.5q-27 11 -41.5 33t-14.5 52q0 34 18 60.5t51 41t77 14.5q42 0 74.5 -14.5zM134 768.5
q-18 -14.5 -18 -39.5t18.5 -39t47.5 -14q28 0 47 14.5t19 38.5q0 25 -18 39.5t-48 14.5t-48 -14.5zM235.5 600.5q-22.5 15.5 -53.5 15.5t-53.5 -15.5t-22.5 -43.5t20 -43.5t56 -15.5q35 0 55.5 15.5t20.5 43.5t-22.5 43.5z" />
    <glyph glyph-name="uni2079" unicode="&#x2079;" horiz-adv-x="364" 
d="M192.5 443.5q-4.5 -2.5 -14.5 -2.5h-56q-13 0 -13 7q0 3 5 10l85 113q-16 -6 -38 -6q-38 0 -70.5 16.5t-51.5 47.5t-19 72q0 44 22 77.5t59.5 51.5t83.5 18t82 -17.5t56 -49t20 -73.5q0 -35 -14 -69t-46 -76l-78 -107q-8 -10 -12.5 -12.5zM241 758.5q-23 20.5 -58 20.5
q-37 0 -60.5 -21t-23.5 -56q0 -33 22 -53t59 -20t60.5 20.5t23.5 55.5q0 33 -23 53.5z" />
    <glyph glyph-name="uni2080" unicode="&#x2080;" horiz-adv-x="399" 
d="M50 170.5q22 47.5 61 73.5t89 26t88.5 -25.5t60.5 -72.5t22 -110t-22 -110.5t-61.5 -73t-88.5 -25.5q-50 0 -88.5 25t-60.5 72t-22 110t22 110.5zM131.5 -38q24.5 -37 67.5 -37q28 0 49 17.5t32.5 48.5t11.5 70q0 63 -25 100t-68 37t-67.5 -37t-24.5 -100q0 -62 24.5 -99
z" />
    <glyph glyph-name="uni2081" unicode="&#x2081;" horiz-adv-x="266" 
d="M174.5 257.5q3.5 -3.5 3.5 -11.5v-369q0 -8 -3.5 -11.5t-11.5 -3.5h-46q-16 0 -16 15v305q0 5 -2 7t-7 2h-48q-8 0 -11.5 3.5t-3.5 11.5v40q0 8 3.5 11.5t11.5 3.5h119q8 0 11.5 -3.5z" />
    <glyph glyph-name="uni2082" unicode="&#x2082;" horiz-adv-x="364" 
d="M321 -134.5q-4 -3.5 -12 -3.5h-274q-15 0 -15 8q0 6 6 13l131 145q36 40 52 65.5t16 47.5q0 27 -18 42t-47 15q-47 0 -85 -32q-7 -5 -10 -5q-5 0 -10 7l-21 32q-4 5 -4 11t7 12q56 47 127 47q42 0 74 -15.5t49 -43.5t17 -64q0 -34 -15 -62.5t-51 -68.5l-74 -83h145
q8 0 12 -3.5t4 -11.5v-41q0 -8 -4 -11.5z" />
    <glyph glyph-name="uni2083" unicode="&#x2083;" horiz-adv-x="364" 
d="M227.5 -56.5q25.5 18.5 25.5 48.5q0 65 -114 65q-16 0 -16 9q0 3 5 11l77 113h-150q-8 0 -12 3.5t-4 11.5v41q0 8 4 11.5t12 3.5h260q13 0 13 -8q0 -6 -6 -14l-93 -132q48 -8 75.5 -37t27.5 -76q0 -41 -21 -73t-59.5 -50t-90.5 -18q-40 0 -75 12t-61 34q-9 8 -9 14
q0 2 1.5 5.5t2.5 4.5l21 33q6 9 12 9q4 0 9 -5q19 -16 45 -25.5t55 -9.5q40 0 65.5 18.5z" />
    <glyph glyph-name="uni2084" unicode="&#x2084;" horiz-adv-x="364" 
d="M334 17q8 0 11.5 -3.5t3.5 -11.5v-37q0 -16 -15 -16h-41v-72q0 -8 -3.5 -11.5t-11.5 -3.5h-46q-16 0 -16 15v72h-184q-12 0 -19 5.5t-7 13.5q0 6 2.5 11t7.5 11l219 257q12 14 19.5 19.5t16.5 5.5q10 0 16 -7.5t6 -22.5v-225h41zM217 140l-102 -123h102v123z" />
    <glyph glyph-name="uni2085" unicode="&#x2085;" horiz-adv-x="364" 
d="M124.5 188.5q-2.5 -2.5 -2.5 -9.5l-4 -70q27 9 62 9q46 0 79 -16t51 -43.5t18 -63.5q0 -39 -19.5 -71.5t-58 -51.5t-93.5 -19q-73 0 -129 38q-10 6 -10 12t4 11l20 33q6 9 11 9q4 0 9 -4q42 -29 95 -29q44 0 67.5 18.5t23.5 50.5q0 29 -23 45.5t-63 16.5q-51 0 -98 -17
q-6 -2 -9 -2q-11 0 -10 17l10 190q1 11 5 15t15 4h216q16 0 16 -15v-40q0 -15 -16 -15h-157q-7 0 -9.5 -2.5z" />
    <glyph glyph-name="uni2086" unicode="&#x2086;" horiz-adv-x="364" 
d="M171.5 258.5q4.5 2.5 14.5 2.5h56q6 0 9.5 -2t3.5 -6q0 -3 -5 -10l-85 -113q19 7 38 7q38 0 70.5 -16.5t51.5 -47.5t19 -72q0 -44 -22 -78t-59.5 -52t-83.5 -18t-82 17.5t-56 49.5t-20 73q0 35 14 69t46 77l78 107q8 10 12.5 12.5zM122.5 -56.5q22.5 -20.5 58.5 -20.5
q37 0 60.5 21t23.5 55q0 33 -22.5 53t-58.5 20q-37 0 -60.5 -20.5t-23.5 -54.5q0 -33 22.5 -53.5z" />
    <glyph glyph-name="uni2087" unicode="&#x2087;" horiz-adv-x="364" 
d="M174.5 -134.5q-5.5 -3.5 -14.5 -3.5h-50q-13 0 -13 8q0 4 3 10l137 310h-194q-8 0 -11.5 3.5t-3.5 11.5v41q0 8 3.5 11.5t11.5 3.5h283q8 0 11.5 -2t3.5 -7t-3 -13l-154 -360q-4 -10 -9.5 -13.5z" />
    <glyph glyph-name="uni2088" unicode="&#x2088;" horiz-adv-x="364" 
d="M258.5 255.5q32.5 -14.5 50 -40.5t17.5 -60q0 -30 -15 -52t-42 -34q31 -11 49.5 -35t18.5 -59q0 -60 -43 -91t-114 -31q-69 0 -111.5 31t-42.5 89q0 36 19 60.5t49 35.5q-27 11 -41.5 33t-14.5 52q0 34 18 60.5t51 41t77 14.5q42 0 74.5 -14.5zM134 189.5
q-18 -14.5 -18 -39.5t18.5 -39t47.5 -14q28 0 47 14.5t19 38.5q0 25 -18 39.5t-48 14.5t-48 -14.5zM235.5 21.5q-22.5 15.5 -53.5 15.5t-53.5 -15.5t-22.5 -43.5t20 -43.5t56 -15.5q35 0 55.5 15.5t20.5 43.5t-22.5 43.5z" />
    <glyph glyph-name="uni2089" unicode="&#x2089;" horiz-adv-x="364" 
d="M192.5 -135.5q-4.5 -2.5 -14.5 -2.5h-56q-13 0 -13 7q0 3 5 10l85 113q-16 -6 -38 -6q-38 0 -70.5 16.5t-51.5 47.5t-19 72q0 44 22 77.5t59.5 51.5t83.5 18t82 -17.5t56 -49t20 -73.5q0 -35 -14 -69t-46 -76l-78 -107q-8 -10 -12.5 -12.5zM241 179.5q-23 20.5 -58 20.5
q-37 0 -60.5 -21t-23.5 -56q0 -33 22 -53t59 -20t60.5 20.5t23.5 55.5q0 33 -23 53.5z" />
    <glyph glyph-name="uni20A0" unicode="&#x20a0;" horiz-adv-x="671" 
d="M166 243q-56 34 -87.5 91t-31.5 128q0 75 34 132t92.5 87.5t129.5 30.5q54 0 92.5 -11t71.5 -33q10 -7 10 -16q0 -8 -4 -13l-26 -40q-7 -13 -16 -13q-6 0 -13 5q-52 32 -111 32q-49 0 -86 -20t-57 -56.5t-20 -84.5q0 -44 18.5 -80.5t51.5 -60t77 -28.5v185q0 13 5 17.5
t17 4.5h288q12 0 17 -4.5t5 -17.5v-43q0 -13 -5 -17.5t-17 -4.5h-205q-7 0 -9.5 -2.5t-2.5 -8.5v-101q0 -7 2.5 -9.5t9.5 -2.5h171q12 0 17 -4.5t5 -17.5v-39q0 -13 -5 -17.5t-17 -4.5h-171q-7 0 -9.5 -3t-2.5 -9v-96q0 -6 2.5 -8.5t9.5 -2.5h206q12 0 17 -4.5t5 -17.5v-43
q0 -13 -5 -17.5t-17 -4.5h-289q-12 0 -17 4.5t-5 17.5v184q-69 3 -125 37z" />
    <glyph glyph-name="colonmonetary" unicode="&#x20a1;" horiz-adv-x="661" 
d="M172.5 63.5q-60.5 48.5 -94 122t-33.5 163.5q0 86 33 159.5t93.5 123.5t140.5 69v58q0 15 4 20.5t16 5.5t16 -5.5t4 -20.5v-51q7 0 21.5 1.5t26.5 1.5h8v48q0 15 4 20.5t16 5.5t16 -5.5t4 -20.5v-51q50 -6 93.5 -22t75.5 -39q11 -8 11 -16q0 -5 -5 -15l-25 -44
q-8 -11 -15 -11q-3 0 -7 2t-9 5q-30 17 -58 28.5t-61 16.5v-527q69 11 117 51q10 8 17 8q9 0 14 -11l22 -40q5 -10 5 -15q0 -4 -3 -8.5t-9 -9.5q-68 -56 -163 -69v-51q0 -15 -4 -20.5t-16 -5.5t-16 5.5t-4 20.5v48h-14q-16 0 -42 2v-50q0 -15 -4 -20.5t-16 -5.5t-16 5.5
t-4 20.5v57q-79 17 -139.5 65.5zM376 615q-14 -1 -24 -4v-523q16 -3 29.5 -3.5t26.5 -0.5v532q-18 0 -32 -1zM225 546.5q-37 -36.5 -57.5 -87t-20.5 -109.5t20.5 -110t57.5 -88t87 -54v502q-50 -17 -87 -53.5z" />
    <glyph glyph-name="uni20A2" unicode="&#x20a2;" horiz-adv-x="661" 
d="M307 420q4 5 17 5h43q12 0 16.5 -5t4.5 -18v-34q45 66 139 66h8q13 0 18 -5t5 -19v-38q0 -13 -5 -18t-18 -5h-22q-63 0 -94 -33.5t-31 -108.5v-122h10q108 0 167 52q11 8 16 8q4 0 8 -3t7 -8l22 -40q3 -6 3 -11q0 -22 -37.5 -44t-91.5 -36t-98 -14q-99 0 -178.5 46
t-125 128t-45.5 186q0 102 45.5 184.5t126.5 130t183 47.5q66 0 122 -17.5t95 -46.5q11 -8 11 -17q0 -6 -5 -14l-25 -44q-8 -11 -15 -11q-3 0 -7 2t-9 5q-81 48 -169 48q-73 0 -130 -34.5t-89 -95.5t-32 -136q0 -58 19 -107.5t54.5 -86t82.5 -54.5v300q0 13 4 18z" />
    <glyph glyph-name="franc" unicode="&#x20a3;" horiz-adv-x="572" 
d="M38 141q-13 0 -17.5 4.5t-4.5 17.5v36q0 13 4.5 17.5t17.5 4.5h72v457q0 13 5 17.5t17 4.5h381q12 0 17 -4.5t5 -17.5v-51q0 -13 -5 -17.5t-17 -4.5h-295q-6 0 -8.5 -2.5t-2.5 -8.5v-162q0 -6 2.5 -8.5t8.5 -2.5h260q12 0 17 -4.5t5 -17.5v-44q0 -13 -5 -17.5t-17 -4.5
h-260q-6 0 -8.5 -2.5t-2.5 -8.5v-101h168q12 0 17 -4.5t5 -17.5v-36q0 -13 -5 -17.5t-17 -4.5h-168v-119q0 -13 -5 -17.5t-18 -4.5h-52q-12 0 -17 4.5t-5 17.5v119h-72z" />
    <glyph glyph-name="lira" unicode="&#x20a4;" horiz-adv-x="610" 
d="M42 52q0 8 12 15q40 26 67 62.5t30 75.5q1 5 1 14t-1 13h-108q-12 0 -17 4.5t-5 17.5v28q0 12 5 17t17 5h94l-22 63h-72q-12 0 -17 4.5t-5 17.5v28q0 13 5 17.5t17 4.5h53q-4 22 -4 37q0 69 31.5 122t89 83t133.5 30q61 0 113 -20.5t93 -58.5q9 -7 9 -15q0 -4 -7 -15
l-28 -41q-7 -9 -13 -9q-5 0 -15 8q-72 56 -152 56q-45 0 -79.5 -17.5t-53.5 -49.5t-19 -74q0 -14 4 -36h233q12 0 17 -4.5t5 -17.5v-28q0 -13 -5 -17.5t-17 -4.5h-216q10 -28 14 -42l7 -21h195q12 0 17 -5t5 -17v-28q0 -13 -5 -17.5t-17 -4.5h-184q0 -10 -4 -28
q-2 -28 -15.5 -55.5t-29.5 -44.5q14 2 37 2q40 0 98 -13q22 -5 46.5 -8.5t46.5 -3.5q29 0 56.5 7.5t49.5 21.5q10 5 15 5q8 0 13 -11l19 -43q3 -4 3 -10q0 -17 -27.5 -31.5t-65.5 -22.5t-68 -8q-25 0 -48.5 3.5t-53.5 9.5q-53 10 -86 12q-5 1 -15 1t-15 -1q-62 -1 -110 -24
q-8 -4 -14 -4q-5 0 -11 9l-22 45q-4 7 -4 12z" />
    <glyph glyph-name="uni20A5" unicode="&#x20a5;" horiz-adv-x="878" 
d="M85 484q6 6 19 6h46q13 0 19.5 -6t6.5 -19v-31q23 32 57.5 49t76.5 17q89 0 136 -67l76 181q6 14 11.5 18t19.5 4h52q19 0 19 -13q0 -6 -2 -10l-50 -121q23 8 52 8q87 0 133 -59.5t46 -170.5v-252q0 -10 -4 -14t-13 -4h-63q-9 0 -13.5 4t-4.5 14v245q0 71 -27.5 109.5
t-79.5 38.5q-45 0 -72 -29l-35 -84q-2 -11 -2 -35v-245q0 -10 -4 -14t-13 -4h-62q-9 0 -13.5 4t-4.5 14v52l-52 -134q-6 -14 -12 -18t-20 -4h-52q-18 0 -18 12q0 7 2 11l150 360q-7 55 -34 84.5t-72 29.5q-52 0 -80 -38.5t-28 -109.5v-245q0 -10 -4 -14t-13 -4h-62
q-10 0 -14 4t-4 14v447q0 13 6 19z" />
    <glyph glyph-name="uni20A6" unicode="&#x20a6;" horiz-adv-x="720" 
d="M32 247q-12 0 -17 4.5t-5 17.5v28q0 13 5 17.5t17 4.5h63v63h-63q-12 0 -17 4.5t-5 17.5v28q0 13 5 17.5t17 4.5h63v224q0 17 5 25t16 8q9 0 18 -7t23 -24l179 -226h194v224q0 13 5 17.5t17 4.5h51q12 0 17 -4.5t5 -17.5v-224h63q12 0 17 -4.5t5 -17.5v-28
q0 -13 -5 -17.5t-17 -4.5h-63v-63h63q12 0 17 -4.5t5 -17.5v-28q0 -13 -5 -17.5t-17 -4.5h-63v-225q0 -33 -20 -33q-9 0 -19 6.5t-23 24.5l-179 227h-194v-225q0 -13 -5 -17.5t-17 -4.5h-51q-12 0 -17 4.5t-5 17.5v225h-63zM190 495v-41h32zM278 382h-88v-63h138zM530 382
h-137l50 -63h87v63zM500 247l30 -38v38h-30z" />
    <glyph glyph-name="peseta" unicode="&#x20a7;" horiz-adv-x="1174" 
d="M93 695.5q5 4.5 17 4.5h116q143 0 215.5 -58.5t72.5 -170.5q0 -75 -35 -128t-101 -80t-158 -27h-24q-6 0 -8.5 -2.5t-2.5 -8.5v-203q0 -13 -5 -17.5t-18 -4.5h-52q-12 0 -17 4.5t-5 17.5v656q0 13 5 17.5zM363.5 363q48.5 34 48.5 106t-47 105t-138 33h-31q-11 0 -11 -12
v-254q0 -12 11 -12h31q88 0 136.5 34zM561 338q-12 0 -16.5 5t-4.5 17v40q0 12 4.5 17t16.5 5h47v110q0 13 5 17.5t17 4.5h49q13 0 18 -4.5t5 -17.5v-110h48q13 0 17.5 -5t4.5 -17v-40q0 -12 -4.5 -17t-17.5 -5h-48v-316q0 -13 -5 -17.5t-18 -4.5h-49q-12 0 -17 4.5t-5 17.5
v316h-47zM836 103q4 0 9 -3q49 -33 115 -33q37 0 57.5 13t20.5 38q0 15 -8 25t-27.5 18.5t-56.5 18.5q-70 20 -104 49.5t-34 78.5q0 40 21 68.5t57 43t81 14.5t79 -9t66 -28q7 -4 7 -12q0 -4 -3 -12l-22 -40l-5 -5t-4 -2t-6 1.5t-6 2.5q-25 13 -49.5 19.5t-54.5 6.5
q-29 0 -49.5 -10.5t-20.5 -32.5q0 -16 10 -27t29.5 -18.5t53.5 -16.5q49 -13 79 -29.5t44 -41.5t14 -62q0 -38 -21 -67.5t-58.5 -46t-85.5 -16.5t-89.5 11t-70.5 33q-8 5 -8 11q0 5 5 11l24 40q5 9 11 9z" />
    <glyph glyph-name="uni20A8" unicode="&#x20a8;" horiz-adv-x="1102" 
d="M93 695.5q5 4.5 17 4.5h196q141 0 210.5 -55t69.5 -160q0 -75 -36 -123t-101 -71l173 -261q8 -13 8 -19q0 -5 -5.5 -8t-16.5 -3h-60q-17 0 -26 5.5t-19 21.5l-145 224q-5 8 -10.5 11t-15.5 3h-132q-7 0 -9.5 -2.5t-2.5 -9.5v-231q0 -13 -5 -17.5t-17 -4.5h-56
q-12 0 -17 4.5t-5 17.5v656q0 13 5 17.5zM438 386.5q44 30.5 44 94.5q0 65 -46.5 94.5t-134.5 29.5h-101q-7 0 -9.5 -2.5t-2.5 -8.5v-226q0 -7 2.5 -9.5t9.5 -2.5h107q87 0 131 30.5zM706 123q5 0 12 -5q31 -22 69 -35t74 -13q44 0 71 16.5t27 44.5q0 20 -11 31.5
t-34.5 20.5t-71.5 21q-56 15 -92 34.5t-55 48t-19 70.5q0 46 24 78.5t65.5 49.5t93.5 17q106 0 182 -51q9 -6 9 -13q0 -4 -5 -14l-24 -40q-5 -8 -12 -8q-6 0 -13 4q-34 19 -67 30t-68 11q-37 0 -61.5 -15.5t-24.5 -43.5t27.5 -45t88.5 -32t97 -33.5t53 -46t17 -70.5
q0 -46 -24 -79t-68.5 -50t-105.5 -17q-56 0 -104.5 15t-84.5 42q-9 8 -9 14q0 5 6 14l26 40q6 9 12 9z" />
    <glyph glyph-name="uni20A9" unicode="&#x20a9;" horiz-adv-x="923" 
d="M42 247q-12 0 -17 4.5t-5 17.5v28q0 13 5 17.5t17 4.5h93l-22 63h-71q-12 0 -17 4.5t-5 17.5v28q0 13 5 17.5t17 4.5h46l-74 216q-3 9 -3 15q0 8 5 11.5t17 3.5h43q17 0 24 -5.5t13 -24.5l71 -216h179l65 176q9 25 16.5 34.5t18.5 9.5t18 -9.5t16 -34.5l65 -176h177
l72 216q6 18 13.5 24t23.5 6h42q12 0 17 -3.5t5 -11.5q0 -6 -3 -15l-75 -216h47q12 0 17 -4.5t5 -17.5v-28q0 -13 -5 -17.5t-17 -4.5h-72l-22 -63h94q12 0 17 -4.5t5 -17.5v-28q0 -13 -5 -17.5t-17 -4.5h-119l-72 -207q-6 -19 -12 -31.5t-11 -17t-12 -4.5q-11 0 -19 10.5
t-18 39.5l-74 210h-166l-74 -210q-10 -29 -17.5 -39.5t-18.5 -10.5q-8 0 -13 4.5t-11 17t-12 31.5l-72 207h-118zM462 492l-14 -38h27zM337 382h-129l21 -63h85zM497 382h-71l-22 -63h115zM715 382h-128l23 -63h84zM253 247l17 -51l18 51h-35zM636 247l18 -48l16 48h-34z
" />
    <glyph glyph-name="afii57636" unicode="&#x20aa;" horiz-adv-x="836" 
d="M81.5 606q4.5 4 15.5 4h234q65 0 113 -15.5t82 -71.5t34 -168v-156q0 -12 -5 -17t-17 -5h-46q-12 0 -17 5t-5 17v156q0 68 -15.5 105t-45.5 51t-78 14h-144q-8 0 -11 -4t-3 -9v-490q0 -13 -5 -17.5t-17 -4.5h-52q-12 0 -17 4.5t-5 17.5v568q0 12 4.5 16zM281 435.5
q5 4.5 17 4.5h46q12 0 17 -4.5t5 -17.5v-322q0 -11 11 -11h150q48 0 77 14t43.5 50.5t14.5 105.5v333q0 13 5 17.5t17 4.5h53q12 0 17 -4.5t5 -17.5v-333q0 -112 -34.5 -168t-83.5 -71.5t-114 -15.5h-231q-11 0 -15.5 4t-4.5 16v398q0 13 5 17.5z" />
    <glyph glyph-name="dong" unicode="&#x20ab;" horiz-adv-x="571" 
d="M174 29.5q-64 29.5 -96.5 84t-32.5 128.5t33 130t97.5 87t156.5 31h52q6 0 8.5 2.5t2.5 8.5v77h-112q-12 0 -17 5t-5 17v32q0 13 5 18t17 5h112v73q0 13 5 17.5t17 4.5h53q12 0 17 -4.5t5 -17.5v-73h55q12 0 17 -5t5 -18v-32q0 -12 -5 -17t-17 -5h-55v-557
q0 -12 -5 -16.5t-17 -4.5h-140q-92 0 -156 29.5zM392.5 91.5q2.5 2.5 2.5 9.5v289q0 12 -11 12h-51q-56 0 -98.5 -18t-66 -54t-23.5 -88q0 -75 49.5 -114t138.5 -39h51q6 0 8.5 2.5zM50 -94q5 5 17 5h436q12 0 17 -5t5 -18v-34q0 -13 -5 -17.5t-17 -4.5h-436q-12 0 -17 4.5
t-5 17.5v34q0 13 5 18z" />
    <glyph glyph-name="Euro" unicode="&#x20ac;" horiz-adv-x="672" 
d="M276 129.5q54 -45.5 133 -45.5q99 0 174 56q13 8 17 8q6 0 12 -11l21 -41q5 -12 5 -16q0 -9 -12 -17q-100 -74 -224 -74q-78 0 -141.5 32.5t-105.5 93t-58 141.5h-78q-9 0 -13 2.5t-4 7.5q0 6 3 13l14 30q5 10 10.5 13.5t18.5 3.5h41l-1 28l1 29h-70q-9 0 -13 2.5t-4 7.5
q0 6 3 13l14 29q5 11 10.5 14.5t18.5 3.5h50q17 77 60.5 135.5t109 90.5t145.5 32q60 0 116 -18t102 -50q8 -5 11 -9.5t3 -9.5q0 -6 -4 -13l-23 -46q-6 -12 -15 -12q-5 0 -13 5q-39 27 -85 42.5t-94 15.5q-78 0 -133.5 -43.5t-75.5 -119.5h341q9 0 13 -2.5t4 -7.5t-3 -13
l-14 -29q-5 -11 -10.5 -14.5t-18.5 -3.5h-323l-1 -29l1 -28h294q9 0 13 -2.5t4 -7.5t-3 -13l-14 -29q-5 -11 -10.5 -14.5t-18.5 -3.5h-254q20 -81 74 -126.5z" />
    <glyph glyph-name="uni20AD" unicode="&#x20ad;" horiz-adv-x="622" 
d="M37 305q-12 0 -17 5t-5 18v42q0 12 5 17t17 5h52v286q0 13 5 17.5t17 4.5h55q13 0 18 -4.5t5 -17.5v-286h51l238 284q13 15 21 19.5t24 4.5h65q19 0 19 -10q0 -7 -7 -15l-242 -283h192q12 0 17 -5t5 -17v-42q0 -13 -5 -18t-17 -5h-181l237 -279q9 -9 9 -16q0 -5 -5 -7.5
t-15 -2.5h-69q-17 0 -25.5 4.5t-20.5 18.5l-234 282h-57v-283q0 -13 -5 -17.5t-18 -4.5h-55q-12 0 -17 4.5t-5 17.5v283h-52z" />
    <glyph glyph-name="uni20AE" unicode="&#x20ae;" horiz-adv-x="593" 
d="M97 198q2 6 9 9l142 66v70l-127 -59q-8 -4 -12 -4q-14 0 -14 16v33q0 9 2 15t9 9l142 67v177q0 6 -2.5 8.5t-9.5 2.5h-190q-12 0 -17 5t-5 17v48q0 13 5 17.5t17 4.5h501q12 0 16.5 -4.5t4.5 -17.5v-48q0 -12 -4.5 -17t-16.5 -5h-191q-6 0 -8.5 -2.5t-2.5 -8.5v-131
l127 60q8 4 12 4q14 0 14 -16v-33q0 -9 -2 -15t-9 -9l-142 -68v-70l127 61q8 4 12 4q14 0 14 -16v-34q0 -9 -2 -15t-9 -9l-142 -68v-220q0 -13 -5 -17.5t-17 -4.5h-53q-12 0 -17 4.5t-5 17.5v174l-127 -59q-8 -4 -12 -4q-14 0 -14 16v34q0 9 2 15z" />
    <glyph glyph-name="uni20AF" unicode="&#x20af;" horiz-adv-x="1137" 
d="M600 640q52 -44 78 -109.5t26 -147.5q0 -119 -40 -209t-106.5 -138.5t-145.5 -48.5q-44 0 -80 19t-70 51q-25 -33 -57 -50.5t-74 -17.5q-60 0 -95 31t-35 85q0 36 15.5 63.5t44.5 43t67 15.5q29 0 53.5 -10.5t49.5 -29.5q5 14 13 44l114 400h-4q-41 0 -88.5 -7.5
t-90.5 -19.5v81q98 28 196 28h11l30 105h95l-33 -116q74 -18 126 -62zM502 110q48 38 78 108.5t30 163.5q0 92 -41 153t-119 84l-117 -406q-14 -48 -32 -90q27 -24 51 -37.5t52 -13.5q50 0 98 38zM1033.5 355q37.5 -22 57.5 -61.5t20 -91.5q0 -62 -23.5 -110.5t-71.5 -76.5
t-119 -28q-65 0 -117 27l-69 -244h-96l119 418q28 99 79 144t131 45q52 0 89.5 -22zM960 82q28 18 42.5 49t14.5 70q0 43 -20 68.5t-56 25.5q-41 0 -69.5 -29t-46.5 -91l-25 -88q46 -23 92 -23q40 0 68 18zM202 116q-20 19 -38 29.5t-36 10.5q-24 0 -37.5 -14t-13.5 -36
q0 -21 13 -33.5t36 -12.5q46 0 76 56z" />
    <glyph glyph-name="uni20B0" unicode="&#x20b0;" horiz-adv-x="665" 
d="M31.5 2q-4.5 2 -4.5 8q0 11 17 38l117 190q15 22 26 22q6 0 11 -4.5t12 -12.5l64 -91l74 127q-37 53 -60 91t-38 81.5t-15 88.5q0 49 19.5 88t58 61.5t94.5 22.5t94 -22t57 -59.5t19 -84.5q0 -38 -11 -73.5t-33.5 -76t-64.5 -108.5q49 -70 76.5 -134t27.5 -135
q0 -113 -54.5 -173t-155.5 -60q-29 0 -44 5q-7 2 -9.5 9.5t-2.5 23.5v46q0 16 15 16q6 0 18.5 -1.5t25.5 -1.5q44 0 73.5 32.5t29.5 103.5q0 44 -17.5 87.5t-45.5 87.5l-90 -154q-16 -27 -30 -27q-12 0 -28 22l-65 93l-64 -106q-7 -13 -15.5 -17.5t-17.5 -4.5h-49
q-10 0 -14.5 2zM458.5 473.5q14.5 36.5 14.5 69.5q0 35 -16.5 57t-49.5 22q-36 0 -52.5 -24.5t-16.5 -60.5t17 -75t49 -91q40 66 54.5 102.5z" />
    <glyph glyph-name="uni20B1" unicode="&#x20b1;" horiz-adv-x="662" 
d="M36 363q-13 0 -17.5 4.5t-4.5 17.5v16q0 13 4.5 17.5t17.5 4.5h62v49h-62q-13 0 -17.5 5t-4.5 17v17q0 13 4.5 17.5t17.5 4.5h62v145q0 13 5 17.5t17 4.5h175q115 0 184 -44t91 -123h50q12 0 17 -4.5t5 -17.5v-17q0 -12 -5 -17t-17 -5h-40v-16q0 -22 -2 -33h42
q12 0 17 -4.5t5 -17.5v-16q0 -13 -5 -17.5t-17 -4.5h-55q-26 -77 -96 -118.5t-177 -41.5h-86q-11 0 -11 -12v-169q0 -13 -5 -17.5t-17 -4.5h-53q-12 0 -17 4.5t-5 17.5v341h-62zM289 615h-83q-11 0 -11 -12v-70h267q-37 82 -173 82zM479 454q0 12 -1 18h-283v-49h282
q2 20 2 31zM394 306.5q42 18.5 63 56.5h-262v-64q0 -6 2.5 -8.5t8.5 -2.5h85q61 0 103 18.5z" />
    <glyph glyph-name="uni20B2" unicode="&#x20b2;" horiz-adv-x="746" 
d="M195 50.5q-69 46.5 -109 122.5t-40 172q0 97 39.5 174t108.5 125t156 62v72q0 12 4.5 17t17.5 5h42q13 0 17.5 -5t4.5 -17v-68q65 -4 124 -25.5t103 -53.5q13 -9 13 -18q0 -4 -7 -15l-28 -40q-7 -10 -16 -10q-7 0 -16 6q-84 54 -173 61v-532q73 4 129 29q9 4 11.5 7.5
t2.5 11.5v178q0 13 5 17.5t17 4.5h56q12 0 17 -4.5t5 -17.5v-229q0 -12 -3.5 -18t-14.5 -11q-99 -53 -225 -61v-98q0 -12 -4.5 -17t-17.5 -5h-42q-13 0 -17.5 5t-4.5 17v101q-86 11 -155 57.5zM244.5 560.5q-45.5 -36.5 -70 -91t-24.5 -120.5q0 -68 26 -122.5t71.5 -90
t102.5 -47.5v520q-60 -12 -105.5 -48.5z" />
    <glyph glyph-name="uni20B3" unicode="&#x20b3;" horiz-adv-x="716" 
d="M46 203q-12 0 -17 4.5t-5 17.5v28q0 13 5 17.5t17 4.5h95l29 63h-124q-12 0 -17 4.5t-5 17.5v28q0 13 5 17.5t17 4.5h156l115 253q14 30 22 40t18 10t18.5 -10t22.5 -40l114 -253h158q12 0 17 -4.5t5 -17.5v-28q0 -13 -5 -17.5t-17 -4.5h-125l28 -63h97q12 0 17 -4.5
t5 -17.5v-28q0 -13 -5 -17.5t-17 -4.5h-64l80 -173q5 -12 5 -17q0 -13 -21 -13h-49q-16 0 -23.5 5.5t-15.5 22.5l-77 175h-299l-76 -175q-6 -13 -13.5 -19t-16.5 -7.5t-25 -1.5h-29q-21 0 -21 13q0 5 5 17l79 173h-63zM356 548l-61 -138h122zM447 338h-183l-27 -63h237z" />
    <glyph glyph-name="uni20B4" unicode="&#x20b4;" horiz-adv-x="610" 
d="M25 312.5q5 4.5 17 4.5h118q28 20 80 48l29 16h-227q-12 0 -17 4.5t-5 16.5v28q0 13 5 17.5t17 4.5h339q46 39 46 87q0 42 -35.5 62t-96.5 20q-87 0 -168 -55q-8 -7 -17 -7t-16 11l-28 41q-1 1 -4 5.5t-3 8.5q0 3 3 7t8 8q46 34 102.5 53t121.5 19q109 0 172 -42t63 -125
q0 -51 -26 -93h65q12 0 17 -4.5t5 -17.5v-28q0 -12 -5 -16.5t-17 -4.5h-131q-22 -17 -51 -33.5t-56 -30.5h238q12 0 17 -4.5t5 -17.5v-27q0 -13 -5 -17.5t-17 -4.5h-356q-43 -36 -43 -80t37.5 -65.5t105.5 -21.5q62 0 108.5 16t84.5 44q5 3 9 5t7 2q9 0 16 -14l20 -38
q5 -8 5 -14t-5 -10.5t-15 -10.5q-45 -33 -108 -52t-126 -19q-113 0 -177 43.5t-64 132.5q0 42 25 82h-50q-12 0 -17 4.5t-5 17.5v27q0 13 5 17.5z" />
    <glyph glyph-name="uni20B5" unicode="&#x20b5;" horiz-adv-x="675" 
d="M191.5 54q-69.5 50 -107.5 127t-38 166t37.5 166.5t106.5 129t161 64.5v71q0 12 4.5 17t17.5 5h42q13 0 17.5 -5t4.5 -17v-68q56 -4 110.5 -23t91.5 -50q8 -7 8 -17q0 -7 -5 -15l-29 -39q-7 -10 -15 -10t-18 7q-70 44 -143 52v-531q40 3 72.5 18t70.5 41q11 7 18 7
q9 0 14 -8l29 -43q4 -5 4 -12q0 -9 -10 -19q-38 -33 -88.5 -53.5t-109.5 -24.5v-98q0 -12 -4.5 -17t-17.5 -5h-42q-13 0 -17.5 5t-4.5 17v100q-90 12 -159.5 62zM243.5 560q-45.5 -38 -69.5 -93.5t-24 -117.5q0 -58 23.5 -113t68.5 -94.5t109 -53.5v523q-62 -13 -107.5 -51z
" />
    <glyph glyph-name="uni20B6" unicode="&#x20b6;" horiz-adv-x="566" 
d="M39 417q-13 0 -17.5 5t-4.5 18v42q0 12 4.5 17t17.5 5h73v224q0 13 5 17.5t17 4.5h54q12 0 17 -4.5t5 -17.5v-224h132v224q0 13 5 17.5t17 4.5h53q13 0 18 -4.5t5 -17.5v-224h88q12 0 17 -5t5 -17v-42q0 -13 -5 -18t-17 -5h-88v-395q0 -13 -5 -17.5t-18 -4.5h-53
q-12 0 -17 4.5t-5 17.5v395h-132v-395q0 -13 -5 -17.5t-17 -4.5h-54q-12 0 -17 4.5t-5 17.5v395h-73z" />
    </font>
</defs>
</svg>
